<svg width="187" height="240" viewBox="0 0 187 240" fill="none" xmlns="http://www.w3.org/2000/svg">
<path d="M49.1538 0.802246H185.769C186.28 0.90435 186.484 1.15961 186.382 1.56803L185.156 7.69427C185.054 8.20479 184.748 8.46005 184.238 8.46005H181.634L181.174 11.0637H183.012C183.421 11.0637 183.829 11.5742 184.238 12.5953L184.084 13.3611C183.676 15.0968 182.502 15.9647 180.562 15.9647C180.562 15.6584 180.46 15.5052 180.255 15.5052L178.724 22.7036H181.481C181.889 22.8057 182.093 23.0609 182.093 23.4694L178.877 38.9381C178.367 40.8781 177.294 41.8481 175.661 41.8481V42.3076C177.397 42.3076 178.213 42.5628 178.111 43.0733L139.056 238.347C138.954 238.858 138.648 239.113 138.138 239.113H1.52227C1.01175 239.113 0.807547 238.858 0.909651 238.347L48.2349 1.56803C48.4391 1.05751 48.7454 0.802246 49.1538 0.802246ZM65.3884 8.46005L63.5505 17.0368C63.4484 17.5473 63.1931 17.8026 62.7847 17.8026H60.0279C59.9258 18.5173 59.3642 18.8747 58.3432 18.8747L41.1897 104.336C41.0876 104.846 40.8323 105.102 40.4239 105.102H36.2887L28.7841 142.012C28.682 142.829 28.682 143.442 28.7841 143.85L28.0183 146.147L18.8289 191.635C18.7268 192.145 18.4715 192.401 18.0631 192.401H13.9279L10.8648 207.104H15C15.5105 207.206 15.7147 207.461 15.6126 207.869L14.8468 212.005H40.1176C42.6702 209.758 45.2739 208.635 47.9286 208.635C49.9707 208.635 51.8596 209.758 53.5954 212.005H55.8927C56.0969 210.779 56.7095 210.167 57.7306 210.167C58.139 210.371 58.4963 210.473 58.8027 210.473L61.2532 198.067C62.6826 197.25 63.4994 196.281 63.7037 195.157C64.8268 194.341 65.7968 193.932 66.6136 193.932C68.3494 193.932 69.0131 195.055 68.6046 197.302H71.2083L72.1272 192.401H63.091C62.6826 192.401 62.5805 191.277 62.7847 189.031C60.9468 189.031 60.2321 188.163 60.6405 186.427C60.8447 185.406 61.6105 184.539 62.9379 183.824H64.9289C66.052 184.334 66.4094 185.56 66.001 187.5H68.2983L69.0641 183.364C69.2683 182.854 69.5746 182.599 69.9831 182.599H71.8209L72.2804 180.761C72.893 179.74 73.7609 179.229 74.884 179.229L76.1093 173.256H71.5146C71.1062 173.256 70.7999 172.899 70.5957 172.184L70.902 170.959L71.8209 169.887L72.893 164.22C73.0972 163.709 73.4035 163.454 73.812 163.454H77.9472L78.8661 159.319C78.9682 158.808 79.2745 158.553 79.785 158.553H83.9203L85.7581 148.751H76.7219C76.3135 148.751 76.1603 148.496 76.2624 147.985L77.794 139.715C77.9982 139.204 78.3045 138.949 78.7129 138.949H91.8844C92.3949 139.051 92.5991 139.306 92.497 139.715L85.9113 172.49C85.8092 173.001 85.5539 173.256 85.1455 173.256H80.8571L78.1003 187.5H82.2355C82.7461 187.602 82.9503 187.857 82.8482 188.265L80.2445 201.13L81.0103 202.662L79.6319 204.194L77.9472 212.464C78.764 213.893 79.1214 215.374 79.0193 216.906H81.1635C82.695 215.884 84.1755 215.374 85.605 215.374H86.8302L89.4339 215.833C91.476 212.566 94.2838 210.932 97.8575 210.932C102.452 212.056 104.443 214.047 103.831 216.906C106.485 216.906 109.242 216.803 112.101 216.599C113.428 216.803 114.705 216.906 115.93 216.906L116.696 212.77C115.879 212.77 115.266 212.158 114.858 210.932L115.47 207.869C116.287 206.644 117.41 206.031 118.84 206.031H120.678C121.597 206.542 121.954 207.155 121.75 207.869H122.209L124.2 197.761C124.302 197.455 124.251 196.434 124.047 194.698L124.353 193.166L125.272 192.094L126.345 186.887C125.936 186.887 125.17 187.091 124.047 187.5C122.107 187.193 121.29 186.223 121.597 184.59L121.75 183.824C122.056 182.088 123.128 181.22 124.966 181.22H125.579C127.11 181.22 127.774 181.68 127.57 182.599H132.164C131.552 181.68 131.399 180.556 131.705 179.229C131.807 178.412 132.369 177.544 133.39 176.625L134.309 171.418L133.543 171.724H133.237C131.807 171.724 130.99 171.214 130.786 170.193L131.245 168.355C131.348 167.947 131.96 167.436 133.083 166.823H134.462L135.228 167.283L138.903 148.445C136.044 148.138 134.819 146.76 135.228 144.31C135.84 141.246 137.678 139.715 140.741 139.715L144.264 121.642C143.141 121.642 142.63 120.672 142.732 118.732C143.447 116.895 144.366 115.976 145.489 115.976L149.165 97.2906C148.246 95.9633 147.837 94.7891 147.94 93.768L148.093 93.1554C148.501 91.3175 149.318 90.3986 150.543 90.3986L151.309 86.7228C151.513 86.2123 151.819 85.9571 152.228 85.9571H156.363L157.129 82.1282C156.312 81.1071 156.057 79.8819 156.363 78.4524C156.567 77.5335 157.282 76.4103 158.507 75.083L158.967 73.0919H156.21C153.964 73.0919 152.943 71.4583 153.147 68.1909V67.8846C153.759 65.2299 155.853 63.6984 159.426 63.29H160.192L160.805 63.7494L161.877 58.0826L161.57 54.2537L161.877 52.4159C162.081 51.599 162.643 50.7311 163.561 49.8122L164.021 47.9743H162.796C161.162 47.9743 159.988 46.9533 159.273 44.9112L159.886 42.3076C160.805 39.755 162.285 38.4786 164.327 38.4786H165.859L169.075 22.7036C166.318 22.2952 165.195 20.9168 165.706 18.5684L166.012 17.0368C166.42 14.8926 168.054 13.6674 170.913 13.3611V12.9016H160.039C159.733 14.5352 158.405 15.5563 156.057 15.9647H155.75C153.504 15.5563 152.534 14.5352 152.841 12.9016H136.3C134.462 14.9437 132.879 15.9647 131.552 15.9647H129.714C128.795 15.9647 127.876 15.4542 126.957 14.4331L125.426 21.9378C125.323 22.4483 125.068 22.7036 124.66 22.7036H120.525L110.876 70.4883C110.774 70.9988 110.467 71.2541 109.957 71.2541H107.047C106.741 71.2541 106.434 70.1309 106.128 67.8846C105.617 67.8846 105.413 67.6294 105.515 67.1189L105.975 65.281L107.813 63.29L108.119 61.4521H103.218L100.461 75.3893C100.359 75.8998 100.053 76.1551 99.5422 76.1551H96.1728C95.6622 76.1551 95.5601 74.7767 95.8664 72.0198C95.3559 72.0198 95.1517 71.7646 95.2538 71.2541L95.5601 70.182L96.9385 68.6504L101.074 48.2806C100.257 47.0554 99.9506 46.0344 100.155 45.2175C100.155 44.9112 100.818 44.0433 102.146 42.6139L105.975 23.4694C106.077 23.2651 106.026 22.2441 105.822 20.4062L105.975 20.0999C105.975 19.7936 106.434 18.7726 107.353 17.0368L107.813 13.9737C107.711 13.9737 106.945 14.1268 105.515 14.4331C104.698 14.4331 103.677 13.9226 102.452 12.9016H85.4518L81.4698 13.9737H79.6319C77.0793 13.9737 75.9561 12.1358 76.2624 8.46005H65.3884ZM70.5957 12.5953C71.0041 12.5953 71.2083 12.8505 71.2083 13.3611L71.0551 13.6674C70.953 14.1779 70.6467 14.4331 70.1362 14.4331C69.6257 14.4331 69.4215 14.1779 69.5236 13.6674L69.6767 13.3611C69.7788 12.8505 70.0852 12.5953 70.5957 12.5953ZM95.5601 13.3611H96.0196C96.5301 13.3611 96.7343 13.5653 96.6322 13.9737L96.4791 14.7395C96.377 15.25 96.0707 15.5052 95.5601 15.5052H94.7944C94.2838 15.5052 94.0796 15.25 94.1817 14.7395V14.4331C94.2838 14.0247 94.7433 13.6674 95.5601 13.3611ZM145.489 15.9647H145.949C146.357 16.0668 146.561 16.3221 146.561 16.7305L146.408 17.0368C146.306 17.5473 146 17.8026 145.489 17.8026H145.183C144.672 17.8026 144.468 17.5473 144.57 17.0368V16.7305C144.774 16.22 145.081 15.9647 145.489 15.9647ZM84.0734 18.262H84.5329C84.9413 18.262 85.1455 18.4663 85.1455 18.8747L84.9924 19.3341C84.8903 19.8447 84.5839 20.0999 84.0734 20.0999H83.7671C83.2566 20.0999 83.0524 19.8447 83.1545 19.3341V18.8747C83.3587 18.4663 83.665 18.262 84.0734 18.262ZM134.462 20.4062C134.972 20.5083 135.177 20.7636 135.074 21.172L134.921 21.6315C134.819 22.142 134.513 22.3973 134.002 22.3973C133.594 22.3973 133.441 22.142 133.543 21.6315V21.172C133.747 20.6615 134.053 20.4062 134.462 20.4062ZM159.579 21.172C159.886 21.172 160.192 21.5804 160.498 22.3973L160.345 22.7036C160.243 23.112 159.784 23.4694 158.967 23.7757C158.66 23.7757 158.354 23.4183 158.048 22.7036L158.201 22.3973C158.201 21.9888 158.66 21.5804 159.579 21.172ZM73.0462 22.7036H73.3525C73.863 22.8057 74.0672 23.0609 73.9651 23.4694V23.7757C73.863 24.2862 73.5567 24.5414 73.0462 24.5414H72.5867C72.0762 24.5414 71.872 24.2862 71.9741 23.7757L72.1272 23.4694C72.3314 22.9588 72.6378 22.7036 73.0462 22.7036ZM97.7043 23.4694H98.7764C99.2869 23.5715 99.4911 23.8267 99.389 24.2351L99.2359 25.3072C99.1338 25.7156 98.6743 26.1241 97.8575 26.5325H97.5512C97.1427 26.5325 96.7343 26.022 96.3259 25.0009C96.8364 23.9799 97.2959 23.4694 97.7043 23.4694ZM122.516 25.3072H122.975C123.383 25.4093 123.588 25.6646 123.588 26.073L123.435 26.5325H122.362L122.516 25.3072ZM147.48 26.5325H147.94C148.45 26.5325 148.654 26.7367 148.552 27.1451L148.399 27.6046H147.327L147.48 26.5325ZM61.8658 27.6046C62.3763 27.7067 62.5805 27.9619 62.4784 28.3703C62.3763 28.8809 62.07 29.1361 61.5595 29.1361C61.0489 29.1361 60.8447 28.8809 60.9468 28.3703C61.1511 27.8598 61.4574 27.6046 61.8658 27.6046ZM161.877 27.9109H163.408C165.45 27.9109 166.574 29.2893 166.778 32.0461L166.625 32.8119C165.706 36.0792 163.715 37.7129 160.651 37.7129C157.486 37.5087 156.21 35.875 156.823 32.8119L156.976 32.0461C157.384 30.004 159.018 28.6256 161.877 27.9109ZM86.9834 28.3703C87.4939 28.4725 87.6981 28.7277 87.596 29.1361L87.4429 29.4424C87.3408 29.953 87.0344 30.2082 86.5239 30.2082H86.2176C85.7071 30.2082 85.5029 29.953 85.605 29.4424C85.7071 29.1361 86.1666 28.7788 86.9834 28.3703ZM136.912 30.974C137.321 31.0761 137.525 31.3314 137.525 31.7398C137.423 32.2503 137.116 32.5056 136.606 32.5056C136.095 32.5056 135.891 32.2503 135.993 31.7398C136.198 31.2293 136.504 30.974 136.912 30.974ZM75.4967 33.2713H75.803C76.3135 33.3735 76.5177 33.6287 76.4156 34.0371C76.3135 34.5477 76.0072 34.8029 75.4967 34.8029H75.1904C74.6798 34.8029 74.4756 34.5477 74.5777 34.0371C74.6798 33.5266 74.9862 33.2713 75.4967 33.2713ZM100.155 33.5777H101.38C101.686 33.5777 101.942 34.0882 102.146 35.1092C101.533 36.1303 101.074 36.6408 100.767 36.6408H99.5422C99.0317 36.6408 98.8275 36.3855 98.9296 35.875L99.2359 34.3434C99.4401 33.8329 99.7464 33.5777 100.155 33.5777ZM124.966 35.875H126.038V36.1813C125.936 36.6918 125.63 36.9471 125.119 36.9471L124.966 36.1813V35.875ZM150.849 36.1813C151.36 36.2834 151.564 36.5387 151.462 36.9471L151.309 37.7129C151.207 38.2234 150.901 38.4786 150.39 38.4786H150.084C149.573 38.4786 149.369 38.2234 149.471 37.7129V37.4066C149.573 36.9981 150.033 36.5897 150.849 36.1813ZM64.3163 37.7129C64.8268 37.815 65.031 38.0702 64.9289 38.4786V38.9381C64.8268 39.4486 64.5205 39.7039 64.01 39.7039C63.4994 39.7039 63.2952 39.4486 63.3973 38.9381V38.4786C63.6016 37.9681 63.9079 37.7129 64.3163 37.7129ZM89.4339 38.9381C89.8423 38.9381 89.9955 39.1934 89.8934 39.7039L89.7402 40.4697H89.1276C88.6171 40.4697 88.4129 40.2144 88.515 39.7039C88.6171 39.1934 88.9234 38.9381 89.4339 38.9381ZM139.363 41.0823C139.873 41.1844 140.078 41.4397 139.975 41.8481C139.873 42.3586 139.567 42.6139 139.056 42.6139C138.546 42.6139 138.342 42.3586 138.444 41.8481C138.648 41.3376 138.954 41.0823 139.363 41.0823ZM77.4877 43.8391H78.5598L78.4066 44.9112H77.1814L77.4877 43.8391ZM128.182 45.9833H128.642L128.336 47.2086H128.029C127.519 47.2086 127.314 46.9533 127.417 46.4428L128.182 45.9833ZM152.841 46.7491H153.3C153.811 46.8512 154.015 47.1064 153.913 47.5149L153.759 47.9743C153.657 48.4848 153.351 48.7401 152.841 48.7401H152.534C152.024 48.7401 151.819 48.4848 151.922 47.9743V47.5149C152.126 47.0043 152.432 46.7491 152.841 46.7491ZM66.9199 47.9743H67.2262C67.7368 47.9743 67.941 48.2296 67.8389 48.7401L67.6857 49.0464C67.5836 49.5569 67.3284 49.8122 66.9199 49.8122H66.4605C65.95 49.8122 65.7457 49.5569 65.8478 49.0464L66.001 48.7401C66.1031 48.2296 66.4094 47.9743 66.9199 47.9743ZM92.8033 48.2806L93.5691 49.8122L93.4159 50.578C93.3138 50.8843 92.8544 51.2417 92.0375 51.6501H90.9655C90.557 51.6501 90.2507 51.2927 90.0465 50.578L90.1997 49.3527C90.6081 48.638 91.476 48.2806 92.8033 48.2806ZM117.155 50.578L117.308 51.3438V51.6501H116.236V51.3438C116.44 50.8332 116.747 50.578 117.155 50.578ZM141.813 51.6501H142.12C142.63 51.7522 142.834 52.0074 142.732 52.4159C142.63 52.9264 142.324 53.1816 141.813 53.1816H141.507C140.996 53.1816 140.792 52.9264 140.894 52.4159C140.996 51.9053 141.303 51.6501 141.813 51.6501ZM55.7395 52.8753C56.2501 52.8753 56.4543 53.1306 56.3522 53.6411C56.2501 54.0495 55.9437 54.2537 55.4332 54.2537C54.9227 54.2537 54.7185 54.0495 54.8206 53.6411C55.0248 53.1306 55.3311 52.8753 55.7395 52.8753ZM80.704 53.9474C81.2145 54.0495 81.4187 54.3048 81.3166 54.7132C81.2145 55.2237 80.9082 55.479 80.3977 55.479C79.8872 55.479 79.6829 55.2237 79.785 54.7132C79.9892 54.2027 80.2956 53.9474 80.704 53.9474ZM130.633 56.2448C131.143 56.2448 131.348 56.5 131.245 57.0105C131.143 57.5211 130.837 57.7763 130.327 57.7763C129.816 57.7763 129.612 57.5211 129.714 57.0105C129.918 56.5 130.224 56.2448 130.633 56.2448ZM155.444 57.0105H156.057C156.567 57.0105 156.772 57.2658 156.669 57.7763L156.516 58.3889C156.414 58.8995 156.159 59.1547 155.75 59.1547H154.985C154.474 59.1547 154.27 58.8995 154.372 58.3889L154.525 57.7763C154.627 57.2658 154.934 57.0105 155.444 57.0105ZM69.2173 58.3889H69.6767C70.1873 58.491 70.3915 58.7463 70.2894 59.1547L70.1362 59.6142C70.0341 60.1247 69.7278 60.38 69.2173 60.38H68.911C68.4004 60.38 68.1962 60.1247 68.2983 59.6142V59.1547C68.5025 58.6442 68.8089 58.3889 69.2173 58.3889ZM94.0286 58.8484H95.1007C95.5091 58.8484 95.8154 59.3589 96.0196 60.38C95.407 61.401 94.8965 61.9115 94.488 61.9115H93.4159C92.9054 61.9115 92.7012 61.6563 92.8033 61.1458L93.1096 59.6142C93.3138 59.1037 93.6202 58.8484 94.0286 58.8484ZM118.84 61.1458H119.912V61.4521C119.81 61.9626 119.504 62.2179 118.993 62.2179L118.687 61.4521L118.84 61.1458ZM144.264 61.4521H144.723C145.234 61.5542 145.438 61.8094 145.336 62.2179L145.183 62.9836C145.081 63.4942 144.774 63.7494 144.264 63.7494H143.804C143.294 63.7494 143.09 63.4942 143.192 62.9836L143.345 62.2179C143.549 61.7073 143.855 61.4521 144.264 61.4521ZM58.19 62.9836H58.4964C59.0069 63.0857 59.2111 63.341 59.109 63.7494V64.0557C59.0069 64.5662 58.7006 64.8215 58.19 64.8215H57.8837C57.3732 64.8215 57.169 64.5662 57.2711 64.0557V63.7494C57.4753 63.2389 57.7816 62.9836 58.19 62.9836ZM83.1545 64.0557H83.614C84.0224 64.1578 84.2266 64.4131 84.2266 64.8215C84.1245 65.2299 83.665 65.6383 82.8482 66.0468C82.3377 66.0468 82.1334 65.7915 82.2355 65.281V64.8215C82.4397 64.311 82.7461 64.0557 83.1545 64.0557ZM133.237 66.3531C133.645 66.4552 133.849 66.7104 133.849 67.1189L133.696 67.8846H132.93C132.42 67.8846 132.215 67.6294 132.318 67.1189C132.42 66.6083 132.726 66.3531 133.237 66.3531ZM71.8209 68.6504H72.1272C72.6378 68.7525 72.842 69.0078 72.7399 69.4162L72.5867 69.7225C72.4846 70.233 72.2293 70.4883 71.8209 70.4883H71.3615C70.8509 70.4883 70.6467 70.233 70.7488 69.7225L70.902 69.4162C71.0041 68.9057 71.3104 68.6504 71.8209 68.6504ZM122.056 70.9478C122.567 70.9478 122.771 71.152 122.669 71.5604V72.0198C122.567 72.5304 122.26 72.7856 121.75 72.7856H121.29C120.78 72.7856 120.576 72.5304 120.678 72.0198C120.78 71.6114 121.239 71.2541 122.056 70.9478ZM146.714 72.0198H147.174C147.48 72.0198 147.735 72.3772 147.94 73.0919C147.837 73.6025 147.582 73.8577 147.174 73.8577H146.408C145.897 73.8577 145.693 73.6025 145.795 73.0919V72.7856C146 72.2751 146.306 72.0198 146.714 72.0198ZM60.6405 73.5514H60.9468C61.4574 73.6535 61.6616 73.9088 61.5595 74.3172C61.4574 74.8277 61.1511 75.083 60.6405 75.083H60.3342C59.8237 75.083 59.6195 74.8277 59.7216 74.3172C59.9258 73.8067 60.2321 73.5514 60.6405 73.5514ZM85.2987 73.8577H86.5239C87.2386 73.8577 87.4939 74.3682 87.2897 75.3893C86.7792 76.4103 86.3197 76.9208 85.9113 76.9208H84.8392C84.4308 76.9208 84.1245 76.5635 83.9203 75.8487L84.0734 75.083C84.0734 74.6746 84.4818 74.2661 85.2987 73.8577ZM110.263 75.8487H110.569C111.08 75.8487 111.284 76.053 111.182 76.4614V76.9208H109.957L110.263 75.8487ZM135.534 76.9208H136.3L136.147 77.6866C136.044 78.1971 135.738 78.4524 135.228 78.4524C134.717 78.4524 134.513 78.1971 134.615 77.6866C134.819 77.1761 135.125 76.9208 135.534 76.9208ZM49.6133 77.9929C50.0217 78.095 50.1749 78.3503 50.0728 78.7587C49.9707 79.2692 49.7154 79.5245 49.307 79.5245C48.7965 79.5245 48.5922 79.2692 48.6944 78.7587C48.7965 78.2482 49.1028 77.9929 49.6133 77.9929ZM100.308 77.9929C101.737 77.9929 102.452 79.014 102.452 81.0561H107.966C108.476 81.1582 108.681 81.4134 108.578 81.8218L107.966 85.1913C107.864 85.7018 107.557 85.9571 107.047 85.9571H103.218L102.758 88.5607C103.882 88.5607 104.647 89.1733 105.056 90.3986L104.903 91.1644C104.29 93.2064 103.218 94.2275 101.686 94.2275L100.614 99.4348C100.512 99.9453 100.206 100.201 99.6953 100.201H96.3259C95.8154 100.201 95.6112 99.9453 95.7133 99.4348L96.4791 95.2996H92.0375C91.7312 96.6269 91.2207 97.2906 90.506 97.2906H90.0465C89.6381 97.2906 89.4849 97.0353 89.587 96.5248V95.759C89.6892 95.3506 90.1486 94.9422 90.9655 94.5338L91.7312 94.9933L93.4159 86.7228C93.5181 86.2123 93.7733 85.9571 94.1817 85.9571H98.4701L98.7764 84.1192C96.9385 84.1192 96.1728 82.945 96.4791 80.5966C96.7854 79.065 98.0617 78.1971 100.308 77.9929ZM74.5777 79.2182C74.9862 79.2182 75.1904 79.4734 75.1904 79.984C75.0883 80.3924 74.7819 80.5966 74.2714 80.5966C73.7609 80.5966 73.5567 80.3924 73.6588 79.984C73.863 79.4734 74.1693 79.2182 74.5777 79.2182ZM124.66 81.0561C124.966 81.0561 125.221 81.4134 125.426 82.1282C125.426 82.5366 125.017 82.945 124.2 83.3534C123.792 83.3534 123.486 82.945 123.281 82.1282C123.281 81.8218 123.741 81.4645 124.66 81.0561ZM149.165 82.1282H149.931C150.441 82.2303 150.645 82.4855 150.543 82.8939L150.39 83.6597C150.288 84.1702 149.982 84.4255 149.471 84.4255H148.705C148.195 84.4255 147.991 84.1702 148.093 83.6597L148.246 82.8939C148.45 82.3834 148.756 82.1282 149.165 82.1282ZM63.091 83.6597H63.3973C63.9079 83.7618 64.1121 84.0171 64.01 84.4255C63.9079 84.936 63.6016 85.1913 63.091 85.1913H62.7847C62.2742 85.1913 62.07 84.936 62.1721 84.4255C62.3763 83.915 62.6826 83.6597 63.091 83.6597ZM87.9023 84.1192H89.4339C89.8423 84.1192 89.9955 84.3234 89.8934 84.7318L89.587 86.2634C89.587 86.6718 89.1786 87.0802 88.3618 87.4886C87.0344 87.4886 86.3197 87.0802 86.2176 86.2634L86.5239 85.1913C86.626 84.7829 87.0855 84.4255 87.9023 84.1192ZM113.02 85.9571H113.479C113.99 86.0592 114.194 86.3144 114.092 86.7228C113.99 87.2334 113.684 87.4886 113.173 87.4886H112.714C112.203 87.4886 111.999 87.2334 112.101 86.7228C112.305 86.2123 112.612 85.9571 113.02 85.9571ZM138.444 87.0291C138.954 87.1313 139.159 87.3865 139.056 87.7949C138.954 88.3054 138.648 88.5607 138.138 88.5607H137.372L137.525 87.7949C137.729 87.2844 138.035 87.0291 138.444 87.0291ZM52.0638 88.2544H52.3701C52.8806 88.2544 53.0848 88.5097 52.9827 89.0202C52.8806 89.3265 52.4212 89.6838 51.6043 90.0923C51.0938 90.0923 50.8896 89.837 50.9917 89.3265L51.1449 89.0202C51.3491 88.5097 51.6554 88.2544 52.0638 88.2544ZM77.0282 89.3265H77.3345C77.8451 89.4286 78.0493 89.6838 77.9472 90.0923V90.3986C77.8451 90.9091 77.5388 91.1644 77.0282 91.1644H76.5688C76.1604 91.1644 76.0072 90.9091 76.1093 90.3986V90.0923C76.3135 89.5817 76.6198 89.3265 77.0282 89.3265ZM126.957 91.6238H127.417C127.825 91.7259 128.029 91.9812 128.029 92.3896C127.927 92.6959 127.468 93.0533 126.651 93.4617C126.14 93.4617 125.936 93.2064 126.038 92.6959V92.3896C126.242 91.8791 126.549 91.6238 126.957 91.6238ZM65.5415 93.768H66.001C66.4094 93.8701 66.6136 94.1254 66.6136 94.5338L66.4605 94.9933C66.3584 95.5038 66.0521 95.759 65.5415 95.759H65.2352C64.7247 95.759 64.5205 95.5038 64.6226 94.9933V94.5338C64.8268 94.0233 65.1331 93.768 65.5415 93.768ZM115.624 96.0654H115.93C116.44 96.1675 116.645 96.4227 116.543 96.8311L116.389 97.2906C116.287 97.8011 116.032 98.0564 115.624 98.0564H115.164C114.654 98.0564 114.449 97.8011 114.551 97.2906L114.705 96.8311C114.807 96.3206 115.113 96.0654 115.624 96.0654ZM140.282 96.8311H141.354C141.864 96.9332 142.069 97.1885 141.966 97.5969L141.813 98.669C141.711 99.1795 141.405 99.4348 140.894 99.4348H139.669C139.159 99.4348 138.954 99.1795 139.056 98.669L139.363 97.5969C139.567 97.0864 139.873 96.8311 140.282 96.8311ZM54.5143 98.3627H54.8206C55.3311 98.4648 55.5353 98.7201 55.4332 99.1285V99.4348C55.3311 99.9453 55.0248 100.201 54.5143 100.201H54.0548C53.6464 100.201 53.4933 99.9453 53.5954 99.4348V99.1285C53.7996 98.618 54.1059 98.3627 54.5143 98.3627ZM79.4787 99.4348H79.9382C80.3466 99.5369 80.5508 99.7922 80.5508 100.201L80.3977 100.66C80.2956 101.171 79.9893 101.426 79.4787 101.426H79.1724C78.6619 101.426 78.4577 101.171 78.5598 100.66V100.201C78.764 99.69 79.0703 99.4348 79.4787 99.4348ZM104.443 100.966H104.75C105.26 101.068 105.464 101.324 105.362 101.732C105.26 102.243 104.954 102.498 104.443 102.498H104.137C103.626 102.498 103.422 102.243 103.524 101.732C103.728 101.222 104.035 100.966 104.443 100.966ZM129.408 102.192H130.173L130.02 102.804C129.918 103.315 129.612 103.57 129.101 103.57C128.591 103.57 128.387 103.315 128.489 102.804C128.693 102.396 128.999 102.192 129.408 102.192ZM43.3339 103.264C43.8444 103.366 44.0486 103.621 43.9465 104.029C43.8444 104.54 43.5381 104.795 43.0276 104.795C42.5171 104.795 42.3129 104.54 42.415 104.029C42.6192 103.519 42.9255 103.264 43.3339 103.264ZM68.4515 104.029C68.7578 104.029 69.0641 104.387 69.3704 105.102C69.2683 105.51 68.8089 105.918 67.992 106.327C67.5836 106.327 67.2773 105.918 67.0731 105.102C67.1752 104.795 67.6347 104.438 68.4515 104.029ZM93.4159 105.561C93.8244 105.561 94.0286 105.816 94.0286 106.327C93.9265 106.735 93.6202 106.939 93.1096 106.939C92.5991 106.939 92.3949 106.735 92.497 106.327C92.5991 105.816 92.9054 105.561 93.4159 105.561ZM118.38 106.633C118.891 106.735 119.095 106.99 118.993 107.399C118.891 107.909 118.585 108.165 118.074 108.165C117.564 108.165 117.359 107.909 117.461 107.399C117.666 106.888 117.972 106.633 118.38 106.633ZM143.498 106.939C143.906 106.939 144.315 107.45 144.723 108.471C144.621 108.879 144.009 109.39 142.885 110.003C142.477 110.003 142.069 109.492 141.66 108.471C141.762 108.063 142.375 107.552 143.498 106.939ZM56.9648 108.93H57.2711C57.7816 109.033 57.9858 109.288 57.8837 109.696C57.7816 110.207 57.4753 110.462 56.9648 110.462H56.6585C56.148 110.462 55.9438 110.207 56.0459 109.696C56.2501 109.186 56.5564 108.93 56.9648 108.93ZM81.9292 110.003H82.2355C82.7461 110.105 82.9503 110.36 82.8482 110.768V111.228C82.7461 111.636 82.4397 111.84 81.9292 111.84H81.4698C80.9593 111.84 80.755 111.636 80.8571 111.228L81.0103 110.768C81.2145 110.258 81.5208 110.003 81.9292 110.003ZM106.434 111.534H107.506L107.353 112.606H107.047C106.536 112.606 106.332 112.351 106.434 111.84V111.534ZM132.318 112.3C132.726 112.402 132.93 112.657 132.93 113.066C132.828 113.576 132.522 113.831 132.011 113.831H131.245L131.399 113.066C131.603 112.555 131.909 112.3 132.318 112.3ZM45.3249 113.831H45.7844C46.2949 113.934 46.4991 114.189 46.397 114.597L45.4781 114.904H45.1718L45.3249 113.831ZM70.902 114.597C71.3104 114.597 71.5146 114.853 71.5146 115.363L71.3615 115.976H70.5957C70.0852 115.976 69.881 115.771 69.9831 115.363C70.0852 114.853 70.3915 114.597 70.902 114.597ZM95.407 115.976H95.7133C96.2238 116.078 96.428 116.333 96.3259 116.741L95.5601 117.201H95.1007L95.407 115.976ZM120.371 117.201H121.444V117.507C121.341 118.018 121.035 118.273 120.525 118.273H120.218L120.371 117.201ZM34.2977 118.273C34.8082 118.375 35.0124 118.63 34.9103 119.039L34.1445 119.498L34.2977 118.273ZM59.7216 119.498H60.0279L59.8748 120.57H59.4153C58.9048 120.57 58.7006 120.315 58.8027 119.805L59.7216 119.498ZM84.6861 120.57H85.1455L84.8392 121.642H84.5329C84.0224 121.642 83.8182 121.387 83.9203 120.877L84.6861 120.57ZM109.65 121.642H110.11L109.804 122.868H108.732V122.408C108.936 121.898 109.242 121.642 109.65 121.642ZM134.462 122.102H135.228C135.738 122.204 135.942 122.459 135.84 122.868L135.534 123.94C135.432 124.45 135.125 124.706 134.615 124.706H133.849C133.543 124.706 133.288 124.348 133.083 123.633V123.174C133.185 122.868 133.645 122.51 134.462 122.102ZM48.6944 123.94L48.8475 124.706V125.012H47.6223L47.7754 124.706C47.8775 124.195 48.1838 123.94 48.6944 123.94ZM73.6588 125.012L73.812 125.778L73.0462 126.237L72.7399 125.471L73.6588 125.012ZM97.8575 126.237H98.3169C98.7254 126.339 98.8785 126.594 98.7764 127.003V127.309H97.7043L97.8575 126.237ZM122.822 127.769H123.894C123.792 128.279 123.486 128.534 122.975 128.534L122.822 127.769ZM37.2077 128.534H37.514L37.3608 129.607H36.2887V129.147C36.4929 128.739 36.7992 128.534 37.2077 128.534ZM62.1721 129.607C62.6826 129.709 62.8868 129.964 62.7847 130.372C62.6826 130.883 62.3763 131.138 61.8658 131.138C61.3553 131.138 61.1511 130.883 61.2532 130.372C61.4574 129.862 61.7637 129.607 62.1721 129.607ZM87.1366 130.679C87.6471 130.781 87.8513 131.036 87.7492 131.444C87.6471 131.955 87.3407 132.21 86.8302 132.21C86.3197 132.21 86.1155 131.955 86.2176 131.444C86.4218 130.934 86.7281 130.679 87.1366 130.679ZM112.101 131.904C112.612 131.904 112.816 132.159 112.714 132.67C112.612 133.18 112.305 133.435 111.795 133.435C111.386 133.435 111.233 133.18 111.335 132.67C111.437 132.159 111.693 131.904 112.101 131.904ZM137.372 132.21C137.678 132.21 138.035 132.721 138.444 133.742C138.444 134.15 137.882 134.661 136.759 135.273C136.351 135.273 135.942 134.763 135.534 133.742C135.636 133.333 136.249 132.823 137.372 132.21ZM50.2259 134.508H51.4512L51.298 134.814C51.1959 135.324 50.8896 135.58 50.3791 135.58L50.2259 134.814V134.508ZM75.3435 135.58H76.4156L76.2624 136.345H75.1904L75.3435 135.58ZM100.308 136.805H101.38V137.111C101.278 137.622 100.972 137.877 100.461 137.877L100.155 137.111L100.308 136.805ZM125.272 137.877H126.345V138.183C126.242 138.694 125.936 138.949 125.426 138.949L125.119 138.183L125.272 137.877ZM39.9645 138.949L39.8113 140.174C39.3008 140.174 39.0966 139.919 39.1987 139.409L39.9645 138.949ZM64.1631 140.174H65.3884L65.2352 140.481C65.1331 140.991 64.8268 141.246 64.3163 141.246H64.01L64.1631 140.174ZM115.011 142.472L114.705 143.544C114.194 143.544 113.99 143.288 114.092 142.778L115.011 142.472ZM53.1359 144.616C53.6464 144.718 53.8506 144.973 53.7485 145.382L52.9827 145.841L53.1359 144.616ZM103.524 146.913H103.831L103.677 147.985H103.218C102.81 147.985 102.656 147.73 102.758 147.219L103.524 146.913ZM127.876 147.219H129.101C129.408 147.219 129.663 147.628 129.867 148.445L129.714 149.211C129.408 149.925 128.591 150.283 127.263 150.283L126.804 149.211L126.957 147.985C127.161 147.475 127.468 147.219 127.876 147.219ZM42.415 149.211L42.7213 149.976L42.5681 150.283H41.496V149.976C41.7002 149.466 42.0065 149.211 42.415 149.211ZM67.2262 149.976H67.5326C68.0431 149.976 68.2473 150.232 68.1452 150.742L67.992 151.048C67.8899 151.559 67.6347 151.814 67.2262 151.814H66.7668C66.2563 151.814 66.052 151.559 66.1542 151.048L66.3073 150.742C66.4094 150.232 66.7157 149.976 67.2262 149.976ZM91.8844 150.742H92.9565C93.467 150.742 93.6712 150.946 93.5691 151.355L93.4159 152.58C93.2117 153.09 92.497 153.448 91.2718 153.652L90.6591 152.58L90.9655 151.355C91.1697 150.946 91.476 150.742 91.8844 150.742ZM116.696 152.58H117.002C117.513 152.682 117.717 152.937 117.615 153.346V153.652H116.389L116.696 152.58ZM31.0814 153.652C31.4898 153.754 31.694 154.009 31.694 154.418C31.5919 154.928 31.2856 155.184 30.7751 155.184C30.2646 155.184 30.0604 154.928 30.1625 154.418C30.2646 153.907 30.5709 153.652 31.0814 153.652ZM56.0459 154.877C56.5564 154.877 56.7606 155.133 56.6585 155.643C56.5564 156.051 56.2501 156.256 55.7395 156.256C55.229 156.256 55.0248 156.051 55.1269 155.643C55.3311 155.133 55.6374 154.877 56.0459 154.877ZM80.704 155.184H81.4698C81.8782 155.184 82.1845 155.541 82.3887 156.256L82.2355 157.021C82.2355 157.43 81.7761 157.838 80.8571 158.247H80.2445C79.8361 158.247 79.5298 157.838 79.3256 157.021L79.4787 156.256C79.4787 155.949 79.8872 155.592 80.704 155.184ZM105.975 157.021C106.485 157.124 106.689 157.379 106.587 157.787C106.485 158.298 106.179 158.553 105.668 158.553C105.158 158.553 104.954 158.298 105.056 157.787C105.26 157.277 105.566 157.021 105.975 157.021ZM130.786 157.481H131.552C131.858 157.481 132.164 157.838 132.471 158.553L132.318 159.319C132.215 159.727 131.756 160.085 130.939 160.391H130.173C129.765 160.391 129.459 160.034 129.254 159.319L129.408 158.553C129.51 158.247 129.969 157.889 130.786 157.481ZM69.5236 159.013H69.8299C71.5657 159.013 72.2804 159.88 71.9741 161.616C71.2594 162.739 70.6467 163.352 70.1362 163.454H68.1452C67.7368 163.454 67.4305 162.688 67.2262 161.157C67.7368 160.136 68.5025 159.421 69.5236 159.013ZM44.0997 159.778H45.1718V160.391H43.9465L44.0997 159.778ZM94.0286 161.922H95.2538L94.9475 163.148H93.8754L94.0286 161.922ZM119.606 162.688H119.912C120.422 162.79 120.627 163.046 120.525 163.454V163.914C120.422 164.424 120.116 164.679 119.606 164.679C119.197 164.679 118.891 164.271 118.687 163.454C118.789 162.944 119.095 162.688 119.606 162.688ZM33.0724 164.22H33.8382L33.5319 165.292H32.7661L33.0724 164.22ZM58.19 164.986H58.8027C59.3132 165.088 59.5174 165.343 59.4153 165.751V166.058C59.3132 166.568 59.0069 166.823 58.4964 166.823H57.7306C57.22 166.823 57.0158 166.568 57.1179 166.058L57.2711 165.751C57.3732 165.241 57.6795 164.986 58.19 164.986ZM107.966 167.589H109.191L109.038 168.049C108.936 168.559 108.629 168.815 108.119 168.815H107.813L107.966 167.589ZM47.316 169.887L47.6223 170.652L46.7033 170.959L46.5502 170.193L47.316 169.887ZM97.0917 171.724H97.398C97.9085 171.827 98.1127 172.082 98.0106 172.49V172.95C97.9085 173.358 97.6022 173.562 97.0917 173.562H96.6322C96.1217 173.562 95.9175 173.358 96.0196 172.95L96.1728 172.49C96.377 171.98 96.6833 171.724 97.0917 171.724ZM121.444 171.724H123.435C123.843 171.724 124.251 172.235 124.66 173.256L124.507 173.562C124.2 175.4 123.128 176.319 121.29 176.319C120.269 175.809 119.759 175.298 119.759 174.788L120.218 172.95C120.218 172.541 120.627 172.133 121.444 171.724ZM35.9824 174.328H36.595L36.4419 175.094C36.3398 175.604 36.0845 175.86 35.6761 175.86C35.1656 175.86 34.9614 175.604 35.0635 175.094C35.1656 174.583 35.4719 174.328 35.9824 174.328ZM60.9468 175.094H61.4063C61.8147 175.196 62.0189 175.451 62.0189 175.86L61.8658 176.625C61.7637 177.136 61.4574 177.391 60.9468 177.391H60.4874C60.1811 177.391 59.8748 177.034 59.5684 176.319C59.6705 175.911 60.13 175.502 60.9468 175.094ZM85.605 176.319H86.3708C86.6771 176.319 86.9834 176.677 87.2897 177.391C87.1876 177.8 86.7281 178.157 85.9113 178.463H85.1455C84.635 178.463 84.4308 178.259 84.5329 177.851L84.6861 177.085C84.8903 176.574 85.1966 176.319 85.605 176.319ZM111.029 177.391H111.335C111.846 177.493 112.05 177.749 111.948 178.157L111.795 178.463C111.795 178.974 111.539 179.229 111.029 179.229H110.569C110.059 179.229 109.855 178.974 109.957 178.463L110.11 178.157C110.212 177.647 110.518 177.391 111.029 177.391ZM24.802 178.923C25.3125 179.025 25.5167 179.28 25.4146 179.689C25.3125 180.199 25.0062 180.454 24.4957 180.454C23.9852 180.454 23.781 180.199 23.8831 179.689C24.0873 179.178 24.3936 178.923 24.802 178.923ZM49.7664 179.995C50.277 180.097 50.4812 180.352 50.3791 180.761C50.277 181.271 50.0217 181.526 49.6133 181.526C49.1028 181.526 48.8986 181.271 49.0007 180.761C49.1028 180.25 49.358 179.995 49.7664 179.995ZM99.8485 182.292C100.359 182.394 100.563 182.65 100.461 183.058C100.359 183.569 100.053 183.824 99.5422 183.824C99.0317 183.824 98.8275 183.569 98.9296 183.058C99.1338 182.547 99.4401 182.292 99.8485 182.292ZM37.9734 184.896H39.0455L38.8924 186.121H37.6671L37.9734 184.896ZM88.515 186.427H88.8213C89.2297 186.427 89.536 186.785 89.7402 187.5C89.6381 187.908 89.1786 188.316 88.3618 188.725H88.0555C87.545 188.725 87.3408 188.47 87.4429 187.959L87.596 187.193C87.6981 186.683 88.0044 186.427 88.515 186.427ZM113.326 187.959H113.786C114.296 188.061 114.5 188.316 114.398 188.725L114.245 189.031C114.143 189.542 113.837 189.797 113.326 189.797H113.02C112.509 189.797 112.305 189.542 112.407 189.031V188.725C112.612 188.214 112.918 187.959 113.326 187.959ZM27.4057 189.031C27.8141 189.133 27.9672 189.388 27.8651 189.797C27.763 190.307 27.5078 190.563 27.0993 190.563C26.5888 190.563 26.3846 190.307 26.4867 189.797C26.5888 189.286 26.8951 189.031 27.4057 189.031ZM52.0638 189.797H52.8296C53.1359 189.797 53.4422 190.205 53.7485 191.022C53.1359 191.941 52.6254 192.401 52.2169 192.401H51.4512C50.9407 192.401 50.7364 192.145 50.8385 191.635L51.1449 190.563C51.3491 190.052 51.6554 189.797 52.0638 189.797ZM102.299 192.401H102.758C103.167 192.503 103.32 192.758 103.218 193.166V193.626C103.116 194.136 102.81 194.392 102.299 194.392H101.993C101.482 194.392 101.278 194.136 101.38 193.626V193.166C101.584 192.656 101.891 192.401 102.299 192.401ZM15.9189 193.626H16.2253C16.7358 193.728 16.94 193.983 16.8379 194.392V194.698C16.7358 195.208 16.4295 195.464 15.9189 195.464H15.4595C14.949 195.464 14.7447 195.208 14.8468 194.698L15 194.392C15.2042 193.881 15.5105 193.626 15.9189 193.626ZM41.1897 194.698C41.7002 194.8 41.9044 195.055 41.8023 195.464V195.77C41.7002 196.281 41.3939 196.536 40.8834 196.536C40.3729 196.536 40.1687 196.281 40.2708 195.77L40.4239 195.464C40.526 194.953 40.7813 194.698 41.1897 194.698ZM90.8123 196.995H91.2718C91.7823 197.097 91.9865 197.353 91.8844 197.761L91.7312 198.067C91.6291 198.578 91.3228 198.833 90.8123 198.833H90.506C89.9955 198.833 89.7913 198.578 89.8934 198.067V197.761C90.0976 197.251 90.4039 196.995 90.8123 196.995ZM115.93 198.067H116.543C117.053 198.169 117.257 198.425 117.155 198.833V199.293C117.053 199.599 116.594 199.956 115.777 200.365C115.47 200.365 115.164 200.007 114.858 199.293L115.011 198.833C115.113 198.323 115.419 198.067 115.93 198.067ZM29.8562 199.293C30.1625 199.293 30.4688 199.65 30.7751 200.365C30.673 200.875 30.3667 201.13 29.8562 201.13H29.3967C28.8862 201.13 28.682 200.875 28.7841 200.365L28.9372 200.058C29.1414 199.548 29.4477 199.293 29.8562 199.293ZM54.8206 200.058H55.2801C55.5864 200.058 55.8927 200.416 56.199 201.13L56.0459 201.896C55.9438 202.407 55.6374 202.662 55.1269 202.662H54.0548C53.5443 202.662 53.3401 202.407 53.4422 201.896L53.5954 201.13C53.5954 200.722 54.0038 200.365 54.8206 200.058ZM104.75 202.662H105.209C105.617 202.662 105.822 202.917 105.822 203.428L105.668 204.194C105.566 204.602 105.26 204.806 104.75 204.806H104.29C103.984 204.806 103.677 204.449 103.371 203.734C103.473 203.428 103.933 203.07 104.75 202.662ZM18.3694 203.734H18.6758C19.0842 203.734 19.3905 204.091 19.5947 204.806C19.5947 205.215 19.1863 205.623 18.3694 206.031H17.91C17.3995 206.031 17.1953 205.776 17.2974 205.266L17.4505 204.5C17.6547 203.989 17.961 203.734 18.3694 203.734ZM43.7934 204.806C44.0997 204.806 44.406 205.215 44.7123 206.031C44.6102 206.338 44.1507 206.695 43.3339 207.104C42.9255 207.104 42.6192 206.746 42.415 206.031C42.5171 205.623 42.9765 205.215 43.7934 204.806ZM64.3163 207.104L63.3973 212.005H66.4605C67.3794 211.29 68.0431 210.932 68.4515 210.932L68.7578 209.401C66.8178 209.401 66.001 208.635 66.3073 207.104H64.3163ZM93.4159 207.104H94.0286C94.5391 207.206 94.7433 207.461 94.6412 207.869L94.488 208.635C94.3859 209.146 94.1307 209.401 93.7223 209.401H92.9565C92.446 209.401 92.2418 209.146 92.3439 208.635L92.497 207.869C92.5991 207.359 92.9054 207.104 93.4159 207.104ZM32.1535 209.707H32.613C33.1235 209.809 33.3277 210.065 33.2256 210.473L33.0724 210.932C32.9703 211.443 32.664 211.698 32.1535 211.698H31.8472C31.3367 211.698 31.1325 211.443 31.2346 210.932L31.3877 210.473C31.4898 209.962 31.7451 209.707 32.1535 209.707ZM120.525 212.005H121.29L121.444 211.239C120.933 211.341 120.627 211.596 120.525 212.005ZM81.9292 211.698H83.0013C83.5118 211.698 83.7161 211.953 83.614 212.464L83.4608 213.23C83.3587 213.536 82.8992 213.893 82.0824 214.302C81.1635 213.893 80.755 213.536 80.8571 213.23L81.0103 212.464C81.2145 211.953 81.5208 211.698 81.9292 211.698ZM107.353 212.77H107.659C107.966 212.77 108.272 213.128 108.578 213.842C108.476 214.251 108.017 214.659 107.2 215.068H106.894C106.383 215.068 106.179 214.812 106.281 214.302L106.434 213.536C106.536 213.026 106.843 212.77 107.353 212.77Z" fill="white"/>
</svg>
