<svg width="176" height="226" viewBox="0 0 176 226" fill="none" xmlns="http://www.w3.org/2000/svg">
<path d="M45.7575 0.847412H174.409C174.919 0.847412 175.123 1.10268 175.021 1.6132L171.039 21.8298C170.937 22.3403 170.631 22.5956 170.12 22.5956H164.76V23.0551C165.985 23.0551 166.445 23.7698 166.138 25.1992C165.526 26.5266 164.556 27.1903 163.228 27.1903L163.075 27.4966H169.048C169.559 27.5987 169.763 27.8539 169.661 28.2624L168.129 36.5328C168.027 37.0433 167.721 37.2986 167.21 37.2986H161.084L159.246 47.1006H164.147L164.913 42.9653C165.117 42.4548 165.423 42.1996 165.832 42.1996H166.138C166.649 42.3017 166.853 42.5569 166.751 42.9653L135.048 201.482C134.945 201.992 134.282 202.248 133.056 202.248L131.065 211.897C132.393 211.897 133.005 212.152 132.903 212.662L132.138 216.032C132.035 216.542 131.372 216.798 130.147 216.798L129.228 221.392C130.453 221.392 131.014 221.648 130.912 222.158L130.453 224.455C130.351 224.864 130.044 225.068 129.534 225.068H0.882744C0.372223 225.068 0.168021 224.864 0.270125 224.455L0.729578 222.158C0.933786 221.648 1.24011 221.392 1.64853 221.392H9.45949C10.6847 218.329 12.5226 216.798 14.9731 216.798H16.5047C19.3636 217.41 20.5378 218.942 20.0273 221.392H36.5681C37.0786 219.861 38.6102 219.095 41.1628 219.095C41.6733 219.401 42.0307 219.554 42.2349 219.554L42.6944 217.563C42.7965 217.053 43.1028 216.798 43.6133 216.798H47.7485L48.6674 211.897H47.1359C45.1959 211.897 44.3791 210.927 44.6854 208.987L44.9917 207.761C45.4001 205.821 46.6254 204.851 48.6674 204.851H50.0459L50.5053 202.86C50.7095 202.452 51.0159 202.248 51.4243 202.248H55.5595L56.6316 196.887C54.079 196.887 53.0579 195.662 53.5685 193.211C53.8748 191.374 55.3042 190.353 57.8568 190.148L59.2352 183.41C59.4394 182.899 59.7458 182.644 60.1542 182.644H77.9203C78.4308 182.644 78.635 182.899 78.5329 183.41L77.614 187.545H81.7492C82.2597 187.545 82.4639 187.8 82.3618 188.311L81.2897 193.824C82.515 193.824 83.0765 194.079 82.9744 194.59C82.8723 195.1 82.2087 195.356 80.9834 195.356L76.8482 216.032C79.2987 216.236 80.3197 217.512 79.9113 219.861L79.7581 220.626L79.1455 221.392H96.1459C96.7585 218.125 98.4432 216.491 101.2 216.491H102.272C105.131 216.491 106.203 218.125 105.488 221.392H119.426L120.191 217.563C120.396 217.053 120.702 216.798 121.11 216.798H125.246L129.074 197.347H124.939C124.531 197.347 124.327 197.091 124.327 196.581L125.705 189.689C125.194 188.77 125.041 187.647 125.246 186.319L127.237 182.644L127.849 179.581L126.93 180.04H126.164C123.714 180.04 122.744 178.611 123.254 175.752C123.561 174.118 125.194 172.995 128.155 172.382C128.564 172.689 128.87 172.842 129.074 172.842L133.056 153.544H128.768C128.36 153.544 128.207 153.34 128.309 152.931L129.074 148.796H124.939C124.429 148.796 124.224 148.541 124.327 148.03L127.237 133.327C126.113 133.327 125.348 132.664 124.939 131.336L125.246 130.264C125.552 128.529 126.624 127.661 128.462 127.661L132.138 108.822C130.912 107.597 130.453 106.219 130.759 104.687C131.678 102.951 132.597 102.084 133.516 102.084L134.741 95.9574H134.282C134.078 97.2847 133.108 97.9484 131.372 97.9484H130.912C128.972 97.9484 128.207 96.9274 128.615 94.8853C128.717 93.9663 129.534 92.8432 131.065 91.5158L134.129 76.0471H129.993C129.483 76.0471 129.279 75.7918 129.381 75.2813L131.831 63.3351L131.525 59.5062V59.1999L133.363 55.371L134.129 52.0016L133.21 52.3079H132.138C129.891 52.3079 128.921 51.44 129.228 49.7042C130.044 47.3558 130.657 45.1095 131.065 42.9653V42.5059H129.228C126.981 42.1996 126.062 41.0764 126.471 39.1364L126.777 38.0644C127.185 35.8181 128.768 34.6949 131.525 34.6949C131.933 34.8991 132.291 35.0012 132.597 35.0012L135.048 22.5956H130.912C130.402 22.5956 130.198 22.3403 130.3 21.8298L131.219 17.6946H127.849C127.543 19.0219 126.828 19.8898 125.705 20.2982H123.867C122.948 19.8898 122.642 19.0219 122.948 17.6946H102.272C101.353 17.6946 100.689 17.8477 100.281 18.1541L97.9837 17.6946H72.8661L71.9472 21.8298C71.8451 22.3403 71.5898 22.5956 71.1814 22.5956H67.3525L65.9741 29.7939C67.1993 29.7939 67.7609 30.0492 67.6588 30.5597L67.5057 30.866C67.4036 31.3765 66.7399 31.6318 65.5146 31.6318L61.6857 51.2358C61.5836 51.7463 61.2773 52.0016 60.7668 52.0016H56.6316L50.9648 80.1823C50.8627 80.6928 50.5564 80.9481 50.0459 80.9481H45.9106L38.2528 118.931C38.1507 119.441 37.8444 119.697 37.3339 119.697H33.1987L30.1356 135.165L31.0545 134.859C31.3608 134.859 31.6161 135.216 31.8203 135.931L31.6671 136.697C31.565 137.207 30.9013 137.463 29.6761 137.463L26.613 152.931C26.5109 153.34 26.2046 153.544 25.694 153.544H21.5588L16.9641 176.977C16.862 177.487 16.5557 177.743 16.0452 177.743H11.91L9.91895 187.545H14.0542C14.5647 187.545 14.7689 187.8 14.6668 188.311L12.0631 201.482C11.961 201.89 11.0932 202.248 9.45949 202.554L7.31531 202.248H7.009L6.09005 206.383C5.98794 206.791 5.68164 206.996 5.17112 206.996H4.5585C4.04798 206.996 3.84376 206.791 3.94586 206.383L44.8385 1.6132C45.0428 1.10268 45.3491 0.847412 45.7575 0.847412ZM88.9475 20.2982H89.5601C90.0707 20.4003 90.2749 20.6556 90.1728 21.064L90.0196 21.8298C89.9175 22.3403 89.6112 22.5956 89.1007 22.5956H88.488C87.9775 22.5956 87.7733 22.3403 87.8754 21.8298L88.0286 21.064C88.1307 20.5535 88.437 20.2982 88.9475 20.2982ZM113.912 21.5235H114.678C115.086 21.6256 115.29 21.8809 115.29 22.2893L115.137 23.0551C115.035 23.5656 114.729 23.8208 114.218 23.8208H113.453C112.942 23.8208 112.738 23.5656 112.84 23.0551L112.993 22.2893C113.197 21.7788 113.504 21.5235 113.912 21.5235ZM77.7671 24.8929H78.2266C78.5329 24.8929 78.8392 25.2503 79.1455 25.965L78.9924 26.4245C78.8903 26.935 78.584 27.1903 78.0734 27.1903H77.3076C76.7971 27.1903 76.5929 26.935 76.695 26.4245L76.8482 25.6587C77.0524 25.1482 77.3587 24.8929 77.7671 24.8929ZM102.732 26.4245H103.038C103.548 26.5266 103.753 26.7819 103.65 27.1903V27.4966C103.548 28.0071 103.242 28.2624 102.732 28.2624H102.272C101.864 28.2624 101.711 28.0071 101.813 27.4966V27.1903C102.017 26.6797 102.323 26.4245 102.732 26.4245ZM127.237 26.4245H129.074C129.483 26.4245 129.789 26.7819 129.993 27.4966L129.534 29.3344C129.125 30.1513 128.309 30.5597 127.083 30.5597H126.777C126.369 30.5597 125.96 30.0492 125.552 29.0281V28.7218C126.062 27.1903 126.624 26.4245 127.237 26.4245ZM91.2449 30.866H92.0106C92.5211 30.9681 92.7254 31.2234 92.6233 31.6318V32.0913C92.5212 32.6018 92.2148 32.857 91.7043 32.857H90.9385C90.428 32.857 90.2238 32.6018 90.3259 32.0913V31.6318C90.5301 31.1213 90.8364 30.866 91.2449 30.866ZM116.669 31.6318C117.077 31.6318 117.383 32.0402 117.588 32.857V33.1634C117.486 33.6739 117.179 33.9291 116.669 33.9291H115.903C115.392 33.9291 115.188 33.6739 115.29 33.1634L115.444 32.857C115.444 32.4486 115.852 32.0402 116.669 31.6318ZM80.2176 35.4607H80.9834C81.4939 35.5628 81.6981 35.8181 81.596 36.2265L81.4429 36.5328C81.4429 36.9412 80.9834 37.3496 80.0645 37.758H79.7581C79.2476 37.758 79.0434 37.5028 79.1455 36.9923L79.2987 36.2265C79.5029 35.716 79.8092 35.4607 80.2176 35.4607ZM105.182 36.5328H105.948C106.458 36.6349 106.663 36.8902 106.56 37.2986V37.758C106.458 38.1665 106.152 38.3707 105.642 38.3707H104.876C104.365 38.3707 104.161 38.1665 104.263 37.758V37.2986C104.467 36.788 104.774 36.5328 105.182 36.5328ZM69.1904 39.9022H69.4967C70.0072 40.0043 70.2114 40.2596 70.1093 40.668V41.1275C70.0072 41.638 69.7009 41.8933 69.1904 41.8933H68.7309C68.2204 41.8933 68.0162 41.638 68.1183 41.1275L68.2714 40.668C68.4757 40.1575 68.782 39.9022 69.1904 39.9022ZM94.1548 41.1275H94.4611C94.9716 41.1275 95.1759 41.3827 95.0738 41.8933L94.9206 42.5059C94.8185 43.0164 94.5122 43.2717 94.0017 43.2717H93.6954C93.1848 43.2717 92.9806 43.0164 93.0827 42.5059L93.2359 41.8933C93.4401 41.3827 93.7464 41.1275 94.1548 41.1275ZM118.813 41.8933H119.885C120.396 41.8933 120.6 42.0975 120.498 42.5059L120.345 43.7311C120.242 44.0374 119.783 44.3948 118.966 44.8032H118.66C118.251 44.8032 117.945 44.4459 117.741 43.7311L117.894 42.5059C118.098 42.0975 118.405 41.8933 118.813 41.8933ZM82.6681 45.569H83.4339C83.9444 45.6711 84.1486 45.9264 84.0465 46.3348L83.8934 47.1006C83.7912 47.6111 83.4849 47.8663 82.9744 47.8663H82.2086C81.6981 47.8663 81.4939 47.6111 81.596 47.1006L81.7492 46.3348C81.9534 45.8243 82.2597 45.569 82.6681 45.569ZM108.092 46.7942C108.398 46.7942 108.705 47.1516 109.011 47.8663L108.858 48.1727C108.756 48.6832 108.449 48.9384 107.939 48.9384H107.173C106.765 48.9384 106.612 48.6832 106.714 48.1727V47.8663C106.816 47.4579 107.275 47.1006 108.092 46.7942ZM71.4877 50.47H71.9472C72.4577 50.5721 72.6619 50.8274 72.5598 51.2358L72.4067 51.5421C72.3045 52.0526 71.9982 52.3079 71.4877 52.3079H71.1814C70.6709 52.3079 70.4667 52.0526 70.5688 51.5421L70.7219 51.2358C70.824 50.7253 71.0793 50.47 71.4877 50.47ZM96.6053 51.5421H96.9116C97.4222 51.6442 97.6264 51.8995 97.5243 52.3079V52.7673C97.4222 53.2779 97.1158 53.5331 96.6053 53.5331H96.1459C95.6353 53.5331 95.4311 53.2779 95.5332 52.7673L95.6864 52.3079C95.7885 51.7973 96.0948 51.5421 96.6053 51.5421ZM121.263 52.3079H122.336C122.846 52.41 123.05 52.6652 122.948 53.0737L122.795 54.2989C122.693 54.8094 122.387 55.0647 121.876 55.0647H121.11C120.702 55.0647 120.396 54.6563 120.191 53.8394L120.345 53.0737C120.549 52.5631 120.855 52.3079 121.263 52.3079ZM60.4605 55.0647H60.92C61.3284 55.0647 61.5326 55.2689 61.5326 55.6773L61.3794 56.1368C61.2773 56.6473 60.971 56.9026 60.4605 56.9026H60.1542C59.6436 56.9026 59.4394 56.6473 59.5415 56.1368V55.6773C59.7458 55.2689 60.0521 55.0647 60.4605 55.0647ZM85.4249 56.1368H85.8844C86.3949 56.2389 86.5991 56.4941 86.497 56.9026L86.3439 57.2089C86.2418 57.7194 85.9354 57.9746 85.4249 57.9746H85.1186C84.6081 57.9746 84.4039 57.7194 84.506 57.2089V56.9026C84.7102 56.392 85.0165 56.1368 85.4249 56.1368ZM110.543 57.2089H110.849C111.359 57.311 111.564 57.5662 111.461 57.9746L111.308 58.4341C111.206 58.9446 110.951 59.1999 110.543 59.1999H110.083C109.573 59.1999 109.368 58.9446 109.47 58.4341L109.624 57.9746C109.726 57.4641 110.032 57.2089 110.543 57.2089ZM74.3977 60.5783C74.9082 60.6804 75.1124 60.9357 75.0103 61.3441V61.8035C74.9082 62.3141 74.6019 62.5693 74.0914 62.5693H73.6319C73.1214 62.5693 72.9172 62.3141 73.0193 61.8035C73.1214 61.3951 73.5808 60.9867 74.3977 60.5783ZM124.327 61.0378H125.858C126.981 61.6504 127.441 62.6714 127.237 64.1009C126.828 66.0409 125.348 67.0109 122.795 67.0109C121.366 66.5003 120.804 65.5303 121.11 64.1009L121.263 63.6414C121.57 61.9057 122.591 61.0378 124.327 61.0378ZM99.0558 61.8035H99.3621C99.8727 61.9057 100.077 62.1609 99.9748 62.5693V62.8756C99.8727 63.3862 99.5663 63.6414 99.0558 63.6414H98.5964C98.0858 63.6414 97.8816 63.3862 97.9837 62.8756L98.1369 62.5693C98.3411 62.0588 98.6474 61.8035 99.0558 61.8035ZM62.911 65.173H63.3704C63.881 65.2751 64.0852 65.5304 63.9831 65.9388L63.8299 66.2451C63.7278 66.7556 63.4215 67.0109 62.911 67.0109H62.6047C62.0941 67.0109 61.8899 66.7556 61.992 66.2451L62.1452 65.9388C62.2473 65.4282 62.5026 65.173 62.911 65.173ZM150.516 66.2451L148.525 76.0471H149.291L148.985 75.2813C149.291 74.056 150.363 73.1882 152.201 72.6776L153.886 73.4434C154.192 71.9119 154.6 71.1461 155.111 71.1461H159.246L160.165 66.2451H150.516ZM88.0286 66.2451H88.3349C88.8454 66.3472 89.0496 66.6024 88.9475 67.0109V67.4703C88.8454 67.9808 88.5391 68.2361 88.0286 68.2361H87.5691C87.0586 68.2361 86.8544 67.9808 86.9565 67.4703L87.1096 67.0109C87.2117 66.5003 87.5181 66.2451 88.0286 66.2451ZM112.993 67.4703H113.299C113.708 67.4703 114.014 67.8277 114.218 68.5424C114.116 68.9508 113.657 69.3082 112.84 69.6145H112.534C112.125 69.6145 111.819 69.2571 111.615 68.5424C111.717 68.2361 112.176 67.8787 112.993 67.4703ZM76.8482 70.8398C77.2566 70.8398 77.5629 71.1971 77.7671 71.9119C77.7671 72.3203 77.3077 72.7287 76.3887 73.1371C76.0824 73.1371 75.8271 72.7287 75.6229 71.9119C75.6229 71.6055 76.0313 71.2482 76.8482 70.8398ZM101.966 71.9119C102.272 71.9119 102.527 72.3203 102.732 73.1371V73.4434C102.629 73.9539 102.323 74.2092 101.813 74.2092H101.047C100.536 74.2092 100.332 73.9539 100.434 73.4434L100.587 73.1371C100.587 72.7287 101.047 72.3203 101.966 71.9119ZM126.318 71.9119H127.849C128.258 71.9119 128.666 72.4224 129.074 73.4434L128.768 74.975C128.666 75.3834 128.053 75.8939 126.93 76.5065H125.399C125.092 76.5065 124.735 75.996 124.327 74.975L124.48 73.4434C124.582 73.035 125.194 72.5245 126.318 71.9119ZM65.3615 75.7408H65.8209C66.2294 75.8429 66.4336 76.0981 66.4336 76.5065L66.2804 76.8128C66.1783 77.3234 65.872 77.5786 65.3615 77.5786H65.0552C64.5446 77.5786 64.3404 77.3234 64.4425 76.8128V76.5065C64.6468 75.996 64.9531 75.7408 65.3615 75.7408ZM90.3259 76.8128H90.7854C91.2959 76.915 91.5001 77.1702 91.398 77.5786L91.2449 77.8849C91.1428 78.3955 90.8364 78.6507 90.3259 78.6507H90.0196C89.5091 78.6507 89.3049 78.3955 89.407 77.8849V77.5786C89.6112 77.0681 89.9175 76.8128 90.3259 76.8128ZM115.444 77.8849H115.75C116.26 77.987 116.465 78.2423 116.362 78.6507L116.209 79.1102C116.107 79.6207 115.852 79.876 115.444 79.876H114.984C114.474 79.876 114.269 79.6207 114.371 79.1102L114.525 78.6507C114.627 78.1402 114.933 77.8849 115.444 77.8849ZM54.3342 80.1823H54.6405C55.1511 80.2844 55.3553 80.5397 55.2532 80.9481V81.4075C55.1511 81.9181 54.8447 82.1733 54.3342 82.1733H53.8748C53.4664 82.1733 53.3132 81.9181 53.4153 81.4075V80.9481C53.6195 80.4375 53.9258 80.1823 54.3342 80.1823ZM79.2987 81.4075H79.7581C80.1666 81.4075 80.3197 81.6628 80.2176 82.1733V82.4796C80.1155 82.9901 79.8092 83.2454 79.2987 83.2454H78.9924C78.4818 83.2454 78.2776 82.9901 78.3797 82.4796V82.1733C78.5839 81.6628 78.8903 81.4075 79.2987 81.4075ZM104.263 82.4796H104.723C105.131 82.5817 105.335 82.837 105.335 83.2454L105.182 83.5517C105.08 84.0622 104.774 84.3175 104.263 84.3175H103.957C103.446 84.3175 103.242 84.0622 103.344 83.5517V83.2454C103.548 82.7349 103.855 82.4796 104.263 82.4796ZM128.921 83.2454H130.147C130.657 83.3475 130.861 83.6028 130.759 84.0112L130.453 85.0833C130.351 85.5938 130.044 85.8491 129.534 85.8491H128.462C128.156 85.8491 127.849 85.4917 127.543 84.777L127.696 84.3175C127.696 84.0112 128.104 83.6538 128.921 83.2454ZM67.812 85.8491H68.2714C68.5778 85.8491 68.8841 86.2064 69.1904 86.9212C69.0883 87.3296 68.6288 87.738 67.812 88.1464C67.4036 88.1464 67.0972 87.738 66.893 86.9212V86.6148C67.0972 86.1043 67.4036 85.8491 67.812 85.8491ZM92.9296 86.9212H93.2359C93.6443 86.9212 93.9506 87.3296 94.1548 88.1464C94.0527 88.6569 93.7464 88.9122 93.2359 88.9122H92.4701C91.9596 88.9122 91.7554 88.6569 91.8575 88.1464L92.0106 87.6869C92.1127 87.1764 92.4191 86.9212 92.9296 86.9212ZM117.588 87.6869H118.66C119.068 87.6869 119.375 88.0953 119.579 88.9122L119.426 89.678C119.017 90.3927 118.2 90.7501 116.975 90.7501L116.362 89.678L116.669 88.4527C116.873 87.9422 117.179 87.6869 117.588 87.6869ZM56.7847 90.4437H57.2442C57.6526 90.4437 57.8568 90.699 57.8568 91.2095L57.7037 91.5158C57.6016 92.0264 57.2952 92.2816 56.7847 92.2816H56.4784C55.9679 92.2816 55.7637 92.0264 55.8658 91.5158V91.2095C56.07 90.699 56.3763 90.4437 56.7847 90.4437ZM81.7492 91.5158H82.2086C82.7192 91.6179 82.9234 91.8732 82.8213 92.2816L82.6681 92.5879C82.566 93.0985 82.2597 93.3537 81.7492 93.3537H81.4429C80.9323 93.3537 80.7281 93.0985 80.8302 92.5879V92.2816C81.0344 91.7711 81.3408 91.5158 81.7492 91.5158ZM106.714 92.5879H107.173C107.684 92.69 107.888 92.9453 107.786 93.3537L107.633 93.8132C107.53 94.3237 107.224 94.579 106.714 94.579H106.407C105.897 94.579 105.693 94.3237 105.795 93.8132L105.948 93.3537C106.05 92.8432 106.305 92.5879 106.714 92.5879ZM45.7575 94.8853C46.0638 94.8853 46.3701 95.2426 46.6764 95.9574L46.5233 96.4168C46.4212 96.9274 46.1149 97.1826 45.6043 97.1826H45.298C44.8896 97.1826 44.5833 96.7742 44.3791 95.9574C44.4812 95.651 44.9407 95.2937 45.7575 94.8853ZM70.4156 95.9574H71.1814C71.5898 96.0595 71.743 96.3147 71.6409 96.7231L71.4877 97.4889C71.3856 97.9994 71.1304 98.2547 70.7219 98.2547H69.9562C69.4456 98.2547 69.2414 97.9994 69.3435 97.4889L69.4967 96.7231C69.5988 96.2126 69.9051 95.9574 70.4156 95.9574ZM95.3801 97.1826H96.1459C96.5543 97.2847 96.7585 97.54 96.7585 97.9484L96.6053 98.7142C96.5032 99.2247 96.1969 99.48 95.6864 99.48H94.9206C94.4101 99.48 94.2059 99.2247 94.308 98.7142L94.4611 97.9484C94.6653 97.4379 94.9717 97.1826 95.3801 97.1826ZM120.345 98.2547H121.11C121.621 98.3568 121.825 98.6121 121.723 99.0205L121.57 99.7863C121.468 100.297 121.161 100.552 120.651 100.552H119.885C119.375 100.552 119.17 100.297 119.272 99.7863L119.426 99.0205C119.63 98.51 119.936 98.2547 120.345 98.2547ZM59.2352 100.858H59.5415C60.0521 100.96 60.2563 101.216 60.1542 101.624V102.084C60.0521 102.594 59.7457 102.849 59.2352 102.849H58.7758C58.2652 102.849 58.061 102.594 58.1631 102.084L58.3163 101.624C58.5205 101.114 58.8268 100.858 59.2352 100.858ZM84.3528 101.624H84.6591C85.0676 101.624 85.3739 102.033 85.5781 102.849L85.4249 103.156C85.3228 103.666 85.0165 103.921 84.506 103.921H83.8934C83.3828 103.921 83.1786 103.666 83.2807 103.156L83.4339 102.39C83.536 101.879 83.8423 101.624 84.3528 101.624ZM109.164 103.156H109.624C110.032 103.258 110.236 103.513 110.236 103.921L110.083 104.381C109.981 104.789 109.675 104.994 109.164 104.994H108.858C108.347 104.994 108.143 104.789 108.245 104.381V103.921C108.449 103.411 108.756 103.156 109.164 103.156ZM47.7485 105.453H48.5143C49.0248 105.555 49.229 105.81 49.1269 106.219L48.9738 106.525C48.9738 107.036 48.7185 107.291 48.208 107.291H47.4422C46.9317 107.291 46.7275 107.036 46.8296 106.525V106.219C47.0338 105.708 47.3401 105.453 47.7485 105.453ZM73.1724 106.219H73.6319C74.0403 106.321 74.2445 106.576 74.2445 106.985L73.9382 108.057C73.8361 108.567 73.5298 108.822 73.0193 108.822H72.713C72.3045 108.822 71.9982 108.465 71.794 107.75V107.291C71.8961 106.985 72.3556 106.627 73.1724 106.219ZM98.1369 107.75H98.4432C98.9537 107.75 99.1579 108.006 99.0558 108.516V108.822C98.9537 109.333 98.6474 109.588 98.1369 109.588H97.8306C97.3201 109.588 97.1158 109.333 97.218 108.822V108.516C97.4222 108.006 97.7285 107.75 98.1369 107.75ZM122.795 108.516H123.561C123.969 108.516 124.276 108.874 124.48 109.588L124.327 109.895C124.327 110.303 123.918 110.711 123.101 111.12H122.336C121.825 111.12 121.621 110.865 121.723 110.354L121.876 109.129C122.08 108.72 122.387 108.516 122.795 108.516ZM61.6857 111.12H62.1452C62.5536 111.222 62.7068 111.477 62.6047 111.886V112.192C62.5026 112.702 62.1962 112.958 61.6857 112.958H61.3794C60.8689 112.958 60.6647 112.702 60.7668 112.192V111.886C60.971 111.375 61.2773 111.12 61.6857 111.12ZM87.1096 111.886C87.5181 111.886 87.8244 112.243 88.0286 112.958L87.8754 113.723C87.7733 114.234 87.467 114.489 86.9565 114.489H86.1907C85.6802 114.489 85.476 114.234 85.5781 113.723L85.7312 112.958C85.8333 112.651 86.2928 112.294 87.1096 111.886ZM111.615 113.417H112.074C112.38 113.417 112.687 113.775 112.993 114.489C112.891 115 112.585 115.255 112.074 115.255H111.308C110.798 115.255 110.594 115 110.696 114.489L110.849 114.03C110.951 113.621 111.206 113.417 111.615 113.417ZM50.6585 115.561H50.9648C51.4753 115.663 51.6795 115.919 51.5774 116.327L51.4243 117.093C51.3222 117.603 51.0158 117.859 50.5053 117.859H50.199C49.6885 117.859 49.4843 117.603 49.5864 117.093L49.7395 116.327C49.9437 115.817 50.2501 115.561 50.6585 115.561ZM124.939 116.327H127.696C129.228 117.144 129.789 118.522 129.381 120.462C128.155 122.709 126.675 123.832 124.939 123.832H124.633C122.08 123.832 121.11 122.351 121.723 119.39C122.54 117.961 123.612 116.94 124.939 116.327ZM75.3166 116.787H76.3887C76.8992 116.787 77.1034 117.042 77.0013 117.552L76.8482 118.165C76.7461 118.676 76.4398 118.931 75.9292 118.931H74.8571C74.3466 118.931 74.1424 118.676 74.2445 118.165L74.3977 117.552C74.4998 117.042 74.8061 116.787 75.3166 116.787ZM100.587 117.859H101.047C101.455 117.961 101.659 118.216 101.659 118.624L101.506 119.39C101.404 119.901 101.098 120.156 100.587 120.156H100.128C99.6174 120.156 99.4132 119.901 99.5153 119.39L99.6684 118.624C99.8727 118.114 100.179 117.859 100.587 117.859ZM39.6312 120.156C39.9376 120.156 40.1928 120.513 40.397 121.228V121.688C40.2949 122.096 39.9886 122.3 39.4781 122.3H38.7123C38.2018 122.3 37.9976 122.096 38.0997 121.688L38.2528 121.228C38.2528 120.922 38.7123 120.564 39.6312 120.156ZM64.5957 121.228C64.902 121.228 65.2083 121.585 65.5146 122.3L65.3615 122.76C65.2594 123.27 64.9531 123.525 64.4425 123.525H64.1362C63.7278 123.525 63.4215 123.117 63.2173 122.3C63.3194 121.994 63.7789 121.637 64.5957 121.228ZM89.5601 122.3C89.8664 122.3 90.1728 122.709 90.4791 123.525L90.3259 123.832C90.2238 124.342 89.9175 124.598 89.407 124.598H89.1007C88.6923 124.598 88.3859 124.24 88.1817 123.525C88.2838 123.117 88.7433 122.709 89.5601 122.3ZM114.218 123.525H114.984C115.392 123.628 115.597 123.883 115.597 124.291L115.444 125.057C115.341 125.568 115.035 125.823 114.525 125.823H113.759C113.248 125.823 113.044 125.568 113.146 125.057L113.299 124.291C113.504 123.781 113.81 123.525 114.218 123.525ZM143.624 124.598L142.705 129.499H147.606L148.219 126.589C148.219 126.282 147.453 125.619 145.922 124.598H143.624ZM76.695 124.598H84.9654C85.476 124.7 85.6802 124.955 85.5781 125.363L80.9834 148.03C80.8813 148.541 80.575 148.796 80.0645 148.796H76.695C76.1845 148.796 75.9803 148.541 76.0824 148.03L77.0013 143.895H72.8661C72.3556 143.895 72.1514 143.64 72.2535 143.129L75.7761 125.363C75.9803 124.853 76.2866 124.598 76.695 124.598ZM53.109 126.129H53.4153C53.9258 126.231 54.13 126.486 54.0279 126.895L53.8748 127.201C53.7727 127.712 53.5174 127.967 53.109 127.967H52.6495C52.139 127.967 51.9348 127.712 52.0369 127.201L52.19 126.895C52.2921 126.384 52.5985 126.129 53.109 126.129ZM103.038 127.967H103.497C103.804 127.967 104.11 128.375 104.416 129.192L104.263 129.499C104.161 130.009 103.855 130.264 103.344 130.264H102.578C102.17 130.264 102.017 130.009 102.119 129.499L102.272 128.733C102.374 128.222 102.629 127.967 103.038 127.967ZM41.6223 130.724H42.388C42.8986 130.724 43.1028 130.928 43.0007 131.336L42.8475 131.796C42.7454 132.306 42.4391 132.562 41.9286 132.562H41.1628C40.6523 132.562 40.4481 132.306 40.5502 131.796L40.7033 131.336C40.9075 130.928 41.2138 130.724 41.6223 130.724ZM66.7399 131.336H67.812C68.3225 131.439 68.5267 131.694 68.4246 132.102L68.1183 133.327C68.0162 133.838 67.7099 134.093 67.1993 134.093H66.1273C65.6167 134.093 65.4125 133.838 65.5146 133.327L65.8209 132.102C65.9231 131.592 66.2294 131.336 66.7399 131.336ZM92.0106 132.868H92.317C92.8275 132.97 93.0317 133.225 92.9296 133.634V134.093C92.8275 134.604 92.5211 134.859 92.0106 134.859H91.5512C91.0407 134.859 90.8364 134.604 90.9385 134.093L91.0917 133.634C91.2959 133.123 91.6022 132.868 92.0106 132.868ZM116.516 134.093H117.281C117.792 134.093 117.996 134.348 117.894 134.859V135.165C117.792 135.676 117.486 135.931 116.975 135.931H116.209C115.699 135.931 115.495 135.676 115.597 135.165V134.859C115.801 134.348 116.107 134.093 116.516 134.093ZM55.5595 136.237H55.8658C56.2742 136.237 56.5805 136.646 56.7847 137.463C56.6826 137.973 56.3763 138.228 55.8658 138.228H55.1C54.5895 138.228 54.3853 137.973 54.4874 137.463L54.6405 137.003C54.8447 136.493 55.1511 136.237 55.5595 136.237ZM105.642 138.228H105.948C106.356 138.228 106.663 138.586 106.867 139.301L106.714 140.066C106.612 140.577 106.305 140.832 105.795 140.832H105.029C104.723 140.832 104.416 140.475 104.11 139.76C104.723 138.739 105.233 138.228 105.642 138.228ZM44.5322 140.832H44.8385C45.1449 140.832 45.4512 141.189 45.7575 141.904C45.6554 142.313 45.1959 142.721 44.3791 143.129H44.0728C43.6643 143.129 43.358 142.721 43.1538 141.904C43.1538 141.598 43.6133 141.241 44.5322 140.832ZM69.0372 141.904H70.2625C70.6709 142.006 70.8751 142.262 70.8751 142.67L70.7219 143.436C70.6198 143.946 70.3135 144.202 69.803 144.202H68.5778C68.0672 144.202 67.863 143.946 67.9651 143.436L68.1183 142.67C68.3225 142.159 68.6288 141.904 69.0372 141.904ZM94.4611 143.129H94.7675C95.278 143.129 95.4822 143.385 95.3801 143.895L95.2269 144.508C95.1248 145.018 94.8185 145.274 94.308 145.274H94.0017C93.4912 145.274 93.2869 145.018 93.3891 144.508L93.5422 143.895C93.7464 143.385 94.0527 143.129 94.4611 143.129ZM119.272 143.436H120.345C120.855 143.538 121.212 144.15 121.417 145.274C120.702 146.499 120.089 147.163 119.579 147.265H118.507C117.996 147.163 117.588 146.499 117.281 145.274C117.996 144.15 118.66 143.538 119.272 143.436ZM43.9196 143.895H46.8296C47.3401 143.895 47.5443 144.099 47.4422 144.508L46.8296 148.03C46.7275 148.541 46.4212 148.796 45.9106 148.796H42.8475C42.337 148.796 42.1328 148.541 42.2349 148.03L43.0007 144.508C43.1028 144.099 43.4091 143.895 43.9196 143.895ZM33.0455 144.967H33.8113C34.2197 144.967 34.526 145.325 34.7302 146.039L34.5771 146.805C34.475 147.214 34.0155 147.622 33.1987 148.03H32.4329C32.1266 148.03 31.8203 147.622 31.514 146.805L31.6671 146.039C31.7692 145.733 32.2287 145.376 33.0455 144.967ZM58.3163 146.499C58.7247 146.499 59.031 146.856 59.2352 147.571V148.03C59.1331 148.541 58.8268 148.796 58.3163 148.796H57.5505C57.04 148.796 56.8358 148.541 56.9379 148.03L57.0911 147.571C57.0911 147.265 57.4995 146.907 58.3163 146.499ZM83.4339 147.571H83.7402C84.2507 147.673 84.4549 147.928 84.3528 148.337L84.1997 149.103C84.0976 149.613 83.7913 149.868 83.2807 149.868H82.5149C82.0044 149.868 81.8002 149.613 81.9023 149.103L82.0555 148.796C82.0555 148.388 82.515 147.979 83.4339 147.571ZM107.939 148.796H108.705C109.215 148.796 109.419 149 109.317 149.409L109.164 150.175C109.062 150.685 108.756 150.94 108.245 150.94H107.479C106.969 150.94 106.765 150.685 106.867 150.175L107.02 149.409C107.224 149 107.53 148.796 107.939 148.796ZM46.8296 151.4H47.289C47.6975 151.4 47.9017 151.655 47.9017 152.166L47.7485 152.472C47.6464 152.982 47.3401 153.238 46.8296 153.238H46.5233C46.0128 153.238 45.8085 152.982 45.9106 152.472V152.166C46.1148 151.655 46.4212 151.4 46.8296 151.4ZM71.794 152.472H72.2535C72.764 152.574 72.9682 152.829 72.8661 153.238L72.713 153.544C72.6109 154.055 72.3046 154.31 71.794 154.31H71.4877C70.9772 154.31 70.773 154.055 70.8751 153.544L71.0282 153.238C71.1304 152.727 71.3856 152.472 71.794 152.472ZM96.9116 153.544H97.218C97.7285 153.646 97.9327 153.901 97.8306 154.31V154.769C97.7285 155.28 97.4222 155.535 96.9116 155.535H96.4522C95.9416 155.535 95.7374 155.28 95.8395 154.769L95.9927 154.31C96.0948 153.799 96.4011 153.544 96.9116 153.544ZM121.876 154.31H122.642C123.152 154.412 123.357 154.667 123.254 155.076L123.101 155.841C122.999 156.25 122.54 156.658 121.723 157.067H121.417C121.008 157.067 120.702 156.658 120.498 155.841V155.535C120.6 155.127 121.059 154.718 121.876 154.31ZM35.496 155.535H36.2618C36.5681 155.535 36.8744 155.892 37.1807 156.607L37.0276 157.067C37.0276 157.373 36.5681 157.73 35.6492 158.139H35.0366C34.526 158.139 34.3218 157.883 34.4239 157.373L34.5771 156.301C34.7813 155.79 35.0876 155.535 35.496 155.535ZM60.7668 157.067H61.2263C61.6347 157.067 61.8389 157.322 61.8389 157.832L61.6857 158.139C61.5836 158.649 61.2773 158.905 60.7668 158.905H60.4605C59.95 158.905 59.7458 158.649 59.8479 158.139V157.832C60.0521 157.322 60.3584 157.067 60.7668 157.067ZM85.4249 158.139H86.1907C86.7012 158.241 86.9054 158.496 86.8033 158.905L86.6502 159.211C86.5481 159.721 86.2418 159.977 85.7312 159.977H84.9654C84.557 159.977 84.4039 159.721 84.506 159.211V158.905C84.7102 158.394 85.0165 158.139 85.4249 158.139ZM110.849 159.211H111.155C111.666 159.313 111.87 159.568 111.768 159.977L111.615 160.436C111.512 160.947 111.257 161.202 110.849 161.202H110.389C109.879 161.202 109.675 160.947 109.777 160.436L109.93 159.977C110.032 159.466 110.338 159.211 110.849 159.211ZM24.3156 160.436H25.0814C25.5919 160.436 25.7961 160.691 25.694 161.202L25.5409 161.968C25.4388 162.376 25.1325 162.58 24.622 162.58H23.8562C23.3456 162.58 23.1414 162.376 23.2435 161.968L23.3967 161.202C23.6009 160.691 23.9072 160.436 24.3156 160.436ZM49.2801 161.508H50.0459C50.5564 161.61 50.7606 161.866 50.6585 162.274V162.58C50.5564 162.989 50.0969 163.397 49.2801 163.806C48.8717 163.806 48.5653 163.397 48.3611 162.58L48.5143 162.274C48.6164 161.763 48.8717 161.508 49.2801 161.508ZM74.3977 162.58H74.704C75.1124 162.58 75.4187 162.989 75.6229 163.806C75.5208 164.316 75.2145 164.571 74.704 164.571H73.9382C73.4277 164.571 73.2235 164.316 73.3256 163.806L73.4787 163.346C73.5809 162.836 73.8872 162.58 74.3977 162.58ZM125.552 162.58C127.083 162.58 127.747 163.601 127.543 165.643L127.237 167.175C127.237 167.481 126.471 168.094 124.939 169.013H123.561C121.519 169.013 120.702 167.89 121.11 165.643C121.519 164.01 122.999 162.989 125.552 162.58ZM99.6684 163.806C100.179 163.908 100.383 164.163 100.281 164.571V164.878C100.179 165.388 99.8727 165.643 99.3621 165.643H98.9027C98.3921 165.643 98.1879 165.388 98.29 164.878C98.3922 164.571 98.8516 164.214 99.6684 163.806ZM38.2528 166.103H38.7123C39.0186 166.103 39.3249 166.46 39.6312 167.175C39.5291 167.481 39.0697 167.839 38.2528 168.247H37.7934C37.4871 168.247 37.1807 167.89 36.8744 167.175C36.9765 166.767 37.436 166.409 38.2528 166.103ZM63.2173 167.175H63.6768C64.1873 167.277 64.3915 167.532 64.2894 167.941L64.1362 168.707C64.0341 169.217 63.7278 169.472 63.2173 169.472H62.7578C62.3494 169.472 62.1963 169.217 62.2984 168.707V167.941C62.5026 167.43 62.8089 167.175 63.2173 167.175ZM88.3349 168.247H88.6412C89.1517 168.349 89.3559 168.604 89.2538 169.013L89.1007 169.779C88.9986 170.289 88.6922 170.544 88.1817 170.544H87.8754C87.467 170.544 87.1607 170.187 86.9565 169.472C86.9565 169.064 87.416 168.655 88.3349 168.247ZM112.84 169.472H114.065C114.474 169.472 114.678 169.728 114.678 170.238L114.525 171.004C114.422 171.412 114.116 171.616 113.606 171.616H112.38C111.87 171.616 111.666 171.412 111.768 171.004L111.921 170.238C112.125 169.728 112.431 169.472 112.84 169.472ZM26.7661 170.544H27.5319C28.0424 170.646 28.2466 170.902 28.1445 171.31L27.9914 172.076C27.8893 172.586 27.583 172.842 27.0724 172.842H26.4598C25.9493 172.842 25.7451 172.586 25.8472 172.076L26.0004 171.31C26.1025 170.8 26.3577 170.544 26.7661 170.544ZM52.19 171.616C52.5985 171.616 52.9048 172.025 53.109 172.842V173.148C53.0069 173.659 52.7006 173.914 52.19 173.914H51.4243C50.9138 173.914 50.7095 173.659 50.8116 173.148V172.842C50.9137 172.433 51.3732 172.025 52.19 171.616ZM77.1545 172.842C77.5629 172.842 77.8692 173.199 78.0734 173.914V174.373C77.9713 174.884 77.665 175.139 77.1545 175.139H76.3887C75.8782 175.139 75.674 174.884 75.7761 174.373V173.914C75.8782 173.608 76.3377 173.25 77.1545 172.842ZM102.119 174.373H102.425C102.936 174.373 103.14 174.629 103.038 175.139C103.038 175.445 102.629 175.803 101.813 176.211C101.302 176.211 101.098 175.956 101.2 175.445V175.139C101.404 174.629 101.711 174.373 102.119 174.373ZM40.7033 176.517H41.0096C41.5202 176.62 41.7244 176.875 41.6223 177.283V177.743C41.5202 178.253 41.2139 178.509 40.7033 178.509H40.2439C39.8354 178.509 39.6823 178.253 39.7844 177.743V177.283C39.9886 176.773 40.2949 176.517 40.7033 176.517ZM65.6678 177.743H66.1273C66.5357 177.845 66.7399 178.1 66.7399 178.509L66.5867 178.815C66.4846 179.325 66.1783 179.581 65.6678 179.581H65.3615C64.851 179.581 64.6467 179.325 64.7489 178.815V178.509C64.9531 177.998 65.2594 177.743 65.6678 177.743ZM90.6322 178.815H91.0917C91.6022 178.917 91.8064 179.172 91.7043 179.581L91.5512 180.04C91.4491 180.448 91.1427 180.653 90.6322 180.653H90.3259C89.8154 180.653 89.6112 180.448 89.7133 180.04V179.581C89.9175 179.07 90.2238 178.815 90.6322 178.815ZM115.597 180.04H116.056C116.567 180.04 116.771 180.244 116.669 180.653L116.516 181.112C116.413 181.623 116.107 181.878 115.597 181.878H115.29C114.78 181.878 114.576 181.623 114.678 181.112L114.831 180.653C114.933 180.244 115.188 180.04 115.597 180.04ZM29.6761 181.112H29.9824C30.4929 181.214 30.6971 181.47 30.595 181.878V182.184C30.4929 182.695 30.1866 182.95 29.6761 182.95H29.2166C28.7061 182.95 28.5019 182.695 28.604 182.184L28.7572 181.878C28.9614 181.367 29.2677 181.112 29.6761 181.112ZM54.6405 182.184H54.9469C55.4574 182.286 55.6616 182.542 55.5595 182.95V183.41C55.4574 183.92 55.1511 184.175 54.6405 184.175H54.1811C53.6706 184.175 53.4664 183.92 53.5685 183.41L53.7216 182.95C53.9258 182.44 54.2321 182.184 54.6405 182.184ZM79.605 183.41C80.1155 183.41 80.3197 183.665 80.2176 184.175L80.0645 184.482C80.0645 184.992 79.8092 185.247 79.2987 185.247C78.7882 185.247 78.5839 184.992 78.686 184.482V184.175C78.8903 183.665 79.1966 183.41 79.605 183.41ZM104.569 184.482H105.029C105.437 184.584 105.642 184.839 105.642 185.247L105.488 185.554C105.386 186.064 105.08 186.319 104.569 186.319H104.263C103.753 186.319 103.548 186.064 103.65 185.554V185.247C103.855 184.737 104.161 184.482 104.569 184.482ZM18.1894 185.554H18.4957C18.9041 185.554 19.2104 185.962 19.4146 186.779C19.4146 187.085 18.9552 187.443 18.0362 187.851C17.7299 187.851 17.4747 187.494 17.2705 186.779V186.319C17.4747 185.809 17.781 185.554 18.1894 185.554ZM43.1538 186.779H43.9196C44.4301 186.881 44.6343 187.136 44.5322 187.545L44.3791 188.311C44.277 188.719 43.9707 188.923 43.4601 188.923H42.6944C42.1838 188.923 41.9796 188.719 42.0817 188.311L42.2349 187.545C42.4391 187.034 42.7454 186.779 43.1538 186.779ZM93.5422 188.923C94.0527 189.025 94.2569 189.281 94.1548 189.689L94.0017 190.148C93.8996 190.659 93.6443 190.914 93.2359 190.914H92.7764C92.2659 190.914 92.0617 190.659 92.1638 190.148C92.2659 189.74 92.7254 189.332 93.5422 188.923ZM118.507 190.148C119.017 190.25 119.221 190.506 119.119 190.914V191.22C119.017 191.731 118.711 191.986 118.2 191.986H117.741C117.23 191.986 117.026 191.731 117.128 191.22C117.23 190.914 117.69 190.557 118.507 190.148ZM31.9734 191.68H32.4329C32.9434 191.68 33.1476 191.935 33.0455 192.446C32.9434 192.956 32.6371 193.211 32.1266 193.211H31.6671C31.2587 193.211 31.1056 192.956 31.2077 192.446C31.3098 191.935 31.565 191.68 31.9734 191.68ZM107.02 195.049H107.326C107.837 195.152 108.041 195.407 107.939 195.815C107.837 196.326 107.53 196.581 107.02 196.581H106.714C106.203 196.581 105.999 196.326 106.101 195.815C106.305 195.305 106.612 195.049 107.02 195.049ZM21.0994 195.815C21.4057 195.815 21.712 196.173 22.0183 196.887L21.8651 197.347C21.763 197.755 21.4567 197.959 20.9462 197.959H20.6399C20.2315 197.959 19.9252 197.602 19.721 196.887C19.8231 196.581 20.2825 196.224 21.0994 195.815ZM45.7575 196.581H46.5233C46.8296 196.581 47.1359 196.938 47.4422 197.653L47.289 198.419C47.1869 198.725 46.7275 199.082 45.9106 199.491H45.1449C44.7364 199.491 44.4301 199.134 44.2259 198.419L44.3791 197.653C44.4812 197.245 44.9407 196.887 45.7575 196.581ZM120.498 199.185H122.029C122.438 199.185 122.846 199.695 123.254 200.716L122.795 202.554C122.693 203.065 121.825 203.575 120.191 204.086C118.762 204.086 118.2 203.218 118.507 201.482L118.66 200.716C118.762 200.308 119.375 199.797 120.498 199.185ZM95.9927 199.491C96.4011 199.593 96.6053 199.848 96.6053 200.257L96.4522 201.022H95.6864C95.1759 201.022 94.9717 200.767 95.0738 200.257C95.278 199.746 95.5843 199.491 95.9927 199.491ZM34.5771 201.788H34.8834C35.3939 201.89 35.5981 202.146 35.496 202.554V202.86C35.3939 203.371 35.0876 203.626 34.5771 203.626H34.1176C33.6071 203.626 33.4029 203.371 33.505 202.86L33.6582 202.554C33.7603 202.043 34.0666 201.788 34.5771 201.788ZM84.0465 204.392H85.1186L84.9654 205.617H84.506C84.0976 205.617 83.9444 205.362 84.0465 204.851V204.392ZM109.47 205.158H109.93C110.338 205.26 110.543 205.515 110.543 205.923L110.389 206.383C110.287 206.791 109.981 206.996 109.47 206.996H109.164C108.654 206.996 108.449 206.791 108.552 206.383V205.923C108.756 205.413 109.062 205.158 109.47 205.158ZM23.0904 206.383H23.8562C24.3667 206.383 24.5709 206.587 24.4688 206.996L24.3156 207.455C24.3156 207.761 23.8562 208.119 22.9372 208.527C22.6309 208.527 22.3757 208.17 22.1715 207.455V206.996C22.3757 206.587 22.682 206.383 23.0904 206.383ZM133.363 206.383H134.129L133.669 208.221H133.056L133.363 206.383ZM98.4432 209.752H98.7495C99.26 209.752 99.4642 210.008 99.3621 210.518V210.824C99.26 211.335 98.9537 211.59 98.4432 211.59H97.9837C97.5753 211.59 97.4222 211.335 97.5243 210.824V210.518C97.7285 210.008 98.0348 209.752 98.4432 209.752ZM122.795 210.059H124.327C124.735 210.059 125.041 210.416 125.246 211.131L124.939 212.356C124.939 212.662 124.531 213.02 123.714 213.428H122.182C121.57 213.428 121.315 212.815 121.417 211.59C121.927 210.569 122.387 210.059 122.795 210.059ZM37.6402 210.518C39.1718 210.518 39.7844 211.386 39.4781 213.122L39.3249 213.888C39.2228 214.296 38.6102 214.807 37.4871 215.419H35.9555C35.5471 215.419 35.1387 214.909 34.7302 213.888L35.1897 211.897C35.2918 211.488 36.1087 211.029 37.6402 210.518ZM12.3694 211.131C12.7779 211.233 12.9821 211.488 12.9821 211.897C12.88 212.407 12.5737 212.662 12.0631 212.662C11.5526 212.662 11.3484 212.407 11.4505 211.897C11.5526 211.386 11.8589 211.131 12.3694 211.131ZM3.48641 211.897H4.25217C4.55848 211.897 4.86481 212.918 5.17112 214.96L4.5585 218.023C3.63956 219.452 2.46537 220.167 1.03591 220.167L2.56746 212.662C2.77166 212.152 3.07799 211.897 3.48641 211.897ZM87.4159 214.194C87.8244 214.296 88.0286 214.551 88.0286 214.96L87.8754 215.419C87.7733 215.828 87.467 216.032 86.9565 216.032C86.446 216.032 86.2418 215.828 86.3439 215.419L86.497 214.96C86.7012 214.449 87.0075 214.194 87.4159 214.194ZM112.38 215.419C112.891 215.419 113.095 215.623 112.993 216.032L112.84 216.491C112.738 217.002 112.431 217.257 111.921 217.257C111.41 217.257 111.206 217.002 111.308 216.491L111.461 216.032C111.666 215.623 111.972 215.419 112.38 215.419ZM26.0004 216.491H26.3067C26.8172 216.593 27.0214 216.849 26.9193 217.257L26.7661 218.023C26.664 218.533 26.3577 218.789 25.8472 218.789H25.5409C25.0304 218.789 24.8262 218.533 24.9283 218.023L25.0814 217.257C25.1835 216.747 25.4898 216.491 26.0004 216.491Z" fill="white"/>
</svg>
