<svg width="239" height="297" viewBox="0 0 239 297" fill="none" xmlns="http://www.w3.org/2000/svg">
<path d="M236.174 3.90143C237.216 4.16193 237.998 4.94344 238.519 6.24596C239.04 7.28797 238.649 8.06947 237.346 8.59048C236.304 8.32998 235.523 8.32998 235.002 8.59048C234.481 8.85098 233.83 8.98123 233.048 8.98123C230.704 10.8047 229.401 11.5863 229.141 11.3258C228.88 10.8047 228.489 10.5442 227.968 10.5442C227.447 11.8468 227.057 13.2795 226.796 14.8425C226.796 16.1451 225.754 16.6661 223.67 16.4056C221.586 20.3131 219.502 23.0484 217.418 24.6114C218.46 26.4349 217.939 27.8677 215.855 28.9097C213.771 30.2122 212.338 31.5147 211.557 32.8172C210.775 33.8592 210.515 35.1618 210.775 36.7248C209.733 40.6323 208.821 43.1071 208.04 44.1491C207.258 45.1911 206.607 46.6239 206.086 48.4474C207.128 48.9684 208.17 49.4894 209.212 50.0104C210.254 50.2709 211.036 50.9222 211.557 51.9642C211.817 53.2667 211.817 54.1784 211.557 54.6995C211.296 55.2205 210.905 55.8717 210.384 56.6532C210.384 57.6952 210.515 58.4767 210.775 58.9978C211.296 59.5188 211.557 60.4305 211.557 61.733C210.775 64.8591 209.994 66.9431 209.212 67.9851C208.691 68.7666 208.17 69.5481 207.649 70.3296C208.17 71.6321 208.3 73.1952 208.04 75.0187C207.779 76.5817 208.04 78.0145 208.821 79.317C210.645 82.964 210.905 85.3085 209.603 86.3505C208.561 87.3925 207.91 88.8253 207.649 90.6488C208.952 93.7749 209.342 95.4681 208.821 95.7286C208.561 95.9891 208.3 96.5101 208.04 97.2917C209.342 100.157 209.342 103.023 208.04 105.888C208.04 109.014 208.04 111.229 208.04 112.531C208.04 113.834 207.779 114.876 207.258 115.657C207.519 118.002 207.779 119.304 208.04 119.565C208.561 119.565 209.082 119.825 209.603 120.346C210.645 121.388 211.426 123.081 211.947 125.426C211.687 127.77 211.557 129.333 211.557 130.115C210.254 132.981 209.082 134.934 208.04 135.976C208.821 138.321 209.082 139.884 208.821 140.665C208.561 141.186 208.561 141.968 208.821 143.01C209.082 144.052 209.603 144.833 210.384 145.354C211.166 145.615 211.557 146.396 211.557 147.699C211.557 149.001 210.905 149.653 209.603 149.653C208.3 149.653 207.258 149.783 206.477 150.043C206.216 151.346 206.347 152.388 206.868 153.169C207.389 153.951 207.649 154.993 207.649 156.296C207.128 157.077 206.737 158.249 206.477 159.812C206.216 161.115 206.347 162.287 206.868 163.329C207.91 163.85 208.691 164.501 209.212 165.283C209.733 166.064 210.515 166.716 211.557 167.237C211.817 168.018 211.817 168.8 211.557 169.581C211.557 170.102 211.687 170.753 211.947 171.535C211.426 172.316 210.775 173.098 209.994 173.879C209.212 174.4 208.952 175.312 209.212 176.615C209.994 179.741 210.254 181.564 209.994 182.085C209.733 182.346 209.473 182.737 209.212 183.258C209.212 186.123 209.473 187.686 209.994 187.947C210.515 187.947 210.905 188.207 211.166 188.728C210.905 189.77 210.384 190.552 209.603 191.073C208.821 191.333 208.17 191.854 207.649 192.636C209.994 194.98 211.166 196.934 211.166 198.497C211.166 199.799 211.166 201.102 211.166 202.404C212.468 205.531 212.599 207.875 211.557 209.438C211.817 213.606 211.426 216.341 210.384 217.644C209.603 218.946 209.082 220.64 208.821 222.724C208.821 224.287 209.342 225.329 210.384 225.85C211.426 226.371 212.208 227.022 212.729 227.804C212.468 229.106 211.817 230.018 210.775 230.539C209.994 231.06 209.342 231.972 208.821 233.274C211.426 235.098 212.338 236.27 211.557 236.791C210.775 237.312 210.124 237.963 209.603 238.745C209.082 240.308 209.342 241.74 210.384 243.043C211.426 244.085 211.557 245.518 210.775 247.341C212.078 250.988 212.599 252.942 212.338 253.203C212.078 256.589 211.687 258.282 211.166 258.282C212.729 260.366 213.25 261.669 212.729 262.19C212.208 262.711 211.687 263.492 211.166 264.534C213.25 265.837 214.683 266.749 215.464 267.27C216.506 267.53 217.027 268.312 217.027 269.614C219.111 271.698 220.153 273.652 220.153 275.476C221.456 275.997 222.628 277.039 223.67 278.602C224.972 279.904 226.666 280.295 228.75 279.774C230.313 280.295 231.094 281.597 231.094 283.681C231.876 283.942 232.657 284.202 233.439 284.463C234.481 284.463 235.262 284.723 235.783 285.244C235.523 286.807 235.002 287.849 234.22 288.37C233.699 288.631 233.178 289.022 232.657 289.543C229.792 290.064 227.968 290.585 227.187 291.106C226.666 291.887 225.754 292.408 224.452 292.669C221.586 292.669 219.502 292.408 218.199 291.887C217.157 291.366 216.636 290.454 216.636 289.152C215.594 289.412 214.813 289.803 214.292 290.324C213.771 291.106 212.859 291.757 211.557 292.278C209.994 292.278 208.431 292.017 206.868 291.496C205.565 291.757 204.132 292.017 202.569 292.278C201.006 292.538 199.573 292.408 198.271 291.887C197.489 292.408 196.447 292.669 195.145 292.669C193.842 292.929 192.54 292.929 191.237 292.669C189.935 292.408 188.763 292.017 187.721 291.496C186.679 290.975 186.027 290.324 185.767 289.543C183.162 290.585 181.729 290.845 181.469 290.324C181.469 290.064 181.208 289.673 180.687 289.152C179.385 289.152 178.082 289.543 176.78 290.324C175.477 291.106 173.914 291.236 172.09 290.715C170.006 290.454 168.574 290.064 167.792 289.543C167.011 289.282 166.62 288.501 166.62 287.198C165.578 287.719 164.927 288.37 164.666 289.152C164.406 290.194 163.885 290.975 163.103 291.496C162.322 291.236 161.54 291.236 160.759 291.496C159.977 291.757 159.326 291.627 158.805 291.106C158.805 289.022 159.065 287.719 159.586 287.198C160.107 286.677 160.498 286.156 160.759 285.635C160.238 283.551 160.107 282.249 160.368 281.728C160.889 280.946 161.28 279.904 161.54 278.602C159.717 276.257 158.805 274.955 158.805 274.694C158.805 274.173 158.935 273.652 159.196 273.131C158.675 270.265 158.544 268.442 158.805 267.66C159.065 266.618 159.326 265.446 159.586 264.144C158.544 261.018 158.154 259.324 158.414 259.064C158.675 258.803 159.065 258.413 159.586 257.892C157.763 255.808 157.112 254.114 157.633 252.812C158.414 251.509 159.065 250.077 159.586 248.514C158.805 244.866 158.414 242.782 158.414 242.261C161.019 241.48 161.931 239.526 161.149 236.4C159.586 232.232 159.065 229.106 159.586 227.022C160.368 224.677 160.889 222.072 161.149 219.207C161.41 217.123 161.019 216.081 159.977 216.081C159.196 215.82 158.675 215.169 158.414 214.127C158.935 212.304 159.586 210.871 160.368 209.829C161.41 208.787 162.191 207.615 162.712 206.312C162.191 205.531 161.67 205.01 161.149 204.749C160.628 204.489 160.107 203.837 159.586 202.795C160.628 201.232 160.759 199.669 159.977 198.106C159.456 196.283 159.586 194.72 160.368 193.417C159.847 192.115 159.065 191.203 158.023 190.682C156.981 190.161 156.33 189.249 156.07 187.947C157.633 185.602 158.805 184.56 159.586 184.821C160.368 184.821 161.019 184.169 161.54 182.867C161.801 181.564 161.67 180.653 161.149 180.132C160.889 179.611 160.889 178.829 161.149 177.787C160.368 176.484 159.326 175.312 158.023 174.27C156.981 173.228 156.591 171.926 156.851 170.363C156.851 169.321 157.112 168.669 157.633 168.409C158.154 168.148 158.675 167.497 159.196 166.455C157.893 165.934 156.981 165.022 156.46 163.72C155.939 162.417 155.418 161.245 154.897 160.203C153.855 160.724 152.813 161.375 151.771 162.157C150.99 162.678 149.948 162.548 148.645 161.766C145.78 163.59 144.086 164.241 143.565 163.72C143.305 163.199 143.044 162.548 142.784 161.766C142.523 160.985 142.263 160.333 142.002 159.812C141.742 159.031 141.481 158.64 141.221 158.64C139.658 160.985 138.095 162.027 136.532 161.766C133.927 162.548 132.494 162.548 132.234 161.766C131.973 160.724 131.582 159.943 131.061 159.422C129.759 159.422 128.066 159.161 125.981 158.64C125.46 158.119 125.2 157.338 125.2 156.296C125.46 154.993 125.07 154.342 124.028 154.342C122.986 154.863 122.334 155.905 122.074 157.468C122.074 159.031 121.553 160.073 120.511 160.594C119.208 160.594 118.166 160.333 117.385 159.812C116.864 159.291 115.952 158.901 114.65 158.64C112.045 159.161 109.961 159.552 108.398 159.812C107.095 160.073 105.532 160.333 103.709 160.594C102.145 160.854 100.582 161.115 99.0195 161.375C97.717 161.636 96.6749 161.766 95.8934 161.766C93.2884 160.464 91.7254 160.073 91.2044 160.594C90.9439 160.854 90.5531 161.115 90.0321 161.375C87.1666 160.073 85.4733 160.073 84.9523 161.375C84.6918 162.678 83.6498 163.199 81.8263 162.938C80.0028 160.333 78.8305 159.422 78.3095 160.203C77.7885 160.985 77.3977 162.027 77.1372 163.329C79.2212 167.758 79.8725 171.144 79.091 173.489C78.57 175.833 78.049 178.308 77.528 180.913C78.049 182.216 78.4398 183.258 78.7003 184.039C79.2213 184.56 79.7422 185.472 80.2633 186.774C79.4817 189.64 79.3515 191.463 79.8725 192.245C80.3935 192.766 80.654 193.678 80.654 194.98C79.8725 197.846 79.612 199.409 79.8725 199.669C80.133 199.669 80.3935 199.93 80.654 200.451C80.654 202.795 80.5238 204.358 80.2633 205.14C80.7843 206.963 81.0448 209.178 81.0448 211.783C81.3053 214.127 81.5658 216.602 81.8263 219.207C81.8263 222.072 80.654 224.417 78.3095 226.24C78.3095 228.846 78.7002 230.93 79.4818 232.493C80.2633 234.056 80.3935 236.009 79.8725 238.354C78.8305 240.438 78.4398 241.61 78.7003 241.871C79.2213 242.131 79.612 242.522 79.8725 243.043C80.133 245.387 80.654 247.341 81.4355 248.904C82.4775 250.467 82.738 252.551 82.217 255.156C80.9145 257.24 80.2633 258.803 80.2633 259.845C80.2633 260.887 80.133 262.06 79.8725 263.362C80.133 264.665 80.3935 265.707 80.654 266.488C81.175 267.009 81.5658 267.791 81.8263 268.833C81.0448 271.698 81.175 273.913 82.217 275.476C83.259 277.039 83.1288 278.862 81.8263 280.946C82.8683 282.509 83.3893 283.942 83.3893 285.244C82.8683 288.37 82.4775 290.324 82.217 291.106C81.9565 292.669 81.175 293.841 79.8725 294.622C78.8305 295.404 77.6582 296.055 76.3557 296.576C74.7927 296.576 73.7507 295.534 73.2297 293.45C70.3642 294.232 68.1499 294.622 66.5869 294.622C65.0239 294.622 64.3726 293.58 64.6331 291.496C63.5911 292.017 63.2003 292.799 63.4608 293.841C63.7214 294.883 63.2003 295.534 61.8978 295.795C60.5953 295.534 59.6835 295.143 59.1625 294.622C58.902 294.101 58.381 293.58 57.5995 293.059C56.5575 293.059 55.6458 293.32 54.8643 293.841C54.0827 294.362 53.0407 294.492 51.7382 294.232C50.9567 293.711 49.1332 293.32 46.2677 293.059C43.4021 293.059 41.8391 292.538 41.5786 291.496C40.7971 292.017 39.8853 292.669 38.8433 293.45C37.8013 294.232 36.6291 294.101 35.3265 293.059C33.503 294.101 31.94 294.101 30.6375 293.059C29.335 292.278 28.1627 291.496 27.1207 290.715C26.3392 291.236 25.688 291.887 25.1669 292.669C24.6459 293.45 24.1249 294.232 23.6039 295.013C23.0829 295.795 22.4317 296.316 21.6502 296.576C21.1291 297.097 20.2174 297.097 18.9149 296.576C16.5704 294.753 14.8771 293.58 13.8351 293.059C12.7931 292.538 11.8813 292.017 11.0998 291.496C9.79728 291.496 8.75527 291.757 7.97377 292.278C7.45276 292.799 6.67126 293.19 5.62925 293.45C3.02422 292.669 1.33095 291.366 0.549438 289.543C1.07044 288.501 1.98221 287.849 3.28472 287.589C4.58723 287.328 5.62924 286.807 6.41075 286.026C9.53678 285.765 11.0998 285.505 11.0998 285.244C11.3603 284.723 11.6208 284.202 11.8813 283.681C12.6628 283.16 13.1838 282.639 13.4443 282.118C13.7048 281.337 14.0956 280.555 14.6166 279.774C18.0031 281.076 19.8266 281.337 20.0871 280.555C20.3476 279.513 20.8686 278.732 21.6502 278.211C21.9107 277.169 22.3014 276.387 22.8224 275.866C23.3434 275.085 23.8644 274.303 24.3854 273.522C25.9485 270.656 26.9905 269.354 27.5115 269.614C28.293 269.875 28.9442 269.744 29.4652 269.223C28.6837 265.316 28.4232 262.711 28.6837 261.408C29.2047 259.845 29.2047 258.282 28.6837 256.719C28.1627 254.635 27.6417 252.421 27.1207 250.077C28.4232 246.429 29.2047 243.824 29.4652 242.261C29.7257 240.438 29.9862 238.484 30.2467 236.4C28.9442 234.056 28.5535 232.883 29.0745 232.883C29.5955 232.883 29.9862 232.623 30.2467 232.102C30.2467 231.06 29.9863 230.409 29.4652 230.148C28.9442 229.627 28.4232 229.236 27.9022 228.976C27.3812 228.455 26.8602 227.934 26.3392 227.413C26.0787 226.892 26.0787 226.11 26.3392 225.068C27.3812 222.984 28.0325 221.682 28.293 221.161C28.814 220.379 29.0745 219.467 29.0745 218.425C27.251 215.299 26.73 213.476 27.5115 212.955C28.5535 212.173 29.335 211.131 29.856 209.829C29.335 208.005 29.2047 206.833 29.4652 206.312C29.9863 205.791 30.5073 205.27 31.0283 204.749C29.9862 204.228 29.0745 204.489 28.293 205.531C27.5115 206.573 26.4695 207.094 25.1669 207.094C23.8644 204.749 24.2552 203.056 26.3392 202.014C27.1207 200.972 27.9022 199.93 28.6837 198.888C29.4652 197.585 29.7257 196.022 29.4652 194.199C29.4652 191.854 29.2047 190.552 28.6837 190.291C28.1627 190.031 27.772 189.64 27.5115 189.119C29.0745 186.774 30.377 184.821 31.419 183.258C31.419 180.132 31.1585 178.438 30.6375 178.178C30.1165 177.917 29.7257 177.527 29.4652 177.005C29.2047 173.879 28.9442 172.186 28.6837 171.926C28.4232 171.665 28.1627 171.274 27.9022 170.753C27.9022 166.585 28.1627 163.199 28.6837 160.594C29.2047 157.989 29.2047 155.253 28.6837 152.388C28.1627 150.825 27.772 149.522 27.5115 148.48C27.251 147.178 27.251 145.875 27.5115 144.573C28.0325 143.27 28.5535 141.968 29.0745 140.665C29.5955 139.363 29.856 138.321 29.856 137.539C28.0325 135.455 27.3812 133.892 27.9022 132.85C26.8602 130.506 26.5997 129.333 27.1207 129.333C27.9022 129.333 28.4232 129.073 28.6837 128.552C29.2047 126.468 29.2047 124.775 28.6837 123.472C28.4232 121.909 28.4232 120.086 28.6837 118.002C28.6837 114.355 28.9442 111.88 29.4652 110.577C29.9863 109.014 30.2467 107.191 30.2467 105.107C29.4652 100.939 29.335 98.0732 29.856 96.5101C30.6375 94.9471 31.5493 93.5144 32.5913 92.2118C31.5493 90.1278 31.1585 89.0858 31.419 89.0858C31.6795 88.8253 31.8098 88.4346 31.8098 87.9135C31.2888 86.611 30.6375 85.8295 29.856 85.569C29.0745 85.048 28.4232 84.1363 27.9022 82.8338C27.9022 81.5312 27.6417 80.7497 27.1207 80.4892C26.5997 79.9682 26.0787 79.4472 25.5577 78.9262C24.2552 76.8422 24.2552 74.7582 25.5577 72.6741C27.1207 70.5901 28.4232 68.8969 29.4652 67.5943C28.4232 64.2078 28.1627 62.254 28.6837 61.733C29.2047 60.9515 29.7257 60.0398 30.2467 58.9978C29.9862 57.6952 29.335 56.7835 28.293 56.2625C27.5115 55.481 27.1207 54.439 27.1207 53.1364C27.9022 50.2709 28.0325 48.7079 27.5115 48.4474C27.251 48.1869 26.8602 47.7961 26.3392 47.2751C26.8602 44.9306 27.251 42.8466 27.5115 41.0231C27.772 39.1995 27.6417 37.2458 27.1207 35.1618C25.2972 35.6828 23.8644 35.5525 22.8224 34.771C22.0409 33.9895 20.9989 33.4685 19.6964 33.208C19.6964 29.0399 18.5241 26.6954 16.1796 26.1744C14.6166 24.6114 13.8351 22.7879 13.8351 20.7039C12.5326 17.8383 10.9695 16.2753 9.14603 16.0148C7.32251 15.4938 5.7595 14.8425 4.45698 14.061C4.19648 13.019 4.06623 11.977 4.06623 10.935C4.06623 9.63249 3.80572 8.72073 3.28472 8.19972C0.940195 5.07369 0.809947 3.38042 2.89397 3.11992C4.97799 2.85942 7.06201 2.98967 9.14603 3.51068C10.9695 2.98967 12.6628 2.20816 14.2258 1.16615C15.7888 0.124141 17.4821 0.124141 19.3056 1.16615C20.6082 2.46867 21.9107 2.98967 23.2132 2.72917C24.5157 2.20816 25.5577 2.33841 26.3392 3.11992C28.1627 4.16193 29.4652 4.81319 30.2467 5.07369C31.2888 5.07369 32.3308 5.07369 33.3728 5.07369C34.6753 4.55269 35.8476 4.03168 36.8896 3.51068C37.9316 2.98967 39.1038 2.46867 40.4064 1.94766C41.1879 2.20816 41.7089 2.59891 41.9694 3.11992C42.2299 3.64092 42.8811 4.16193 43.9231 4.68293C45.2256 4.68293 47.0492 4.42243 49.3937 3.90143C51.9987 3.38042 53.9525 3.51068 55.255 4.29218C56.0365 4.03168 56.6878 3.64092 57.2088 3.11992C57.7298 2.59891 58.381 2.20816 59.1625 1.94766C63.0701 2.20816 65.6751 2.46866 66.9776 2.72917C68.5406 2.72917 69.9734 2.98967 71.2759 3.51068C73.6204 2.46866 74.7927 2.07791 74.7927 2.33841C74.7927 2.59891 75.0532 2.59891 75.5742 2.33841C76.3557 3.11992 77.007 3.77118 77.528 4.29218C78.3095 4.81319 78.9607 5.5947 79.4818 6.63671C77.3977 8.98123 76.0952 10.1535 75.5742 10.1535C75.3137 10.1535 75.0532 10.414 74.7927 10.935C75.0532 12.2375 75.7045 13.019 76.7465 13.2795C78.049 13.54 78.8305 14.3215 79.091 15.624C77.2675 18.4896 76.6162 20.0526 77.1372 20.3131C77.9187 20.5736 78.4398 21.0946 78.7003 21.8761C78.4398 22.9181 77.9187 23.6996 77.1372 24.2206C76.6162 24.4811 76.0952 24.8719 75.5742 25.3929C78.4398 28.5189 80.133 31.2542 80.654 33.5987C79.8725 36.7248 79.3515 38.9391 79.091 40.2416C78.8305 41.2836 78.57 42.3256 78.3095 43.3676C78.8305 44.4096 79.091 45.8424 79.091 47.6659C79.3515 49.4894 79.2213 51.0524 78.7003 52.3549C79.4818 53.6575 79.8725 55.2205 79.8725 57.044C80.133 58.607 79.8725 60.0398 79.091 61.3423C80.133 65.5103 80.2633 68.3758 79.4818 69.9389C78.9607 71.2414 78.8305 72.6741 79.091 74.2372C78.3095 76.8422 78.049 78.4052 78.3095 78.9262C78.8305 79.4472 79.091 80.359 79.091 81.6615C79.091 82.1825 78.9608 82.8338 78.7003 83.6153C78.4398 84.3968 78.3095 85.1783 78.3095 85.9598C79.612 87.7833 79.7423 89.7371 78.7003 91.8211C77.6582 93.6446 77.3977 95.7286 77.9188 98.0732C80.5238 97.8127 82.217 98.7244 82.9985 100.808C82.738 103.153 81.9565 104.716 80.654 105.497C79.612 106.279 78.4397 107.582 77.1372 109.405C77.9187 110.708 78.1793 112.271 77.9188 114.094C78.4398 114.615 78.8305 115.397 79.091 116.439C79.3515 117.481 80.0028 118.262 81.0448 118.783C82.6078 120.346 83.5195 120.607 83.78 119.565C84.301 118.262 85.0826 117.611 86.1246 117.611C88.2086 117.611 88.8599 119.044 88.0783 121.909C90.4229 120.607 91.9859 119.565 92.7674 118.783C93.8094 117.741 94.9817 116.96 96.2842 116.439C97.5867 117.22 98.8892 117.871 100.192 118.392C101.755 118.653 103.318 118.913 104.881 119.174C106.444 119.434 107.877 119.695 109.179 119.955C110.742 120.216 111.654 120.476 111.914 120.737C113.998 119.955 115.952 119.825 117.776 120.346C119.599 120.607 121.423 121.128 123.246 121.909C124.809 120.086 125.721 119.044 125.981 118.783C126.242 118.523 126.633 118.523 127.154 118.783C129.759 119.825 131.452 120.997 132.234 122.3C133.797 121.779 135.36 121.258 136.923 120.737C138.746 120.216 140.309 119.434 141.612 118.392C142.393 118.653 143.175 119.044 143.956 119.565C144.738 119.825 145.649 119.955 146.691 119.955C149.817 118.913 151.511 118.392 151.771 118.392C152.292 118.132 152.813 117.871 153.334 117.611C154.637 117.871 155.549 118.523 156.07 119.565C156.591 120.607 157.112 121.779 157.633 123.081C158.154 122.56 158.544 122.039 158.805 121.518C159.326 120.737 159.977 120.086 160.759 119.565C159.977 119.044 159.717 118.132 159.977 116.829C160.238 115.266 160.498 113.964 160.759 112.922C158.675 109.796 157.893 107.582 158.414 106.279C159.196 104.716 160.107 103.413 161.149 102.371C161.149 100.548 161.019 99.5059 160.759 99.2454C160.498 98.7244 160.107 98.2034 159.586 97.6824C159.326 95.5984 159.456 93.9051 159.977 92.6026C160.759 91.3001 161.41 89.8673 161.931 88.3043C160.368 85.4388 159.456 82.5732 159.196 79.7077C158.935 76.5817 159.065 73.7162 159.586 71.1111C158.805 68.2456 158.154 65.9011 157.633 64.0776C158.154 61.9935 158.675 60.0398 159.196 58.2163C159.977 56.1322 159.847 54.0482 158.805 51.9642C159.065 50.4012 159.196 48.8381 159.196 47.2751C159.456 45.4516 159.847 43.7583 160.368 42.1953C159.586 41.4138 158.805 40.7626 158.023 40.2416C157.242 39.7206 156.851 38.8088 156.851 37.5063C157.112 34.9013 157.112 32.9475 156.851 31.645C156.851 30.3425 156.591 29.0399 156.07 27.7374C156.851 25.3929 156.591 24.4811 155.288 25.0022C153.986 25.5232 153.074 25.2627 152.553 24.2206C154.897 21.0946 156.33 19.1408 156.851 18.3593C157.372 17.3173 158.023 16.4056 158.805 15.624C158.023 13.019 157.893 11.5863 158.414 11.3258C159.196 11.0653 159.586 10.414 159.586 9.37199C158.023 7.54847 157.112 6.76696 156.851 7.02746C156.591 7.28797 156.2 7.28797 155.679 7.02746C155.679 5.20394 155.939 4.29218 156.46 4.29218C157.242 4.03168 157.893 3.38042 158.414 2.33841C159.717 2.33841 160.628 2.33841 161.149 2.33841C161.67 2.07791 162.322 2.20816 163.103 2.72917C164.927 4.03168 166.099 4.03168 166.62 2.72917C167.141 1.42665 168.313 0.775394 170.137 0.775394C170.658 1.2964 170.788 2.07791 170.527 3.11992C170.267 3.90143 170.137 4.68294 170.137 5.46445C170.918 5.20395 171.83 4.81319 172.872 4.29218C173.914 3.51068 175.086 2.85942 176.389 2.33841C177.431 2.59891 178.082 3.11992 178.343 3.90143C178.603 4.42243 179.254 4.81319 180.296 5.07369C181.078 5.07369 182.25 4.68293 183.813 3.90143C185.637 3.11992 187.46 2.46867 189.284 1.94766C191.107 1.42665 192.931 1.0359 194.754 0.775394C196.578 0.514892 197.88 0.905649 198.662 1.94766C200.225 3.77118 201.137 4.55269 201.397 4.29218C201.918 3.77118 202.439 3.38042 202.96 3.11992C204.263 3.11992 205.174 2.85942 205.695 2.33841C206.477 1.5569 207.389 1.0359 208.431 0.775394C212.078 2.07791 214.552 3.11992 215.855 3.90143C217.157 3.64092 218.069 3.25017 218.59 2.72917C219.372 2.20816 220.283 1.8174 221.325 1.5569C224.191 2.33841 226.145 2.46867 227.187 1.94766C228.489 1.16615 229.792 1.0359 231.094 1.5569C232.397 3.11992 233.309 4.03168 233.83 4.29218C234.611 4.55269 235.393 4.42243 236.174 3.90143Z" fill="white"/>
</svg>
