<svg width="156" height="259" viewBox="0 0 156 259" fill="none" xmlns="http://www.w3.org/2000/svg">
<path d="M95.0614 209.601C94.7105 210.478 94.6228 210.566 94.7982 209.864C94.9737 209.162 95.2369 208.021 95.5879 206.442C95.5879 207.495 95.4124 208.548 95.0614 209.601ZM140.07 132.743C140.948 132.919 141.036 133.006 140.334 133.006C139.807 132.831 138.842 132.568 137.438 132.217C138.491 132.217 139.369 132.392 140.07 132.743ZM155.073 144.588H154.547C154.372 144.412 154.108 144.324 153.757 144.324C153.582 144.324 153.406 144.324 153.231 144.324C153.231 144.149 153.055 144.061 152.705 144.061C151.301 143.535 149.107 143.272 146.124 143.272C144.72 143.096 143.141 143.096 141.386 143.272C140.509 143.272 139.544 143.359 138.491 143.535C137.614 143.535 136.649 143.623 135.596 143.798C134.543 143.973 133.49 144.149 132.437 144.324C131.384 144.5 130.156 144.675 128.752 144.851C126.296 145.377 123.664 145.904 120.856 146.43C118.399 146.781 116.294 147.132 114.539 147.483C112.96 147.834 111.644 148.185 110.591 148.536C110.24 149.238 109.977 150.027 109.801 150.905C109.626 151.607 109.45 152.484 109.275 153.537C108.924 155.642 108.661 157.573 108.485 159.327C108.485 160.907 108.485 162.31 108.485 163.539V166.171C108.485 166.522 108.573 166.873 108.748 167.224C108.748 166.873 108.661 166.522 108.485 166.171C108.134 165.469 107.871 165.03 107.696 164.855C107.345 164.504 106.994 164.592 106.643 165.118C106.467 165.469 106.379 166.785 106.379 169.066C106.379 171.347 106.116 173.19 105.59 174.594C105.239 175.997 104.712 177.401 104.011 178.805C103.309 180.033 102.607 181.437 101.905 183.016C101.203 184.596 100.501 186.614 99.7992 189.07C99.6238 189.948 99.4483 190.737 99.2728 191.439C99.0973 191.966 98.9219 192.667 98.7464 193.545C98.3954 194.422 98.1322 195.212 97.9568 195.914C97.9568 196.616 97.869 197.405 97.6935 198.283C97.3426 199.686 96.9916 201.09 96.6407 202.494C96.2898 203.898 95.9388 205.214 95.5879 206.442C95.7633 205.389 95.7633 204.249 95.5879 203.02C95.5879 201.792 95.5879 200.651 95.5879 199.599C95.4124 198.37 95.3246 197.23 95.3246 196.177C94.7982 200.915 94.0086 205.477 92.9557 209.864C91.9029 214.075 90.7623 217.848 89.534 221.182C89.0076 222.937 88.4812 224.516 87.9548 225.92C87.4283 227.148 86.9896 228.201 86.6387 229.078C86.1123 230.131 85.7613 231.184 85.5859 232.237C85.5859 231.359 85.4981 230.219 85.3226 228.815C85.1472 226.885 84.884 223.638 84.533 219.076C84.533 218.023 84.533 216.971 84.533 215.918C84.533 214.689 84.4453 213.373 84.2698 211.97V207.495C83.9189 208.372 83.5679 209.25 83.217 210.127C82.866 210.829 82.5151 211.531 82.1641 212.233C81.8132 213.11 81.55 213.9 81.3745 214.602C81.199 215.303 80.9358 215.918 80.5849 216.444L79.7952 218.023C79.7952 217.321 79.883 216.532 80.0584 215.654C80.2339 214.953 80.3217 214.163 80.3217 213.286C80.4971 212.233 80.7603 211.092 81.1113 209.864C81.4622 207.583 81.7254 205.214 81.9009 202.757C82.2519 200.125 82.4273 197.756 82.4273 195.65C81.55 197.054 80.6726 198.634 79.7952 200.388C78.9179 202.143 78.4792 203.459 78.4792 204.336C78.4792 205.038 78.3037 205.038 77.9528 204.336C77.7773 203.635 77.5141 202.669 77.1631 201.441C76.9877 200.213 76.8999 198.809 76.8999 197.23C76.8999 195.65 77.0754 194.334 77.4263 193.282C78.1282 191.878 78.8301 190.035 79.532 187.754C80.2339 185.298 80.6726 183.192 80.8481 181.437C80.1462 182.139 79.4443 183.016 78.7424 184.069C78.0405 184.947 77.6018 185.824 77.4263 186.701C77.2509 187.403 77.0754 187.579 76.8999 187.228C76.7244 186.701 76.549 185.912 76.3735 184.859C76.3735 183.631 76.3735 182.227 76.3735 180.647C76.549 178.893 76.8999 177.138 77.4263 175.383C77.7773 173.979 78.1282 172.488 78.4792 170.909C78.8301 169.154 79.1811 167.575 79.532 166.171C79.7075 164.767 79.883 163.451 80.0584 162.223C80.2339 160.994 80.4094 159.678 80.5849 158.275C80.9358 156.871 81.1113 155.818 81.1113 155.116V154.853V154.063C80.0584 153.712 79.4443 153.537 79.2688 153.537C79.2688 153.537 78.8301 153.625 77.9528 153.8C76.7244 153.975 76.4612 154.765 77.1631 156.169C77.1631 156.871 77.3386 157.397 77.6896 157.748C77.865 158.099 78.0405 158.275 78.216 158.275C75.5839 158.275 73.9169 158.187 73.215 158.011C72.6885 157.836 72.2499 157.748 71.8989 157.748C71.548 157.748 71.197 157.66 70.8461 157.485C69.9687 157.134 68.9159 156.959 67.6876 156.959C66.4592 156.959 64.1781 157.134 60.8441 157.485C58.212 157.836 56.1063 158.099 54.527 158.275C53.1232 158.45 51.9827 158.626 51.1053 158.801C50.2279 158.976 49.4383 159.152 48.7364 159.327C48.21 159.327 47.4203 159.415 46.3675 159.591C45.4901 162.398 44.876 164.943 44.525 167.224C44.3496 169.505 44.1741 171.347 43.9986 172.751C44.7005 171.698 45.4024 170.47 46.1043 169.066C46.9817 167.662 47.5958 166.259 47.9468 164.855C48.2977 163.451 48.4732 163.627 48.4732 165.381C48.4732 167.136 48.2977 169.768 47.9468 173.278C47.5958 175.032 47.2449 176.963 46.8939 179.068C46.543 180.998 46.192 182.929 45.8411 184.859C44.9637 189.246 43.9109 193.018 42.6826 196.177C42.1562 197.756 41.542 199.511 40.8401 201.441C40.3137 203.371 39.7873 205.302 39.2608 207.232C38.3835 211.268 37.5938 214.953 36.8919 218.287C36.3655 221.796 35.8391 224.253 35.3127 225.656C35.1372 226.534 34.7863 226.973 34.2598 226.973C34.0844 227.323 33.9089 227.587 33.7334 227.762L33.4702 228.025V227.762C33.4702 227.587 33.2947 227.323 32.9438 226.973C32.4174 226.446 31.3645 225.92 29.7853 225.393V227.236C29.4343 228.289 29.2588 228.99 29.2588 229.341C28.9079 230.394 28.6447 231.096 28.4692 231.447C28.4692 231.798 28.3815 232.061 28.206 232.237C28.206 232.588 28.206 232.939 28.206 233.29C28.206 233.465 28.1183 233.64 27.9428 233.816C27.9428 233.991 27.9428 234.167 27.9428 234.342C27.5918 235.044 27.4164 235.483 27.4164 235.658L26.6267 237.238C26.4513 237.589 26.2758 237.764 26.1003 237.764C26.1003 237.94 26.0126 238.203 25.8371 238.554C25.4862 239.08 25.2229 239.519 25.0475 239.87C24.872 240.221 24.6965 240.572 24.5211 240.923C24.1701 241.274 23.9069 241.449 23.7314 241.449C23.7314 241.449 23.8192 241.361 23.9946 241.186C23.9946 241.01 23.9069 240.835 23.7314 240.659C23.7314 240.659 23.7314 240.484 23.7314 240.133C23.5559 239.958 23.3805 239.782 23.205 239.607C23.205 239.431 23.1173 239.256 22.9418 239.08C22.7663 239.431 22.5908 239.694 22.4154 239.87C22.4154 240.045 22.3276 240.308 22.1522 240.659L21.3625 242.239C21.0116 243.292 20.7484 243.993 20.5729 244.344C20.3974 244.695 20.222 245.046 20.0465 245.397C19.871 245.924 19.6955 246.362 19.5201 246.713C19.3446 247.24 19.1691 247.678 18.9936 248.029C18.8182 248.556 18.6427 248.994 18.4672 249.345C18.1163 249.872 17.8531 250.31 17.6776 250.661C17.6776 251.188 17.5021 251.714 17.1512 252.241C16.8002 253.118 16.3615 254.083 15.8351 255.136C15.3087 256.189 14.7823 257.242 14.2558 258.295V256.189C14.2558 255.838 14.2558 255.399 14.2558 254.873C14.4313 254.522 14.5191 254.171 14.5191 253.82C14.5191 252.592 14.6068 251.714 14.7823 251.188V248.556C14.7823 248.205 14.87 248.029 15.0455 248.029C14.6945 248.556 14.4313 248.994 14.2558 249.345C14.0804 249.872 13.8172 250.31 13.4662 250.661L12.6766 251.451L12.4134 250.925C12.2379 250.749 11.9747 250.135 11.6237 249.082C11.2728 249.784 11.0096 250.135 10.8341 250.135C10.4832 250.135 10.3954 249.521 10.5709 248.293V246.713C10.5709 246.538 10.4832 246.362 10.3077 246.187C10.3077 246.187 10.3077 246.099 10.3077 245.924C9.43033 243.818 8.64069 241.625 7.9388 239.343C7.76332 238.641 7.58784 237.94 7.41237 237.238C7.2369 236.536 7.06143 235.746 6.88596 234.869C6.71048 233.991 6.535 233.114 6.35953 232.237C6.35953 231.535 6.2718 230.745 6.09633 229.868C5.56991 226.358 5.13122 224.077 4.78027 223.024C4.6048 221.971 4.34159 221.27 3.99064 220.919C3.63969 220.568 3.28874 220.305 2.9378 220.129C2.58685 219.778 2.06043 218.637 1.35854 216.707C0.832115 214.777 0.481168 213.461 0.305694 212.759C0.130221 212.057 0.217954 211.531 0.568901 211.18C0.744374 210.829 1.00759 210.566 1.35854 210.39C1.70948 210.039 2.14816 209.25 2.67458 208.021C2.67458 207.846 2.76232 207.758 2.9378 207.758C2.9378 207.758 2.9378 207.67 2.9378 207.495C2.58685 206.267 2.2359 204.424 1.88496 201.967C1.53401 202.143 1.2708 202.231 1.09532 202.231H0.832115C1.18306 201.178 1.44627 200.476 1.62174 200.125V199.862C1.27079 198.107 1.09532 196.265 1.09532 194.334C0.919848 192.404 1.00759 190.299 1.35854 188.017C1.53401 183.806 2.58685 179.331 4.51706 174.594C5.74537 171.435 6.62275 168.54 7.14917 165.908C7.85106 163.1 8.46522 160.468 8.99164 158.011C8.46522 157.309 8.02653 156.432 7.67558 155.379C7.50011 154.326 7.58785 153.449 7.9388 152.747C8.46522 152.045 8.72842 151.168 8.72842 150.115C7.50011 150.466 6.53501 150.905 5.83311 151.431C3.9029 152.484 2.9378 153.712 2.9378 155.116C2.76232 156.52 2.67458 156.432 2.67458 154.853C2.67458 153.274 2.85006 151.431 3.201 149.325V148.799C3.201 148.448 3.28874 148.185 3.46422 148.009C3.81517 146.255 4.16611 145.026 4.51706 144.324C4.86801 143.447 5.21895 142.306 5.5699 140.903C5.04348 140.025 4.60479 139.148 4.25385 138.271C4.07837 138.095 3.99064 137.92 3.99064 137.744C3.81516 137.744 3.72742 137.481 3.72742 136.955C3.37648 135.2 3.201 133.884 3.201 133.006C3.201 132.304 3.201 131.69 3.201 131.164C3.02553 130.637 2.9378 130.023 2.9378 129.321C2.58685 127.918 2.41138 126.777 2.41138 125.9C2.06043 123.619 2.2359 122.127 2.9378 121.425C3.81517 120.197 5.74537 119.319 8.72842 118.793C10.1322 118.618 11.536 118.53 12.9398 118.53C14.5191 118.354 16.0983 118.091 17.6776 117.74C18.7304 117.565 19.6955 117.477 20.5729 117.477C21.4503 117.301 22.2399 117.214 22.9418 117.214C23.2927 115.108 23.6437 112.915 23.9946 110.633C24.5211 108.177 25.1352 105.632 25.8371 103C26.539 99.3154 27.2409 95.5428 27.9428 91.6823C28.8201 87.6464 29.6098 84.5757 30.3117 82.47C30.8381 80.8907 31.1013 80.3643 31.1013 80.8907C31.2768 81.4171 31.3645 82.3822 31.3645 83.786C32.4174 80.452 33.1193 78.1709 33.4702 76.9426C33.8211 75.5388 34.0844 74.3982 34.2598 73.5208C34.4353 72.6435 34.6108 71.7661 34.7863 70.8887C35.1372 69.8359 35.7514 67.9934 36.6287 65.3613C37.5061 62.7292 38.208 60.799 38.7344 59.5707C39.2608 58.1669 39.6995 56.9386 40.0505 55.8857C40.5769 54.6574 41.1033 53.4291 41.6297 52.2008C42.3316 50.9725 43.209 49.2177 44.2618 46.9366C44.6128 45.8837 44.9637 45.0941 45.3147 44.5677C45.6656 43.5148 45.9288 42.8129 46.1043 42.462L46.3675 41.9356V42.1988C47.5958 39.3912 48.3855 37.5487 48.7364 36.6714C49.0873 35.794 49.0873 35.9695 48.7364 37.1978C48.3855 38.4261 48.1222 40.5318 47.9468 43.5148C47.9468 46.4979 47.7713 48.7791 47.4203 50.3583C47.9468 48.9545 48.4732 47.1998 48.9996 45.0941C49.7015 42.9884 50.4911 40.7073 51.3685 38.2506C52.2459 35.794 53.1232 33.5128 54.0006 31.4072C54.878 29.126 55.7554 27.0203 56.6327 25.0901C57.3346 23.6863 57.9488 22.3703 58.4752 21.142C59.0016 19.9136 59.528 18.5976 60.0545 17.1938C61.1073 14.7372 61.8969 12.1928 62.4234 9.5607C62.7743 8.33239 62.9498 7.19181 62.9498 6.13896C63.1252 5.08612 63.3007 4.12102 63.4762 3.24365C63.4762 2.36628 63.5639 1.83986 63.7394 1.66439V0.874756V1.9276C63.7394 2.27854 63.8271 2.62949 64.0026 2.98044V4.29649C64.0026 5.34933 64.0026 6.57765 64.0026 7.98144C64.0026 9.38523 63.9149 10.8768 63.7394 12.456C63.5639 14.0353 63.3885 15.7023 63.213 17.457C63.213 19.0363 63.0375 20.6155 62.6866 22.1948C62.3356 23.7741 62.0724 25.2656 61.8969 26.6694C61.7215 28.0732 61.546 29.3892 61.3705 30.6175C61.7214 29.7402 62.1601 28.8628 62.6866 27.9854C63.3884 26.9326 64.0026 25.9675 64.529 25.0901C65.4064 23.3354 66.0206 21.5806 66.3715 19.8259C66.3715 18.9485 66.4592 19.0363 66.6347 20.0891C66.8102 20.9665 66.8979 22.1948 66.8979 23.7741C67.2489 25.3533 67.2489 27.1081 66.8979 29.0383C66.547 31.144 66.196 32.7232 65.8451 33.7761C65.1432 35.5308 64.2658 37.8119 63.213 40.6195C62.3356 43.4271 61.7214 45.796 61.3705 47.7262C62.0724 46.8488 62.7743 45.8837 63.4762 44.8309C64.3536 43.6026 64.9677 42.5497 65.3187 41.6724C65.4941 40.9705 65.5819 40.8827 65.5819 41.4092C65.7574 41.9356 65.8451 42.9007 65.8451 44.3045C65.8451 45.5328 65.7574 47.1998 65.5819 49.3055C65.4064 51.2357 64.9677 53.2536 64.2658 55.3593C63.7394 57.114 63.1252 58.8688 62.4234 60.6235C61.8969 62.3783 61.4582 64.2207 61.1073 66.1509C60.7564 67.5547 60.4054 69.0463 60.0545 70.6255C59.879 72.0293 59.6158 73.4331 59.2648 74.8369L60.0545 73.2576C60.4054 72.0293 60.7564 70.8887 61.1073 69.8359C61.4582 68.9585 61.7215 68.0811 61.8969 67.2038C62.2479 66.3264 62.4234 65.7122 62.4234 65.3613C62.4234 65.0104 62.4234 65.0981 62.4234 65.6245C62.5988 65.9755 62.6866 66.5019 62.6866 67.2038C63.0375 66.5019 63.3007 66.0632 63.4762 65.8877C63.8271 65.5368 64.0026 65.2736 64.0026 65.0981L64.7922 64.3085C64.7922 63.9575 64.9677 63.782 65.3187 63.782C65.4941 63.6066 65.6696 63.5188 65.8451 63.5188L66.1083 63.782H65.8451V64.0452V64.3085L65.5819 64.5717V65.3613V65.6245V65.8877C65.7574 67.2915 65.7574 68.783 65.5819 70.3623C65.5819 71.7661 65.4064 72.9944 65.0555 74.0472C65.4064 73.6963 65.5819 72.9067 65.5819 71.6783C65.7574 70.45 65.9328 70.1868 66.1083 70.8887C66.2838 71.7661 66.2838 72.8189 66.1083 74.0472C66.1083 75.2756 65.6696 77.118 64.7922 79.5747C64.0903 81.1539 63.7394 82.5577 63.7394 83.786C63.7394 85.0143 63.5639 86.5936 63.213 88.5238C63.213 88.6993 63.0375 90.1908 62.6866 92.9984C62.3356 95.806 61.9847 98.1749 61.6337 100.105C61.6337 99.9296 61.546 99.7541 61.3705 99.5787L60.5809 98.789V99.3154C60.4054 99.8419 60.2299 100.632 60.0545 101.684C60.0545 102.562 59.879 103.702 59.528 105.106C59.3526 106.159 59.1771 106.861 59.0016 107.212C59.0016 107.387 59.0016 107.563 59.0016 107.738C59.0016 107.914 58.9139 108.265 58.7384 108.791C58.7384 109.142 58.5629 110.107 58.212 111.686C58.0365 112.213 57.9488 112.651 57.9488 113.002C57.9488 113.353 57.861 113.704 57.6856 114.055V114.318V119.583H58.7384C59.7912 119.583 60.8441 119.583 61.8969 119.583C63.1252 119.407 64.7922 119.144 66.8979 118.793C70.4074 118.267 72.9518 118.267 74.531 118.793C76.1103 119.319 77.7773 119.758 79.532 120.109C79.532 118.705 79.6198 117.652 79.7952 116.951C79.9707 116.073 80.2339 115.371 80.5849 114.845C80.9358 113.792 81.3745 112.739 81.9009 111.686C82.6028 110.458 83.1292 108.528 83.4802 105.896C83.8311 103.264 84.0943 101.333 84.2698 100.105C84.6208 98.8768 84.884 97.9117 85.0594 97.2098C85.4104 96.5079 85.7613 95.7182 86.1123 94.8409C86.6387 93.788 87.2529 92.2088 87.9548 90.1031C88.3057 89.4012 88.6567 88.5238 89.0076 87.471C88.8321 86.7691 88.6566 86.1549 88.4812 85.6285C88.4812 85.1021 88.4812 84.5757 88.4812 84.0493C88.3057 83.3474 88.218 82.5577 88.218 81.6804V81.1539C87.867 81.5049 87.5161 82.2068 87.1651 83.2596C86.8142 84.4879 86.6387 84.4002 86.6387 82.9964C86.6387 81.4171 86.8142 79.136 87.1651 76.1529C87.5161 73.1699 88.0425 69.9236 88.7444 66.4141C89.4463 62.9047 90.4991 59.7462 91.9029 56.9386C93.1312 54.131 94.2718 50.9725 95.3246 47.463C96.553 43.778 97.6935 40.4441 98.7464 37.461C99.7992 34.478 100.764 32.2845 101.642 30.8807C102.519 29.3015 103.133 29.2137 103.484 30.6175C103.835 32.3723 104.449 33.1619 105.327 32.9864C106.379 32.811 107.345 32.5477 108.222 32.1968C108.222 32.1968 108.397 32.0213 108.748 31.6704C109.626 30.2666 110.415 28.9505 111.117 27.7222C111.819 26.3184 112.17 25.3533 112.17 24.8269C111.995 24.6514 111.907 24.6514 111.907 24.8269C112.082 24.8269 112.258 25.0024 112.433 25.3533C113.135 26.4062 113.574 27.459 113.749 28.5119C114.1 28.3364 114.364 28.1609 114.539 27.9854C114.714 27.8099 114.978 27.6345 115.329 27.459C115.68 27.2835 115.943 27.1958 116.118 27.1958C116.294 27.1958 116.557 27.1081 116.908 26.9326C117.785 26.2307 118.663 25.5288 119.54 24.8269C120.593 24.125 121.295 23.3354 121.646 22.458C121.997 21.5806 122.435 21.9316 122.962 23.5109C123.664 24.9146 124.19 26.8449 124.541 29.3015C124.716 29.3015 124.804 29.477 124.804 29.8279C126.033 29.8279 126.91 30.3543 127.436 31.4072C127.612 32.2845 128.226 33.0742 129.279 33.7761C129.63 32.3723 129.805 30.9685 129.805 29.5647C129.805 28.5118 129.717 27.459 129.542 26.4062C129.367 25.1779 128.84 24.3005 127.963 23.7741C126.91 23.0722 126.998 23.1599 128.226 24.0373C129.63 24.7392 131.209 25.792 132.964 27.1958H133.49C133.841 27.5467 134.017 27.8099 134.017 27.9854C134.543 28.5118 134.982 29.0383 135.333 29.5647C135.859 30.0911 136.298 30.7053 136.649 31.4072C138.228 33.8638 139.983 35.6185 141.913 36.6714C143.843 37.5487 144.808 38.6893 144.808 40.0931C144.808 41.3214 144.72 42.2865 144.545 42.9884C144.37 43.5148 144.194 44.0413 144.019 44.5677C143.843 45.0941 143.58 45.7083 143.229 46.4102C142.703 47.8139 142.001 49.3932 141.123 51.1479C140.421 52.7272 139.807 54.4819 139.281 56.4122C138.403 59.3952 137.702 61.7641 137.175 63.5188C136.649 65.2736 136.21 66.6774 135.859 67.7302C135.684 68.2566 135.508 68.6953 135.333 69.0462C135.333 69.2217 135.333 69.4849 135.333 69.8359V70.3623C134.104 70.0114 133.402 71.1519 133.227 73.784C133.227 76.2407 132.876 78.6096 132.174 80.8907C131.823 81.7681 131.384 82.6455 130.858 83.5228C130.507 84.4002 129.981 85.453 129.279 86.6814V87.2078C129.981 86.1549 130.858 84.9266 131.911 83.5228C132.964 81.9436 134.192 80.803 135.596 80.1011C135.42 80.2766 135.245 80.5398 135.069 80.8907C134.894 81.2417 134.631 81.5926 134.28 81.9436C134.104 82.2945 133.929 82.6455 133.753 82.9964C133.227 83.8738 132.701 84.7511 132.174 85.6285C131.823 86.3304 131.56 87.12 131.384 87.9974C132.086 86.9446 132.788 85.9795 133.49 85.1021C134.192 84.2247 134.192 84.4002 133.49 85.6285C132.613 87.2078 132.086 88.4361 131.911 89.3135C131.911 90.1908 131.472 91.4191 130.595 92.9984C129.893 94.0512 129.279 95.7182 128.752 97.9994C128.928 97.8239 129.103 97.7362 129.279 97.7362C129.454 97.5607 129.63 97.3852 129.805 97.2098L130.068 96.9466C129.367 97.9994 128.665 99.4909 127.963 101.421C127.787 101.772 127.7 102.123 127.7 102.474C127.7 102.825 127.612 103.088 127.436 103.264C127.261 103.439 127.173 103.702 127.173 104.053V104.316C126.998 104.667 126.91 105.106 126.91 105.632C126.91 106.159 126.822 106.598 126.647 106.949C126.12 109.756 125.769 111.248 125.594 111.423C125.594 111.599 125.243 112.125 124.541 113.002C124.716 113.002 124.804 113.002 124.804 113.002C124.98 112.827 125.155 112.739 125.331 112.739H125.594C125.067 113.441 124.541 114.318 124.015 115.371C123.488 116.249 123.049 117.126 122.699 118.003C122.348 118.53 122.084 118.968 121.909 119.319C121.909 119.67 121.821 120.021 121.646 120.372C121.47 120.548 121.382 120.723 121.382 120.899C121.382 121.074 121.295 121.162 121.119 121.162V121.688C120.768 122.215 120.505 122.653 120.33 123.004C120.33 123.355 120.242 123.706 120.066 124.057C120.417 123.706 120.681 123.619 120.856 123.794C121.032 123.794 120.856 124.32 120.33 125.373C119.979 126.426 119.803 127.04 119.803 127.216C121.032 127.567 122.172 127.918 123.225 128.269C124.453 128.444 125.506 128.707 126.383 129.058C129.191 130.111 131.297 130.901 132.701 131.427C134.455 131.778 136.035 132.041 137.438 132.217C136.561 132.217 135.684 132.304 134.806 132.48C133.929 132.655 133.051 132.831 132.174 133.006C131.823 133.182 131.472 133.27 131.121 133.27C130.946 133.27 130.683 133.357 130.332 133.533C130.156 133.533 129.981 133.621 129.805 133.796H129.542C133.578 133.445 137.175 133.796 140.334 134.849C143.843 135.726 146.651 136.955 148.756 138.534C149.985 139.411 150.95 140.201 151.652 140.903C152.529 141.605 153.231 142.219 153.757 142.745C154.108 143.096 154.284 143.359 154.284 143.535C154.459 143.71 154.635 143.886 154.81 144.061L155.073 144.588Z" fill="white"/>
</svg>
