<svg width="149" height="182" viewBox="0 0 149 182" fill="none" xmlns="http://www.w3.org/2000/svg">
<path d="M29.9205 0.804932C39.5167 0.804932 45.857 3.37535 48.9415 8.51617C50.3124 11.515 50.9979 13.4 50.9979 14.1711V16.2274C50.9979 19.1405 51.1692 23.7673 51.5119 30.1076L50.4838 30.6217L50.9979 31.6499V33.1922L48.9415 37.8189H50.4838L49.4556 39.3611L50.4838 40.9034C50.1411 41.5888 49.9697 42.1029 49.9697 42.4456C50.9979 42.4456 51.5119 44.6733 51.5119 49.1287H50.9979C51.3406 49.8142 51.5119 50.3282 51.5119 50.671L50.9979 51.6991L51.5119 52.7273L49.9697 58.3822C50.9979 58.3822 51.5119 58.7249 51.5119 59.4104V59.9244C51.5119 60.2672 51.3406 60.4385 50.9979 60.4385C52.4544 66.6075 53.9967 69.692 55.6246 69.692C55.6246 69.0923 56.4814 68.5782 58.195 68.1498C60.2514 68.5782 61.2795 69.0923 61.2795 69.692L60.2514 70.2061C60.5941 70.8916 60.7654 71.4056 60.7654 71.7484C63.5072 71.7484 64.8781 70.8916 64.8781 69.1779H65.9063C65.9063 70.5488 66.249 71.2343 66.9344 71.2343H67.4485C67.7912 68.8352 68.3053 67.6357 68.9908 67.6357L70.533 68.6639L72.0753 67.6357H80.8147C81.1574 67.6357 81.3288 67.8071 81.3288 68.1498C83.7278 68.1498 85.9555 65.9221 88.0118 61.4667H88.5259V63.523L87.4977 65.0653L88.5259 65.5794H89.04C89.5541 65.5794 90.0682 65.0653 90.5822 64.0371C90.5822 62.9233 89.8968 61.5524 88.5259 59.9244C90.1538 59.8388 91.182 58.982 91.6104 57.354C90.925 56.2402 90.5822 55.212 90.5822 54.2695C91.2677 54.0982 91.9531 53.2414 92.6386 51.6991L90.0682 48.1006L92.1245 45.5301C91.439 45.5301 91.0963 45.1874 91.0963 44.502V43.9879C91.0963 43.3024 91.6104 42.9597 92.6386 42.9597V40.9034C92.6386 40.475 91.6104 39.6182 89.5541 38.333C90.2395 37.4762 90.5822 36.9621 90.5822 36.7907C89.8968 35.9339 89.5541 35.2485 89.5541 34.7344C89.8968 34.049 90.0682 33.5349 90.0682 33.1922C89.3827 33.1922 89.04 32.8494 89.04 32.164L89.5541 31.1358C88.5259 31.1358 88.0118 30.7931 88.0118 30.1076V28.5654C89.3827 28.5654 90.0682 28.0513 90.0682 27.0232C88.3546 26.7661 87.4977 26.252 87.4977 25.4809C87.4977 24.7955 88.0118 24.4527 89.04 24.4527V23.9387C87.6691 23.9387 86.9837 22.5678 86.9837 19.826C87.3264 18.6265 87.4977 17.941 87.4977 17.7697C87.155 17.0842 86.9837 16.5701 86.9837 16.2274C86.9837 10.3155 90.5822 5.51736 97.7794 1.8331C101.207 1.14765 104.634 0.804932 108.061 0.804932H115.258C125.454 0.804932 132.137 3.88943 135.307 10.0584C135.993 10.0584 137.021 10.7439 138.392 12.1147C138.392 11.6007 138.906 11.0866 139.934 10.5725C144.047 13.9997 146.103 16.0561 146.103 16.7415C144.732 17.2556 144.047 17.7697 144.047 18.2837C145.075 18.2837 145.589 18.6265 145.589 19.3119C145.589 19.9974 145.246 20.3401 144.561 20.3401H144.047L142.505 19.3119H140.962C140.962 20.083 140.791 20.7685 140.448 21.3682H140.962C141.305 21.3682 141.476 21.1969 141.476 20.8542C144.561 20.8542 146.103 21.8823 146.103 23.9387C145.503 24.2814 144.647 24.4527 143.533 24.4527V24.9668C143.618 25.6523 143.961 25.995 144.561 25.995C144.218 30.4504 143.361 33.7062 141.991 35.7626V37.3048C142.676 38.1616 143.019 38.8471 143.019 39.3611L142.505 41.9316L145.075 46.5583C146.103 46.5583 146.617 46.901 146.617 47.5865V48.1006C144.904 49.1287 144.047 49.9855 144.047 50.671C144.39 51.3564 144.561 51.8705 144.561 52.2132C143.876 52.2989 143.533 52.6416 143.533 53.2414V54.7836L145.589 56.84L144.047 59.4104V60.4385H144.561L147.131 59.9244L147.645 60.9526L146.617 61.4667C146.617 61.124 146.446 60.9526 146.103 60.9526L145.589 61.9808C145.675 62.6662 146.018 63.0089 146.617 63.0089L146.103 64.0371V65.0653L147.131 66.6075C146.617 68.3211 145.418 69.1779 143.533 69.1779V70.2061C144.304 70.2061 145.161 71.0629 146.103 72.7765C146.446 72.7765 146.617 72.9479 146.617 73.2906V73.8047C146.617 74.1474 146.446 74.3188 146.103 74.3188C146.789 75.0899 147.303 78.5171 147.645 84.6004C147.988 84.6004 148.16 84.7718 148.16 85.1145C147.474 87.6849 147.131 90.084 147.131 92.3117V167.882C143.704 176.793 137.878 181.248 129.653 181.248H115.258C106.862 181.248 101.207 177.821 98.2935 170.966C97.2653 168.739 96.7512 165.997 96.7512 162.741V134.466C96.7512 127.441 96.5799 117.844 96.2372 105.678C96.0658 103.964 95.0376 103.107 93.1526 103.107H64.364C63.1645 103.107 62.3077 104.992 61.7936 108.762V164.797C61.7936 170.881 58.5377 175.85 52.026 179.706C49.1129 181.077 44.4862 181.762 38.1458 181.762C27.8641 181.762 19.9815 179.363 14.498 174.565H13.9839L10.3853 176.621C7.98628 175.422 6.78674 174.565 6.78674 174.051V173.537C8.15763 173.537 8.84308 173.194 8.84308 172.509C7.47219 172.509 6.78674 171.994 6.78674 170.966C7.12947 170.281 7.30083 169.767 7.30083 169.424C6.61538 169.424 6.27266 169.081 6.27266 168.396L5.24449 168.91H4.73041L7.30083 164.797C6.18698 164.797 5.15882 162.398 4.21634 157.6V156.058C3.18817 156.058 2.67409 155.715 2.67409 155.03C2.93113 150.831 3.44521 148.261 4.21634 147.319L3.70226 144.748C4.04498 144.148 4.21634 143.463 4.21634 142.692C3.5309 142.606 2.67409 140.892 1.64592 137.551C1.3032 137.551 1.13184 137.38 1.13184 137.037H2.67409V134.466L3.70226 132.924C3.18817 130.439 2.50272 128.554 1.64592 127.269C4.55906 123.928 6.95811 121.529 8.84308 120.072H6.27266C4.38769 121.786 3.35953 122.643 3.18817 122.643H2.67409V120.586C2.67409 119.13 2.50273 117.759 2.16 116.474C2.50273 115.103 2.67409 113.732 2.67409 112.361V110.819C1.3032 110.819 0.617752 110.476 0.617752 109.79C1.21752 109.448 2.07433 109.276 3.18817 109.276C3.18817 108.248 2.67409 107.734 1.64592 107.734C1.98864 104.221 2.33137 102.165 2.67409 101.565C1.98864 101.565 1.64592 101.222 1.64592 100.537C2.33136 99.6802 2.67409 98.9947 2.67409 98.4807L1.13184 95.9102V93.8539C1.81728 92.9971 2.16 92.483 2.16 92.3117V91.7976L1.13184 88.199C1.90296 88.199 2.41705 86.9995 2.67409 84.6004C2.67409 83.5723 2.50273 83.0582 2.16 83.0582L2.67409 77.9173V67.1216C2.67409 63.6087 3.18817 61.2097 4.21634 59.9244L3.18817 58.3822H3.70226L4.73041 58.8963V57.8681C3.70224 56.1545 3.18817 54.7836 3.18817 53.7555L4.21634 53.2414C4.90178 54.3552 5.24449 55.212 5.24449 55.8118H5.75858V55.2977C5.75858 53.6698 4.90178 52.2989 3.18817 51.185V48.1006C3.18817 47.4151 4.21633 46.7297 6.27266 46.0442V45.5301L5.24449 43.9879C5.92994 42.617 6.27266 41.5888 6.27266 40.9034C5.84426 40.9034 5.15882 40.0466 4.21634 38.333C4.21634 37.8189 4.73041 37.3048 5.75858 36.7907C5.41585 36.3623 5.24449 35.5055 5.24449 34.2203H6.78674V33.1922C5.41586 33.1922 4.73041 32.3353 4.73041 30.6217H5.24449C4.55905 29.5079 4.21634 28.4797 4.21634 27.5372C4.90178 27.5372 5.24449 27.1945 5.24449 26.5091V24.9668C5.24449 24.4527 4.55906 23.9387 3.18817 23.4246L3.70226 21.3682L3.18817 18.7978C3.87362 18.7978 4.21634 18.4551 4.21634 17.7697L3.18817 16.2274C3.18817 7.83073 9.01443 2.6899 20.667 0.804932H29.9205ZM139.934 15.1993C139.934 15.9704 140.791 16.4845 142.505 16.7415L143.019 15.7133C143.019 15.0279 142.505 14.6852 141.476 14.6852C140.791 15.0279 140.277 15.1993 139.934 15.1993ZM148.16 15.1993H148.674V16.2274H148.16V15.1993ZM141.476 24.9668V25.995H142.505V24.9668H141.476ZM91.6104 30.6217C91.9531 31.3072 92.1245 31.8213 92.1245 32.164H92.6386V30.6217H91.6104ZM137.364 30.6217V31.1358L137.878 33.7062H139.42C139.934 33.7062 140.62 33.0208 141.476 31.6499H140.962C140.363 31.9926 139.677 32.164 138.906 32.164C138.563 31.4785 138.392 30.9645 138.392 30.6217H137.364ZM91.6104 37.3048V38.8471C92.2959 38.8471 92.6386 38.5043 92.6386 37.8189L91.6104 37.3048ZM138.392 37.3048V38.333H138.906V37.3048H138.392ZM146.103 39.8752C146.789 39.9609 147.131 40.3036 147.131 40.9034C146.617 42.2743 146.103 42.9597 145.589 42.9597H145.075V42.4456C145.075 42.1029 145.246 41.9316 145.589 41.9316L145.075 40.9034C145.161 40.2179 145.503 39.8752 146.103 39.8752ZM90.0682 40.3893H91.6104V40.9034C91.6104 41.5888 91.2677 41.9316 90.5822 41.9316L90.0682 40.9034V40.3893ZM141.991 46.5583V48.1006H142.505C143.19 48.1006 143.533 47.7578 143.533 47.0724L142.505 46.5583H141.991ZM137.364 48.1006V49.1287H137.878V48.1006H137.364ZM88.0118 48.1006L88.5259 49.1287V51.185H88.0118C87.3264 51.185 86.9837 50.8423 86.9837 50.1569V49.1287C87.0693 48.4433 87.4121 48.1006 88.0118 48.1006ZM140.448 49.1287V49.6428L140.962 52.2132C141.648 52.2132 141.991 51.8705 141.991 51.185C141.476 49.8142 140.962 49.1287 140.448 49.1287ZM93.1526 49.6428V51.6991H94.1808V49.6428H93.1526ZM49.4556 51.185V53.2414H50.4838V52.2132C50.4838 51.5278 50.1411 51.185 49.4556 51.185ZM140.448 54.7836V55.8118H141.476V54.7836H140.448ZM86.9837 56.3259C87.6691 56.4116 88.0118 56.7543 88.0118 57.354L86.9837 57.8681V56.3259ZM140.962 57.8681V58.3822H141.991V56.84C141.305 56.9256 140.962 57.2684 140.962 57.8681ZM142.505 59.4104V60.4385H143.019V59.4104H142.505ZM142.505 63.523L141.991 64.5512L143.019 65.0653H143.533V64.5512C143.533 63.8658 143.19 63.523 142.505 63.523ZM3.18817 88.199V88.7131C3.27385 89.3985 3.61658 89.7413 4.21634 89.7413L4.73041 88.7131V88.199H3.18817ZM2.67409 96.4243L3.70226 96.9384H4.73041V93.8539C5.41585 92.9971 5.75858 92.483 5.75858 92.3117L4.73041 91.7976C4.38769 91.7976 3.70225 93.3398 2.67409 96.4243ZM6.78674 97.4525L7.81491 97.9666V96.4243C7.12947 96.51 6.78674 96.8527 6.78674 97.4525ZM7.30083 99.5088V100.537H8.32899V99.5088H7.30083ZM3.18817 103.107C3.27385 103.793 3.61658 104.136 4.21634 104.136H4.73041V103.107H3.18817ZM5.24449 103.107V103.621C5.33017 104.307 5.6729 104.65 6.27266 104.65H6.78674C6.78674 104.136 6.27266 103.621 5.24449 103.107ZM4.73041 108.248L4.21634 109.276V109.79H4.73041C5.41585 109.79 5.75858 109.448 5.75858 108.762L4.73041 108.248ZM11.4135 129.326V130.354H12.4417V129.326H11.4135ZM11.4135 134.466V135.495H12.4417V134.466H11.4135ZM4.73041 136.009L4.21634 137.037V138.579H5.75858V137.037C5.75858 136.351 5.41585 136.009 4.73041 136.009ZM5.24449 145.262V146.29H6.78674C7.47219 146.29 7.81491 145.948 7.81491 145.262V144.748L5.24449 145.262ZM7.81491 154.516V155.544C8.50035 155.544 8.84308 155.201 8.84308 154.516H7.81491ZM3.18817 161.713H3.70226V162.741C3.70226 163.426 3.35953 163.769 2.67409 163.769L2.16 162.741C2.24568 162.056 2.58841 161.713 3.18817 161.713ZM10.8994 168.396V169.424H11.4135V168.396H10.8994ZM11.9276 170.452V171.48H12.9557V170.452H11.9276Z" fill="white"/>
</svg>
