<svg width="207" height="203" viewBox="0 0 207 203" fill="none" xmlns="http://www.w3.org/2000/svg">
<path d="M206.179 198.553H149.501V175.412C142.794 184.579 134.689 191.398 125.187 195.87C115.796 200.23 105.456 202.41 94.1651 202.41C79.4088 202.41 66.2176 199.783 54.5914 194.529C42.9653 189.274 33.1277 182.12 25.0789 173.065C17.03 163.898 10.8815 153.166 6.63351 140.869C2.38549 128.572 0.261475 115.381 0.261475 101.296C0.261475 87.2102 2.38549 74.0189 6.63351 61.722C10.8815 49.4251 17.03 38.7492 25.0789 29.6942C33.1277 20.5274 42.9653 13.317 54.5914 8.06284C66.2176 2.80871 79.4088 0.181641 94.1651 0.181641C101.655 0.181641 108.754 1.29955 115.461 3.53535C122.28 5.77115 128.485 8.95716 134.074 13.0934C139.775 17.1178 144.75 22.0366 148.998 27.8497C153.358 33.551 156.767 39.923 159.227 46.9658L184.38 4.87682H206.179V198.553ZM149.166 101.296C149.166 96.2652 148.886 90.9551 148.327 85.3656C147.88 79.7761 147.042 74.2425 145.812 68.7648C144.582 63.2871 142.85 58.0889 140.614 53.1701C138.49 48.1395 135.695 43.7239 132.23 39.923C128.876 36.0103 124.796 32.9361 119.989 30.7003C115.182 28.4645 109.592 27.3466 103.22 27.3466C96.8481 27.3466 91.3144 28.5204 86.6193 30.868C81.9241 33.1038 77.8997 36.178 74.546 40.0907C71.1923 43.8915 68.3975 48.3072 66.1617 53.3378C64.0377 58.3683 62.3609 63.6225 61.1312 69.1002C59.9015 74.5779 59.0071 80.1115 58.4482 85.701C58.001 91.1787 57.7775 96.3769 57.7775 101.296C57.7775 106.214 58.001 111.469 58.4482 117.058C59.0071 122.648 59.9015 128.181 61.1312 133.659C62.3609 139.137 64.0377 144.391 66.1617 149.421C68.3975 154.452 71.1923 158.923 74.546 162.836C77.8997 166.637 81.9241 169.711 86.6193 172.059C91.3144 174.295 96.8481 175.412 103.22 175.412C109.033 175.412 114.175 174.239 118.647 171.891C123.23 169.432 127.199 166.19 130.553 162.165C134.018 158.141 136.925 153.558 139.272 148.415C141.62 143.273 143.52 137.963 144.974 132.485C146.427 127.007 147.489 121.586 148.16 116.22C148.83 110.742 149.166 105.767 149.166 101.296Z" fill="white"/>
</svg>
