<svg width="154" height="165" viewBox="0 0 154 165" fill="none" xmlns="http://www.w3.org/2000/svg">
<path d="M46.4842 164.038C32.5185 164.038 21.3002 160.032 12.8292 152.019C4.58711 144.006 0.466064 134.39 0.466064 123.172C0.466064 111.495 3.44236 102.337 9.39496 95.698C15.5765 89.0586 23.5896 84.1362 33.4343 80.931C43.5079 77.7257 54.3828 75.5507 66.0591 74.406C77.9643 73.2613 89.526 72.3455 100.744 71.6587V44.5286C100.744 33.7681 97.997 25.4116 92.5023 19.459C87.2366 13.2775 78.1932 10.1867 65.3723 10.1867C58.9618 10.1867 52.8947 12.2472 47.1711 16.3682C41.6764 20.4893 38.929 26.4419 38.929 34.226C38.929 37.8891 39.8448 40.9799 41.6763 43.4983C43.5079 46.0167 45.3395 47.9628 47.1711 49.3364C49.0026 50.7101 49.9184 51.6259 49.9184 52.0838C49.9184 52.9996 48.5447 54.7167 45.7974 57.2351C43.279 59.5245 39.7303 60.6693 35.1514 60.6693C28.054 60.6693 22.5593 58.0364 18.6673 52.7706C14.7752 47.5049 12.8292 41.6668 12.8292 35.2563C12.8292 26.5563 15.462 19.6879 20.7278 14.6511C26.2225 9.61432 33.2053 5.95118 41.6763 3.66173C50.1473 1.37226 58.7328 0.227539 67.4328 0.227539C77.7353 0.227539 87.6945 1.48674 97.3102 4.00514C107.155 6.52355 115.168 11.3314 121.35 18.4287C127.76 25.5261 130.965 36.1721 130.965 50.3667V130.383C131.194 132.673 131.767 135.42 132.682 138.625C133.598 141.831 135.315 144.692 137.834 147.211C140.581 149.5 144.244 150.645 148.823 150.645C150.426 150.645 151.685 150.988 152.601 151.675C153.516 152.133 153.974 153.621 153.974 156.14C153.974 158.2 152.83 159.803 150.54 160.948C148.251 162.092 145.618 162.894 142.642 163.352C139.665 163.809 137.147 164.038 135.086 164.038C126.615 164.038 119.06 161.634 112.421 156.827C105.781 151.79 101.889 144.921 100.744 136.221C95.7076 145.379 88.1524 152.362 78.0787 157.17C68.2341 161.749 57.7025 164.038 46.4842 164.038ZM57.4736 145.494C65.2578 145.494 72.3551 143.548 78.7656 139.656C85.405 135.764 90.6708 130.498 94.5629 123.858C98.6839 116.99 100.744 109.435 100.744 101.193V81.6178C77.163 83.2204 60.3354 86.998 50.2618 92.9506C40.1882 98.9032 35.1514 108.633 35.1514 122.141C35.1514 137.71 42.5921 145.494 57.4736 145.494Z" fill="white"/>
</svg>
