<svg width="153" height="187" viewBox="0 0 153 187" fill="none" xmlns="http://www.w3.org/2000/svg">
<path d="M107.3 38.1564V136.374C107.3 166.824 117.144 182.049 136.834 182.049C142.786 182.049 147.251 181.133 150.227 179.302L152.287 181.706C148.853 184.453 143.358 185.827 135.803 185.827C113.824 185.827 102.835 169.342 102.835 136.374V128.819C95.0509 141.869 84.7483 153.66 71.9274 164.191C59.3353 174.723 47.4302 182.278 36.2118 186.857C24.0777 180.446 15.0343 170.602 9.08173 157.323C3.12913 144.044 0.152832 128.59 0.152832 110.961C0.152832 93.3324 4.15938 75.7036 12.1725 58.0747C20.4145 40.4459 32.0908 26.1368 47.2012 15.1474C67.5774 15.1474 86.2365 19.9552 103.178 29.571C104.323 18.1237 108.101 8.39347 114.511 0.380371L117.602 2.09746C110.734 13.0869 107.3 25.1065 107.3 38.1564ZM48.2315 18.925C34.2658 29.9144 23.5053 43.7656 15.9501 60.4787C8.62383 77.1917 4.96069 93.9048 4.96069 110.618C4.96069 127.102 7.59356 141.754 12.8593 154.575C18.1251 167.167 26.1382 176.325 36.8987 182.049C47.4302 177.928 59.3353 170.144 72.6142 158.696C86.122 147.02 96.1957 134.772 102.835 121.951V33.692C85.8931 23.8473 67.6919 18.925 48.2315 18.925Z" fill="white"/>
</svg>
