<svg width="149" height="165" viewBox="0 0 149 165" fill="none" xmlns="http://www.w3.org/2000/svg">
<path d="M0.0195312 115.308C0.0195312 106.142 2.47891 98.1485 7.39767 91.3293C12.3164 84.3983 18.7444 78.6412 26.6815 74.0578C34.7303 69.4744 43.8971 66.0648 54.1818 63.829C64.5783 61.4814 75.1424 60.3076 85.8743 60.3076C91.7991 60.3076 96.8856 60.4194 101.134 60.643C105.382 60.8665 109.686 61.2019 114.045 61.6491V55.4447C114.045 47.2841 110.859 41.1915 104.487 37.1671C98.2271 33.1426 89.9546 31.1304 79.6699 31.1304C70.2796 31.1304 60.7215 32.4719 50.9958 35.1548C41.2701 37.726 32.0474 41.5269 23.3278 46.5574L9.24222 19.3924C19.5269 13.4676 30.5382 8.8283 42.2762 5.4746C54.1259 2.00911 66.5905 0.276367 79.6699 0.276367C88.166 0.276367 96.4943 1.22658 104.655 3.12701C112.927 5.02744 120.306 8.15756 126.789 12.5174C133.385 16.8772 138.639 22.5785 142.552 29.6212C146.464 36.5522 148.421 45.16 148.421 55.4447V160.248H114.045V137.275C108.568 145.771 100.463 152.367 89.731 157.062C79.111 161.757 67.6525 164.105 55.3556 164.105C47.7539 164.105 40.5434 163.043 33.7242 160.919C27.0168 158.906 21.2037 155.832 16.285 151.696C11.3662 147.56 7.39766 142.473 4.37933 136.437C1.47279 130.288 0.0195312 123.245 0.0195312 115.308ZM64.2429 133.083C71.0621 133.083 77.4341 132.244 83.359 130.568C89.3956 128.779 94.7057 126.375 99.2891 123.357C103.872 120.227 107.45 116.482 110.021 112.122C112.704 107.762 114.045 102.955 114.045 97.7013V91.8324C108.568 90.9381 103.425 90.435 98.6183 90.3232C93.8113 90.2114 89.5633 90.1555 85.8743 90.1555C68.8822 90.1555 56.0263 92.3913 47.3067 96.8629C38.6989 101.335 34.395 106.868 34.395 113.464C34.395 126.543 44.3443 133.083 64.2429 133.083Z" fill="white"/>
</svg>
