<svg width="206" height="187" viewBox="0 0 206 187" fill="none" xmlns="http://www.w3.org/2000/svg">
<path d="M71.2763 62.3687L6.04684 55.4936C8.50622 44.0911 12.0276 35.1479 16.611 28.664C21.3062 22.0684 28.0136 16.3671 36.7332 11.5602C42.9934 8.09468 51.6013 5.41172 62.5567 3.51129C73.5121 1.61086 85.3619 0.660645 98.1059 0.660645C118.563 0.660645 134.997 1.83443 147.405 4.18202C159.814 6.41782 170.155 11.1689 178.427 18.4353C184.24 23.4658 188.824 30.6204 192.177 39.8989C195.531 49.0657 197.208 57.8412 197.208 66.2255V144.87C197.208 153.254 197.711 159.85 198.717 164.657C199.835 169.352 202.182 175.388 205.76 182.767H141.704C139.133 178.183 137.456 174.718 136.673 172.37C135.891 169.911 135.108 166.11 134.326 160.968C125.383 169.575 116.495 175.724 107.664 179.413C95.5907 184.332 81.561 186.791 65.575 186.791C44.3349 186.791 28.1813 181.872 17.114 172.035C6.15862 162.197 0.680908 150.068 0.680908 135.647C0.680908 122.12 4.64946 110.997 12.5865 102.278C20.5236 93.5581 35.1682 87.0743 56.5201 82.8263C82.12 77.684 98.7208 74.1067 106.322 72.0945C113.924 69.9705 121.973 67.2316 130.469 63.8779C130.469 55.4936 128.736 49.6247 125.271 46.271C121.805 42.9173 115.713 41.2404 106.993 41.2404C95.8142 41.2404 87.43 43.0291 81.8405 46.6063C77.4807 49.4011 73.9592 54.6552 71.2763 62.3687ZM130.469 98.2533C121.079 101.607 111.297 104.569 101.124 107.141C87.2623 110.83 78.4868 114.463 74.7977 118.04C70.9968 121.729 69.0964 125.921 69.0964 130.617C69.0964 135.982 70.9409 140.398 74.63 143.864C78.4308 147.217 83.9645 148.894 91.2308 148.894C98.8325 148.894 105.875 147.05 112.359 143.361C118.955 139.672 123.594 135.2 126.277 129.946C129.072 124.58 130.469 117.649 130.469 109.153V98.2533Z" fill="white"/>
</svg>
