<svg width="174" height="100" viewBox="0 0 174 100" fill="none" xmlns="http://www.w3.org/2000/svg">
<path d="M23.1726 99.7433C16.0752 99.7433 10.5805 97.5683 6.68846 93.2184C2.79638 88.6394 0.850342 82.8013 0.850342 75.704C0.850342 69.0646 2.56744 61.7383 6.00163 53.7252C9.66477 45.7121 15.3884 37.5845 23.1726 29.3425C31.1857 20.6425 41.1448 13.6597 53.05 8.39391C64.9552 2.89921 76.288 0.151855 87.0485 0.151855C95.7484 0.151855 103.189 2.0979 109.371 5.98997C115.552 9.65311 119.673 14.3465 121.734 20.0702C124.252 20.0702 127.343 20.757 131.006 22.1307C134.898 23.5043 136.844 26.0227 136.844 29.6859C136.844 32.2043 135.585 35.0661 133.067 38.2714C131.464 40.5608 128.602 43.995 124.481 48.5739C120.589 53.1528 116.926 58.0752 113.492 63.3409C110.744 67.462 108.569 71.354 106.967 75.0172C105.364 78.4514 104.563 81.4277 104.563 83.9461C104.563 87.3802 106.28 89.0973 109.714 89.0973C113.606 89.0973 119.444 86.9224 127.229 82.5724C135.7 77.7645 143.827 72.2698 151.611 66.0883C159.395 59.9067 165.462 54.9844 169.812 51.3213C170.957 50.4055 171.758 49.9476 172.216 49.9476C173.132 49.9476 173.59 50.52 173.59 51.6647C173.59 53.0384 173.018 54.2976 171.873 55.4423C169.812 57.2739 165.806 60.708 159.853 65.7449C153.901 70.7817 147.032 76.0474 139.248 81.5421C131.693 87.0368 124.252 91.5013 116.926 94.9355C113.263 96.5381 109.829 97.7973 106.623 98.7131C103.647 99.3999 100.9 99.7433 98.3813 99.7433C92.1998 99.7433 87.5064 98.0262 84.3011 94.5921C81.0959 90.9289 79.4933 86.2355 79.4933 80.5119C79.4933 78.2224 79.8367 75.8185 80.5235 73.3001C81.2103 70.7817 82.0117 68.2633 82.9275 65.7449L85.3314 59.9068C79.3788 67.233 73.4262 73.4146 67.4736 78.4514C61.521 83.2592 55.5684 87.4947 49.6158 91.1579C44.579 94.1341 39.7712 96.3091 35.1922 97.6828C30.8423 99.0565 26.8357 99.7433 23.1726 99.7433ZM33.8186 90.8144C37.9396 90.8144 43.8922 88.4105 51.6763 83.6026C59.4605 78.5658 68.5039 70.8961 78.8064 60.5936C80.1801 59.2199 82.6985 56.816 86.3616 53.3818C90.2537 49.7187 94.3747 45.7121 98.7247 41.3621C103.075 36.7832 106.738 32.3188 109.714 27.9688C112.919 23.3899 114.522 19.6123 114.522 16.636C114.522 12.286 110.744 10.111 103.189 10.111C96.5497 10.111 88.5366 12.7439 79.1499 18.0096C69.992 23.0464 61.1776 30.6017 52.7066 40.6753C44.0066 50.9779 37.5962 59.9067 33.4751 67.462C29.5831 74.7882 27.637 80.3974 27.637 84.2895C27.637 88.6394 29.6975 90.8144 33.8186 90.8144Z" fill="white"/>
</svg>
