<svg width="219" height="281" viewBox="0 0 219 281" fill="none" xmlns="http://www.w3.org/2000/svg">
<path d="M56.9963 0.512817H217.803C218.415 0.665748 218.644 0.97161 218.491 1.4304L213.445 26.8934C213.292 27.5051 212.909 27.811 212.298 27.811H205.645V28.2698C207.174 28.2698 207.786 29.1874 207.48 31.0225C206.716 32.7048 205.416 33.5459 203.581 33.5459V34.0047H211.151C211.762 34.0047 211.992 34.3106 211.839 34.9223L209.774 45.2451C209.621 45.8568 209.239 46.1627 208.627 46.1627H201.057L198.534 58.3207H204.728L205.875 53.274C206.028 52.5093 206.41 52.127 207.022 52.127H207.48C208.092 52.2799 208.321 52.6623 208.169 53.274L168.483 251.014C168.483 251.625 167.642 251.931 165.96 251.931L163.666 264.089C165.195 264.089 165.883 264.395 165.73 265.007L164.813 269.365C164.813 269.977 163.972 270.283 162.289 270.283L161.142 275.789C162.825 275.789 163.589 276.094 163.436 276.706L162.748 279.688C162.748 280.3 162.442 280.606 161.83 280.606H1.02359C0.411865 280.606 0.182469 280.3 0.3354 279.688L0.794192 276.706C1.10005 276.094 1.48238 275.789 1.94117 275.789H11.8052C13.3345 272.118 15.6285 270.283 18.6871 270.283H20.5223C24.0397 271.048 25.569 272.883 25.1102 275.789H45.7559C46.3676 273.953 48.2792 273.036 51.4908 273.036C51.9496 273.342 52.3319 273.495 52.6378 273.495L53.0966 271.201C53.4024 270.589 53.7848 270.283 54.2436 270.283H59.5197L60.6667 264.089H58.8315C56.3846 264.089 55.3905 262.866 55.8493 260.419L56.0787 259.043C56.5375 256.443 58.0668 255.143 60.6667 255.143H62.5018L62.9606 252.849C63.1135 252.237 63.4959 251.931 64.1076 251.931H69.1543L70.5307 245.279C67.4721 245.279 66.2486 243.749 66.8604 240.691C67.3192 238.397 69.1543 237.097 72.3659 236.791L73.9716 228.303C74.1246 227.692 74.5069 227.386 75.1186 227.386H97.1407C97.7524 227.539 97.9818 227.845 97.8289 228.303L96.9113 233.58H101.958C102.57 233.732 102.876 234.038 102.876 234.497L101.499 241.608C103.029 241.608 103.717 241.914 103.564 242.526C103.411 243.138 102.57 243.444 101.04 243.444L95.7643 269.365C98.9759 269.518 100.276 271.048 99.664 273.953L99.4346 274.871L98.7465 275.789H119.851C120.769 271.812 122.91 269.824 126.274 269.824H127.65C131.168 269.824 132.468 271.812 131.55 275.789H148.984L149.902 271.201C150.208 270.589 150.59 270.283 151.049 270.283H156.325L161.142 245.738H156.096C155.331 245.738 155.025 245.432 155.178 244.82L157.013 236.332C156.248 235.109 156.019 233.732 156.325 232.203L158.619 227.386L159.536 223.716L158.39 224.174H157.472C154.413 224.174 153.19 222.492 153.802 219.128C154.26 216.987 156.248 215.534 159.766 214.769C160.378 215.075 160.836 215.228 161.142 215.228L165.96 191.371H160.683C160.072 191.371 159.842 191.065 159.995 190.453L161.142 185.177H155.866C155.254 185.177 155.025 184.871 155.178 184.259L158.848 165.908C157.472 165.908 156.554 165.143 156.096 163.614L156.325 162.237C156.784 159.943 158.084 158.796 160.225 158.796L164.813 135.398C163.283 133.869 162.748 132.11 163.207 130.122C164.43 127.981 165.577 126.91 166.648 126.91L168.024 119.34H167.565C167.26 121.022 166.036 121.864 163.895 121.864H163.436C160.989 121.864 159.995 120.564 160.454 117.964C160.607 116.74 161.678 115.364 163.666 113.835L167.336 94.5653H162.289C161.678 94.5653 161.448 94.2595 161.601 93.6478L164.583 78.5076L164.124 73.9197V73.4609L166.418 68.6435L167.336 64.5144L166.418 64.9732H164.813C162.06 64.9732 160.913 63.8262 161.372 61.5323C162.289 58.6266 162.977 55.8738 163.436 53.274L163.666 52.8152H161.142C158.542 52.3564 157.472 50.9036 157.931 48.4567L158.16 47.0803C158.772 44.3275 160.76 42.9512 164.124 42.9512C164.736 43.257 165.195 43.4099 165.501 43.4099L168.483 27.811H163.436C162.825 27.811 162.595 27.5051 162.748 26.8934L163.666 21.6173H159.536C159.078 23.2995 158.237 24.4465 157.013 25.0582H154.49C153.419 24.4465 153.037 23.2995 153.343 21.6173H127.421C126.503 21.6173 125.739 21.7702 125.127 22.0761L122.374 21.6173H90.947L89.8 26.8934C89.6471 27.5051 89.2647 27.811 88.653 27.811H84.0651L82.2299 36.7575C83.7592 36.7575 84.4474 37.0633 84.2945 37.675V38.1338C84.1415 38.7456 83.3004 39.0514 81.7711 39.0514L76.9538 63.5968C76.8009 64.2086 76.4185 64.5144 75.8068 64.5144H70.5307L63.4194 99.6121C63.4194 100.224 63.1135 100.53 62.5018 100.53H57.2257L47.8205 148.015C47.6675 148.626 47.2852 148.932 46.6735 148.932H41.3974L37.4976 168.202L38.6446 167.743C39.1034 167.743 39.4857 168.202 39.7916 169.119L39.5622 170.266C39.4093 170.878 38.5681 171.184 37.0388 171.184L33.1391 190.453C32.9862 191.065 32.6038 191.371 31.9921 191.371H26.9454L20.9811 220.504C20.9811 221.116 20.5987 221.422 19.8341 221.422H14.7874L12.264 233.58H17.5401C18.1519 233.732 18.3813 234.038 18.2283 234.497L15.0168 251.014C14.8638 251.472 13.7933 251.931 11.8052 252.39L9.05246 251.931H8.59367L7.67608 256.978C7.52315 257.59 7.14083 257.896 6.5291 257.896H5.61152C4.99979 257.896 4.69393 257.59 4.69393 256.978L55.8493 1.4304C56.1552 0.818679 56.5375 0.512817 56.9963 0.512817ZM110.904 25.0582H111.822C112.434 25.0582 112.663 25.3641 112.51 25.9758L112.281 26.8934C112.281 27.5051 111.975 27.811 111.363 27.811H110.216C109.605 27.811 109.375 27.5051 109.528 26.8934L109.757 25.9758C109.91 25.3641 110.293 25.0582 110.904 25.0582ZM142.102 26.4346H143.02C143.632 26.4346 143.861 26.7405 143.708 27.3522L143.479 28.2698C143.479 28.8815 143.173 29.1874 142.561 29.1874H141.414C140.802 29.1874 140.573 28.8815 140.726 28.2698L140.955 27.3522C141.108 26.7405 141.491 26.4346 142.102 26.4346ZM97.1407 30.5637H97.5995C98.0583 30.5637 98.4406 31.0225 98.7465 31.9401L98.5171 32.3989C98.3641 33.1636 97.9818 33.5459 97.3701 33.5459H96.4525C95.8408 33.5459 95.6114 33.1636 95.7643 32.3989L95.9937 31.4813C96.1466 30.8696 96.529 30.5637 97.1407 30.5637ZM128.109 32.3989H128.568C129.18 32.5518 129.486 32.9342 129.486 33.5459L129.256 34.0047C129.103 34.6164 128.721 34.9223 128.109 34.9223H127.65C127.039 34.9223 126.809 34.6164 126.962 34.0047V33.5459C127.268 32.7812 127.65 32.3989 128.109 32.3989ZM158.619 32.3989H161.142C161.601 32.3989 161.983 32.9342 162.289 34.0047L161.83 36.2987C161.219 37.2162 160.148 37.675 158.619 37.675H158.16C157.701 37.675 157.166 37.0633 156.554 35.8399L156.784 35.3811C157.395 33.393 158.007 32.3989 158.619 32.3989ZM113.887 38.1338H114.804C115.416 38.2868 115.645 38.5926 115.492 39.0514V39.5102C115.339 40.1219 114.957 40.4278 114.345 40.4278H113.428C112.816 40.4278 112.587 40.1219 112.74 39.5102V39.0514C113.046 38.4397 113.428 38.1338 113.887 38.1338ZM145.543 39.0514C146.002 39.0514 146.384 39.5102 146.69 40.4278V40.8866C146.537 41.4983 146.155 41.8042 145.543 41.8042H144.626C144.014 41.8042 143.785 41.4983 143.938 40.8866V40.4278C144.09 39.969 144.626 39.5102 145.543 39.0514ZM100.123 43.8687H101.04C101.652 43.8687 101.882 44.1746 101.729 44.7863V45.2451C101.576 45.7039 100.964 46.1627 99.8934 46.6215H99.4346C98.8229 46.6215 98.5935 46.3156 98.7465 45.7039L98.9759 44.7863C99.1288 44.1746 99.5111 43.8687 100.123 43.8687ZM131.321 45.2451H132.238C132.85 45.2451 133.079 45.551 132.927 46.1627V46.6215C132.774 47.2332 132.391 47.5391 131.78 47.5391H130.862C130.25 47.5391 129.944 47.2332 129.944 46.6215L130.174 46.1627C130.327 45.551 130.709 45.2451 131.321 45.2451ZM86.359 49.3743H86.8178C87.4296 49.5272 87.659 49.833 87.506 50.2918V50.7506C87.3531 51.3624 86.9708 51.6682 86.359 51.6682H85.9003C85.1356 51.6682 84.8297 51.3624 84.9827 50.7506L85.2121 50.2918C85.365 49.6801 85.7473 49.3743 86.359 49.3743ZM117.557 50.7506H118.016C118.627 50.9036 118.857 51.2094 118.704 51.6682L118.475 52.8152C118.322 53.4269 117.939 53.7328 117.328 53.7328H116.869C116.257 53.7328 116.028 53.4269 116.181 52.8152L116.41 51.6682C116.563 51.0565 116.945 50.7506 117.557 50.7506ZM148.296 51.6682H149.672C150.284 51.8211 150.514 52.2035 150.361 52.8152L150.131 54.1916C150.131 54.6504 149.596 55.1092 148.525 55.568H148.067C147.608 55.568 147.226 55.1092 146.92 54.1916L147.149 52.8152C147.302 52.0505 147.684 51.6682 148.296 51.6682ZM103.105 56.4855H104.023C104.634 56.6385 104.94 56.9443 104.94 57.4031L104.711 58.3207C104.558 58.9324 104.176 59.2383 103.564 59.2383H102.646C102.034 59.2383 101.805 58.9324 101.958 58.3207V57.4031C102.264 56.7914 102.646 56.4855 103.105 56.4855ZM134.762 57.8619C135.22 57.8619 135.603 58.3207 135.909 59.2383V59.6971C135.756 60.3088 135.373 60.6147 134.762 60.6147H133.844C133.232 60.6147 133.003 60.3088 133.156 59.6971V59.2383C133.309 58.7795 133.844 58.3207 134.762 57.8619ZM89.3412 62.6792H89.8C90.4117 62.6792 90.6411 62.9851 90.4882 63.5968V64.0556C90.3353 64.6673 89.9529 64.9732 89.3412 64.9732H88.8824C88.2707 64.9732 87.9648 64.6673 87.9648 64.0556L88.1942 63.5968C88.3472 62.9851 88.7295 62.6792 89.3412 62.6792ZM120.539 64.0556H120.998C121.61 64.0556 121.839 64.3615 121.686 64.9732V65.432C121.533 66.0437 121.151 66.3496 120.539 66.3496H120.08C119.469 66.3496 119.163 66.0437 119.163 65.432L119.392 64.9732C119.545 64.3615 119.927 64.0556 120.539 64.0556ZM151.278 64.9732H152.655C153.266 64.9732 153.496 65.2791 153.343 65.8908L153.113 67.2672C152.96 67.8789 152.578 68.1848 151.966 68.1848H151.049C150.59 68.1848 150.208 67.726 149.902 66.8084L150.131 65.8908C150.437 65.2791 150.819 64.9732 151.278 64.9732ZM75.348 68.1848H76.0362C76.6479 68.3377 76.8773 68.6435 76.7244 69.1023L76.495 69.5611C76.495 70.1729 76.1127 70.4787 75.348 70.4787H74.8892C74.2775 70.4787 74.0481 70.1729 74.201 69.5611L74.4304 69.1023C74.5834 68.4906 74.8892 68.1848 75.348 68.1848ZM106.546 69.5611H107.234C107.846 69.7141 108.075 70.0199 107.922 70.4787L107.693 70.9375C107.693 71.5492 107.311 71.8551 106.546 71.8551H106.087C105.475 71.8551 105.246 71.5492 105.399 70.9375L105.628 70.4787C105.781 69.867 106.087 69.5611 106.546 69.5611ZM137.744 70.9375H138.432C138.891 71.0904 139.12 71.3963 139.12 71.8551L138.891 72.5433C138.891 73.155 138.509 73.4609 137.744 73.4609H137.285C136.673 73.4609 136.444 73.155 136.597 72.5433L136.826 71.8551C136.979 71.2434 137.285 70.9375 137.744 70.9375ZM92.7822 75.296C93.3939 75.296 93.6997 75.6019 93.6997 76.2136L93.4703 76.6724C93.3174 77.2841 92.9351 77.59 92.3234 77.59H91.8646C91.2528 77.59 91.0234 77.2841 91.1764 76.6724C91.1764 76.2136 91.7116 75.7548 92.7822 75.296ZM155.178 75.7548H157.013C158.542 76.5195 159.078 77.7429 158.619 79.4252C158.16 82.025 156.401 83.3249 153.343 83.3249C151.508 82.5603 150.819 81.2603 151.278 79.4252V78.9664C151.737 76.8254 153.037 75.7548 155.178 75.7548ZM123.521 76.6724H123.98C124.592 76.8254 124.898 77.1312 124.898 77.59L124.668 78.0488C124.515 78.6605 124.133 78.9664 123.521 78.9664H123.062C122.451 78.9664 122.221 78.6605 122.374 78.0488V77.59C122.68 76.9783 123.062 76.6724 123.521 76.6724ZM78.5596 80.8016H79.0184C79.6301 80.9545 79.8595 81.2604 79.7066 81.7191V82.4073C79.5536 83.0191 79.1713 83.3249 78.5596 83.3249H78.1008C77.4891 83.3249 77.2597 83.0191 77.4126 82.4073V81.7191C77.7185 81.1074 78.1008 80.8016 78.5596 80.8016ZM187.752 82.4073L185.229 94.5653H186.146L185.917 93.6478C186.223 92.1184 187.523 90.9715 189.817 90.2068L192.111 91.1244C192.417 89.2892 192.875 88.3716 193.487 88.3716H198.763L199.91 82.4073H187.752ZM109.757 82.4073H110.216C110.828 82.4073 111.057 82.7132 110.904 83.3249V83.7837C110.752 84.3954 110.369 84.7013 109.757 84.7013H109.299C108.687 84.7013 108.458 84.3954 108.611 83.7837V83.3249C108.916 82.7132 109.299 82.4073 109.757 82.4073ZM140.955 83.7837H141.414C141.873 83.7837 142.255 84.2425 142.561 85.1601C142.408 85.6189 141.873 86.0777 140.955 86.5365H140.497C140.038 86.5365 139.655 86.0777 139.35 85.1601C139.35 84.7013 139.885 84.2425 140.955 83.7837ZM95.9937 87.9128C96.4525 87.9128 96.8348 88.3716 97.1407 89.2892C96.9877 89.748 96.376 90.2068 95.3055 90.6656C94.8467 90.6656 94.4644 90.2068 94.1585 89.2892C94.3115 88.8304 94.9232 88.3716 95.9937 87.9128ZM127.192 89.2892C127.65 89.2892 128.033 89.748 128.339 90.6656L128.109 91.1244C127.956 91.8891 127.574 92.2714 126.962 92.2714H126.045C125.433 92.2714 125.204 91.8891 125.356 91.1244V90.6656C125.509 90.2068 126.121 89.748 127.192 89.2892ZM157.701 89.2892H159.536C159.995 89.2892 160.531 89.9009 161.142 91.1244L160.683 93.189C160.531 93.6478 159.766 94.2595 158.39 95.0241H156.554C156.096 95.0241 155.56 94.4124 154.949 93.189L155.407 91.1244C155.56 90.6656 156.325 90.0539 157.701 89.2892ZM81.5417 94.1066H82.0005C82.6122 94.1066 82.8416 94.4124 82.6887 95.0241V95.4829C82.5358 96.0946 82.1534 96.4005 81.5417 96.4005H81.0829C80.4712 96.4005 80.2418 96.0946 80.3947 95.4829V95.0241C80.7006 94.4124 81.0829 94.1066 81.5417 94.1066ZM112.74 95.4829H113.198C113.81 95.6359 114.04 95.9417 113.887 96.4005V96.8593C113.734 97.471 113.351 97.7769 112.74 97.7769H112.281C111.669 97.7769 111.44 97.471 111.593 96.8593V96.4005C111.899 95.7888 112.281 95.4829 112.74 95.4829ZM143.938 96.8593H144.396C145.008 97.0122 145.237 97.3181 145.085 97.7769V98.2357C144.932 98.8474 144.549 99.1533 143.938 99.1533H143.479C142.867 99.1533 142.638 98.8474 142.791 98.2357V97.7769C143.096 97.1652 143.479 96.8593 143.938 96.8593ZM67.7779 99.6121H68.2367C68.8485 99.765 69.0779 100.071 68.9249 100.53V100.988C68.772 101.753 68.3897 102.135 67.7779 102.135H67.3192C66.7074 102.135 66.478 101.753 66.631 100.988V100.53C66.7839 99.9179 67.1662 99.6121 67.7779 99.6121ZM98.9759 100.988H99.4346C100.046 101.141 100.276 101.524 100.123 102.135V102.594C99.9699 103.206 99.5876 103.512 98.9759 103.512H98.5171C97.9053 103.512 97.6759 103.206 97.8289 102.594V102.135C97.9818 101.371 98.3641 100.988 98.9759 100.988ZM130.174 102.594H130.633C131.244 102.594 131.474 102.9 131.321 103.512V103.971C131.168 104.582 130.785 104.888 130.174 104.888H129.715C129.103 104.888 128.874 104.582 129.027 103.971V103.512C129.18 102.9 129.562 102.594 130.174 102.594ZM160.913 103.512H162.289C162.901 103.512 163.207 103.818 163.207 104.429L162.748 105.806C162.748 106.417 162.442 106.723 161.83 106.723H160.225C159.766 106.723 159.384 106.265 159.078 105.347L159.307 104.888C159.307 104.429 159.842 103.971 160.913 103.512ZM84.7533 106.723H85.2121C85.6709 106.723 86.0532 107.182 86.359 108.1C86.2061 108.559 85.5944 109.017 84.5239 109.476C84.0651 109.476 83.6828 109.017 83.3769 108.1L83.6063 107.641C83.7592 107.029 84.1415 106.723 84.7533 106.723ZM115.951 108.1H116.41C116.869 108.1 117.251 108.559 117.557 109.476C117.404 110.088 117.022 110.394 116.41 110.394H115.492C114.728 110.394 114.422 110.088 114.575 109.476L114.804 109.017C114.957 108.406 115.339 108.1 115.951 108.1ZM146.69 109.017H148.067C148.525 109.017 148.908 109.476 149.214 110.394L148.984 111.541C148.525 112.458 147.531 112.917 146.002 112.917L145.314 111.541L145.543 109.935C145.849 109.323 146.232 109.017 146.69 109.017ZM70.7601 112.458H71.2189C71.8306 112.458 72.1365 112.764 72.1365 113.376L71.9071 113.835C71.9071 114.446 71.5247 114.752 70.7601 114.752H70.3013C69.6896 114.752 69.4602 114.446 69.6131 113.835L69.8425 113.376C69.9954 112.764 70.3013 112.458 70.7601 112.458ZM101.958 113.835H102.417C103.029 113.835 103.334 114.141 103.334 114.752L103.105 115.211C103.105 115.823 102.723 116.129 101.958 116.129H101.499C100.887 116.129 100.658 115.823 100.811 115.211L101.04 114.752C101.193 114.141 101.499 113.835 101.958 113.835ZM133.156 115.211H133.615C134.226 115.364 134.532 115.67 134.532 116.129L134.303 116.587C134.15 117.199 133.768 117.505 133.156 117.505H132.697C132.085 117.505 131.856 117.199 132.009 116.587V116.129C132.315 115.517 132.697 115.211 133.156 115.211ZM56.9963 117.964C57.4551 117.964 57.8374 118.423 58.1433 119.34V119.799C57.9904 120.411 57.608 120.717 56.9963 120.717H56.5375C56.0787 120.717 55.6964 120.258 55.3905 119.34C55.3905 118.881 55.9258 118.423 56.9963 117.964ZM87.7354 119.34H88.653C89.2647 119.493 89.5706 119.799 89.5706 120.258L89.3412 121.405C89.1883 122.016 88.8059 122.322 88.1942 122.322H87.2766C86.6649 122.322 86.359 122.016 86.359 121.405L86.5884 120.258C86.8943 119.646 87.2766 119.34 87.7354 119.34ZM118.933 120.717H119.851C120.463 120.869 120.769 121.252 120.769 121.864L120.539 122.781C120.386 123.393 120.004 123.699 119.392 123.699H118.475C117.863 123.699 117.557 123.393 117.557 122.781L117.786 121.864C118.092 121.099 118.475 120.717 118.933 120.717ZM150.131 122.322H151.049C151.661 122.322 151.966 122.628 151.966 123.24L151.737 124.157C151.584 124.769 151.202 125.075 150.59 125.075H149.672C149.061 125.075 148.755 124.769 148.755 124.157L148.984 123.24C149.29 122.628 149.672 122.322 150.131 122.322ZM73.9716 125.534H74.4304C75.0422 125.687 75.2716 125.993 75.1186 126.451L74.8892 126.91C74.8892 127.522 74.5834 127.828 73.9716 127.828H73.2835C72.6717 127.828 72.4423 127.522 72.5953 126.91L72.8247 126.451C72.9776 125.84 73.3599 125.534 73.9716 125.534ZM105.17 126.451H105.628C106.087 126.451 106.469 126.91 106.775 127.828L106.546 128.287C106.546 128.898 106.24 129.204 105.628 129.204H104.481C103.87 129.204 103.64 128.898 103.793 128.287L104.023 127.369C104.176 126.757 104.558 126.451 105.17 126.451ZM136.367 128.287H136.826C137.438 128.44 137.667 128.745 137.514 129.204L137.285 129.663C137.285 130.275 136.979 130.581 136.367 130.581H135.679C135.068 130.581 134.838 130.275 134.991 129.663L135.22 129.204C135.373 128.592 135.756 128.287 136.367 128.287ZM59.5197 131.269H60.4373C61.049 131.269 61.3548 131.575 61.3548 132.186L61.1254 132.645C60.9725 133.257 60.5902 133.563 59.9785 133.563H59.0609C58.4492 133.563 58.2198 133.257 58.3727 132.645V132.186C58.6786 131.575 59.0609 131.269 59.5197 131.269ZM91.4058 132.186H91.8646C92.4763 132.186 92.7057 132.492 92.5528 133.104L92.3234 134.48C92.1704 135.092 91.7881 135.398 91.1764 135.398H90.7176C90.2588 135.398 89.8765 134.939 89.5706 134.022V133.563C89.7235 133.104 90.3353 132.645 91.4058 132.186ZM122.374 134.022H122.833C123.445 134.022 123.751 134.327 123.751 134.939L123.521 135.398C123.368 136.01 122.986 136.315 122.374 136.315H121.915C121.304 136.315 121.074 136.01 121.227 135.398V134.939C121.533 134.327 121.915 134.022 122.374 134.022ZM153.343 134.939H154.26C154.719 134.939 155.102 135.398 155.407 136.315L155.178 136.774C155.178 137.233 154.643 137.692 153.572 138.151H152.655C152.043 138.151 151.813 137.845 151.966 137.233L152.196 135.857C152.349 135.245 152.731 134.939 153.343 134.939ZM76.9538 138.151H77.4126C78.0243 138.304 78.2537 138.609 78.1008 139.068V139.527C77.9478 140.139 77.5655 140.445 76.9538 140.445H76.495C75.8833 140.445 75.6539 140.139 75.8068 139.527V139.068C76.1127 138.457 76.495 138.151 76.9538 138.151ZM108.611 139.068C109.069 139.068 109.452 139.527 109.757 140.445V141.592C109.605 142.203 109.222 142.509 108.611 142.509H107.693C106.928 142.509 106.622 142.203 106.775 141.592L107.005 140.445C107.158 140.139 107.693 139.68 108.611 139.068ZM139.35 141.133H139.808C140.267 141.133 140.65 141.592 140.955 142.509C140.802 143.121 140.42 143.427 139.808 143.427H138.891C138.279 143.427 138.05 143.121 138.203 142.509V142.05C138.508 141.439 138.891 141.133 139.35 141.133ZM63.19 143.886H63.6488C64.2605 143.886 64.4899 144.191 64.337 144.803L64.1076 145.721C64.1076 146.332 63.7253 146.638 62.9606 146.638H62.5018C61.8901 146.638 61.6607 146.332 61.8136 145.721L62.043 144.803C62.196 144.191 62.5783 143.886 63.19 143.886ZM156.096 144.803H159.307C161.295 145.874 162.06 147.556 161.601 149.85C160.072 152.756 158.237 154.208 156.096 154.208H155.407C152.349 154.208 151.202 152.297 151.966 148.473C152.884 146.791 154.26 145.568 156.096 144.803ZM93.9291 145.262H95.3055C95.9172 145.415 96.1466 145.721 95.9937 146.18L95.7643 147.097C95.7643 147.709 95.382 148.015 94.6173 148.015H93.2409C92.6292 148.015 92.3998 147.709 92.5528 147.097L92.7822 146.18C92.9351 145.568 93.3174 145.262 93.9291 145.262ZM125.586 146.638H126.045C126.656 146.791 126.886 147.097 126.733 147.556L126.503 148.473C126.503 149.085 126.121 149.391 125.356 149.391H124.898C124.286 149.391 124.057 149.085 124.209 148.473L124.439 147.556C124.592 146.944 124.974 146.638 125.586 146.638ZM49.4262 149.391C49.885 149.391 50.2673 149.926 50.5732 150.997L50.3438 151.456C50.1909 152.067 49.8086 152.373 49.1968 152.373H48.2792C47.6675 152.373 47.4381 152.067 47.5911 151.456V150.997C47.744 150.538 48.3557 150.003 49.4262 149.391ZM80.6241 150.997C81.0829 150.997 81.4653 151.456 81.7711 152.373L81.5417 152.832C81.3888 153.444 81.0065 153.75 80.3947 153.75H79.936C79.4772 153.75 79.0948 153.291 78.789 152.373C78.9419 151.914 79.5536 151.456 80.6241 150.997ZM111.822 152.373C112.281 152.373 112.663 152.832 112.969 153.75L112.74 154.208C112.587 154.82 112.204 155.126 111.593 155.126H111.134C110.675 155.126 110.293 154.667 109.987 153.75C110.14 153.291 110.752 152.832 111.822 152.373ZM142.561 153.75H143.479C144.09 153.75 144.32 154.055 144.167 154.667L143.938 155.585C143.785 156.197 143.402 156.502 142.791 156.502H141.873C141.261 156.502 141.032 156.197 141.185 155.585L141.414 154.667C141.567 154.055 141.949 153.75 142.561 153.75ZM179.265 155.126L178.118 161.32H184.082L184.999 157.42C184.999 157.114 184.005 156.349 182.017 155.126H179.265ZM95.7643 155.126H106.087C106.699 155.279 106.928 155.585 106.775 156.044L101.04 184.259C101.04 184.871 100.658 185.177 99.8934 185.177H95.7643C95.1526 185.177 94.9232 184.871 95.0761 184.259L95.9937 178.983H90.947C90.3353 178.983 90.0294 178.677 90.0294 178.066L94.6173 156.044C94.7703 155.432 95.1526 155.126 95.7643 155.126ZM66.1722 156.961H66.631C67.2427 157.114 67.4721 157.42 67.3192 157.879V158.338C67.1662 158.949 66.7839 159.255 66.1722 159.255H65.7134C65.1016 159.255 64.8723 158.949 65.0252 158.338V157.879C65.1781 157.267 65.5604 156.961 66.1722 156.961ZM128.568 159.255H129.027C129.486 159.255 129.868 159.79 130.174 160.861V161.32C130.021 161.931 129.639 162.237 129.027 162.237H128.109C127.497 162.237 127.268 161.931 127.421 161.32V160.402C127.727 159.637 128.109 159.255 128.568 159.255ZM51.9496 162.696H52.8672C53.4789 162.696 53.7083 163.002 53.5554 163.614V164.072C53.4024 164.684 53.0201 164.99 52.4084 164.99H51.4908C50.8791 164.99 50.5732 164.684 50.5732 164.072L50.8026 163.614C50.9555 163.002 51.3379 162.696 51.9496 162.696ZM83.1475 163.614H84.5239C85.1356 163.614 85.4415 163.92 85.4415 164.531L84.9827 165.908C84.8297 166.519 84.4474 166.825 83.8357 166.825H82.4593C81.8476 166.825 81.6182 166.519 81.7711 165.908L82.0005 164.531C82.3064 163.92 82.6887 163.614 83.1475 163.614ZM114.804 165.449H115.263C115.875 165.602 116.104 165.908 115.951 166.366V166.825C115.798 167.437 115.416 167.743 114.804 167.743H114.345C113.734 167.743 113.428 167.437 113.428 166.825L113.657 166.366C113.81 165.755 114.192 165.449 114.804 165.449ZM145.543 166.825H146.461C147.073 166.978 147.302 167.284 147.149 167.743V168.202C146.996 168.813 146.614 169.119 146.002 169.119H145.085C144.473 169.119 144.167 168.813 144.167 168.202L144.396 167.743C144.549 167.131 144.932 166.825 145.543 166.825ZM69.1543 169.578H69.8425C70.1484 169.578 70.4542 170.113 70.7601 171.184C70.7601 171.795 70.4542 172.101 69.8425 172.101H68.6955C68.0838 172.101 67.8544 171.795 68.0073 171.184L68.2367 170.725C68.3897 169.96 68.6955 169.578 69.1543 169.578ZM131.78 172.101H132.238C132.697 172.101 133.079 172.56 133.385 173.478L133.156 174.395C133.003 175.007 132.621 175.313 132.009 175.313H131.091C130.633 175.313 130.25 174.854 129.944 173.936C130.709 172.713 131.321 172.101 131.78 172.101ZM55.3905 175.313H55.8493C56.3081 175.313 56.6904 175.772 56.9963 176.689C56.9963 177.148 56.4611 177.607 55.3905 178.066H54.9317C54.473 178.066 54.0906 177.607 53.7848 176.689C53.7848 176.23 54.32 175.772 55.3905 175.313ZM86.1297 176.689H87.506C88.1178 176.842 88.4236 177.148 88.4236 177.607L88.1942 178.524C88.0413 179.136 87.659 179.442 87.0472 179.442H85.6709C85.0591 179.442 84.7533 179.136 84.7533 178.524L84.9827 177.607C85.2885 176.995 85.6709 176.689 86.1297 176.689ZM117.786 178.066H118.245C118.857 178.219 119.163 178.524 119.163 178.983L118.933 180.13C118.78 180.742 118.398 181.048 117.786 181.048H117.328C116.716 181.048 116.41 180.742 116.41 180.13L116.639 178.983C116.945 178.371 117.328 178.066 117.786 178.066ZM148.755 178.524H150.131C150.743 178.677 151.202 179.518 151.508 181.048C150.59 182.424 149.825 183.189 149.214 183.342H147.837C147.226 183.189 146.767 182.424 146.461 181.048C147.378 179.518 148.143 178.677 148.755 178.524ZM54.7023 178.983H58.3727C58.9844 179.136 59.2903 179.518 59.2903 180.13L58.3727 184.259C58.2198 184.871 57.8374 185.177 57.2257 185.177H53.5554C52.9436 185.177 52.6378 184.871 52.6378 184.259L53.5554 180.13C53.8612 179.366 54.2436 178.983 54.7023 178.983ZM41.168 180.589H42.3149C42.6208 180.589 42.9267 181.048 43.2325 181.965V182.883C43.0796 183.342 42.4679 183.801 41.3974 184.259H40.4798C40.021 184.259 39.6386 183.801 39.3328 182.883L39.5622 181.965C39.7151 181.507 40.2504 181.048 41.168 180.589ZM72.8247 182.424C73.2835 182.424 73.6658 182.883 73.9716 183.801V184.259C73.8187 184.871 73.4364 185.177 72.8247 185.177H71.9071C71.1424 185.177 70.8366 184.871 70.9895 184.259L71.2189 183.801C71.2189 183.342 71.7541 182.883 72.8247 182.424ZM104.023 183.801H104.481C105.093 183.953 105.322 184.259 105.17 184.718V185.636C105.017 186.247 104.634 186.553 104.023 186.553H103.105C102.34 186.553 102.034 186.247 102.187 185.636L102.417 185.177C102.417 184.718 102.952 184.259 104.023 183.801ZM134.762 185.177H135.679C136.291 185.33 136.52 185.636 136.367 186.095V187.012C136.215 187.624 135.832 187.93 135.22 187.93H134.074C133.462 187.93 133.232 187.624 133.385 187.012L133.615 186.095C133.921 185.483 134.303 185.177 134.762 185.177ZM58.3727 188.388H58.8315C59.4432 188.541 59.7491 188.847 59.7491 189.306L59.5197 189.994C59.3667 190.606 58.9844 190.912 58.3727 190.912H57.9139C57.3022 190.912 57.0728 190.606 57.2257 189.994V189.306C57.5316 188.694 57.9139 188.388 58.3727 188.388ZM89.5706 189.994H90.0294C90.6411 189.994 90.947 190.3 90.947 190.912L90.7176 191.371C90.5647 191.982 90.1823 192.288 89.5706 192.288H89.1118C88.5001 192.288 88.2707 191.982 88.4236 191.371V190.912C88.7295 190.3 89.1118 189.994 89.5706 189.994ZM120.769 191.371H121.227C121.839 191.371 122.145 191.676 122.145 192.288L121.915 192.747C121.763 193.359 121.38 193.665 120.769 193.665H120.31C119.698 193.665 119.469 193.359 119.622 192.747V192.288C119.927 191.676 120.31 191.371 120.769 191.371ZM152.196 192.288H153.113C153.725 192.288 153.955 192.594 153.802 193.206L153.572 194.123C153.572 194.582 153.037 195.041 151.966 195.5H151.508C151.049 195.5 150.667 195.041 150.361 194.123V193.665C150.514 193.206 151.125 192.747 152.196 192.288ZM44.3795 193.665H45.2971C45.7559 193.665 46.1382 194.123 46.4441 195.041L46.2147 195.5C46.2147 195.959 45.6794 196.417 44.6089 196.876H43.6913C43.0796 196.876 42.7737 196.57 42.7737 195.959L43.2325 194.582C43.3855 193.97 43.7678 193.665 44.3795 193.665ZM75.8068 195.5H76.2656C76.8773 195.653 77.1067 195.959 76.9538 196.417V196.876C76.8009 197.488 76.4185 197.794 75.8068 197.794H75.348C74.7363 197.794 74.5069 197.488 74.6598 196.876V196.417C74.9657 195.806 75.348 195.5 75.8068 195.5ZM106.546 196.876H107.464C108.075 197.029 108.305 197.335 108.152 197.794V198.253C107.999 198.864 107.616 199.17 107.005 199.17H106.087C105.475 199.17 105.246 198.864 105.399 198.253V197.794C105.705 197.182 106.087 196.876 106.546 196.876ZM138.203 198.253H138.661C139.273 198.405 139.503 198.711 139.35 199.17V199.858C139.197 200.47 138.814 200.776 138.203 200.776H137.744C137.132 200.776 136.903 200.47 137.056 199.858V199.17C137.362 198.558 137.744 198.253 138.203 198.253ZM30.3863 199.858H31.3039C31.9156 199.858 32.145 200.164 31.9921 200.776L31.7627 201.693C31.7627 202.305 31.4568 202.611 30.8451 202.611H29.6981C29.0864 202.611 28.857 202.305 29.01 201.693L29.2393 200.776C29.3923 200.164 29.7746 199.858 30.3863 199.858ZM61.5842 201.235H62.5018C63.1135 201.235 63.3429 201.541 63.19 202.152V202.611C63.0371 203.07 62.4254 203.529 61.3548 203.987C61.049 203.987 60.7431 203.529 60.4373 202.611V202.152C60.5902 201.541 60.9725 201.235 61.5842 201.235ZM92.7822 202.611H93.2409C93.6997 202.611 94.0821 203.07 94.3879 203.987C94.235 204.599 93.8527 204.905 93.2409 204.905H92.3234C91.7116 204.905 91.4822 204.599 91.6352 203.987V203.529C91.7881 202.917 92.1704 202.611 92.7822 202.611ZM156.554 202.611C158.542 202.611 159.384 203.834 159.078 206.281L158.848 208.117C158.695 208.575 157.778 209.416 156.096 210.64H154.031C151.584 210.64 150.667 209.187 151.278 206.281C151.584 204.14 153.343 202.917 156.554 202.611ZM124.439 203.987C125.051 204.14 125.28 204.446 125.127 204.905V205.364C124.974 205.976 124.592 206.281 123.98 206.281H123.521C122.91 206.281 122.68 205.976 122.833 205.364C122.833 204.905 123.368 204.446 124.439 203.987ZM47.8205 206.74H48.2792C48.738 206.74 49.1204 207.199 49.4262 208.117C49.2733 208.575 48.6616 209.111 47.5911 209.722H47.1323C46.6735 209.722 46.2911 209.187 45.9853 208.117C46.1382 207.658 46.7499 207.199 47.8205 206.74ZM79.0184 208.117H79.4772C80.0889 208.269 80.3183 208.575 80.1653 209.034L79.936 210.181C79.783 210.793 79.4007 211.099 78.789 211.099H78.3302C77.7185 211.099 77.4891 210.793 77.642 210.181L77.8714 209.034C78.0243 208.422 78.4066 208.117 79.0184 208.117ZM110.216 209.722H110.675C111.287 209.722 111.516 210.028 111.363 210.64L111.134 211.558C110.981 212.169 110.599 212.475 109.987 212.475H109.528C109.069 212.475 108.687 212.016 108.381 211.099C108.534 210.64 109.146 210.181 110.216 209.722ZM140.955 211.099H142.332C142.943 211.099 143.173 211.405 143.02 212.016L142.791 212.934C142.638 213.546 142.255 213.851 141.644 213.851H140.267C139.655 213.851 139.426 213.546 139.579 212.934L139.808 212.016C139.961 211.405 140.344 211.099 140.955 211.099ZM33.3685 212.475H34.5155C34.9743 212.475 35.2037 212.781 35.2037 213.393L34.9743 214.31C34.8213 214.922 34.439 215.228 33.8273 215.228H32.9097C32.298 215.228 32.0686 214.922 32.2215 214.31V213.393C32.5274 212.781 32.9097 212.475 33.3685 212.475ZM65.0252 213.851C65.484 213.851 65.8663 214.31 66.1722 215.228V215.687C66.0192 216.298 65.6369 216.604 65.0252 216.604H64.1076C63.4959 216.604 63.2665 216.298 63.4194 215.687V215.228C63.5723 214.769 64.1076 214.31 65.0252 213.851ZM96.2231 215.228C96.6819 215.228 97.0642 215.687 97.3701 216.604V217.063C97.2171 217.675 96.8348 217.981 96.2231 217.981H95.3055C94.6938 217.981 94.4644 217.675 94.6173 217.063V216.604C94.7703 216.145 95.3055 215.687 96.2231 215.228ZM127.421 217.063H127.88C128.492 217.216 128.721 217.522 128.568 217.981C128.568 218.439 128.033 218.975 126.962 219.586C126.35 219.586 126.121 219.204 126.274 218.439V217.981C126.58 217.369 126.962 217.063 127.421 217.063ZM50.8026 220.045H51.2614C51.8731 220.045 52.1025 220.351 51.9496 220.963V221.422C51.7967 222.033 51.4143 222.339 50.8026 222.339H50.3438C49.7321 222.339 49.4262 222.033 49.4262 221.422L49.6556 220.963C49.8086 220.351 50.1909 220.045 50.8026 220.045ZM82.0005 221.422H82.4593C83.071 221.422 83.3004 221.727 83.1475 222.339V222.798C82.9946 223.41 82.6122 223.716 82.0005 223.716H81.5417C80.93 223.716 80.6241 223.41 80.6241 222.798L80.8535 222.339C81.0065 221.727 81.3888 221.422 82.0005 221.422ZM113.198 222.798H113.657C114.269 222.951 114.498 223.257 114.345 223.716V224.174C114.192 224.786 113.81 225.092 113.198 225.092H112.74C112.128 225.092 111.822 224.786 111.822 224.174L112.051 223.716C112.204 223.104 112.587 222.798 113.198 222.798ZM144.396 224.174H144.855C145.467 224.327 145.696 224.633 145.543 225.092V225.551C145.39 226.162 145.008 226.468 144.396 226.468H143.938C143.326 226.468 143.02 226.162 143.02 225.551L143.249 225.092C143.402 224.48 143.785 224.174 144.396 224.174ZM37.0388 225.551H37.4976C38.1093 225.704 38.3387 226.009 38.1858 226.468L37.9564 226.927C37.9564 227.539 37.6505 227.845 37.0388 227.845H36.58C35.8154 227.845 35.5095 227.539 35.6624 226.927L35.8918 226.468C36.0448 225.857 36.4271 225.551 37.0388 225.551ZM68.2367 226.927H68.6955C69.3072 227.08 69.5367 227.386 69.3837 227.845L69.1543 228.303C69.1543 229.068 68.8485 229.45 68.2367 229.45H67.7779C67.0133 229.45 66.7074 229.068 66.8604 228.303L67.0898 227.845C67.2427 227.233 67.625 226.927 68.2367 226.927ZM99.4346 228.303C100.046 228.456 100.276 228.839 100.123 229.45L99.8934 229.909C99.8934 230.521 99.5111 230.827 98.7465 230.827C98.1347 230.827 97.9053 230.521 98.0583 229.909L98.2877 229.45C98.4406 228.686 98.8229 228.303 99.4346 228.303ZM130.633 229.909H131.091C131.703 229.909 131.932 230.215 131.78 230.827L131.55 231.286C131.55 231.897 131.244 232.203 130.633 232.203H129.944C129.333 232.203 129.103 231.897 129.256 231.286L129.486 230.827C129.639 230.215 130.021 229.909 130.633 229.909ZM22.5869 231.286H23.0456C23.5044 231.286 23.8868 231.744 24.1926 232.662C24.1926 233.121 23.6574 233.58 22.5869 234.038C22.1281 234.038 21.7457 233.58 21.4399 232.662V232.203C21.7457 231.591 22.1281 231.286 22.5869 231.286ZM53.7848 232.662H54.7023C55.3141 232.815 55.6199 233.121 55.6199 233.58L55.3905 234.497C55.2376 235.109 54.8553 235.415 54.2436 235.415H53.326C52.7142 235.415 52.4848 235.109 52.6378 234.497V233.58C52.9436 232.968 53.326 232.662 53.7848 232.662ZM116.639 235.415C117.251 235.568 117.557 235.874 117.557 236.332L117.328 236.791C117.175 237.403 116.792 237.709 116.181 237.709H115.722C115.11 237.709 114.881 237.403 115.034 236.791C115.187 236.332 115.722 235.874 116.639 235.415ZM147.837 236.791C148.449 236.944 148.755 237.25 148.755 237.709L148.525 238.167C148.373 238.932 147.99 239.314 147.378 239.314H146.92C146.308 239.314 146.079 238.932 146.232 238.167C146.384 237.862 146.92 237.403 147.837 236.791ZM40.021 238.856H40.4798C41.0915 238.856 41.3209 239.162 41.168 239.773C41.015 240.385 40.6327 240.691 40.021 240.691H39.5622C38.9505 240.691 38.7211 240.385 38.874 239.773C39.0269 239.162 39.4093 238.856 40.021 238.856ZM133.615 242.985H134.074C134.685 243.138 134.915 243.444 134.762 243.902C134.609 244.514 134.226 244.82 133.615 244.82H133.156C132.544 244.82 132.315 244.514 132.468 243.902C132.621 243.291 133.003 242.985 133.615 242.985ZM26.2572 243.902C26.716 243.902 27.0983 244.361 27.4042 245.279L27.1748 245.738C27.1748 246.349 26.7925 246.655 26.0278 246.655H25.569C25.1102 246.655 24.7279 246.196 24.422 245.279C24.575 244.82 25.1867 244.361 26.2572 243.902ZM56.9963 244.82H57.9139C58.3727 244.82 58.755 245.279 59.0609 246.196L58.8315 247.114C58.8315 247.573 58.2962 248.108 57.2257 248.72H56.3081C55.8493 248.72 55.467 248.184 55.1611 247.114L55.3905 246.196C55.3905 245.738 55.9258 245.279 56.9963 244.82ZM150.361 248.032H152.196C152.655 248.032 153.19 248.72 153.802 250.096L153.343 252.39C153.19 253.002 152.119 253.614 150.131 254.225C148.143 254.225 147.378 253.155 147.837 251.014L148.067 250.096C148.22 249.484 148.984 248.796 150.361 248.032ZM119.622 248.72C120.233 248.72 120.539 249.026 120.539 249.637L120.31 250.555H119.392C118.78 250.555 118.551 250.249 118.704 249.637C118.857 249.026 119.163 248.72 119.622 248.72ZM43.0031 251.472H43.4619C44.0736 251.472 44.3795 251.778 44.3795 252.39L44.1501 252.849C43.9972 253.461 43.6149 253.766 43.0031 253.766H42.5443C41.9326 253.766 41.7032 253.461 41.8561 252.849V252.39C42.162 251.778 42.5443 251.472 43.0031 251.472ZM104.94 254.684H106.317L106.087 256.06H105.628C104.864 256.06 104.558 255.755 104.711 255.143L104.94 254.684ZM136.597 255.602H137.056C137.667 255.755 137.897 256.06 137.744 256.519V256.978C137.591 257.59 137.209 257.896 136.597 257.896H136.138C135.526 257.896 135.297 257.59 135.45 256.978V256.519C135.756 255.907 136.138 255.602 136.597 255.602ZM28.7806 256.978H29.6981C30.3099 257.131 30.5393 257.437 30.3863 257.896V258.584C30.2334 258.89 29.6981 259.348 28.7806 259.96C28.3218 259.96 27.9394 259.501 27.6336 258.584V257.896C27.7865 257.284 28.1688 256.978 28.7806 256.978ZM166.418 256.978H167.336L166.877 259.501H165.96L166.418 256.978ZM122.833 261.337H123.292C123.904 261.337 124.133 261.642 123.98 262.254V262.713C123.827 263.325 123.445 263.63 122.833 263.63H122.374C121.763 263.63 121.533 263.325 121.686 262.713V262.254C121.839 261.642 122.221 261.337 122.833 261.337ZM153.343 261.795H155.178C155.637 261.795 156.019 262.254 156.325 263.172L156.096 264.548C155.943 265.007 155.331 265.466 154.26 265.924H152.425C151.661 265.924 151.355 265.16 151.508 263.63C152.272 262.407 152.884 261.795 153.343 261.795ZM46.9029 262.254C48.891 262.254 49.6556 263.325 49.1968 265.466L48.9674 266.383C48.8145 266.995 48.0499 267.683 46.6735 268.448H44.8383C44.3795 268.448 43.8443 267.76 43.2325 266.383L43.6913 264.089C43.8442 263.478 44.9148 262.866 46.9029 262.254ZM15.2462 263.172C15.8579 263.325 16.1638 263.631 16.1638 264.089C16.0108 264.701 15.6285 265.007 15.0168 265.007C14.405 265.007 14.0992 264.701 14.0992 264.089C14.405 263.478 14.7874 263.172 15.2462 263.172ZM4.23514 264.089H5.38212C5.68798 264.089 5.99384 265.313 6.29971 267.76L5.61152 271.659C4.541 273.495 3.08816 274.412 1.25299 274.412L3.31755 265.007C3.47048 264.395 3.77635 264.089 4.23514 264.089ZM109.069 266.842C109.681 266.995 109.91 267.301 109.757 267.76V268.448C109.605 269.06 109.222 269.365 108.611 269.365C107.999 269.365 107.693 269.06 107.693 268.448L107.922 267.76C108.075 267.148 108.458 266.842 109.069 266.842ZM140.267 268.448C140.879 268.448 141.108 268.754 140.955 269.365V269.824C140.802 270.436 140.42 270.742 139.808 270.742C139.197 270.742 138.891 270.436 138.891 269.824L139.12 269.365C139.273 268.754 139.655 268.448 140.267 268.448ZM32.2215 269.824H32.9097C33.5214 269.824 33.7508 270.13 33.5979 270.742L33.3685 271.659C33.2155 272.271 32.8332 272.577 32.2215 272.577H31.7627C31.151 272.577 30.9216 272.271 31.0745 271.659L31.3039 270.742C31.4568 270.13 31.7627 269.824 32.2215 269.824Z" fill="white"/>
</svg>
