<svg width="170" height="252" viewBox="0 0 170 252" fill="none" xmlns="http://www.w3.org/2000/svg">
<path d="M166.581 202.043C166.951 202.782 167.412 203.335 167.966 203.705C168.705 204.074 169.166 204.72 169.351 205.643C168.981 206.382 168.705 207.028 168.52 207.582C168.52 208.321 168.151 208.874 167.412 209.244C165.566 208.874 163.72 208.505 161.873 208.136C160.212 207.767 158.365 207.397 156.334 207.028C154.303 207.028 152.734 207.397 151.626 208.136C150.519 209.059 148.949 209.521 146.918 209.521C145.441 209.336 144.333 208.782 143.595 207.859C142.672 208.044 141.749 208.228 140.825 208.413C140.087 208.597 139.441 208.321 138.887 207.582C135.563 208.136 133.348 208.782 132.24 209.521C131.317 210.259 130.117 210.721 128.64 210.905C127.901 210.351 127.255 209.428 126.701 208.136C126.147 208.136 125.501 208.136 124.763 208.136C124.209 208.136 123.747 208.044 123.378 207.859C122.27 208.413 120.885 208.967 119.224 209.521C117.562 210.074 115.993 209.798 114.516 208.69C113.408 209.059 112.023 209.244 110.361 209.244C108.884 209.428 107.5 209.705 106.207 210.074C105.653 210.444 105.099 210.813 104.546 211.182C104.176 211.552 103.438 211.644 102.33 211.459C102.33 209.428 102.699 208.505 103.438 208.69C104.361 209.059 105.007 208.874 105.376 208.136C106.3 206.659 107.13 205.828 107.869 205.643C108.792 205.643 109.715 205.551 110.638 205.366C111.931 204.997 113.039 204.443 113.962 203.705C114.885 202.966 116.362 202.689 118.393 202.874C119.316 202.32 119.962 201.674 120.331 200.935C120.885 200.197 121.532 199.551 122.27 198.997C122.27 197.889 122.547 197.058 123.101 196.504C123.655 195.95 123.932 195.027 123.932 193.735C124.855 192.442 125.224 191.704 125.04 191.519C124.855 191.335 124.763 191.058 124.763 190.688C124.947 188.842 124.763 187.365 124.209 186.257C123.655 184.965 123.655 183.488 124.209 181.826C123.655 180.349 123.563 178.964 123.932 177.672C123.009 175.456 122.639 174.256 122.824 174.072C123.193 173.702 123.286 173.333 123.101 172.964C122.732 171.302 122.178 169.733 121.439 168.256C120.885 166.779 120.608 165.025 120.608 162.994C119.87 161.886 119.316 160.594 118.947 159.117C118.578 157.64 118.208 156.163 117.839 154.685C118.578 152.285 118.578 150.808 117.839 150.254C117.285 149.7 116.731 149.147 116.177 148.593C114.331 149.147 113.039 149.516 112.3 149.7C111.746 149.885 111.285 150.07 110.915 150.254C109.438 150.254 108.054 150.162 106.761 149.977C105.653 149.608 104.361 149.424 102.884 149.424C101.961 149.793 100.853 150.162 99.5606 150.531C98.4528 150.716 97.4374 150.439 96.5142 149.7C94.4833 149.516 93.2832 149.331 92.9139 149.147C92.7293 148.777 92.4524 148.408 92.0831 148.039C90.9753 148.223 89.9599 148.593 89.0367 149.147C88.2982 149.516 87.4674 149.608 86.5442 149.424C86.1749 149.054 85.8057 148.685 85.4364 148.316C85.2518 147.762 84.8825 147.393 84.3286 147.208C82.8516 147.208 81.1899 147.67 79.3436 148.593C78.9744 151.362 78.6051 153.116 78.2358 153.855C78.0512 154.593 77.6819 155.332 77.128 156.07C76.7588 156.809 76.3895 157.547 76.0203 158.286C75.8356 159.024 76.0203 159.855 76.5742 160.778C76.2049 161.886 75.7434 162.902 75.1895 163.825C74.8202 164.563 74.4509 165.394 74.0816 166.317C74.0816 166.871 74.0816 167.425 74.0816 167.979C74.2663 168.348 74.2663 168.81 74.0816 169.364C73.897 170.656 73.4354 171.764 72.6969 172.687C72.143 173.61 71.9584 174.995 72.143 176.841C71.5891 177.764 71.1276 178.687 70.7583 179.611C70.5737 180.534 70.2044 181.457 69.6505 182.38C70.0198 184.596 70.0198 185.888 69.6505 186.257C69.4659 186.626 69.2813 187.18 69.0966 187.919C69.0966 188.288 69.0966 188.75 69.0966 189.304C69.2813 189.857 69.2813 190.411 69.0966 190.965C68.7274 192.258 68.2658 193.365 67.7119 194.289C67.3427 195.212 67.0657 196.412 66.8811 197.889C66.1426 200.289 65.4964 201.766 64.9425 202.32C64.9425 204.351 64.8502 205.92 64.6655 207.028C64.4809 208.136 63.6501 208.69 62.173 208.69C60.3267 210.167 59.2189 211.275 58.8497 212.013C58.6651 212.936 58.1112 213.49 57.188 213.675C56.2649 215.521 55.3417 216.721 54.4186 217.275C53.68 217.829 52.5723 218.198 51.0952 218.383C50.3567 218.752 49.7105 219.214 49.1566 219.768C48.6027 220.321 47.7719 220.506 46.6641 220.321C46.2948 220.691 45.8333 221.152 45.2794 221.706C44.9101 222.26 44.1716 222.445 43.0638 222.26C40.8483 221.706 39.8328 221.706 40.0174 222.26C40.202 222.814 40.1097 223.46 39.7405 224.199C39.1866 226.599 38.2634 227.891 36.971 228.076C35.6786 228.261 34.3862 228.261 33.0938 228.076C31.986 228.814 30.8782 229.461 29.7705 230.015C28.8473 230.753 28.1088 231.584 27.5549 232.507C26.6318 232.507 25.9856 232.784 25.6163 233.338C25.0624 234.076 24.3239 234.538 23.4007 234.723C21.7391 236.384 20.6313 237.584 20.0774 238.323C19.5235 239.061 18.785 239.615 17.8618 239.985C14.7231 241.462 12.2306 243.308 10.3843 245.523C8.35337 247.739 6.32246 249.77 4.29153 251.616C3.36838 251.247 2.53753 250.601 1.79901 249.678C0.875855 248.939 0.69123 247.831 1.24512 246.354C1.79901 245.8 2.44522 245.247 3.18374 244.693C3.92226 244.323 4.47615 243.677 4.84541 242.754C6.32245 241.831 7.43022 241 8.16874 240.261C8.90726 239.708 9.27653 238.784 9.27653 237.492C11.3075 234.723 13.2461 231.492 15.0924 227.799C15.8309 227.43 16.4771 226.968 17.031 226.414C17.4003 225.86 17.7695 225.306 18.1388 224.753C18.3234 223.46 18.785 222.445 19.5235 221.706C20.0774 221.152 20.539 220.321 20.9082 219.214C21.8314 218.66 22.5699 217.921 23.1238 216.998C23.493 215.89 23.6777 214.783 23.6777 213.675C24.0469 212.752 24.5085 211.736 25.0624 210.628C25.4316 209.705 25.8009 208.782 26.1702 207.859C28.755 205.089 30.3243 202.32 30.8782 199.551C31.6168 196.781 32.5399 194.289 33.6477 192.073C34.0169 190.227 34.3862 189.304 34.7555 189.304C35.3094 189.304 35.5863 189.119 35.5863 188.75C35.217 186.903 35.0324 185.796 35.0324 185.426C35.217 185.057 35.494 184.688 35.8632 184.319C35.8632 182.103 36.1402 180.349 36.6941 179.057C37.4326 177.58 38.1711 176.103 38.9096 174.626C38.5404 173.887 38.4481 173.333 38.6327 172.964C39.002 172.595 39.2789 172.041 39.4635 171.302C39.0943 169.087 39.2789 167.148 40.0174 165.486C40.7559 163.64 41.3098 161.794 41.6791 159.947C42.0484 159.394 42.3253 158.932 42.5099 158.563C42.8792 158.009 43.2484 157.455 43.6177 156.901C44.1716 155.793 44.5408 154.593 44.7255 153.301C44.9101 151.824 45.2794 150.531 45.8333 149.424C45.8333 148.5 45.9256 147.67 46.1102 146.931C46.2948 146.192 46.5718 145.454 46.9411 144.715C46.9411 142.315 47.0333 140.838 47.218 140.284C47.4026 139.73 47.5873 139.177 47.7719 138.623C47.9565 137.7 48.0488 136.961 48.0488 136.407C48.2335 135.669 48.2335 134.838 48.0488 133.915C48.6027 130.776 49.2489 127.729 49.9874 124.775C50.9106 121.821 51.7414 118.775 52.4799 115.636C52.8492 115.267 53.1262 114.805 53.3108 114.252C53.4954 113.513 53.7724 112.867 54.1416 112.313C54.6955 110.282 54.9724 109.174 54.9724 108.99C54.9724 108.62 55.1571 108.251 55.5263 107.882C55.8956 105.666 56.1725 103.543 56.3572 101.512C56.5418 99.4811 56.8188 97.4502 57.188 95.4192C57.3727 93.5729 57.6496 92.3729 58.0188 91.819C58.3881 91.2651 58.7574 90.6189 59.1266 89.8803C59.3113 88.2187 59.2189 86.7416 58.8497 85.4492C58.4804 83.9722 58.4804 82.4028 58.8497 80.7412C60.1421 79.2641 61.1575 77.6948 61.8961 76.0331C61.5268 74.0022 61.7115 72.6174 62.45 71.8789C61.7115 69.4787 61.5268 68.0017 61.8961 67.4478C62.45 66.7093 62.9115 66.1554 63.2808 65.7861C64.3886 62.8321 65.1271 60.1549 65.4964 57.7547C65.8656 55.1699 66.6965 53.0467 67.9889 51.385C68.912 49.1694 69.2813 47.4155 69.0966 46.123C69.0966 45.1999 68.7274 44.2767 67.9889 43.3536C67.435 42.4304 67.435 41.5073 67.9889 40.5841C68.3581 40.0302 68.6351 39.4764 68.8197 38.9225C69.0044 38.1839 69.3736 37.6301 69.9275 37.2608C70.1121 35.7838 70.2044 34.3067 70.2044 32.8297C70.2044 31.168 70.389 29.5986 70.7583 28.1216C69.8352 25.5368 69.6505 23.7828 70.2044 22.8597C69.8352 22.1211 69.4659 21.6596 69.0966 21.4749C68.7274 21.2903 68.4504 20.921 68.2658 20.3671C69.0043 18.3362 68.912 16.5822 67.9889 15.1052C67.6196 14.7359 67.158 14.459 66.6041 14.2744C66.2349 13.9051 65.8656 13.5358 65.4964 13.1666C63.4654 12.2434 62.9115 11.5049 63.8347 10.951C64.9425 10.2125 65.681 9.47397 66.0503 8.73545C65.681 8.18156 65.1271 7.90462 64.3886 7.90462C63.8347 7.71999 63.1885 7.62767 62.45 7.62767C61.7115 7.62767 61.0653 7.53536 60.5114 7.35073C59.9575 6.98147 59.6805 6.33526 59.6805 5.41211C60.6037 5.04285 61.6191 4.76591 62.7269 4.58128C63.8347 4.39665 64.8502 4.11971 65.7733 3.75045C69.2813 3.93508 71.4968 4.30434 72.42 4.85823C73.897 4.48897 75.1895 4.02739 76.2972 3.4735C77.405 2.73498 78.882 2.64267 80.7283 3.19656C82.9439 3.75045 84.421 3.4735 85.1595 2.36572C86.0826 1.07331 87.0981 0.334789 88.2059 0.150159C89.4983 -0.0344708 90.4214 0.427106 90.9753 1.53489C91.5292 2.64267 91.5292 3.93507 90.9753 5.41211C92.2677 5.22748 93.1909 4.95054 93.7448 4.58128C94.4833 4.21202 95.3141 3.84276 96.2373 3.4735C98.8221 4.58128 100.484 4.95054 101.222 4.58128C102.145 4.02739 103.253 3.56582 104.546 3.19656C106.761 4.30434 108.054 4.76591 108.423 4.58128C108.977 4.21202 109.623 4.11971 110.361 4.30434C111.1 3.93508 111.746 3.56582 112.3 3.19656C112.854 2.64267 113.592 2.45804 114.516 2.64267C115.439 4.48897 115.623 5.68906 115.07 6.24295C114.7 6.79684 114.423 7.53536 114.239 8.45851C115.346 10.3048 115.808 11.4126 115.623 11.7819C115.623 12.1511 115.716 12.5204 115.9 12.8896C115.716 13.9974 115.531 15.1052 115.346 16.213C115.346 17.3207 115.346 18.5208 115.346 19.8133C115.531 20.3671 115.716 20.8287 115.9 21.198C116.085 21.5672 116.177 22.2134 116.177 23.1366C117.654 24.2444 118.301 25.0752 118.116 25.6291C118.116 26.183 118.116 26.7369 118.116 27.2908C118.485 29.1371 118.578 30.5218 118.393 31.445C118.208 32.1835 118.301 32.922 118.67 33.6605C118.854 34.399 119.039 35.0452 119.224 35.5991C119.593 35.9684 119.778 36.3376 119.778 36.7069C121.439 38.3686 122.085 39.2917 121.716 39.4764C121.532 39.661 121.255 40.0302 120.885 40.5841C122.362 43.5382 123.193 45.7538 123.378 47.2308C123.563 48.5232 124.024 49.631 124.763 50.5542C124.947 52.7697 125.778 54.7083 127.255 56.37C127.624 59.1395 127.994 61.8166 128.363 64.4014C128.732 66.8016 129.009 69.4787 129.194 72.4328C129.932 72.2482 130.394 71.9712 130.578 71.602C130.948 71.2327 131.502 71.1404 132.24 71.325C131.686 73.1713 131.686 74.0945 132.24 74.0945C132.794 74.0945 133.163 74.2791 133.348 74.6484C133.348 75.5715 133.071 76.2177 132.517 76.587C131.963 76.9562 131.594 77.5101 131.409 78.2487C132.702 81.3874 133.44 83.6952 133.625 85.1723C133.809 86.6493 133.994 88.1264 134.179 89.6034C135.102 91.2651 135.656 92.4652 135.84 93.2037C136.025 93.9422 135.84 94.5884 135.287 95.1423C135.471 96.6193 135.748 97.7271 136.117 98.4656C136.671 99.2042 137.317 100.035 138.056 100.958C137.871 101.881 137.964 102.62 138.333 103.174C138.702 103.728 138.887 104.466 138.887 105.389C138.887 106.312 138.61 106.959 138.056 107.328C137.687 107.697 137.502 108.251 137.502 108.99C138.61 110.467 139.441 111.574 139.995 112.313C140.548 113.051 141.01 113.605 141.379 113.975C141.933 116.19 142.302 117.944 142.487 119.237C142.856 120.344 143.41 121.267 144.149 122.006C143.779 125.514 144.241 128.099 145.533 129.76C146.457 130.314 147.38 130.868 148.303 131.422C149.226 131.791 150.149 132.253 151.072 132.807C151.442 134.099 150.98 135.207 149.688 136.13C149.872 136.869 150.057 137.607 150.242 138.346C150.611 138.9 150.611 139.638 150.242 140.561C150.611 141.669 150.888 142.961 151.072 144.439C151.442 145.731 151.534 147.023 151.349 148.316C151.534 149.054 151.719 149.793 151.903 150.531C152.088 151.27 152.18 152.101 152.18 153.024C152.549 153.762 152.734 154.593 152.734 155.516C152.919 156.439 153.011 157.455 153.011 158.563C153.38 159.117 153.657 159.671 153.842 160.224C154.026 160.594 154.211 161.055 154.396 161.609C154.396 162.717 154.58 163.732 154.95 164.656C155.319 165.394 155.688 166.133 156.057 166.871C156.242 168.717 156.519 170.379 156.888 171.856C157.442 173.333 157.719 175.087 157.719 177.118C159.011 180.257 160.212 182.288 161.319 183.211C162.612 183.949 163.72 184.872 164.643 185.98C164.827 187.642 164.735 189.027 164.366 190.134C163.996 191.058 163.627 192.073 163.258 193.181C164.181 194.473 164.827 195.95 165.197 197.612C165.566 199.089 166.027 200.566 166.581 202.043ZM105.653 122.006C106.577 123.114 107.777 123.206 109.254 122.283C108.884 120.806 108.515 119.421 108.146 118.129C107.777 116.652 107.407 115.175 107.038 113.698C107.592 112.959 107.684 112.036 107.315 110.928C107.13 109.636 107.223 108.436 107.592 107.328C107.038 106.405 106.577 105.389 106.207 104.281C105.838 103.174 105.192 102.158 104.269 101.235C104.084 100.497 103.807 99.9427 103.438 99.5734C103.069 99.2042 102.792 98.6503 102.607 97.9117C102.607 96.804 102.515 95.6039 102.33 94.3115C102.33 93.0191 102.515 91.819 102.884 90.7112C102.145 89.2341 101.407 87.8494 100.668 86.557C99.9299 85.2646 99.1914 83.8799 98.4528 82.4028C97.8989 79.818 97.5297 77.7871 97.3451 76.31C97.3451 75.3869 97.4374 74.3714 97.622 73.2636C97.9912 72.1559 97.4374 71.5097 95.9603 71.325C95.5911 73.9099 95.3141 75.7562 95.1295 76.8639C94.9448 77.7871 94.5756 78.6179 94.0217 79.3564C93.8371 80.6488 93.7448 81.8489 93.7448 82.9567C93.7448 83.8799 93.6525 84.9876 93.4678 86.2801C92.5447 87.2032 92.0831 88.311 92.0831 89.6034C92.2677 90.7112 92.3601 92.0959 92.3601 93.7576C91.8062 94.8654 91.2523 95.9731 90.6984 97.0809C90.1445 98.0041 89.5906 98.9272 89.0367 99.8504C88.8521 100.589 88.7597 101.235 88.7597 101.789C88.9444 102.343 88.8521 102.897 88.4828 103.451C88.2982 104.374 88.0212 105.112 87.652 105.666C87.4673 106.035 87.2827 106.589 87.0981 107.328C87.0981 107.697 87.0981 108.251 87.0981 108.99C87.2827 109.543 87.375 110.097 87.375 110.651C87.375 111.574 87.2827 112.59 87.0981 113.698C86.9135 114.805 86.7288 115.729 86.5442 116.467C86.1749 117.39 85.7134 118.129 85.1595 118.683C84.7902 119.237 84.421 119.883 84.0517 120.621C83.6824 122.652 84.144 123.298 85.4364 122.56C86.9134 121.821 88.1136 121.452 89.0367 121.452C89.5906 121.637 90.0522 121.914 90.4214 122.283C90.7907 122.468 91.3446 122.652 92.0831 122.837C93.5601 123.206 94.8525 123.206 95.9603 122.837C97.2527 122.468 98.4528 122.652 99.5606 123.391C101.407 122.468 103.438 122.006 105.653 122.006Z" fill="white"/>
</svg>
