<svg width="102" height="133" viewBox="0 0 102 133" fill="none" xmlns="http://www.w3.org/2000/svg">
<path d="M92.2634 97.5176C91.7493 97.5176 91.4495 97.7318 91.3638 98.1602C91.1067 98.0745 91.6208 98.4173 92.906 99.1884C93.6771 99.7025 94.1912 99.5311 94.4483 98.6743C93.9342 98.5886 93.72 98.203 93.8057 97.5176C93.6343 97.5176 93.3772 97.5176 93.0345 97.5176C92.6918 97.5176 92.4348 97.5176 92.2634 97.5176ZM77.4835 96.3609C82.3673 81.5382 85.9231 69.8857 88.1508 61.4033C90.2071 69.1145 92.3491 79.439 94.5768 92.3768C97.8326 111.055 99.7176 121.637 100.232 124.121C93.5486 128.148 82.3673 130.462 66.6878 131.061C68.6584 123.864 72.257 112.297 77.4835 96.3609ZM34.3006 36.4703C31.7302 38.0125 29.631 38.698 28.0031 38.5266C30.4878 33.8999 30.8305 27.5595 29.0312 19.5055C26.8892 10.1664 26.1181 3.86886 26.7179 0.612999H38.7988C38.6274 1.81253 39.3557 2.84069 40.9837 3.69749C41.5834 4.04022 43.1685 4.68282 45.7389 5.62531C45.5676 3.99738 44.7107 2.54081 43.1685 1.2556C44.9678 0.655837 47.324 0.355957 50.2372 0.355957C53.4073 0.441637 55.5065 0.912879 56.5346 1.76968C54.9067 6.05371 52.3363 11.3231 48.8234 17.5777C44.7108 24.9462 41.969 30.0442 40.5981 32.8717C39.827 33.1287 37.7278 34.3283 34.3006 36.4703ZM23.2478 118.209C23.7619 117.695 24.276 117.524 24.79 117.695C24.8757 118.295 27.4033 107.971 32.3728 86.7219C34.6862 88.9496 37.5993 92.4196 41.1122 97.132C44.7965 102.102 47.581 105.572 49.466 107.542C49.8944 107.028 47.5811 107.242 42.5259 108.185C41.4121 112.383 40.7695 117.867 40.5981 124.635C39.4842 124.807 38.199 124.55 36.7425 123.864C35.3716 123.093 34.1292 122.75 33.0154 122.836C32.6726 122.322 32.7155 121.679 33.1439 120.908C33.4866 120.223 33.2296 119.58 32.3728 118.981C31.0019 119.066 29.2454 118.981 27.1034 118.724C25.6469 118.552 24.4473 118.638 23.5048 118.981C22.8194 118.981 22.7337 118.724 23.2478 118.209ZM3.9697 102.53C3.9697 102.359 6.49726 96.6608 11.5524 85.4367C15.2367 92.2911 15.6651 100.731 12.8376 110.755C11.7238 110.07 10.867 107.885 10.2672 104.201C9.66746 100.773 8.38225 98.9313 6.4116 98.6743C5.64047 99.1027 5.29775 99.831 5.38343 100.859C5.46911 101.802 5.81183 102.573 6.4116 103.173C6.4116 103.772 6.06887 103.858 5.38343 103.43C4.61231 102.83 4.14106 102.53 3.9697 102.53ZM68.1015 99.3169C66.9877 97.689 66.6878 96.6608 67.2019 96.2324C71.3145 95.2899 73.2423 95.0757 72.9853 95.5898C72.7283 99.3597 71.2717 104.629 68.6156 111.398C65.7025 118.681 63.9889 124.164 63.4748 127.848C60.2189 124.079 58.3339 121.337 57.8199 119.623C57.8199 118.595 58.0341 118.295 58.4625 118.724C59.1479 119.58 59.7477 119.88 60.2618 119.623C60.0047 119.023 59.6192 118.252 59.1051 117.31C58.5053 116.282 58.1198 115.511 57.9484 114.996C57.0916 113.197 56.8345 111.141 57.1773 108.827C56.7489 108.399 55.2494 108.185 52.679 108.185C44.4537 97.4748 37.685 88.3926 32.3728 80.9384C33.2296 77.9396 33.0582 73.9983 31.8587 69.1145C30.5735 63.7167 30.1451 59.4326 30.5735 56.2625C32.3728 56.8622 36.7853 59.1756 43.8111 63.2026C43.5541 68.7718 42.6973 75.969 41.2407 84.7941C42.6973 85.3081 45.0106 85.5223 48.1808 85.4367C52.5505 85.351 55.1209 85.351 55.8921 85.4367C54.9496 80.6385 54.5212 78.3252 54.6068 78.4965C56.3205 80.1245 58.4625 83.8087 61.0329 89.5493C63.8603 95.7183 66.1309 99.831 67.8445 101.887C68.9583 101.545 69.044 100.688 68.1015 99.3169ZM86.48 49.0653C86.3086 49.0653 86.2229 48.9368 86.2229 48.6797C85.5375 49.0225 85.409 49.4937 85.8374 50.0935C86.5228 51.036 86.8655 51.8499 86.8655 52.5354C86.9512 53.2208 84.8521 60.3751 80.568 73.9983C77.1408 85.0511 75.0416 92.034 74.2705 94.9472C73.5851 94.6045 70.6291 94.3903 65.4026 94.3046C63.6033 90.3633 61.4613 86.1221 58.9765 81.581C58.8909 81.0669 59.0622 80.7242 59.4906 80.5529C59.662 80.4672 60.1332 80.4244 60.9044 80.4244C60.5616 79.1391 59.7048 78.0681 58.334 77.2113C58.7624 77.4684 57.52 76.8258 54.6068 75.2835C54.1784 71.2565 53.3217 64.1879 52.0364 54.0776C50.8369 44.4814 49.9801 36.9844 49.466 31.5865C47.4954 40.3259 46.0388 49.6222 45.0963 59.4755C43.5541 59.5612 41.5406 58.7472 39.0559 57.0336C35.6286 54.7202 33.6151 53.435 33.0154 53.178C37.128 41.6111 45.996 31.6722 59.6191 23.3612C66.2165 25.4175 69.6009 26.4885 69.7723 26.5742C75.0845 21.6047 79.24 22.5044 82.2388 29.2731C83.7811 32.6146 85.3233 39.0835 86.8655 48.6797C86.8655 49.0225 86.737 49.151 86.48 49.0653ZM64.76 19.2485C66.0452 18.5631 66.6878 17.6206 66.6878 16.421C63.8603 16.5067 60.4759 18.2632 56.5346 21.6904C52.1649 25.4603 48.7806 27.688 46.3815 28.3735C47.4097 26.6599 49.2947 23.4897 52.0364 18.8629C54.3498 14.836 56.2776 11.7086 57.8199 9.48093C59.7905 9.30957 61.0329 9.69513 61.547 10.6376C61.8897 10.2092 61.5041 9.52376 60.3903 8.58128C59.0194 7.46743 58.5481 6.2679 58.9765 4.9827C59.7477 5.32542 60.5616 6.01087 61.4184 7.03903C62.2752 8.32424 62.9607 9.1382 63.4748 9.48093C64.2459 9.73797 64.8456 9.43808 65.2741 8.58128C65.7025 7.63879 65.5311 7.08187 64.76 6.91051C64.5886 6.91051 64.3744 6.48211 64.1174 5.62531C69.5153 9.39525 73.1138 13.6364 74.9131 18.3489C74.3134 18.6059 73.328 19.2057 71.9571 20.1481C70.8433 20.9193 69.9008 21.4762 69.1297 21.8189C66.902 22.8471 64.5886 22.7186 62.1896 21.4333C62.4466 20.8336 63.3034 20.1053 64.76 19.2485ZM81.8532 132.347C84.8521 130.976 87.3796 130.333 89.436 130.419C88.5791 131.875 86.0516 132.518 81.8532 132.347ZM90.7212 132.347C91.578 131.319 94.7481 129.819 100.232 127.848C101.174 128.277 101.603 129.776 101.517 132.347H90.7212ZM58.7195 127.591C58.7195 127.591 58.591 126.606 58.334 124.635C59.1051 124.807 59.5763 125.449 59.7477 126.563C60.0047 128.106 60.1761 128.962 60.2618 129.134C59.405 129.048 58.8909 128.534 58.7195 127.591ZM21.32 127.591C21.577 126.135 21.7055 124.55 21.7055 122.836C22.648 123.093 24.4473 123.522 27.1034 124.121C29.4168 124.721 31.1733 125.235 32.3728 125.664C36.2284 127.035 38.5846 129.262 39.4414 132.347H21.0629C20.9773 130.804 21.0629 129.219 21.32 127.591ZM0.756676 120.266C1.35644 115.211 1.99904 110.798 2.68449 107.028C5.51194 107.542 7.52543 109.299 8.72495 112.297C9.49608 114.354 10.0102 117.653 10.2672 122.194C9.9245 122.536 9.11053 123.008 7.82533 123.607C6.79716 124.121 6.11171 124.678 5.76899 125.278C3.88402 123.907 2.21324 122.236 0.756676 120.266ZM17.0788 112.683C17.1645 115.596 16.5647 117.91 15.2795 119.623C13.6516 118.338 13.1803 116.153 13.8658 113.069C14.894 108.613 15.3652 105.957 15.2795 105.1C16.479 107.499 17.0788 110.027 17.0788 112.683ZM5.12638 79.7817H7.05418C7.3969 82.5235 7.01134 85.1796 5.8975 87.75C4.18389 91.9484 3.3271 94.1332 3.3271 94.3046C3.07005 93.2764 3.66981 88.4355 5.12638 79.7817ZM19.7777 85.1796C18.5782 88.3498 17.9356 90.963 17.8499 93.0194C16.1363 90.5346 15.3652 86.9789 15.5366 82.3522C15.6222 77.1257 17.6786 75.412 21.7055 77.2113C21.6199 79.3533 20.9773 82.0094 19.7777 85.1796ZM21.0629 74.7694C20.2061 73.2272 20.4203 71.942 21.7055 70.9138C26.9321 74.084 29.0741 79.5675 28.1316 87.3645C27.6175 91.8198 25.6897 98.3744 22.3482 107.028C18.9209 103.772 17.8071 99.1884 19.0066 93.2764C19.435 91.4771 20.1633 88.9496 21.1915 85.6937C22.4767 82.0951 23.2478 79.6961 23.5048 78.4965C23.3335 78.1538 22.9479 77.554 22.3482 76.6972C21.7484 75.9261 21.32 75.2835 21.0629 74.7694ZM7.05418 67.0582C8.42506 67.8293 9.4961 68.9003 10.2672 70.2712C9.23905 73.6984 7.73964 75.5834 5.76899 75.9261C5.94035 73.27 6.36873 70.3141 7.05418 67.0582ZM28.6457 68.986C29.5882 74.1268 30.0166 76.4402 29.9309 75.9261C28.9884 75.412 28.0887 73.9983 27.2319 71.6849C26.3751 69.4573 25.347 68.1292 24.1474 67.7008C24.2331 66.9297 24.533 66.1586 25.0471 65.3874C25.6469 64.2736 25.9896 63.5453 26.0753 63.2026C27.1891 64.3164 28.0459 66.2442 28.6457 68.986ZM8.982 55.6199C9.75313 57.0764 9.96733 60.2466 9.62461 65.1304C8.25372 64.5306 7.69679 63.1597 7.95383 61.0177C7.95383 60.3323 8.12521 59.3898 8.46793 58.1903C8.72498 56.9907 8.89632 56.1339 8.982 55.6199ZM24.79 59.9896C22.9051 62.3029 21.8769 64.2307 21.7055 65.773C20.9344 65.9444 20.2918 65.6445 19.7777 64.8733C19.2637 64.1022 18.621 63.7595 17.8499 63.8452C18.107 63.2454 19.0494 61.7888 20.6774 59.4755C21.9626 57.7619 22.6909 56.0483 22.8623 54.3346C22.5195 53.3922 21.9626 53.1351 21.1915 53.5635C20.3347 53.9919 19.8634 54.0776 19.7777 53.8206C20.2062 52.107 21.32 51.55 23.1193 52.1498C23.5477 52.2355 24.2759 52.5354 25.3041 53.0494C26.2466 53.4778 26.932 53.7349 27.3605 53.8206C27.3605 55.8769 26.5037 57.9332 24.79 59.9896ZM13.2232 54.8487C11.8523 52.4497 10.6528 50.6075 9.62461 49.3223C12.5377 51.0359 14.337 52.2783 15.0225 53.0494C16.6504 54.9344 17.1645 57.5048 16.5647 60.7607C16.0507 59.9039 14.9368 57.9332 13.2232 54.8487ZM26.4608 44.6956C27.1463 45.381 27.232 46.4949 26.7179 48.0371C25.5183 47.9515 24.276 48.08 22.9908 48.4227C21.1915 48.9368 20.1205 49.2367 19.7777 49.3223C19.6064 48.0371 19.9491 46.8804 20.8059 45.8523C21.6627 44.9098 22.648 44.31 23.7619 44.053C24.9614 43.796 25.8611 44.0102 26.4608 44.6956ZM32.1157 41.097C33.8293 40.4973 34.986 39.8546 35.5858 39.1692C36.0142 40.026 35.543 41.8681 34.1721 44.6956C32.7155 47.523 31.3018 49.4937 29.9309 50.6076C29.7595 50.0935 29.5881 48.7654 29.4168 46.6234C29.3311 44.9098 29.0741 43.7103 28.6457 43.0248C29.2454 42.5107 30.4021 41.8681 32.1157 41.097ZM14.6369 41.8681C14.6369 42.7249 14.6369 43.3247 14.6369 43.6674C13.9515 43.4961 13.266 43.5389 12.5806 43.796C11.8095 44.1387 11.2525 44.31 10.9098 44.31C10.9098 43.2819 11.2097 42.168 11.8095 40.9685C12.4092 39.769 12.7519 38.7408 12.8376 37.884C13.6944 38.0554 14.2514 38.7836 14.5084 40.0688C14.5084 40.4972 14.5512 41.097 14.6369 41.8681ZM80.568 20.7907C80.2253 20.0196 79.7969 19.5912 79.2828 19.5055C80.0539 19.1628 80.3967 18.6916 80.311 18.0918C80.311 18.0918 80.2253 17.7919 80.054 17.1922C79.9683 16.6781 79.9254 16.2068 79.9254 15.7784C80.6109 16.1212 81.0393 17.0636 81.2106 18.6059C81.382 20.4909 81.5962 21.6475 81.8532 22.076C81.2535 22.076 80.8251 21.6476 80.568 20.7907ZM76.8409 13.9791C77.098 13.3794 77.2693 12.9081 77.355 12.5654C76.3269 11.88 74.7846 10.4663 72.7283 8.32424C70.929 6.35359 69.3011 5.02554 67.8445 4.3401C68.787 3.82601 70.4577 3.61181 72.8568 3.69749C76.1126 3.78317 78.0404 3.78317 78.6402 3.69749C78.7259 4.5543 78.8973 5.75383 79.1543 7.29607C79.4113 8.75264 79.5399 9.86649 79.5399 10.6376C79.7112 12.951 79.1972 14.8788 77.9976 16.421C76.9695 15.9926 76.4554 15.4786 76.4554 14.8788C76.541 14.7074 76.6696 14.4076 76.8409 13.9791ZM21.7055 41.7396C20.1633 42.3394 18.8781 42.7678 17.8499 43.0248C16.6504 39.5976 16.0078 29.8729 15.9221 13.8506C15.8364 12.9938 16.222 12.6939 17.0788 12.951C18.107 13.3794 18.7924 13.2509 19.1351 12.5654C19.3065 11.3659 19.0066 10.2949 18.2355 9.3524C17.2073 8.32424 16.6504 7.51027 16.5647 6.91051C16.5647 5.88234 17.1645 4.7685 18.364 3.56897C19.4779 2.62648 19.7349 1.64116 19.1351 0.612999H22.8623C23.205 2.06957 23.8047 4.51146 24.6615 7.93867C25.5183 11.1945 26.1181 13.7221 26.4608 15.5214C27.6603 21.6047 27.9602 26.9597 27.3605 31.5865C26.7607 31.7578 26.5465 31.3294 26.7179 30.3013C26.8892 29.3588 26.675 28.9304 26.0753 29.0161C24.533 29.5301 24.0618 31.0724 24.6615 33.6428C25.5183 37.07 25.7754 39.3406 25.4327 40.4544C24.6615 40.7115 23.4192 41.1399 21.7055 41.7396Z" fill="white"/>
</svg>
