<svg width="265" height="241" viewBox="0 0 265 241" fill="none" xmlns="http://www.w3.org/2000/svg">
<path d="M260.849 230.501C262.566 232.905 263.253 235.995 264.97 239.773C261.193 240.116 259.132 240.46 256.728 240.46C238.87 240.46 221.013 240.46 203.498 240.116C200.064 240.116 196.63 239.086 193.539 237.712C190.448 236.339 188.044 235.995 184.954 238.056C182.893 239.429 179.802 240.116 177.398 240.116C140.996 240.46 104.594 240.116 67.8477 240.116C67.1609 240.116 66.474 239.429 64.7569 238.743C66.1306 235.995 66.8175 233.591 68.1911 230.844C71.9687 223.289 77.12 215.734 80.2108 207.492C83.645 199.593 90.17 195.128 96.0081 189.634C97.3818 188.603 99.4423 188.603 101.503 188.603C111.805 188.603 122.108 188.603 132.41 188.603C135.158 188.603 137.905 188.603 139.279 191.694C140.653 195.128 143.4 195.128 146.834 194.785C146.491 189.29 149.925 188.26 154.389 188.603C159.884 188.603 165.035 188.603 170.53 188.603C172.59 188.603 174.651 187.917 177.398 187.573C176.368 185.169 175.338 183.109 174.994 181.392C173.621 177.614 174.994 176.24 178.429 176.927C179.459 176.927 180.489 177.271 181.519 177.957C185.297 179.331 187.701 178.301 189.418 174.523C190.792 171.433 192.165 168.342 192.852 164.908C193.539 163.534 193.539 160.787 192.509 159.756C189.418 155.979 185.297 156.322 180.833 157.696C177.055 159.069 172.934 159.413 172.934 164.908C172.934 167.311 172.59 169.372 172.59 173.15C170.53 171.433 168.813 171.089 168.126 170.059C161.258 157.696 154.389 145.333 147.521 132.97C146.491 131.253 146.147 128.849 145.804 126.788C145.117 122.667 143.056 119.233 139.622 116.142C134.471 112.021 133.784 108.93 136.532 103.436C142.026 93.133 147.864 82.487 153.702 72.1845C154.389 70.8108 155.763 69.7805 157.137 68.4069C163.662 72.5279 170.187 75.9621 176.368 80.0831C178.085 81.1133 179.459 83.5173 180.833 85.5778C196.973 114.768 213.114 144.302 229.255 173.493C232.345 179.331 235.78 185.169 238.87 191.007C239.557 192.381 240.244 194.442 240.931 196.159C241.274 196.846 240.587 198.563 241.274 198.906C250.203 207.835 253.981 220.198 260.849 230.501ZM99.7857 220.198C100.129 219.855 100.473 219.511 100.816 219.168C100.473 218.824 100.129 218.481 99.7857 218.481L99.4423 218.824C99.4423 219.168 99.7857 219.855 99.7857 220.198ZM233.376 228.44C233.719 228.44 234.062 228.097 234.062 227.753C233.719 227.753 233.376 227.41 233.032 227.41C232.689 227.41 232.345 227.753 232.689 227.753C232.689 228.097 233.032 228.44 233.376 228.44ZM243.335 226.723C243.335 226.38 243.678 226.036 244.022 225.693C244.022 225.349 243.678 225.006 243.335 224.662C242.991 224.662 242.648 225.006 242.305 225.349C242.648 225.693 242.991 226.036 243.335 226.723ZM244.365 212.986C244.708 212.299 244.708 211.613 245.052 210.926C243.678 210.926 242.305 210.582 241.274 210.239C240.931 210.239 240.587 211.613 240.587 211.613C241.961 211.956 242.991 212.643 244.365 212.986ZM98.0686 149.454C97.0383 152.201 96.3515 154.948 94.9778 157.009C80.8976 181.392 68.878 206.805 55.4846 231.531C52.0505 237.712 48.2728 241.49 40.7176 240.46C30.7585 239.429 20.4559 239.086 10.4968 239.086C7.06258 238.743 3.97182 239.429 0.537628 239.773C1.56789 234.278 1.56788 234.278 12.2139 232.218C12.2139 231.874 12.5573 231.187 12.2139 230.844C7.06258 226.723 7.40599 222.259 10.4968 216.764C25.2638 190.664 39.6874 164.221 54.4544 138.121C56.8583 134 60.6359 130.222 64.7569 127.475C66.8174 125.758 70.2517 126.445 73.3424 124.728C70.5951 124.041 67.8477 123.354 64.4135 122.324C64.757 120.607 65.1004 118.889 65.7872 117.859C73.6858 103.092 81.9279 88.3251 90.17 73.9016C92.9173 69.0937 96.0081 64.9727 98.0686 59.8214C101.159 51.2359 102.533 51.2359 112.492 50.8925C111.118 49.5188 110.088 48.1451 109.058 47.4583C106.997 45.3978 106.997 43.3373 108.715 41.9636C110.088 40.9333 112.149 40.5899 113.522 40.9333C116.957 41.9636 120.391 43.6807 123.825 45.3978C126.229 49.1754 129.663 52.2662 134.128 53.9833C135.845 54.6701 137.562 55.7004 138.935 56.7306C144.774 61.1951 145.46 63.599 141.683 70.1239C136.531 79.3963 131.037 88.6686 126.229 97.9409C121.764 106.183 117.643 114.425 113.522 123.01C110.775 128.505 106.997 131.939 100.473 133.313C92.5739 134.343 85.0187 136.404 77.12 138.121C71.9687 139.495 66.4741 141.212 61.3228 143.272C56.5149 145.333 56.1715 151.171 60.2925 158.039C69.9082 151.514 81.2411 148.767 92.5739 147.393C94.291 147.05 96.0081 148.423 98.0686 149.454ZM99.7857 128.162C104.25 123.354 101.503 120.263 100.129 117.172C99.4423 117.516 98.7554 117.516 98.0686 117.516C98.412 120.607 99.0988 123.697 99.7857 128.162ZM94.9778 94.1633C94.9778 100.688 93.6041 105.84 97.3817 111.678C98.0686 110.304 99.0988 108.93 99.0988 107.213C98.7554 103.436 98.412 99.658 97.7251 95.8804C97.7251 95.5369 96.6949 95.1935 94.9778 94.1633ZM82.6147 121.98C82.2713 121.98 81.9279 123.01 81.9279 123.01C82.2713 123.697 82.9581 123.697 83.645 124.384C83.645 123.697 83.9884 123.354 84.3318 122.667C83.645 122.324 83.3016 121.98 82.6147 121.98ZM123.482 45.0544L123.825 45.3978C123.482 45.3978 123.482 45.0544 123.482 45.0544L123.825 45.3978L123.482 45.0544ZM153.016 47.8017C147.177 57.4175 147.521 57.4175 137.562 51.5793C133.097 49.1754 128.289 47.1149 123.482 45.0544C122.451 44.0241 121.764 42.9939 120.734 41.9636C117.3 38.5294 117.3 38.5294 121.078 33.7215C119.361 32.0045 117.987 30.2874 116.27 28.9137C120.047 18.2677 127.603 4.87436 132.754 0.409912C134.471 2.81383 136.188 5.21778 137.562 7.6217C143.056 16.894 147.864 26.1663 153.016 35.4386C155.763 39.5597 155.763 42.9939 153.016 47.8017ZM169.5 67.3766C166.066 70.1239 162.975 68.4069 160.571 66.3463C159.541 65.3161 159.541 62.9121 160.227 61.5385C160.914 60.5082 163.318 59.8214 164.348 60.5082C167.096 61.5385 169.5 63.599 169.5 67.3766Z" fill="white"/>
</svg>
