<svg width="146" height="183" viewBox="0 0 146 183" fill="none" xmlns="http://www.w3.org/2000/svg">
<path d="M84.452 0.262695H85.4801V3.34719C85.4801 3.77559 86.337 4.6324 88.0506 5.91761C88.3933 3.86128 88.9074 2.83311 89.5928 2.83311L90.621 4.37536V5.40352C89.5928 5.40352 89.0787 5.74624 89.0787 6.43169C90.621 7.03145 91.9918 8.23098 93.1914 10.0303V10.5443H91.135V12.0866H91.6491C92.3346 11.7439 92.8486 11.5725 93.1914 11.5725C93.1914 11.9152 93.3627 12.0866 93.7055 12.0866L93.1914 14.657V15.1711C95.2477 15.5138 96.2759 16.0279 96.2759 16.7133V17.7415C96.2759 18.427 95.9331 18.7697 95.2477 18.7697L94.2195 18.2556V18.7697C95.4191 22.1969 96.9613 23.9105 98.8463 23.9105C98.8463 23.5678 99.0177 23.3964 99.3604 23.3964L99.8744 24.4246C99.8744 24.6816 99.0176 25.5384 97.304 26.995C100.046 28.88 101.417 30.7649 101.417 32.6499C101.074 33.0783 100.903 33.9351 100.903 35.2203C103.045 35.2203 104.758 37.2767 106.043 41.3893C105.529 41.3893 105.015 41.9034 104.501 42.9316C104.844 42.9316 105.015 43.1029 105.015 43.4456L106.043 42.9316H107.586C107.586 44.3881 107.928 46.1017 108.614 48.0724C108.271 48.7578 108.1 49.2719 108.1 49.6146C108.957 52.3564 110.156 53.7273 111.698 53.7273C111.441 56.7261 110.927 58.6111 110.156 59.3822C110.156 60.0677 110.67 60.4104 111.698 60.4104L114.269 59.8963L114.783 60.9245V62.4667H114.269C113.583 62.124 113.069 61.9526 112.727 61.9526C112.384 66.151 111.527 68.7214 110.156 69.6639V70.178L112.727 68.6357H113.241C114.012 68.8071 114.869 70.3493 115.811 73.2625C118.81 75.4045 120.352 77.2894 120.438 78.9174C123.18 83.3727 128.149 99.138 135.346 126.213C142.201 147.804 145.628 160.999 145.628 165.797V166.826C145.628 174.108 142.201 179.078 135.346 181.734C132.776 182.419 130.377 182.762 128.149 182.762H114.269C102.531 182.762 95.162 174.194 92.1632 157.058C89.8498 146.091 86.9367 140.607 83.4238 140.607H62.3464C57.7197 140.607 54.8065 144.549 53.607 152.431C51.208 164.084 48.6376 171.624 45.8958 175.051C41.6974 180.192 36.2139 182.762 29.4451 182.762H16.593C5.96866 181.391 0.656487 176.764 0.656487 168.882V163.741C4.08371 149.946 6.65412 141.036 8.36773 137.009C7.68229 135.895 7.33956 134.867 7.33956 133.924C8.02501 133.924 8.36773 133.581 8.36773 132.896H7.85363L5.28323 133.41L4.25506 131.868V131.354L5.79729 129.297V127.755C4.08369 127.755 3.22689 126.556 3.22689 124.157C3.74097 124.157 4.25504 123.643 4.76913 122.614V121.586C4.08368 120.729 3.74096 120.215 3.74096 120.044L4.25506 119.016L6.82546 119.53C8.11067 117.131 8.96749 115.931 9.3959 115.931C10.167 115.931 10.8524 115.589 11.4522 114.903C12.1376 115.246 12.6517 115.417 12.9945 115.417C12.9945 115.075 13.1658 114.903 13.5085 114.903C13.5085 113.961 12.6517 112.59 10.9381 110.79C12.8231 107.877 14.3653 104.45 15.5649 100.509H17.1071V97.9384C15.0508 97.9384 14.0226 97.5957 14.0226 96.9103C14.0226 96.1391 15.3935 95.4537 18.1353 94.8539V94.3398L16.593 92.2835V90.2272C16.6787 89.5417 17.0214 89.199 17.6212 89.199C18.3067 89.199 18.6494 89.8845 18.6494 91.2554H19.6775V90.7413L19.1634 87.6568L19.6775 86.6286L19.1634 85.6004C20.5343 82.8587 21.3912 81.4878 21.7339 81.4878C22.0766 82.0875 22.2479 82.773 22.2479 83.5441H22.762L23.2761 78.4033L22.2479 78.9174H21.7339V78.4033C23.1048 73.2624 24.647 70.692 26.3606 70.692V69.1498H25.8465L24.8184 69.6639L24.3043 68.6357V68.1216L24.8184 67.0935L25.8465 67.6075H26.3606L27.9029 66.5794C27.9029 66.3223 27.7315 65.2942 27.3888 63.4949C27.3888 59.0395 28.417 55.4409 30.4733 52.6991V52.1851C30.4733 51.4996 30.1306 51.1569 29.4451 51.1569C29.4451 47.5583 30.4733 44.9879 32.5296 43.4456L32.0155 42.4175C32.0155 41.0466 34.2432 32.4785 38.6986 16.7133C39.6411 12.3436 42.5542 8.23098 47.438 4.37536C51.1223 3.00447 54.5495 2.31903 57.7197 2.31903H68.0013C72.4567 2.31903 76.5694 3.51855 80.3393 5.91761C83.0811 5.31784 84.452 4.11832 84.452 2.31903V0.262695ZM87.5365 6.43169V7.97394H88.0506V6.43169H87.5365ZM88.5646 15.1711V16.7133H89.5928C89.2501 16.0279 89.0787 15.5138 89.0787 15.1711H88.5646ZM89.5928 17.7415C89.6785 18.427 90.0212 18.7697 90.621 18.7697V17.7415H89.5928ZM90.1069 20.826V21.3401C90.1926 22.0255 90.5353 22.3683 91.135 22.3683H92.1632V21.8542C92.1632 21.1687 91.8205 20.826 91.135 20.826H90.1069ZM94.2195 23.9105L93.7055 24.9387L94.7336 25.4528L95.2477 24.4246L94.2195 23.9105ZM92.6773 31.6217V32.6499C93.7055 33.7638 94.2195 34.6206 94.2195 35.2203H96.2759C96.9613 35.2203 97.304 34.8776 97.304 34.1922C96.6186 34.1922 95.7618 33.3354 94.7336 31.6217H92.6773ZM99.3604 36.7626V37.7907H100.389C100.389 37.1053 100.046 36.7626 99.3604 36.7626ZM95.2477 39.333V40.3612C95.9331 40.3612 96.2759 40.0184 96.2759 39.333H95.2477ZM99.8744 41.9034V42.9316H100.389C101.16 42.8459 102.188 41.8177 103.473 39.8471V39.333H102.445C102.016 39.333 101.16 40.1898 99.8744 41.9034ZM104.501 44.4738C104.501 45.0736 104.158 45.9304 103.473 47.0442L104.501 47.5583C105.187 47.5583 105.529 47.2156 105.529 46.5301C105.187 45.9304 105.015 45.2449 105.015 44.4738H104.501ZM99.3604 48.5865V49.6146C100.046 49.6146 100.389 49.2719 100.389 48.5865H99.3604ZM105.015 48.5865V49.1006C105.958 51.8423 106.643 53.2132 107.072 53.2132H107.586V52.6991C106.643 49.9574 105.958 48.5865 105.529 48.5865H105.015ZM100.903 55.7836V56.8118H101.931V55.7836H100.903ZM104.501 59.3822V60.9245H106.043V60.4104C106.043 59.7249 105.701 59.3822 105.015 59.3822H104.501ZM108.1 62.9808V64.009H109.128V62.9808H108.1ZM26.3606 63.4949L26.8747 64.523H26.3606L26.8747 65.5512C26.8747 66.2366 26.532 66.5794 25.8465 66.5794L25.3325 65.5512V64.523C25.4181 63.8376 25.7609 63.4949 26.3606 63.4949ZM68.5154 72.7484C68.2584 74.1193 67.9156 74.8047 67.4872 74.8047L64.9168 74.2906C63.803 75.4045 62.2607 78.3176 60.2901 83.03C59.6903 83.03 58.4908 84.7436 56.6915 88.1709C57.2056 88.1709 57.7197 88.6849 58.2338 89.7131V90.2272H56.6915V92.7976H57.2056L58.2338 92.2835C58.9192 93.3974 59.2619 94.4255 59.2619 95.368C57.891 96.9103 57.2056 97.7671 57.2056 97.9384L58.7478 99.9948L58.2338 101.023C58.2338 101.794 59.9473 102.994 63.3746 104.622L64.4027 104.107L65.945 105.136H70.0576C71.2572 105.136 72.6281 105.821 74.1703 107.192H77.2548V109.248H77.7689C79.2254 108.563 80.425 106.849 81.3675 104.107V102.051L79.3111 99.4807C81.3675 98.1098 82.3957 97.253 82.3957 96.9103V96.3962C81.0248 96.3962 79.9966 95.5394 79.3111 93.8258L78.283 94.3398H77.7689C78.1116 93.7401 78.283 93.0546 78.283 92.2835L80.8534 93.3117L81.3675 92.2835V88.6849C80.9391 88.6849 79.0541 87.314 75.7126 84.5723C76.398 84.5723 76.7407 84.2296 76.7407 83.5441V83.03C75.0271 83.03 74.1703 82.6873 74.1703 82.0019C75.6269 79.9455 76.6551 78.9174 77.2548 78.9174L76.7407 75.8329H75.1985V76.347C75.5412 77.0324 75.7126 77.5465 75.7126 77.8892L74.6844 78.4033C74.1703 78.4033 73.6562 77.8892 73.1421 76.861L73.6562 75.8329C73.6562 74.6333 71.9426 73.6052 68.5154 72.7484ZM59.776 78.4033V78.9174H60.8042V77.3751C60.1187 77.4608 59.776 77.8035 59.776 78.4033ZM77.2548 82.0019V82.5159H78.283V82.0019H77.2548ZM82.9097 94.3398V95.368H83.4238V94.3398H82.9097ZM16.593 103.593V104.107H17.6212V102.565C16.9358 102.651 16.593 102.994 16.593 103.593ZM10.9381 116.959C11.0238 117.645 11.3665 117.988 11.9663 117.988V116.959H10.9381ZM8.8818 121.072V121.586H9.90997V121.072H8.8818ZM10.9381 122.614L11.9663 123.128V121.586C11.2809 121.672 10.9381 122.015 10.9381 122.614ZM1.68465 123.128C2.3701 123.214 2.71282 123.557 2.71282 124.157L1.68465 124.671C0.999211 124.671 0.656487 124.328 0.656487 123.643L1.68465 123.128Z" fill="white"/>
</svg>
