<svg width="138" height="246" viewBox="0 0 138 246" fill="none" xmlns="http://www.w3.org/2000/svg">
<path d="M132.872 124.322C134.1 124.673 135.153 124.937 136.031 125.112C136.557 125.287 136.996 125.375 137.347 125.375C136.82 125.551 136.206 125.638 135.504 125.638C134.978 125.638 134.364 125.726 133.662 125.902C132.96 125.902 132.17 125.902 131.293 125.902C130.942 125.902 130.503 125.989 129.977 126.165C129.626 126.165 129.275 126.165 128.924 126.165C128.397 126.165 127.871 126.253 127.345 126.428C126.994 126.428 126.555 126.428 126.029 126.428C125.151 126.779 124.274 127.042 123.396 127.218C122.695 127.218 121.905 127.305 121.028 127.481C122.431 128.007 123.747 128.622 124.976 129.323C126.379 129.85 127.345 130.025 127.871 129.85C128.397 129.674 128.485 129.85 128.134 130.376C127.783 130.727 127.169 131.166 126.292 131.692C125.59 132.043 124.712 132.394 123.66 132.745C122.607 133.096 121.642 133.184 120.764 133.008C119.536 132.833 118.044 132.657 116.29 132.482C114.535 132.306 113.043 132.394 111.815 132.745C112.693 133.096 113.482 133.535 114.184 134.061C115.061 134.588 115.763 134.851 116.29 134.851C117.167 134.675 116.728 135.114 114.974 136.167C113.394 137.044 111.201 137.483 108.393 137.483H105.235C104.708 137.483 104.182 137.571 103.656 137.746C103.129 137.746 102.427 137.746 101.55 137.746C101.199 137.746 100.322 137.922 98.9178 138.273V143.274V150.38C98.9178 150.907 98.9178 151.872 98.9178 153.276C98.9178 154.504 98.8301 157.311 98.6546 161.698C98.6546 163.979 98.5669 165.91 98.3914 167.489C98.3914 169.068 98.3037 170.56 98.1282 171.963C97.9528 173.367 97.865 174.508 97.865 175.385C97.865 176.263 97.7773 177.052 97.6018 177.754C97.4263 178.456 97.2509 178.982 97.0754 179.333C97.0754 179.509 97.0754 179.684 97.0754 179.86C96.8999 180.035 96.8122 180.211 96.8122 180.386C96.6367 179.158 96.4612 177.93 96.2857 176.701C96.1103 175.648 95.8471 174.596 95.4961 173.543C95.3206 172.314 94.9697 171.262 94.4433 170.384C94.4433 171.262 94.3555 172.227 94.1801 173.28C94.1801 174.332 94.0923 175.385 93.9169 176.438C93.9169 178.368 93.6536 180.386 93.1272 182.492C92.7763 184.773 92.4253 186.879 92.0744 188.809C91.8989 190.739 91.7234 192.406 91.548 193.81C91.548 195.038 91.4602 196.179 91.2848 197.232C91.1093 198.285 90.8461 199.425 90.4951 200.653C90.1442 201.706 89.8809 202.847 89.7055 204.075C89.53 205.128 89.2668 206.181 88.9159 207.234C88.3894 208.988 87.863 210.392 87.3366 211.445C86.9857 212.322 86.8979 212.322 87.0734 211.445C87.2489 210.919 87.2489 210.129 87.0734 209.076C87.0734 207.848 86.9857 206.532 86.8102 205.128C86.4592 206.181 86.1083 207.234 85.7573 208.287C85.5819 209.339 85.3187 210.48 84.9677 211.708C84.6168 212.761 84.1781 213.902 83.6516 215.13C83.3007 216.358 82.9498 217.674 82.5988 219.078C81.8969 220.306 81.2828 221.447 80.7563 222.5C80.2299 223.553 79.6157 224.606 78.9138 225.658C78.212 226.711 77.5101 227.764 76.8082 228.817C76.1063 229.87 75.3167 230.835 74.4393 231.712C74.7902 230.835 75.1412 229.87 75.4921 228.817C75.8431 227.94 76.194 226.887 76.545 225.658C76.8959 224.43 77.2469 223.114 77.5978 221.71C77.9488 220.306 78.212 218.815 78.3875 217.236C78.7384 215.656 79.0016 214.165 79.1771 212.761C79.528 211.006 79.7035 209.603 79.7035 208.55V205.391C79.528 206.97 79.2648 208.199 78.9138 209.076C78.7384 209.603 78.6507 210.041 78.6507 210.392C78.4752 210.392 78.3875 210.304 78.3875 210.129C78.3875 209.954 78.2997 209.866 78.1242 209.866C78.1242 209.69 78.1242 209.427 78.1242 209.076C78.1242 209.603 78.0365 209.954 77.861 210.129C77.3346 212.235 76.8082 213.726 76.2818 214.604C75.5799 215.656 75.1412 216.183 74.9657 216.183C74.7902 216.183 74.878 215.13 75.2289 213.024C75.5799 211.796 75.8431 210.655 76.0186 209.603C76.194 208.55 76.3695 207.497 76.545 206.444V203.286C76.3695 202.408 76.1063 201.531 75.7553 200.653C75.5799 199.776 75.3166 198.811 74.9657 197.758C74.9657 197.232 74.878 196.793 74.7025 196.442C73.4742 194.863 72.0704 192.582 70.4911 189.599C68.9119 186.616 68.2977 183.983 68.6487 181.702C68.2977 182.053 68.1222 182.58 68.1222 183.282C68.1222 183.808 68.1222 184.422 68.1222 185.124C68.1222 185.826 68.0345 186.352 67.859 186.703C67.859 187.054 67.6836 186.966 67.3326 186.44C66.4552 185.387 65.7533 183.983 65.2269 182.229C64.876 180.298 65.2269 177.666 66.2798 174.332C67.1571 171.876 67.2449 169.77 66.543 168.015C66.0165 166.261 65.5779 164.155 65.2269 161.698C65.2269 161.523 64.876 160.382 64.1741 158.277C63.6476 156.171 63.209 153.89 62.858 151.433C62.6826 151.609 62.4193 151.696 62.0684 151.696C61.7174 151.696 61.3665 151.784 61.0156 151.959C57.6816 152.661 55.6636 153.012 54.9617 153.012C54.4353 153.012 53.8211 153.012 53.1192 153.012C52.4173 152.837 51.189 152.749 49.4343 152.749C47.6796 152.749 46.4513 152.837 45.7494 153.012C45.3984 154.065 45.2229 154.943 45.2229 155.644H45.4861C46.8899 155.644 46.7144 155.995 44.9597 156.697V157.224C44.6088 158.978 44.2578 160.645 43.9069 162.225C43.5559 163.804 43.205 165.032 42.854 165.91C42.1521 167.489 41.7135 168.103 41.538 167.752C41.538 167.226 41.538 166.261 41.538 164.857C40.4851 168.191 39.7833 170.56 39.4323 171.963C39.0814 173.192 38.8181 174.245 38.6427 175.122C38.2917 176.175 38.0285 177.052 37.853 177.754C37.6776 178.456 37.5021 179.158 37.3266 179.86C37.1512 180.562 36.8879 181.615 36.537 183.018C35.6596 185.475 34.9577 187.405 34.4313 188.809C34.0804 190.213 33.6417 191.529 33.1153 192.757C32.7643 193.81 32.2379 195.038 31.536 196.442C31.0096 197.67 30.3077 199.425 29.4303 201.706C29.2548 202.057 29.0793 202.496 28.9039 203.022C28.7284 203.373 28.5529 203.724 28.3775 204.075C28.202 204.602 28.0265 205.04 27.851 205.391C27.851 205.567 27.851 205.83 27.851 206.181L27.5878 206.707V206.444C26.535 209.427 25.8331 211.357 25.4821 212.235C25.1312 213.112 25.0435 212.937 25.2189 211.708C25.3944 211.006 25.4821 210.129 25.4821 209.076C25.4821 207.848 25.4821 206.532 25.4821 205.128C25.6576 203.9 25.7454 202.671 25.7454 201.443C25.7454 200.215 25.8331 199.162 26.0086 198.285C25.6576 199.162 25.3944 200.127 25.2189 201.18C25.0435 202.057 24.7803 202.935 24.4293 203.812C23.7274 206.269 23.0255 208.55 22.3236 210.655C21.9727 211.884 21.534 213.112 21.0076 214.34C20.6566 215.393 20.3057 216.446 19.9547 217.499C19.6038 218.903 19.2528 220.131 18.9019 221.184C18.5509 222.237 18.2 223.202 17.8491 224.079C16.7962 226.536 15.8311 229.168 14.9537 231.975C14.4273 233.379 13.9009 234.608 13.3745 235.66C13.0235 236.713 12.6726 237.766 12.3216 238.819C11.7952 239.872 11.3565 240.837 11.0056 241.714C10.8301 242.592 10.5669 243.381 10.2159 244.083C9.86499 244.785 9.6018 245.399 9.42633 245.926C9.6018 245.048 9.77725 244.083 9.95273 243.03C10.3037 240.925 10.5669 238.643 10.7424 236.187C11.0933 234.432 11.2688 233.028 11.2688 231.975C11.4443 231.098 11.532 230.221 11.532 229.343C11.7075 228.641 11.7952 227.852 11.7952 226.974C12.4971 224.342 12.8481 221.622 12.8481 218.815C11.7952 220.57 10.7424 222.5 9.68951 224.606C8.81214 226.711 8.37347 228.29 8.37347 229.343C8.37347 230.221 8.28573 230.221 8.11026 229.343C7.75931 228.466 7.49609 227.238 7.32062 225.658C7.14514 224.255 7.05743 222.588 7.05743 220.657C7.05743 218.903 7.32062 217.323 7.84704 215.92C8.37346 214.165 9.07536 211.884 9.95273 209.076C10.8301 206.093 11.3565 203.636 11.532 201.706C10.8301 202.584 10.0405 203.636 9.16311 204.865C8.46122 206.093 8.02252 207.234 7.84704 208.287C7.67157 208.988 7.49609 209.076 7.32062 208.55C7.14514 207.848 7.05743 206.795 7.05743 205.391C6.88196 203.987 6.88196 202.32 7.05743 200.39C7.23291 198.285 7.67158 196.091 8.37347 193.81C8.54895 192.933 8.72443 192.055 8.8999 191.178C9.07537 190.3 9.33856 189.423 9.68951 188.546C9.86499 187.668 10.0405 186.791 10.2159 185.914C10.3914 184.861 10.6546 183.808 11.0056 182.755C11.1811 181.351 11.4442 179.86 11.7952 178.281C12.1461 176.701 12.4971 175.21 12.8481 173.806C13.0235 172.929 13.1113 172.227 13.1113 171.7C13.2867 170.998 13.3745 170.384 13.3745 169.858C13.3745 169.507 13.4622 169.244 13.6377 169.068C13.8132 167.489 13.8132 166.173 13.6377 165.12C13.6377 163.892 13.55 162.751 13.3745 161.698H12.5848C10.1282 162.049 8.28575 162.137 7.05743 161.961C5.82912 161.786 5.65364 161.26 6.531 160.382C7.2329 159.505 7.49609 158.803 7.32062 158.277C6.96967 157.575 6.531 156.96 6.00458 156.434C5.30268 155.732 4.68853 155.03 4.16211 154.328C3.63569 153.626 3.46021 152.749 3.63568 151.696C3.81115 150.643 3.63567 149.064 3.10925 146.958C2.40736 144.677 1.88094 142.396 1.53 140.115C1.00358 137.658 0.828095 135.465 1.00357 133.535C1.00357 131.429 1.7932 129.938 3.37246 129.06C3.89889 128.709 4.68852 127.92 5.74136 126.691C6.61873 125.463 7.84707 124.147 9.42633 122.743C11.1811 121.339 13.199 120.111 15.4802 119.058C15.8311 118.883 16.0943 118.795 16.2698 118.795C16.6207 118.795 16.9717 118.707 17.3226 118.532C17.6736 117.479 18.0245 116.338 18.3755 115.11C18.9019 113.882 19.4283 112.215 19.9547 110.109C20.6566 106.6 21.183 104.231 21.534 103.002C21.8849 101.599 22.3236 100.458 22.85 99.5806C23.3765 98.7032 23.9029 97.7381 24.4293 96.6853C24.9557 95.6325 25.7453 93.79 26.7982 91.1579C28.202 87.6484 29.1671 84.5776 29.6935 81.9455C30.0445 80.5417 30.3077 79.3134 30.4832 78.2606C30.8341 77.0323 31.0973 75.9794 31.2728 75.102C30.3954 75.9794 29.5181 77.12 28.6407 78.5238C27.7633 79.9276 27.1491 81.3314 26.7982 82.7352C26.2718 84.3144 26.0086 84.1389 26.0086 82.2087C26.184 80.2785 26.6227 77.5587 27.3246 74.0492C28.202 70.5397 29.2548 66.7671 30.4832 62.7312C31.7115 58.5198 33.203 54.7471 34.9577 51.4131C35.3087 50.5357 35.7473 49.6584 36.2738 48.781C36.8002 47.7282 37.2389 46.6753 37.5898 45.6225C37.9408 44.7451 38.2917 43.8677 38.6427 42.9904C39.1691 41.9375 39.6955 40.797 40.2219 39.5686C41.0993 37.6384 41.9767 35.7082 42.854 33.778C43.9069 31.8478 44.872 30.0053 45.7494 28.2506C47.1531 24.9166 48.3815 22.3722 49.4343 20.6175C50.4871 18.8628 51.1013 18.8628 51.2768 20.6175C51.4522 22.3722 51.8032 23.3373 52.3296 23.5128C53.0315 23.6883 53.8211 23.6883 54.6985 23.5128C55.7514 23.1619 56.7164 22.8987 57.5938 22.7232C58.4712 22.5477 59.2608 22.9864 59.9627 24.0392C60.3137 24.5656 60.9278 25.0921 61.8052 25.6185C62.858 26.1449 63.9109 26.6713 64.9637 27.1978C65.3147 26.4959 65.5779 26.0572 65.7533 25.8817C65.9288 25.3553 66.2798 24.8289 66.8062 24.3024C67.3326 23.776 67.859 23.2496 68.3854 22.7232C68.3854 22.3722 68.3854 21.9335 68.3854 21.4071C68.3854 20.7052 68.4732 20.0033 68.6487 19.3015C68.9996 16.8448 69.6137 15.1778 70.4911 14.3004C71.3685 13.2476 72.4213 12.5457 73.6497 12.1948C74.7025 11.8438 75.5799 11.6683 76.2818 11.6683C76.8082 11.6683 77.2469 11.7561 77.5978 11.9315C76.0185 11.4051 75.5799 10.791 76.2818 10.0891C76.2818 9.38718 76.7204 8.77302 77.5978 8.2466C78.1242 7.89566 79.0893 7.54471 80.4931 7.19377C81.546 7.01829 82.5111 7.19376 83.3884 7.72019C84.4413 8.42208 85.3186 8.77303 86.0205 8.77303V8.50982C86.0205 8.33434 85.9328 8.2466 85.7573 8.2466C85.7573 8.2466 85.7573 8.07113 85.7573 7.72019C85.7573 7.36924 85.6696 6.93056 85.4941 6.40413C85.3186 5.70224 85.1432 5.17582 84.9677 4.82488C84.2658 3.59656 83.5639 2.80692 82.862 2.45598C81.9847 1.92956 81.1073 1.84182 80.2299 2.19276C79.528 2.36824 79.1771 2.45598 79.1771 2.45598C79.3525 2.2805 79.7912 2.10502 80.4931 1.92955C81.195 1.57861 82.0724 1.40314 83.1252 1.40314C84.1781 1.22767 85.2309 1.13993 86.2838 1.13993C86.4592 1.13993 86.6347 1.05219 86.8102 0.876709C86.9857 0.876709 87.2489 1.05219 87.5998 1.40314C89.3546 1.75408 90.7583 2.2805 91.8112 2.9824C92.6885 3.50882 93.4782 3.9475 94.1801 4.29845C94.882 4.6494 95.4961 5.00035 96.0225 5.35129C96.3735 5.52676 96.6367 5.70223 96.8122 5.8777C97.1631 5.8777 97.5141 5.96545 97.865 6.14093C98.216 6.14093 98.4792 6.22866 98.6546 6.40413C98.8301 6.57961 99.0933 6.75508 99.4443 6.93055C100.673 7.2815 101.462 7.63245 101.813 7.98339C102.34 8.15886 102.778 8.42208 103.129 8.77303C103.305 8.9485 103.392 9.12397 103.392 9.29944C103.392 9.29944 103.48 9.38718 103.656 9.56267C104.182 10.2646 104.445 11.2297 104.445 12.458C104.445 13.5108 104.358 14.8269 104.182 16.4061C104.182 17.2835 104.094 18.1609 103.919 19.0382C103.919 19.9156 103.919 20.793 103.919 21.6703C103.919 22.0213 103.831 22.3722 103.656 22.7232C104.007 23.6005 104.358 24.7411 104.708 26.1449C105.235 27.5487 105.674 29.2157 106.025 31.1459C106.726 34.8309 107.253 38.9545 107.604 43.5168C107.604 48.4301 107.341 52.2905 106.814 55.0981C107.165 54.5716 107.428 53.6065 107.604 52.2028C107.955 50.799 108.218 49.3952 108.393 47.9914C108.569 46.5876 108.657 45.5347 108.657 44.8329C108.832 44.131 109.095 44.3064 109.446 45.3593C109.797 46.5876 109.973 47.9914 109.973 49.5706C110.148 50.9744 110.148 52.7292 109.973 54.8349C109.622 59.0462 108.481 64.3104 106.551 70.6275C105.674 73.0841 105.147 75.2775 104.972 77.2077C104.796 78.9625 104.621 80.8049 104.445 82.7352C104.27 83.788 104.182 84.8408 104.182 85.8937C104.182 86.771 104.182 87.7362 104.182 88.789V91.9475V95.3692C104.007 95.8957 103.919 97.4749 103.919 100.107C103.919 102.564 103.919 105.547 103.919 109.056V114.847C104.445 115.022 105.586 115.286 107.341 115.636C107.692 115.636 107.955 115.724 108.13 115.9C108.306 115.9 108.569 115.9 108.92 115.9C109.271 115.9 109.534 115.987 109.709 116.163C109.885 116.163 110.06 116.163 110.236 116.163H110.762H110.499C112.605 116.514 113.921 116.777 114.447 116.952C115.149 117.128 115.149 117.216 114.447 117.216C114.096 117.391 113.482 117.654 112.605 118.005C111.903 118.181 111.113 118.444 110.236 118.795C109.534 119.146 108.832 119.409 108.13 119.585C107.428 119.76 106.902 119.936 106.551 120.111H109.973C110.675 120.111 111.376 120.111 112.078 120.111C112.956 120.111 113.745 120.199 114.447 120.374C115.676 120.374 117.167 120.55 118.922 120.901C119.624 121.076 120.326 121.252 121.028 121.427C121.729 121.427 122.431 121.515 123.133 121.69C124.537 121.866 126.204 122.304 128.134 123.006C129.012 123.357 129.801 123.62 130.503 123.796C131.205 123.796 131.995 123.971 132.872 124.322ZM59.1731 117.216C61.1033 116.514 62.858 116.075 64.4373 115.9C64.7882 115.724 65.0515 115.636 65.2269 115.636C65.4024 115.636 65.6656 115.549 66.0165 115.373C66.192 115.022 66.2798 114.584 66.2798 114.057C66.4552 113.531 66.7185 112.829 67.0694 111.952C67.5958 109.144 67.9467 107.126 68.1222 105.898C68.4732 104.669 68.7364 103.792 68.9119 103.266C69.0873 102.739 69.1751 102.388 69.1751 102.213C69.3506 101.862 69.4383 101.248 69.4383 100.37C69.4383 98.6155 68.8241 98.0014 67.5958 98.5278C66.3675 99.0542 65.5779 99.4929 65.2269 99.8438C64.876 101.248 64.525 102.564 64.1741 103.792C63.8231 104.845 63.4722 105.985 63.1212 107.214C62.9458 108.091 62.6825 108.793 62.3316 109.319C62.1561 109.846 61.8929 110.46 61.542 111.162C61.191 111.688 60.8401 112.215 60.4891 112.741C60.1382 113.268 59.7872 113.794 59.4363 114.32C59.4363 113.969 59.3485 113.531 59.1731 113.004C58.8221 111.951 58.4712 110.986 58.1202 110.109C57.7693 108.881 57.3306 107.74 56.8042 106.687C56.4532 105.459 55.8391 104.669 54.9617 104.318C54.0843 103.967 53.5579 104.669 53.3824 106.424C53.3824 108.179 53.207 110.811 52.856 114.32C52.6806 115.198 52.5928 116.075 52.5928 116.952C52.5928 117.83 52.5051 118.97 52.3296 120.374C52.6806 120.023 53.0315 119.848 53.3824 119.848C53.9089 119.672 54.3476 119.409 54.6985 119.058C55.0495 118.883 55.4004 118.795 55.7513 118.795C56.1023 118.62 56.4532 118.444 56.8042 118.269C57.1551 117.918 57.9447 117.567 59.1731 117.216Z" fill="white"/>
</svg>
