<svg width="141" height="144" viewBox="0 0 141 144" fill="none" xmlns="http://www.w3.org/2000/svg">
<path d="M86.1504 126.221C72.4002 137.847 57.6439 143.66 41.8815 143.66C29.2493 143.66 19.1323 140.418 11.5305 133.934C4.04062 127.339 0.295654 118.731 0.295654 108.111C0.295654 93.0192 7.67377 81.1694 22.4301 72.5616C37.1863 63.9538 58.4264 59.0909 86.1504 57.973V53.2778V50.9302C86.1504 42.2106 85.7591 35.1119 84.9766 29.6342C84.194 24.0447 83.0761 19.8526 81.6229 17.0578C79.946 13.8159 77.5425 11.2448 74.4124 9.34434C71.3941 7.33212 68.0963 6.32601 64.519 6.32601C59.2649 6.32601 55.1286 8.05876 52.1103 11.5242C49.092 14.8779 47.1916 20.1321 46.409 27.2866C45.5147 34.3294 44.0614 39.1364 42.0492 41.7076C40.037 44.1669 36.5715 45.3966 31.6527 45.3966C27.8519 45.3966 24.6659 44.0551 22.0947 41.3722C19.5235 38.6892 18.2379 35.2237 18.2379 30.9757C18.2379 25.2744 20.3061 20.1321 24.4423 15.5487C28.5785 10.8535 34.2798 7.16444 41.5461 4.48148C48.9243 1.79852 56.9732 0.457031 65.6928 0.457031C76.9836 0.457031 86.877 2.74873 95.373 7.33212C103.869 11.8037 110.185 18.064 114.321 26.1128C116.557 30.2491 118.122 34.8884 119.017 40.0307C120.023 45.173 120.526 52.2717 120.526 61.3267V109.62C120.526 118.899 121.867 125.494 124.55 129.407C127.345 133.319 132.543 135.947 140.145 137.288V141.815H86.1504V126.221ZM86.1504 118.843V63.3389C75.3067 65.0158 65.9723 67.8105 58.147 71.7232C50.4335 75.6358 44.5086 80.6105 40.3723 86.6471C36.2361 92.6838 34.168 99.3353 34.168 106.602C34.168 113.98 36.3479 120.128 40.7077 125.047C45.1793 129.854 50.7688 132.257 57.4762 132.257C65.7487 132.257 75.3067 127.786 86.1504 118.843ZM91.8517 134.437H116.669L112.812 131.419C112.812 131.419 112.7 131.363 112.477 131.251C112.365 131.028 112.253 130.916 112.142 130.916L109.962 129.239C108.285 127.562 107.446 125.438 107.446 122.867V119.513L107.279 117.837V60.8236C107.279 45.2848 105.49 33.6587 101.913 25.9452C96.8822 15.6605 89.001 9.06487 78.2692 6.15833C85.4237 11.1889 89.6159 19.1819 90.8456 30.1373C91.5163 36.8447 91.8517 47.2412 91.8517 61.3267V134.437ZM49.2597 138.965C30.2554 135.052 20.7532 124.656 20.7532 107.775C20.7532 96.82 25.1689 87.4297 34.0003 79.6044C37.913 76.1389 45.4588 71.7232 56.6378 66.3572C43.1112 68.9284 32.6029 72.4498 25.113 76.9214C12.3689 84.7467 5.99692 95.0873 5.99692 107.943C5.99692 117.222 9.35064 124.768 16.058 130.581C22.8772 136.282 31.6527 139.133 42.3846 139.133C44.9558 139.133 47.2475 139.077 49.2597 138.965ZM49.2597 6.49369C41.4344 8.50591 35.1182 11.8037 30.3112 16.3871C25.6161 20.8587 23.2685 25.8893 23.2685 31.4788C23.2685 33.6028 23.7715 35.2796 24.7776 36.5093C25.7838 37.739 27.1252 38.3539 28.8021 38.3539C30.3672 38.3539 31.541 37.9067 32.3235 37.0124C33.106 36.0062 33.7767 34.0499 34.3357 31.1434C35.5654 24.8831 37.1305 20.188 39.0309 17.0578C41.0431 13.8159 44.4527 10.2946 49.2597 6.49369Z" fill="white"/>
</svg>
