<svg width="191" height="204" viewBox="0 0 191 204" fill="none" xmlns="http://www.w3.org/2000/svg">
<path d="M190.274 53.45L165.792 63.1757C161.88 50.8788 155.34 41.4325 146.173 34.8369C137.007 28.2413 125.995 24.9435 113.139 24.9435C106.208 24.9435 100.004 26.0614 94.5263 28.2972C89.1604 30.4212 84.4093 33.3837 80.2731 37.1845C76.2487 40.9854 72.7832 45.4011 69.8766 50.4316C67.0819 55.4622 64.7902 60.8281 63.0015 66.5294C61.2129 72.2307 59.9273 78.1556 59.1448 84.304C58.3623 90.3407 57.971 96.2097 57.971 101.911C57.971 108.059 58.3064 114.264 58.9771 120.524C59.6478 126.784 60.7657 132.821 62.3308 138.634C64.0077 144.335 66.1876 149.701 68.8705 154.732C71.5535 159.65 74.9072 163.954 78.9316 167.643C83.0678 171.333 87.9307 174.239 93.5202 176.363C99.2215 178.487 105.761 179.549 113.139 179.549C119.064 179.549 124.71 178.655 130.076 176.866C135.441 175.078 140.36 172.562 144.832 169.32C149.303 166.078 153.272 162.222 156.737 157.75C160.203 153.278 162.942 148.304 164.954 142.826L189.604 151.881C185.915 160.712 180.996 168.37 174.847 174.854C168.811 181.226 161.936 186.536 154.222 190.784C146.509 194.92 138.236 197.994 129.405 200.007C120.573 202.019 111.63 203.025 102.575 203.025C87.9307 203.025 74.3482 200.566 61.8278 195.647C49.3073 190.616 38.4636 183.629 29.2969 174.686C20.2419 165.631 13.1432 154.955 8.00086 142.658C2.85852 130.25 0.287354 116.667 0.287354 101.911C0.287354 87.0429 2.80263 73.4045 7.83318 60.9958C12.9755 48.5871 20.0742 37.9112 29.1292 28.968C38.1842 20.0248 48.9719 13.0938 61.4924 8.17502C74.0129 3.25626 87.7071 0.796875 102.575 0.796875C111.966 0.796875 121.132 1.85888 130.076 3.98289C139.019 5.99511 147.291 9.18113 154.893 13.5409C162.606 17.789 169.482 23.2108 175.518 29.8064C181.667 36.402 186.585 44.2832 190.274 53.45Z" fill="white"/>
</svg>
