<svg width="139" height="165" viewBox="0 0 139 165" fill="none" xmlns="http://www.w3.org/2000/svg">
<path d="M75.0975 164.654C51.5161 164.654 33.0859 157.213 19.8071 142.331C6.75714 127.221 0.232178 107.303 0.232178 82.5765C0.919016 66.7792 4.8111 52.8135 11.9084 40.6794C19.2347 28.5452 28.8504 19.044 40.7556 12.1756C52.8897 5.07827 66.2831 1.30067 80.9356 0.842773C88.9487 0.842773 97.0763 1.87303 105.318 3.93355C113.789 5.76512 120.772 9.31377 126.267 14.5795C131.991 19.6163 134.852 26.9426 134.852 36.5583C134.852 43.1978 132.792 49.3793 128.671 55.103C124.55 60.5977 118.826 63.345 111.5 63.345C106.463 63.345 102.571 62.0858 99.8237 59.5674C97.0763 57.049 95.7026 55.2174 95.7026 54.0727C95.7026 53.6148 96.6184 52.699 98.45 51.3253C100.51 49.7227 102.457 47.6622 104.288 45.1438C106.12 42.3965 107.035 39.0767 107.035 35.1847C107.035 27.8584 104.403 22.4782 99.1368 19.044C93.8711 15.6098 87.9185 13.7782 81.279 13.5493C71.2054 13.5493 63.0778 15.6098 56.8963 19.7308C50.9437 23.8518 46.3648 29.3465 43.1595 36.2149C39.9543 42.8544 37.7793 50.1806 36.6346 58.1937C35.7188 66.2068 35.2609 73.991 35.2609 81.5462C35.2609 94.1382 37.2069 105.471 41.099 115.545C44.9911 125.389 50.4858 133.174 57.5831 138.897C64.6805 144.621 73.1515 147.483 82.9961 147.483C93.0697 147.483 101.541 145.308 108.409 140.958C115.278 136.608 121.574 130.197 127.297 121.726C128.9 119.437 131.304 119.208 134.509 121.039C136.112 121.955 137.256 123.214 137.943 124.817C138.63 126.42 138.401 128.022 137.256 129.625C129.701 140.385 120.314 148.971 109.096 155.381C97.8776 161.563 86.5448 164.654 75.0975 164.654Z" fill="white"/>
</svg>
