<svg width="101" height="173" viewBox="0 0 101 173" fill="none" xmlns="http://www.w3.org/2000/svg">
<path d="M44.0993 4.5403C31.7362 15.3008 22.1205 28.923 15.2521 45.4072C8.61269 61.6623 5.29297 78.2609 5.29297 95.2029C5.29297 111.916 9.18505 126.912 16.9692 140.191C24.7534 153.241 35.7428 162.399 49.9374 167.664C58.4084 164.23 66.9939 159.308 75.6938 152.897C84.3938 146.258 91.4911 139.275 96.9858 131.949L100.077 134.009C94.3529 141.564 86.6832 149.005 77.0675 156.331C67.6807 163.429 58.4084 168.809 49.2506 172.472C34.1402 166.977 22.235 157.133 13.535 142.938C4.83508 128.743 0.485107 112.946 0.485107 95.5463C0.485107 78.1464 4.26271 60.861 11.8179 43.6901C19.3731 26.2902 29.6757 11.981 42.7256 0.762695C62.8729 0.762695 81.4175 5.57057 98.3595 15.1863L96.6424 18.2771C79.7004 9.11921 62.186 4.5403 44.0993 4.5403Z" fill="white"/>
</svg>
