<svg width="155" height="165" viewBox="0 0 155 165" fill="none" xmlns="http://www.w3.org/2000/svg">
<path d="M154.164 138.561C144.103 148.622 133.483 155.497 122.304 159.186C111.237 162.875 99.2196 164.72 86.2519 164.72C73.1725 164.72 61.2669 162.764 50.535 158.851C39.915 154.938 30.86 149.461 23.3701 142.418C15.9919 135.263 10.2906 126.655 6.26619 116.594C2.35354 106.533 0.397217 95.2983 0.397217 82.8896C0.397217 71.0398 2.35354 60.0844 6.26619 50.0233C10.2906 39.8504 15.6566 31.1867 22.364 24.0321C29.1831 16.7658 37.1761 11.1204 46.3429 7.09595C55.5097 2.95972 65.2354 0.891602 75.5201 0.891602C86.2519 0.891602 95.5864 3.1274 103.523 7.599C111.461 12.0706 117.218 18.6103 120.795 27.2181V4.58067H151.817V77.356H120.795C120.795 63.6058 116.994 52.6504 109.392 44.4897C101.903 36.2172 92.1209 32.081 80.0476 32.081C75.2406 32.081 70.1542 33.0871 64.7883 35.0993C59.5341 36.9998 54.6713 40.0181 50.1997 44.1543C45.8399 48.2906 42.2067 53.5447 39.3001 59.9167C36.3936 66.2888 34.9403 73.9464 34.9403 82.8896C34.9403 91.6092 36.3377 99.155 39.1325 105.527C41.9272 111.787 45.5604 116.986 50.032 121.122C54.6154 125.146 59.9813 128.22 66.1297 130.344C72.39 132.357 78.8179 133.363 85.4135 133.363C96.7043 133.363 106.486 131.63 114.758 128.165C123.143 124.587 130.353 119.892 136.39 114.079L154.164 138.561Z" fill="white"/>
</svg>
