<svg width="207" height="187" viewBox="0 0 207 187" fill="none" xmlns="http://www.w3.org/2000/svg">
<path d="M141.345 112.792L206.239 120.17C202.662 133.697 196.793 145.435 188.633 155.384C180.472 165.222 170.019 172.879 157.275 178.357C144.643 183.835 128.545 186.573 108.982 186.573C90.0896 186.573 74.3272 184.841 61.695 181.375C49.1745 177.798 38.3868 172.097 29.3318 164.271C20.2768 156.334 13.1781 147.056 8.03578 136.436C2.89344 125.816 0.322266 111.73 0.322266 94.179C0.322266 75.8454 3.45238 60.5861 9.71262 48.401C14.296 39.4578 20.5563 31.4648 28.4933 24.422C36.4304 17.2675 44.5911 11.9574 52.9754 8.49196C66.2784 3.01425 83.3263 0.275391 104.119 0.275391C133.185 0.275391 155.319 5.47363 170.523 15.8701C185.838 26.2666 196.57 41.47 202.718 61.4804L138.495 70.0324C136.482 62.4306 132.793 56.7293 127.427 52.9285C122.173 49.0158 115.075 47.0595 106.132 47.0595C94.8407 47.0595 85.6739 51.1398 78.6312 59.3005C71.7002 67.3494 68.2347 79.5904 68.2347 96.0235C68.2347 110.668 71.7002 121.791 78.6312 129.393C85.5621 136.995 94.3935 140.795 105.125 140.795C114.069 140.795 121.559 138.504 127.595 133.92C133.744 129.337 138.327 122.294 141.345 112.792Z" fill="white"/>
</svg>
