<svg width="136" height="102" viewBox="0 0 136 102" fill="none" xmlns="http://www.w3.org/2000/svg">
<path d="M35.9994 101.449C26.1548 101.449 17.7982 99.0452 10.9299 94.2373C4.29042 89.2005 0.970703 81.9887 0.970703 72.6019C0.970703 62.5283 3.37464 53.1415 8.1825 44.4416C13.2193 35.7416 19.7443 28.1864 27.7574 21.7759C35.7705 15.1365 44.4704 9.98522 53.8572 6.32208C63.4729 2.65895 72.9742 0.827393 82.361 0.827393C91.7478 0.827393 98.6161 2.54448 102.966 5.97867C107.545 9.41285 109.834 13.5339 109.834 18.3418C109.834 21.547 108.919 24.7522 107.087 27.9575C105.256 30.9338 102.737 32.4219 99.5319 32.4219C97.4714 32.4219 96.4412 31.6206 96.4412 30.018C96.4412 28.8733 96.7846 27.843 97.4714 26.9272C100.219 22.1194 101.592 17.8839 101.592 14.2207C101.592 9.6418 99.1885 7.35236 94.3806 7.35236C90.4886 7.35236 85.4518 8.84049 79.2702 11.8168C74.2334 14.1062 68.8532 17.6549 63.1295 22.4628C57.6348 27.0417 52.4835 32.4219 47.6757 38.6035C42.8678 44.5561 38.8613 50.7376 35.656 57.1481C32.6797 63.3296 31.1916 69.1678 31.1916 74.6625C31.1916 79.9282 32.6797 84.2782 35.656 87.7124C38.6323 91.1465 43.0968 92.8637 49.0493 92.8637C52.9414 92.8637 57.5203 91.9479 62.7861 90.1163C68.2808 88.2848 74.3479 85.3085 80.9873 81.1874C86.482 77.7532 92.2057 73.6322 98.1583 68.8243C104.34 64.0165 110.292 59.0941 116.016 54.0573C121.74 49.0205 126.662 44.6705 130.783 41.0074C132.157 39.6337 133.301 38.9469 134.217 38.9469C135.133 38.9469 135.591 39.5193 135.591 40.664C135.591 42.2666 134.904 43.6403 133.53 44.785C127.578 50.2797 121.053 56.2323 113.956 62.6428C106.858 68.8243 99.4175 74.6624 91.6333 80.1572C84.0781 85.6519 76.6373 90.1163 69.3111 93.5505C57.4059 98.8162 46.302 101.449 35.9994 101.449Z" fill="white"/>
</svg>
