<svg width="173" height="227" viewBox="0 0 173 227" fill="none" xmlns="http://www.w3.org/2000/svg">
<path d="M46.4086 0.486084H171.69C172.201 0.588188 172.405 0.843447 172.303 1.25186L127.428 225.626C127.326 226.136 127.02 226.391 126.509 226.391H1.22757C0.717046 226.391 0.512838 226.136 0.614943 225.626L45.4897 1.25186C45.6939 0.741343 46.0002 0.486084 46.4086 0.486084ZM114.257 11.0539C113.746 13.8107 113.236 15.1891 112.725 15.1891H99.8601C99.6559 16.3122 99.0433 17.078 98.0222 17.4864H97.2565C96.4396 17.4864 96.1844 16.7206 96.4907 15.1891H94.1933L93.4276 19.3243C93.3254 19.8348 93.0191 20.0901 92.5086 20.0901H90.2113C90.0071 21.4174 89.1392 22.6427 87.6076 23.7658L86.6887 28.6668C86.5866 29.1773 86.2803 29.4326 85.7698 29.4326H71.8325L69.9947 38.4688L66.4721 41.2256C65.7573 41.2256 65.5021 40.5619 65.7063 39.2346H60.499L57.589 53.6313C58.8143 53.6313 59.3758 53.8865 59.2737 54.397V54.7034C59.1716 55.1118 58.7122 55.4691 57.8953 55.7754C57.1806 55.7754 56.9253 55.1628 57.1295 53.9376H52.688L50.8502 62.9738C50.748 63.4843 50.4417 63.7396 49.9312 63.7396H45.796L42.1203 82.1183C41.916 82.833 42.0181 83.5988 42.4266 84.4156C41.7118 85.2325 41.3034 85.9983 41.2013 86.713L38.1382 101.722C38.0361 102.233 37.7298 102.488 37.2193 102.488H33.084L24.3541 146.138H28.4894C28.9999 146.24 29.2041 146.495 29.102 146.903L28.4894 149.966C28.3873 150.477 28.0809 150.732 27.5704 150.732H23.4352L22.5163 155.633H26.6515C27.162 155.633 27.3662 155.888 27.2641 156.399L24.6605 169.111C25.6815 169.213 26.141 169.57 26.0389 170.183L25.8857 170.643L24.0478 172.174L23.4352 175.084H27.5704C28.0809 175.186 28.2851 175.441 28.183 175.85L27.4173 179.679C28.2341 179.679 28.5915 179.934 28.4894 180.445L28.3362 181.21C28.2341 181.721 27.8257 181.976 27.111 181.976L25.5794 189.481H27.111C28.3362 188.46 29.4083 187.949 30.3272 187.949C31.6546 187.949 32.5225 188.562 32.9309 189.787L32.6246 191.319C32.3183 193.054 31.2972 193.922 29.5614 193.922L28.4894 199.283H32.1651C32.5735 199.283 32.9819 199.895 33.3904 201.121L33.2372 201.427L32.3183 202.652L31.093 209.085H35.2282C35.7387 209.085 35.943 209.953 35.8409 211.688L34.9219 213.986H39.0571C39.5676 213.986 39.7719 214.19 39.6698 214.598L38.904 218.887H47.9402C48.3486 218.887 48.5528 219.091 48.5528 219.499L47.6339 223.635H60.8053C61.1116 222.409 61.52 221.797 62.0305 221.797H63.1026C63.6132 221.797 63.7153 222.409 63.409 223.635H71.6794L72.292 220.725L71.5262 219.193L71.8325 217.661C71.9346 217.355 72.3941 216.998 73.2109 216.589H74.7425C75.6614 216.998 76.0188 217.764 75.8146 218.887H92.3555L93.1212 214.598L94.0402 213.526C92.2023 213.526 91.3855 212.046 91.5897 209.085C92.6107 206.328 94.2954 204.95 96.6438 204.95H97.4096C100.064 205.358 101.136 206.736 100.626 209.085L100.473 209.851C99.4517 212.301 97.9712 213.526 96.0312 213.526L95.878 213.986H103.076L104.148 208.319C103.536 208.319 103.025 207.655 102.617 206.328L103.076 204.184C103.995 201.631 105.527 200.355 107.671 200.355H108.743L110.581 200.814C110.785 199.793 111.143 199.283 111.653 199.283H113.95C114.053 198.67 114.716 197.649 115.941 196.22L116.248 194.688H115.176C112.01 194.28 110.683 192.901 111.194 190.553L111.5 189.021C111.908 186.775 113.797 185.397 117.167 184.886H117.473C118.29 184.886 119.209 185.294 120.23 186.111C121.557 181.108 124.212 178.607 128.194 178.607H129.266L130.032 174.778C129.317 173.45 129.113 172.072 129.419 170.643L129.572 169.877C130.083 168.345 130.44 167.222 130.644 166.507C127.581 165.282 126.305 163.546 126.816 161.3L127.122 159.309C127.326 158.288 127.786 157.318 128.5 156.399C124.927 155.48 123.497 153.336 124.212 149.966V149.507C125.846 145.014 128.551 142.768 132.329 142.768C132.84 142.768 134.014 143.125 135.852 143.84C135.954 143.738 136.26 143.023 136.771 141.696C134.729 141.696 133.299 139.909 132.482 136.336H108.743L107.977 140.471C107.875 140.981 107.569 141.237 107.058 141.237H98.0222L97.1033 146.138H101.239C101.647 146.24 101.851 146.495 101.851 146.903L101.239 149.966C101.136 150.477 100.83 150.732 100.32 150.732H98.3285C98.5328 152.264 98.5838 153.234 98.4817 153.642C97.5628 155.684 96.3886 156.705 94.9591 156.705L91.4365 174.471C91.3344 174.88 91.0281 175.084 90.5176 175.084H86.3824L85.4634 179.219C85.3613 179.73 85.1061 179.985 84.6977 179.985H71.8325C71.4241 179.985 71.271 178.862 71.3731 176.616C70.4541 175.595 69.9436 175.084 69.8415 175.084H67.0847L67.391 175.85L67.0847 177.841C66.6763 179.781 65.451 180.751 63.409 180.751H62.3369C60.2948 180.751 59.4779 179.781 59.8864 177.841L60.0395 176.616C60.4479 174.676 61.6732 173.706 63.7153 173.706H64.7874C65.6042 173.706 66.421 174.063 67.2379 174.778L68.7694 166.814C67.6463 165.282 67.1358 164.057 67.2379 163.138L67.5442 161.606C67.7484 160.585 68.7694 159.309 70.6073 157.777L70.9136 156.399L68.9226 156.705C65.6552 156.705 64.3789 154.97 65.0937 151.498C65.2979 150.579 66.1658 149.405 67.6973 147.975L68.0036 146.597H65.7063C63.0516 146.597 61.9284 144.81 62.3369 141.237C62.8474 138.582 64.8895 137.101 68.4631 136.795H69.2289L69.8415 137.101L71.2199 130.362C71.2199 130.158 71.1689 129.137 71.0668 127.299L71.3731 126.227C71.3731 126.023 71.7815 125.002 72.5983 123.164L73.0578 121.02H71.9857C69.331 120.612 68.2078 119.233 68.6163 116.885L68.7694 116.119C69.8926 113.362 71.5773 111.984 73.8236 111.984H74.8957L78.1119 95.7492C75.4572 95.4429 74.3851 94.0645 74.8957 91.614L75.0488 90.8482C75.9678 88.0914 77.6014 86.713 79.9498 86.713H81.0219C81.9408 86.713 82.7577 87.0703 83.4724 87.7851H84.6977L85.9229 81.3525C83.9829 80.0252 83.1661 78.5447 83.4724 76.911L83.6256 75.8389C83.9319 74.2052 85.3613 72.6737 87.9139 71.2442L88.2202 69.7127C86.7908 70.5295 85.4634 70.9379 84.2382 70.9379C81.6856 70.1211 80.5624 68.7427 80.8688 66.8027L81.1751 65.2711C81.5835 63.229 83.3703 61.8506 86.5355 61.1359C89.1902 61.6464 90.4155 62.5143 90.2113 63.7396H92.0491L91.896 62.9738L92.3555 60.6764C92.4576 59.9617 93.6318 58.4812 95.878 56.2349C96.1844 54.7033 96.5928 53.9376 97.1033 53.9376H114.716C115.227 54.0397 115.431 54.2949 115.329 54.7034L113.491 63.7396H117.626C118.137 63.8417 118.341 64.0969 118.239 64.5053L115.788 77.2173C115.686 77.6257 114.92 78.1362 113.491 78.7489H112.419L111.5 77.9831H110.734L109.662 82.8841H113.797C114.308 82.9862 114.512 83.2414 114.41 83.6499L111.653 97.5871H116.86L118.239 96.8213H119.005L119.924 97.5871H145.501L146.42 93.4518C146.522 92.9413 146.777 92.6861 147.185 92.6861H151.321L152.699 85.9472H152.393L151.474 86.2535C150.453 85.8451 149.942 85.3856 149.942 84.8751C150.453 83.3436 150.963 82.5778 151.474 82.5778H153.465L154.384 77.9831H150.248C148.411 77.3705 147.032 76.7578 146.113 76.1452V74.3073V73.8479C146.624 71.6016 148.257 70.4784 151.014 70.4784L154.231 53.9376H150.095C149.585 53.9376 149.381 53.6823 149.483 53.1718L151.321 44.1356H147.185C146.675 44.1356 146.471 43.8803 146.573 43.3698L148.411 34.3336H144.582C144.071 34.3336 143.867 34.0783 143.969 33.5678L145.807 24.5316H140.906C140.6 26.0632 138.762 27.0842 135.392 27.5947C132.636 27.5947 131.41 25.7058 131.717 21.9279C132.227 19.3753 134.167 17.8948 137.537 17.4864L137.996 15.1891H125.897L125.284 17.7927C125.284 18.2011 124.722 18.7117 123.599 19.3243H121.608C120.485 18.7117 120.077 17.6906 120.383 16.2612C120.689 15.8527 120.894 15.4954 120.996 15.1891H119.158C118.647 13.6575 117.881 12.8917 116.86 12.8917C116.452 12.8917 115.584 12.2791 114.257 11.0539ZM111.653 20.0901H112.419C112.929 20.1922 113.134 20.4474 113.032 20.8558L112.878 21.6216C112.878 21.9279 112.419 22.2853 111.5 22.6937C111.194 22.6937 110.938 22.3364 110.734 21.6216L110.887 20.8558C110.989 20.3453 111.245 20.0901 111.653 20.0901ZM100.32 24.5316H101.392C101.902 24.6337 102.106 24.889 102.004 25.2974L101.851 26.5226C101.749 27.0331 101.443 27.2884 100.932 27.2884H99.7069C99.1964 27.2884 98.9922 27.0331 99.0943 26.5226L99.4006 25.2974C99.6048 24.7869 99.9112 24.5316 100.32 24.5316ZM125.59 25.7568H126.05C126.56 25.8589 126.765 26.1142 126.662 26.5226L126.509 27.2884C126.407 27.5947 125.948 27.9521 125.131 28.3605C124.722 28.3605 124.416 28.0031 124.212 27.2884L124.365 26.8289C124.365 26.5226 124.773 26.1653 125.59 25.7568ZM89.2923 29.1263H89.905C90.4155 29.2284 90.6197 29.4836 90.5176 29.8921L90.3644 30.9642C90.2623 31.4747 89.956 31.7299 89.4455 31.7299H88.6797C88.1692 31.7299 87.965 31.4747 88.0671 30.9642L88.3734 29.8921C88.4755 29.3815 88.7818 29.1263 89.2923 29.1263ZM138.762 29.8921H141.059C142.182 30.5047 142.591 31.4747 142.284 32.802C141.876 34.8441 140.549 35.8652 138.302 35.8652C136.669 35.1504 136.005 34.0273 136.311 32.4957C136.515 31.4747 137.332 30.6068 138.762 29.8921ZM114.563 30.1984C114.972 30.1984 115.278 30.6068 115.482 31.4236L115.329 32.1894C115.227 32.5978 114.92 32.802 114.41 32.802H113.644C113.134 32.802 112.929 32.5978 113.032 32.1894L113.185 31.4236C113.287 31.0152 113.746 30.6068 114.563 30.1984ZM78.1119 34.0273H78.8777C79.2861 34.1294 79.4903 34.3846 79.4903 34.7931L79.3372 35.5588C79.2351 36.0694 78.9288 36.3246 78.4183 36.3246H77.6525C77.2441 36.3246 76.9377 35.9162 76.7335 35.0994C76.8356 34.7931 77.2951 34.4357 78.1119 34.0273ZM103.076 35.0994H103.842C104.353 35.2015 104.557 35.4567 104.455 35.8652L104.302 36.6309C104.2 37.1414 103.893 37.3967 103.383 37.3967H102.617C102.209 37.3967 101.902 37.0393 101.698 36.3246C101.8 35.9162 102.26 35.5078 103.076 35.0994ZM128.041 36.3246H128.807C129.317 36.3246 129.521 36.5288 129.419 36.9372L129.266 37.703C129.164 38.2135 128.858 38.4688 128.347 38.4688H127.581C127.275 38.4688 126.969 38.1114 126.662 37.3967C126.765 36.9883 127.224 36.6309 128.041 36.3246ZM142.131 39.2346H143.969C145.501 40.3577 146.113 41.7361 145.807 43.3698C144.888 45.6161 143.561 46.7392 141.825 46.7392H140.6C138.455 46.4329 137.588 45.3098 137.996 43.3698V42.604C138.813 40.3577 140.191 39.2346 142.131 39.2346ZM91.5897 39.6941H92.3555C92.866 39.6941 93.0702 39.9493 92.9681 40.4598L92.8149 41.2256C92.7128 41.634 92.4065 41.8382 91.896 41.8382H91.1302C90.6197 41.8382 90.4155 41.634 90.5176 41.2256L90.6707 40.4598C90.875 39.9493 91.1813 39.6941 91.5897 39.6941ZM116.554 40.7661H117.32C117.728 40.7661 118.035 41.1235 118.239 41.8382C118.239 42.2467 117.779 42.6551 116.86 43.0635H116.095C115.686 43.0635 115.533 42.8082 115.635 42.2977L115.788 41.5319C115.89 41.0214 116.146 40.7661 116.554 40.7661ZM80.8688 44.1356C81.2772 44.1356 81.5835 44.544 81.7877 45.3608V45.6671C81.6856 46.1777 81.3793 46.4329 80.8688 46.4329H80.103C79.5925 46.4329 79.3882 46.1777 79.4903 45.6671L79.6435 45.3608C79.6435 44.9524 80.0519 44.544 80.8688 44.1356ZM105.527 45.3608H106.293C106.803 45.3608 107.007 45.565 106.905 45.9734L106.752 46.7392C106.65 47.1476 106.191 47.5561 105.374 47.9645C105.067 47.9645 104.761 47.5561 104.455 46.7392L104.608 45.9734C104.812 45.565 105.118 45.3608 105.527 45.3608ZM130.491 46.4329H131.257C131.768 46.535 131.972 46.7903 131.87 47.1987L131.717 47.9645C131.717 48.2708 131.257 48.6282 130.338 49.0366C130.032 49.0366 129.726 48.6792 129.419 47.9645L129.572 47.1987C129.777 46.6882 130.083 46.4329 130.491 46.4329ZM69.5352 48.7303H69.8415C70.352 48.7303 70.5562 48.9855 70.4541 49.496L70.301 50.2618C70.1989 50.5681 69.7394 50.9255 68.9226 51.3339C68.6163 51.3339 68.3099 50.9766 68.0036 50.2618L68.1568 49.8024C68.2589 49.496 68.7184 49.1387 69.5352 48.7303ZM93.887 48.7303H95.878C96.2865 48.7303 96.6949 49.2408 97.1033 50.2618L96.6438 52.0997C96.5417 52.5081 95.9291 53.0186 94.806 53.6313H92.9681C92.5597 53.6313 92.1513 53.1207 91.7428 52.0997L92.2023 50.2618C92.2023 49.8534 92.7639 49.3429 93.887 48.7303ZM145.041 49.496H145.347C147.492 49.496 148.462 50.8744 148.257 53.6313C147.849 55.6733 146.215 56.8986 143.356 57.307C141.008 57.307 140.089 55.6733 140.6 52.406C142.029 50.466 143.51 49.496 145.041 49.496ZM119.464 50.8745H119.924C120.332 50.9766 120.485 51.2318 120.383 51.6402L120.23 52.406C120.23 52.8144 119.821 53.2228 119.005 53.6313C118.596 53.6313 118.29 53.2228 118.086 52.406V52.0997C118.188 51.6913 118.647 51.2829 119.464 50.8745ZM83.4724 52.406H84.2382C86.1782 52.406 86.9439 53.5292 86.5355 55.7754C86.1271 57.8175 84.6466 58.9407 82.094 59.1449C80.4603 59.1449 79.6946 58.0217 79.7967 55.7754C80.2051 53.5292 81.4303 52.406 83.4724 52.406ZM133.401 56.5412C133.81 56.5412 134.116 56.9496 134.32 57.7665L134.167 58.5323C134.065 58.9407 133.759 59.1449 133.248 59.1449H132.482C131.972 59.1449 131.768 58.9407 131.87 58.5323L132.023 57.7665C132.125 57.3581 132.584 56.9496 133.401 56.5412ZM72.292 59.1449C72.8025 59.247 73.0067 59.5022 72.9046 59.9107L72.7515 60.3701C72.6494 60.8807 72.3431 61.1359 71.8325 61.1359H71.5262C71.0157 61.1359 70.8115 60.8807 70.9136 60.3701C71.0157 59.9617 71.4752 59.5533 72.292 59.1449ZM121.915 61.4422H122.68C123.089 61.5443 123.293 61.7996 123.293 62.208L123.14 62.9738C123.038 63.4843 122.731 63.7396 122.221 63.7396H121.455C120.945 63.7396 120.74 63.4843 120.842 62.9738L120.996 62.208C121.2 61.6975 121.506 61.4422 121.915 61.4422ZM146.42 61.4422H148.257C148.666 61.4422 149.074 61.9527 149.483 62.9738L149.176 64.5053C149.074 64.9138 148.462 65.4243 147.339 66.0369H145.501C144.582 65.6285 144.224 64.7606 144.429 63.4332C145.143 62.208 145.807 61.5443 146.42 61.4422ZM60.8053 63.7396C61.2137 63.7396 61.52 64.0969 61.7242 64.8117V65.2711C61.6221 65.7816 61.3158 66.0369 60.8053 66.0369H60.3458C59.8353 66.0369 59.6311 65.7816 59.7332 65.2711L59.8864 64.5053C60.0906 63.9948 60.3969 63.7396 60.8053 63.7396ZM135.545 66.8027H136.311C136.618 66.8027 136.924 67.16 137.23 67.8748L136.924 68.9469C136.822 69.4574 136.515 69.7127 136.005 69.7127H134.933C134.524 69.7127 134.218 69.2021 134.014 68.1811C134.627 67.2621 135.137 66.8027 135.545 66.8027ZM49.3186 68.6406H49.6249C50.1354 68.7427 50.3396 68.9979 50.2375 69.4063V69.7127C50.1354 70.2232 49.8291 70.4784 49.3186 70.4784H49.0123C48.5018 70.4784 48.2975 70.2232 48.3997 69.7127V69.4063C48.6039 68.8958 48.9102 68.6406 49.3186 68.6406ZM74.283 69.7127H74.7425C75.1509 69.8148 75.3551 70.07 75.3551 70.4784L75.202 70.9379C75.0999 71.4484 74.7936 71.7037 74.283 71.7037C73.9767 71.7037 73.6704 71.2953 73.3641 70.4784C73.5683 69.9679 73.8746 69.7127 74.283 69.7127ZM124.365 71.7037H125.131C125.641 71.7037 125.846 71.9589 125.743 72.4695L125.437 73.5416C125.335 74.0521 125.08 74.3073 124.671 74.3073H123.906C123.497 74.3073 123.191 73.8989 122.987 73.0821V72.7758C123.089 72.3674 123.548 72.01 124.365 71.7037ZM63.2558 74.3073H63.5621C64.0726 74.4094 64.2768 74.6647 64.1747 75.0731V75.3794C64.0726 75.8899 63.7663 76.1452 63.2558 76.1452H62.7963C62.3879 76.1452 62.2348 75.8899 62.3369 75.3794V75.0731C62.5411 74.5626 62.8474 74.3073 63.2558 74.3073ZM77.9588 75.8389C81.124 76.4515 82.4514 77.932 81.9408 80.2804L81.6345 81.812C81.2261 83.8541 79.4393 85.2325 76.2741 85.9472H75.6614C73.0067 85.9472 71.7815 84.3135 71.9857 81.0462L72.1389 80.2804C72.6494 77.932 74.5894 76.4515 77.9588 75.8389ZM137.996 77.2173H139.068C139.579 77.3194 139.783 77.5747 139.681 77.9831L137.843 87.0193C137.741 87.5298 137.434 87.7851 136.924 87.7851H133.861C133.452 87.7851 133.299 87.5298 133.401 87.0193L134.933 78.7489C135.035 78.4425 136.056 77.932 137.996 77.2173ZM52.2286 78.7489C52.637 78.851 52.8412 79.1062 52.8412 79.5146L52.688 79.9741C52.5859 80.4846 52.2796 80.7399 51.7691 80.7399C51.2586 80.7399 51.0544 80.4846 51.1565 79.9741L51.3096 79.5146C51.5138 79.0041 51.8201 78.7489 52.2286 78.7489ZM126.816 81.812H128.041C128.449 81.9141 128.653 82.1694 128.653 82.5778L128.347 83.6499C128.245 84.4667 127.683 84.8751 126.662 84.8751C125.743 84.4667 125.284 84.0583 125.284 83.6499L125.437 82.8841C125.539 82.5778 125.999 82.2204 126.816 81.812ZM65.7063 84.4156H66.1658C66.4721 84.4156 66.7784 84.8241 67.0847 85.6409C66.9826 85.9472 66.5231 86.3046 65.7063 86.713H65.2468C64.7363 86.713 64.5321 86.4577 64.6342 85.9472L64.7874 85.1814C64.9916 84.6709 65.2979 84.4156 65.7063 84.4156ZM116.554 86.2535L117.014 87.4788L116.86 88.2445C116.758 88.7551 116.452 89.0103 115.941 89.0103H114.869C114.359 89.0103 114.155 88.7551 114.257 88.2445L114.41 87.4788C114.512 86.8661 115.227 86.4577 116.554 86.2535ZM140.753 87.4788H141.519C142.029 87.5809 142.233 87.8361 142.131 88.2445L141.978 89.3166C141.876 89.725 141.416 90.0824 140.6 90.3887H140.14C139.834 90.3887 139.528 90.0314 139.221 89.3166L139.374 88.5509C139.476 88.2445 139.936 87.8872 140.753 87.4788ZM54.5259 89.3166H54.9854C55.4959 89.4187 55.7001 89.674 55.598 90.0824C55.4959 90.5929 55.1896 90.8482 54.6791 90.8482H54.2196C53.8112 90.8482 53.658 90.5929 53.7601 90.0824C53.8622 89.5719 54.1175 89.3166 54.5259 89.3166ZM129.266 92.3798H130.032C130.338 92.3798 130.644 92.7371 130.951 93.4518C130.849 93.8603 130.389 94.2687 129.572 94.6771H128.807C128.296 94.6771 128.092 94.4218 128.194 93.9113L128.347 93.1455C128.551 92.635 128.858 92.3798 129.266 92.3798ZM43.1923 93.9113H43.4987C44.0092 93.9113 44.2134 94.1666 44.1113 94.6771V94.9834C44.0092 95.4939 43.7029 95.7492 43.1923 95.7492H42.7329C42.2224 95.7492 42.0181 95.4939 42.1203 94.9834L42.2734 94.6771C42.4776 94.1666 42.7839 93.9113 43.1923 93.9113ZM68.1568 94.6771H68.9226C69.4331 94.6771 69.6373 94.8813 69.5352 95.2897L69.382 96.0555C69.382 96.4639 68.9226 96.8723 68.0036 97.2807C67.6973 97.2807 67.391 96.8723 67.0847 96.0555L67.2379 95.2897C67.4421 94.8813 67.7484 94.6771 68.1568 94.6771ZM57.1295 99.4249H57.4359C57.9464 99.527 58.1506 99.7823 58.0485 100.191V100.65C57.9464 101.161 57.6401 101.416 57.1295 101.416H56.6701C56.1596 101.416 55.9554 101.161 56.0575 100.65L56.2106 100.191C56.3127 99.6802 56.619 99.4249 57.1295 99.4249ZM45.6428 104.02H46.4086C46.9191 104.122 47.1234 104.377 47.0212 104.785L46.8681 105.092C46.8681 105.5 46.4086 105.909 45.4897 106.317C45.1834 106.317 44.9281 105.909 44.7239 105.092V104.785C44.9281 104.275 45.2344 104.02 45.6428 104.02ZM70.7604 104.785H71.5262C71.8325 104.785 72.0878 105.143 72.292 105.857V106.317C72.1899 106.623 71.7304 106.981 70.9136 107.389H70.1478C69.8415 107.389 69.5352 107.032 69.2289 106.317C69.8415 105.296 70.352 104.785 70.7604 104.785ZM34.1561 108.461H35.3814C35.7898 108.563 35.994 108.819 35.994 109.227L35.8409 109.993C35.7387 110.503 35.4324 110.758 34.9219 110.758H33.6967C33.1861 110.758 32.9819 110.503 33.084 109.993L33.2372 109.227C33.4414 108.716 33.7477 108.461 34.1561 108.461ZM59.5801 109.227H60.0395C60.3458 109.227 60.6521 109.635 60.9585 110.452L60.8053 111.218C60.7032 111.728 60.3969 111.984 59.8864 111.984H58.6611C58.2527 111.984 58.0995 111.728 58.2016 111.218V110.452C58.3037 110.044 58.7632 109.635 59.5801 109.227ZM48.5528 114.128H48.8591C49.3696 114.23 49.5738 114.485 49.4717 114.894L49.3186 115.659C49.2165 116.17 48.9102 116.425 48.3997 116.425H47.6339C47.1234 116.425 46.9191 116.17 47.0212 115.659L47.1744 115.353C47.1744 114.945 47.6339 114.536 48.5528 114.128ZM37.3724 118.723C37.7808 118.723 38.0871 119.08 38.2913 119.795V120.254C38.1892 120.765 37.8829 121.02 37.3724 121.02H36.6066C36.0961 121.02 35.8919 120.765 35.994 120.254V119.795C36.0961 119.488 36.5556 119.131 37.3724 118.723ZM61.8774 119.029H63.2558C63.6642 119.029 63.9705 119.437 64.1747 120.254L63.8684 122.092C63.46 122.807 62.6432 123.164 61.4179 123.164C60.1927 122.756 59.6822 122.041 59.8864 121.02C60.6011 119.795 61.2648 119.131 61.8774 119.029ZM50.8502 124.696H51.3096C51.8201 124.798 52.0243 125.053 51.9222 125.461L51.7691 125.768C51.667 126.278 51.3607 126.534 50.8502 126.534H50.5438C50.0333 126.534 49.8291 126.278 49.9312 125.768V125.461C50.1354 124.951 50.4417 124.696 50.8502 124.696ZM39.5166 129.29H40.2824C40.6908 129.29 40.8439 129.546 40.7418 130.056V130.362C40.6397 130.873 40.3334 131.128 39.8229 131.128H39.0571C38.5466 131.128 38.3424 130.873 38.4445 130.362L38.5977 130.056C38.6998 129.546 39.0061 129.29 39.5166 129.29ZM64.481 130.056H65.7063C66.1147 130.056 66.3189 130.26 66.3189 130.669L66.0126 131.894C65.9105 132.2 65.451 132.558 64.6342 132.966H63.8684C63.5621 132.966 63.2558 132.609 62.9495 131.894L63.1026 131.128C63.2047 130.72 63.6642 130.362 64.481 130.056ZM28.3362 133.732H29.102C29.6125 133.834 29.8167 134.089 29.7146 134.498L29.5614 135.263C29.4593 135.774 29.153 136.029 28.6425 136.029H27.8767C27.5704 136.029 27.3152 135.621 27.111 134.804C27.111 134.498 27.5194 134.14 28.3362 133.732ZM53.4538 134.804H53.7601C54.1685 134.804 54.4748 135.212 54.6791 136.029C54.5769 136.336 54.1175 136.693 53.3006 137.101H52.9943C52.4838 137.101 52.2796 136.846 52.3817 136.336L52.5349 135.57C52.637 135.059 52.9433 134.804 53.4538 134.804ZM128.5 137.867H128.807C129.215 137.867 129.521 138.276 129.726 139.092L129.572 139.705C129.47 140.113 129.011 140.522 128.194 140.93C127.275 140.522 126.867 140.113 126.969 139.705L127.122 139.092C127.122 138.684 127.581 138.276 128.5 137.867ZM41.9671 139.399H42.7329C43.2434 139.501 43.4476 139.756 43.3455 140.164L43.1923 140.93C43.0902 141.441 42.7839 141.696 42.2734 141.696H41.5076C40.9971 141.696 40.7929 141.441 40.895 140.93L41.0482 140.164C41.2524 139.654 41.5587 139.399 41.9671 139.399ZM116.86 142.768H117.626C118.035 142.768 118.341 143.125 118.545 143.84C118.443 144.249 117.984 144.657 117.167 145.065H116.401C115.993 145.065 115.839 144.81 115.941 144.3V143.534C116.146 143.023 116.452 142.768 116.86 142.768ZM30.9399 143.84H31.5525C32.063 143.942 32.2672 144.198 32.1651 144.606L32.0119 145.372C31.9098 145.882 31.6546 146.138 31.2462 146.138H30.4804C29.9699 146.138 29.7657 145.882 29.8678 145.372L30.0209 144.606C30.123 144.095 30.4293 143.84 30.9399 143.84ZM56.6701 144.606L57.589 146.138L57.4359 146.597C57.3338 146.903 56.8743 147.261 56.0575 147.669H54.9854C54.4748 147.669 54.2706 147.414 54.3727 146.903L54.5259 145.831C54.7301 145.219 55.4448 144.81 56.6701 144.606ZM106.293 147.363C106.599 147.363 106.854 147.72 107.058 148.435V148.741C106.956 149.252 106.65 149.507 106.14 149.507H105.374C104.863 149.507 104.659 149.252 104.761 148.741L104.914 148.435C104.914 148.026 105.374 147.669 106.293 147.363ZM44.7239 149.966H45.0302C45.5407 150.069 45.7449 150.324 45.6428 150.732V151.039C45.5407 151.549 45.2344 151.804 44.7239 151.804H44.4176C43.9071 151.804 43.7029 151.549 43.805 151.039V150.732C44.0092 150.222 44.3155 149.966 44.7239 149.966ZM137.077 151.498C136.669 152.213 136.362 152.927 136.158 153.642C136.975 153.642 137.894 154.051 138.915 154.867L139.528 152.264C139.63 151.753 138.813 151.498 137.077 151.498ZM119.77 152.876H120.23C120.536 152.876 120.791 153.285 120.996 154.102V154.408C120.894 154.816 120.434 155.225 119.617 155.633H118.851C118.341 155.633 118.137 155.378 118.239 154.867L118.392 154.102C118.494 153.693 118.954 153.285 119.77 152.876ZM33.2372 154.408H34.003C34.5135 154.51 34.7177 154.765 34.6156 155.174L34.4624 155.94C34.3603 156.45 34.054 156.705 33.5435 156.705H32.7777C32.2672 156.705 32.063 156.45 32.1651 155.94L32.3183 155.174C32.5225 154.663 32.8288 154.408 33.2372 154.408ZM58.6611 155.174C59.0695 155.174 59.3758 155.582 59.5801 156.399L59.4269 157.012C59.3248 157.522 59.0185 157.777 58.508 157.777H57.8953C57.3848 157.777 57.1806 157.522 57.2827 157.012L57.4359 156.399C57.4359 155.991 57.8443 155.582 58.6611 155.174ZM108.284 157.777H109.049C109.56 157.88 109.764 158.135 109.662 158.543L109.509 159.309C109.407 159.819 109.101 160.075 108.59 160.075H107.824C107.314 160.075 107.109 159.819 107.212 159.309L107.365 158.543C107.569 158.033 107.875 157.777 108.284 157.777ZM47.1744 160.075H47.6339C48.0423 160.177 48.2465 160.432 48.2465 160.841L48.0933 161.606C47.9912 162.117 47.6849 162.372 47.1744 162.372C46.766 162.372 46.4597 162.015 46.2555 161.3V160.841C46.4597 160.33 46.766 160.075 47.1744 160.075ZM97.2565 162.372H97.5628C97.9712 162.372 98.2775 162.729 98.4817 163.444C98.3796 163.853 97.9201 164.261 97.1033 164.669H96.797C96.2865 164.669 96.0823 164.414 96.1844 163.904L96.3375 163.138C96.4396 162.627 96.7459 162.372 97.2565 162.372ZM61.2648 163.138H62.0305C64.0726 163.138 65.0426 164.516 64.9405 167.273C64.0216 169.519 62.6942 170.643 60.9585 170.643H58.6611C57.3338 169.724 56.8232 168.6 57.1295 167.273L57.2827 166.507C57.9974 164.261 59.3248 163.138 61.2648 163.138ZM122.221 163.138H122.68C122.987 163.138 123.293 163.495 123.599 164.21L123.446 164.976C123.344 165.384 122.885 165.742 122.068 166.048H121.608C121.302 166.048 120.996 165.69 120.689 164.976L120.842 164.21C120.945 163.904 121.404 163.546 122.221 163.138ZM35.8409 164.669H36.4535C36.964 164.669 37.1682 164.925 37.0661 165.435L36.9129 166.048C36.8108 166.558 36.5045 166.814 35.994 166.814H35.3814C34.8709 166.814 34.6667 166.558 34.7688 166.048L34.9219 165.435C35.024 164.925 35.3303 164.669 35.8409 164.669ZM110.734 168.039H111.5C112.01 168.141 112.215 168.396 112.113 168.805L111.959 169.57C111.857 169.979 111.551 170.183 111.041 170.183H110.275C109.764 170.183 109.56 169.979 109.662 169.57L109.815 168.805C110.019 168.294 110.326 168.039 110.734 168.039ZM49.6249 170.643H50.3907C50.9012 170.745 51.1054 171 51.0033 171.408C50.9012 171.715 50.4417 172.072 49.6249 172.48H49.3186C48.8081 172.48 48.6039 172.225 48.706 171.715V171.408C48.9102 170.898 49.2165 170.643 49.6249 170.643ZM125.743 172.174C126.662 172.48 127.275 173.093 127.581 174.012L127.428 174.778C127.224 176.105 126.56 176.973 125.437 177.381H123.14C122.731 177.381 122.323 176.871 121.915 175.85L122.374 174.012C123.293 172.787 124.416 172.174 125.743 172.174ZM99.7069 172.48H100.473C100.983 172.583 101.187 172.838 101.085 173.246L100.932 174.012C100.83 174.522 100.524 174.778 100.013 174.778H99.2475C98.737 174.778 98.5328 174.522 98.6349 174.012L98.788 173.246C98.9922 172.736 99.2985 172.48 99.7069 172.48ZM38.5977 175.084H38.904C39.4145 175.186 39.6187 175.441 39.5166 175.85V176.309C39.4145 176.82 39.1082 177.075 38.5977 177.075H38.1382C37.6277 177.075 37.4235 176.82 37.5256 176.309L37.6787 175.85C37.8829 175.339 38.1892 175.084 38.5977 175.084ZM113.797 175.084H115.023C117.371 175.595 118.341 176.871 117.933 178.913L117.779 179.985C116.758 182.538 115.227 183.814 113.185 183.814H112.113C109.662 183.303 108.641 182.027 109.049 179.985L109.356 178.913C110.377 176.36 111.857 175.084 113.797 175.084ZM88.2202 177.075H89.2923C89.8029 177.075 90.0071 177.33 89.905 177.841L89.7518 178.913C89.6497 179.423 89.3434 179.679 88.8329 179.679H87.7608C87.2503 179.679 87.046 179.423 87.1482 178.913L87.3013 177.841C87.5055 177.33 87.8118 177.075 88.2202 177.075ZM52.5349 180.751C52.8412 180.751 53.1475 181.159 53.4538 181.976C53.3517 182.487 53.0454 182.742 52.5349 182.742H51.7691C51.2586 182.742 51.0544 182.487 51.1565 181.976C51.1565 181.568 51.6159 181.159 52.5349 180.751ZM77.4993 181.976H77.8056C78.3162 181.976 78.5204 182.231 78.4183 182.742V183.048C78.3162 183.559 78.0098 183.814 77.4993 183.814H76.7335C76.223 183.814 76.0188 183.559 76.1209 183.048C76.223 182.742 76.6825 182.385 77.4993 181.976ZM102.157 182.742H103.23C103.74 182.742 103.944 182.946 103.842 183.354L103.689 184.58C103.587 184.886 103.127 185.243 102.311 185.652H101.545C101.239 185.652 100.932 185.294 100.626 184.58L100.779 183.814C100.881 183.406 101.341 183.048 102.157 182.742ZM104.761 184.886H108.131C108.641 184.988 108.845 185.243 108.743 185.652L108.131 188.715C108.028 189.225 107.722 189.481 107.212 189.481H103.842C103.332 189.481 103.127 189.225 103.23 188.715L103.842 185.652C104.046 185.141 104.353 184.886 104.761 184.886ZM41.0482 185.346H41.3545C41.865 185.448 42.0692 185.703 41.9671 186.111L41.8139 186.877C41.7118 187.388 41.4055 187.643 40.895 187.643H40.5887C40.0782 187.643 39.874 187.388 39.9761 186.877L40.1292 186.111C40.3334 185.601 40.6397 185.346 41.0482 185.346ZM66.0126 186.418H66.4721C66.8805 186.52 67.0847 186.775 67.0847 187.183L66.9315 187.949C66.8294 188.46 66.5231 188.715 66.0126 188.715C65.6042 188.715 65.2979 188.358 65.0937 187.643V187.183C65.2979 186.673 65.6042 186.418 66.0126 186.418ZM90.9771 187.643H91.7428C92.2534 187.643 92.4576 187.847 92.3555 188.255L92.2023 189.021C92.1002 189.532 91.7939 189.787 91.2834 189.787H90.5176C90.2113 189.787 89.905 189.43 89.5987 188.715C89.7008 188.307 90.1602 187.949 90.9771 187.643ZM54.9854 191.012C55.2917 191.012 55.598 191.37 55.9043 192.084L55.7511 192.391C55.649 192.901 55.3427 193.156 54.8322 193.156H54.5259C54.1175 193.156 53.8112 192.799 53.607 192.084C53.7091 191.676 54.1685 191.319 54.9854 191.012ZM105.374 191.012H105.833C107.773 191.012 108.539 191.982 108.131 193.922L107.824 195.913C106.905 197.139 105.782 197.751 104.455 197.751H103.689C101.647 197.751 100.881 196.628 101.392 194.382C102.106 192.135 103.434 191.012 105.374 191.012ZM79.9498 192.084C80.3582 192.084 80.6645 192.442 80.8688 193.156L80.7156 193.616C80.6135 194.126 80.3582 194.382 79.9498 194.382H79.4903C78.9798 194.382 78.7756 194.126 78.8777 193.616L79.0309 192.85C79.2351 192.34 79.5414 192.084 79.9498 192.084ZM43.4987 195.913H43.805C44.3155 195.913 44.5197 196.169 44.4176 196.679V196.985C44.3155 197.496 44.0092 197.751 43.4987 197.751H43.0392C42.5287 197.751 42.3245 197.496 42.4266 196.985L42.5797 196.679C42.7839 196.169 43.0902 195.913 43.4987 195.913ZM68.9226 196.679C69.2289 196.679 69.5352 197.036 69.8415 197.751L69.6884 198.057C69.5863 198.568 69.2799 198.823 68.7694 198.823H68.0036C67.4931 198.823 67.2889 198.568 67.391 198.057L67.5442 197.751C67.6463 197.343 68.1057 196.985 68.9226 196.679ZM93.887 197.751C94.2954 197.751 94.6017 198.109 94.806 198.823L94.6528 199.283C94.5507 199.793 94.2444 200.049 93.7339 200.049H93.1212C92.6107 200.049 92.4065 199.793 92.5086 199.283V198.823C92.6107 198.517 93.0702 198.16 93.887 197.751ZM57.4359 201.427H57.7422C58.2527 201.529 58.4569 201.784 58.3548 202.193L58.2016 202.652C58.2016 203.163 57.9464 203.418 57.4359 203.418H56.9764C56.4659 203.418 56.2617 203.163 56.3638 202.652L56.5169 202.193C56.619 201.682 56.9253 201.427 57.4359 201.427ZM82.4003 202.652H82.7066C83.2171 202.754 83.4214 203.01 83.3192 203.418V203.724C83.2171 204.235 82.9108 204.49 82.4003 204.49H81.9408C81.4303 204.49 81.2261 204.235 81.3282 203.724L81.4814 203.418C81.6856 202.907 81.9919 202.652 82.4003 202.652ZM46.2555 206.328C46.766 206.43 46.9702 206.685 46.8681 207.094C46.766 207.604 46.4597 207.859 45.9492 207.859C45.4386 207.859 45.2344 207.604 45.3365 207.094C45.5407 206.583 45.8471 206.328 46.2555 206.328ZM71.3731 207.094H71.6794C72.1899 207.196 72.3941 207.451 72.292 207.859L72.1389 208.319C72.1389 208.625 71.7304 208.983 70.9136 209.391C70.5052 209.391 70.1989 209.034 69.9947 208.319C69.9947 207.911 70.4541 207.502 71.3731 207.094ZM85.7698 210.157C87.9139 210.667 88.8329 211.79 88.5266 213.526L88.3734 214.292C87.965 216.334 86.7397 217.355 84.6977 217.355H82.8598C81.5324 216.436 80.9709 215.313 81.1751 213.986C82.1961 211.433 83.7277 210.157 85.7698 210.157ZM60.6521 211.229L61.2648 212.454L61.1116 213.22C61.0095 213.73 60.7032 213.986 60.1927 213.986H58.9674C58.4569 213.986 58.2527 213.73 58.3548 213.22L58.508 212.454C58.7122 211.842 59.4269 211.433 60.6521 211.229ZM48.706 216.589C49.2165 216.691 49.4207 216.947 49.3186 217.355C49.2165 217.866 48.9102 218.121 48.3997 218.121C47.8891 218.121 47.6849 217.866 47.787 217.355C47.9912 216.845 48.2975 216.589 48.706 216.589Z" fill="white"/>
</svg>
