<svg width="163" height="255" viewBox="0 0 163 255" fill="none" xmlns="http://www.w3.org/2000/svg">
<path d="M162.365 209.402C159.541 210.054 157.804 211.574 157.152 213.963C156.5 215.049 156.066 216.027 155.849 216.895C155.632 217.764 155.306 218.633 154.871 219.502C154.654 220.153 154.22 220.696 153.568 221.131C153.134 221.348 152.482 221.239 151.614 220.805C149.224 222.108 147.487 223.52 146.401 225.04C145.532 226.561 144.555 228.298 143.469 230.253C140.211 231.556 138.365 232.642 137.93 233.511C137.496 234.163 136.844 234.814 135.975 235.466C133.586 236.335 131.957 237.203 131.088 238.072C130.437 238.941 129.785 239.81 129.134 240.678C126.527 241.33 124.138 242.199 121.966 243.285C119.794 244.154 117.405 244.914 114.799 245.565C114.581 246.869 113.93 247.846 112.844 248.498C111.975 249.366 111.324 250.561 110.889 252.081C110.02 252.516 108.934 252.733 107.631 252.733C106.328 252.733 105.133 252.624 104.047 252.407C103.396 251.973 102.853 251.538 102.418 251.104C101.984 250.67 101.441 250.452 100.789 250.452C100.138 250.452 99.4863 250.67 98.8347 251.104C98.4003 251.538 97.7487 251.973 96.8799 252.407C95.1424 252.19 93.7306 252.407 92.6446 253.059C91.7758 253.927 90.4726 254.253 88.735 254.036C86.3459 253.167 84.4997 252.624 83.1965 252.407C82.1105 252.407 81.0246 252.407 79.9386 252.407C79.287 252.19 78.6354 251.864 77.9838 251.43C77.3322 251.213 76.6806 250.887 76.029 250.452C74.943 250.669 74.0743 250.561 73.4227 250.127C72.7711 249.909 72.1195 249.692 71.4679 249.475C71.0335 249.041 70.5991 248.498 70.1647 247.846C69.9475 247.412 69.5131 247.086 68.8615 246.869C67.5584 247.086 66.3638 247.412 65.2778 247.846C64.409 248.28 63.323 248.498 62.0198 248.498C60.9339 248.063 59.9565 247.737 59.0877 247.52C58.4361 247.303 57.8931 246.869 57.4587 246.217C55.0695 246 53.0062 245.565 51.2686 244.914C49.7482 244.479 48.1192 244.045 46.3817 243.611C45.9473 242.307 45.8387 241.439 46.0559 241.004C46.2731 240.353 46.2731 239.592 46.0559 238.724C45.1871 237.855 44.1011 237.312 42.7979 237.095C41.4947 236.878 40.3002 236.552 39.2142 236.117C38.3454 234.38 37.2594 232.859 35.9562 231.556C34.8702 230.253 34.0015 228.624 33.3499 226.669C32.4811 226.452 31.7209 226.452 31.0693 226.669C30.6349 226.886 29.9833 226.886 29.1145 226.669C28.0285 225.583 27.2684 224.28 26.834 222.76C26.6168 221.022 25.6394 219.828 23.9018 219.176C22.5986 216.787 21.6212 215.484 20.9696 215.266C20.3181 214.832 19.7751 214.18 19.3407 213.312C18.0375 208.316 17.1687 204.298 16.7343 201.257C16.0827 200.171 15.3225 199.085 14.4537 197.999C13.8022 196.913 13.1506 195.827 12.499 194.741C12.499 193.221 12.2818 191.592 11.8474 189.854C10.7614 188.117 9.78401 186.271 8.91523 184.316C8.04644 182.361 7.17765 180.406 6.30887 178.452C5.44008 176.931 4.57129 175.628 3.7025 174.542C3.7025 172.587 3.37671 170.741 2.72512 169.004C2.72512 167.7 2.83372 166.614 3.05091 165.746C3.26811 164.66 3.37671 163.574 3.37671 162.488C2.50792 160.75 1.85633 158.687 1.42194 156.298C0.987544 153.691 1.31334 151.302 2.39932 149.13C1.31334 147.827 0.878946 146.306 1.09614 144.569C1.31334 142.831 1.85633 141.311 2.72512 140.008C2.72512 139.356 2.39932 138.922 1.74773 138.705C1.31334 138.27 0.878946 137.727 0.444553 137.076C0.0101592 133.166 0.227356 129.365 1.09614 125.673C2.18213 121.763 2.29073 117.636 1.42194 113.293L2.72512 104.822C2.94232 102.867 3.37671 101.13 4.0283 99.6091C4.89709 98.0888 5.87447 96.7856 6.96046 95.6996C7.17765 93.7448 7.50345 92.333 7.93784 91.4643C7.93784 88.6407 7.82924 85.4913 7.61205 82.0162C7.61205 78.541 7.61205 75.2831 7.61205 72.2423C8.26364 71.8079 8.91523 71.2649 9.56682 70.6134C10.2184 69.9618 10.87 69.4188 11.5216 68.9844C12.1732 64.4233 13.1506 61.2739 14.4537 59.5363C15.9741 57.7987 17.0601 55.7354 17.7117 53.3462C18.7977 52.2602 19.5579 50.957 19.9923 49.4367C20.6439 47.6991 21.2954 46.1787 21.947 44.8755C22.8158 44.0068 23.576 43.138 24.2276 42.2692C24.8792 41.1832 25.748 40.3144 26.834 39.6628C27.2684 38.1424 27.7027 37.1651 28.1371 36.7307C28.5715 36.2963 29.0059 35.8619 29.4403 35.4275C30.5263 32.1695 32.3725 29.6718 34.9788 27.9342C37.5852 26.1966 39.7572 24.1332 41.4947 21.7441C42.7979 21.0925 43.8839 20.3323 44.7527 19.4635C45.6215 18.5947 46.5989 17.7259 47.6848 16.8572C49.2052 16.4228 50.3998 15.8798 51.2686 15.2282C52.3546 14.3594 53.4406 13.382 54.5265 12.296C55.3953 12.0788 56.2641 11.753 57.1329 11.3186C58.0017 10.8842 58.8705 10.4498 59.7393 10.0155C63.2144 9.36387 65.7122 8.82088 67.2326 8.38648C68.9701 7.73489 71.0335 7.30049 73.4227 7.0833C74.7259 6.6489 75.9204 6.21451 77.0064 5.78012C78.3096 5.12853 79.5042 4.36834 80.5902 3.49955C81.4589 3.49955 82.2191 3.39095 82.8707 3.17376C83.5223 2.95656 84.2825 2.63077 85.1513 2.19637C86.2373 2.41357 86.9975 2.41357 87.4319 2.19637C88.0834 1.76198 88.735 1.32758 89.3866 0.893188C91.993 1.54478 93.9478 2.30497 95.2509 3.17376C98.2917 5.34572 100.572 6.21451 102.093 5.78012C103.613 5.12853 105.242 5.12853 106.98 5.78012C109.152 6.6489 110.781 6.9747 111.867 6.75751C113.17 6.32311 114.473 6.32311 115.776 6.75751C118.165 8.06069 119.468 8.60368 119.686 8.38648C120.12 7.95209 120.554 7.95209 120.989 8.38648C121.64 8.60368 122.075 9.03807 122.292 9.68966C122.509 10.3413 122.835 10.8842 123.269 11.3186C123.921 11.753 124.898 12.6218 126.201 13.925C127.07 13.925 127.722 13.925 128.156 13.925C128.808 13.7078 129.568 13.8164 130.437 14.2508C132.174 16.64 133.478 18.1603 134.346 18.8119C135.215 19.2463 136.084 19.7893 136.953 20.4409C137.387 21.0925 137.604 21.8527 137.604 22.7215C137.604 23.3731 137.713 24.1332 137.93 25.002C139.668 28.0428 141.948 30.6492 144.772 32.8211C146.727 33.2555 147.704 33.6899 147.704 34.1243C147.704 34.3415 147.813 34.6673 148.03 35.1017C148.247 35.5361 148.79 35.8619 149.659 36.0791C150.528 36.2963 151.288 36.6221 151.939 37.0565C152.808 37.2737 153.46 37.5994 153.894 38.0338C154.328 38.251 154.22 38.6854 153.568 39.337C153.134 41.509 152.808 42.7036 152.591 42.9208C152.591 43.138 152.591 43.3552 152.591 43.5724C154.763 44.0068 156.283 44.4412 157.152 44.8755C157.152 45.5271 157.152 46.1787 157.152 46.8303C157.369 47.4819 157.369 48.1335 157.152 48.7851C156.283 51.6086 156.5 53.129 157.804 53.3462C159.324 53.3462 160.301 53.8892 160.736 54.9752C160.736 55.844 160.519 56.4956 160.084 56.93C159.65 57.3644 159.433 58.0159 159.433 58.8847C157.912 59.7535 156.609 60.5137 155.523 61.1653C154.654 61.5997 153.677 61.5997 152.591 61.1653C152.156 62.0341 151.614 62.7943 150.962 63.4459C150.31 64.0975 149.116 64.4232 147.378 64.4232C146.075 67.2468 144.229 69.636 141.84 71.5907C141.188 71.3736 140.536 71.0478 139.885 70.6134C139.45 70.179 138.908 69.9618 138.256 69.9618C136.736 70.3962 136.084 71.4821 136.301 73.2197C136.736 74.7401 136.736 76.1519 136.301 77.4551C134.998 78.7582 134.129 79.7356 133.695 80.3872C132.826 80.6044 132.174 80.9302 131.74 81.3646C131.306 81.5818 130.654 81.799 129.785 82.0162C128.265 84.6226 127.287 85.8171 126.853 85.5999C126.419 85.1655 125.767 84.9484 124.898 84.9484C124.681 86.6859 123.487 88.0977 121.315 89.1837C119.577 90.2697 118.6 91.1385 118.382 91.79C118.165 92.2244 117.731 92.6588 117.079 93.0932C114.473 93.3104 112.627 93.962 111.541 95.048C110.455 96.134 109.369 96.134 108.283 95.048C108.066 91.3557 108.5 89.1837 109.586 88.5321C112.192 87.8805 113.17 87.3375 112.518 86.9031C112.084 86.4687 111.867 85.9257 111.867 85.2741C113.17 82.4506 114.147 80.713 114.799 80.0614C115.45 79.1926 116.102 78.3239 116.753 77.4551C116.536 76.5863 116.536 75.9347 116.753 75.5003C116.971 74.8487 117.188 74.1971 117.405 73.5455C117.188 71.1564 117.731 69.5274 119.034 68.6586C118.6 66.921 117.839 65.7264 116.753 65.0748C115.667 64.2061 115.233 62.7943 115.45 60.8395C115.885 60.4051 116.428 60.2965 117.079 60.5137C117.731 60.5137 118.382 60.5137 119.034 60.5137C118.382 57.9073 117.622 56.2784 116.753 55.6268C116.102 54.9752 115.124 54.4322 113.821 53.9978C111.866 51.3914 110.563 49.8711 109.912 49.4367C109.26 48.7851 108.717 47.9163 108.283 46.8303C106.98 44.6583 106.219 43.4638 106.002 43.2466C104.699 41.9434 104.047 40.8574 104.047 39.9886C102.961 39.1198 102.093 38.5768 101.441 38.3596C100.789 38.1424 99.9207 37.9252 98.8347 37.708C97.0971 37.2737 95.9025 37.2737 95.2509 37.708C94.8165 37.9252 94.165 38.3596 93.2962 39.0112C89.6038 39.2284 86.7803 39.9886 84.8255 41.2918C82.8707 42.3778 80.6988 43.3552 78.3096 44.224C75.7032 43.3552 73.7485 43.3552 72.4453 44.224C71.3593 44.8755 70.0561 45.4185 68.5357 45.8529C66.1466 47.5905 64.3004 49.8711 62.9972 52.6946C61.694 55.301 60.4995 58.1245 59.4135 61.1653C59.4135 62.0341 59.3049 62.7943 59.0877 63.4459C59.0877 63.8803 59.0877 64.5319 59.0877 65.4006C58.6533 66.4866 57.4587 68.007 55.5039 69.9618C55.0695 72.3509 54.2008 74.1971 52.8976 75.5003C51.8116 76.5863 50.7256 77.6723 49.6396 78.7582C49.6396 79.8442 49.3138 80.713 48.6622 81.3646C48.2278 82.0162 47.7934 82.6678 47.3591 83.3194C47.3591 85.0569 47.1419 86.5773 46.7075 87.8805C46.2731 88.9665 45.8387 90.0525 45.4043 91.1385C46.2731 91.7901 46.7075 92.7674 46.7075 94.0706C46.7075 95.1566 46.9247 96.2426 47.3591 97.3286C46.7075 100.152 46.4903 101.672 46.7075 101.89C46.9247 102.107 47.1419 102.433 47.3591 102.867C47.5763 104.605 47.4677 105.908 47.0333 106.777C46.5989 107.645 46.0559 108.623 45.4043 109.709C45.8387 112.098 46.0559 113.944 46.0559 115.247C46.0559 116.333 46.0559 117.528 46.0559 118.831C44.9699 121.003 44.3183 123.935 44.1011 127.628C44.1011 131.103 44.1011 134.035 44.1011 136.424C44.3183 137.51 45.0785 138.705 46.3817 140.008C46.3817 141.528 46.1645 142.831 45.7301 143.917C45.2957 145.003 45.0785 145.981 45.0785 146.849C45.0785 148.587 45.6215 149.456 46.7075 149.456C47.7934 149.239 48.5536 149.673 48.988 150.759C48.988 151.628 48.8794 152.279 48.6622 152.714C48.445 153.148 48.3364 153.8 48.3364 154.669C48.7708 157.709 48.5536 160.098 47.6848 161.836C47.0333 163.356 46.3817 164.985 45.7301 166.723C45.9473 168.461 46.2731 169.981 46.7075 171.284C47.1419 172.587 47.5763 173.782 48.0106 174.868C49.3138 177.04 49.7482 178.343 49.3138 178.777C48.8794 178.995 48.6622 179.538 48.6622 180.406C49.0966 181.058 49.6396 181.71 50.2912 182.361C50.9428 183.013 51.3772 183.881 51.5944 184.967C52.0288 185.402 52.5718 185.836 53.2234 186.271C53.875 186.488 54.418 186.814 54.8523 187.248C55.5039 188.986 56.0469 189.963 56.4813 190.18C56.9157 190.397 57.2415 190.723 57.4587 191.158C58.1103 192.678 58.7619 194.198 59.4135 195.719C60.0651 197.022 60.4995 198.542 60.7167 200.28C61.8026 202.452 63.1058 204.189 64.6262 205.493C66.3638 206.579 67.8842 208.099 69.1873 210.054C71.3593 211.574 73.0969 212.986 74.4001 214.289C77.0064 214.289 78.8526 214.072 79.9386 213.637C81.2418 212.986 82.3277 213.203 83.1965 214.289C82.9793 215.375 82.6535 216.244 82.2191 216.895C81.7847 217.547 81.4589 218.416 81.2418 219.502C82.1105 219.936 82.7621 220.045 83.1965 219.828C83.8481 219.393 84.4997 218.959 85.1513 218.524C88.8436 218.524 91.2328 218.09 92.3188 217.221C93.622 216.135 95.1424 215.375 96.8799 214.941C97.3143 214.506 97.7487 214.18 98.1831 213.963C98.8347 213.529 99.2691 212.986 99.4863 212.334C100.355 211.683 101.115 210.922 101.767 210.054C102.636 208.968 103.287 207.882 103.722 206.796C105.459 204.407 106.437 202.778 106.654 201.909C107.74 201.474 108.5 200.823 108.934 199.954C109.586 199.085 110.455 198.434 111.541 197.999C112.844 195.827 113.713 194.09 114.147 192.787C113.278 191.266 112.518 190.506 111.867 190.506C111.215 190.506 110.672 190.18 110.238 189.529C110.455 187.357 111.106 185.945 112.192 185.293C113.495 184.424 114.581 183.121 115.45 181.384C115.016 180.949 114.581 180.515 114.147 180.081C113.93 179.429 113.821 178.669 113.821 177.8C114.256 175.845 114.364 174.542 114.147 173.89C114.147 173.239 114.364 172.37 114.799 171.284C114.364 170.198 113.713 169.221 112.844 168.352C112.192 167.483 112.084 166.289 112.518 164.768C111.215 162.162 110.889 160.75 111.541 160.533C112.192 160.098 112.301 159.555 111.867 158.904C108.826 157.601 107.631 155.863 108.283 153.691C109.803 150.65 110.998 149.782 111.867 151.085C112.735 152.388 113.604 153.365 114.473 154.017C117.296 154.886 118.708 155.646 118.708 156.298C118.925 156.949 119.251 157.492 119.686 157.926C123.161 160.75 124.898 162.922 124.898 164.442C125.984 164.66 126.744 164.66 127.179 164.442C127.83 164.225 128.591 164.334 129.459 164.768C129.894 165.42 130.002 166.18 129.785 167.049C129.568 167.7 129.568 168.352 129.785 169.004C130.871 169.221 131.631 169.546 132.066 169.981C132.5 170.198 133.043 170.524 133.695 170.958C134.346 172.479 135.215 173.782 136.301 174.868C136.301 176.388 136.084 178.017 135.65 179.755C135.215 181.275 135.758 182.578 137.279 183.664C137.93 183.664 138.473 183.556 138.907 183.338C139.559 182.904 140.428 182.687 141.514 182.687C143.686 184.859 145.315 187.682 146.401 191.158C148.138 191.592 149.333 192.244 149.985 193.112C150.636 193.764 151.179 194.524 151.614 195.393C152.7 195.176 153.677 195.502 154.546 196.37C155.632 197.239 156.283 198.108 156.5 198.977C157.586 200.28 158.347 201.257 158.781 201.909C159.433 202.343 159.65 202.995 159.433 203.864C160.084 205.167 160.736 205.927 161.387 206.144C162.039 206.144 162.473 206.579 162.691 207.447L162.365 209.402Z" fill="white"/>
</svg>
