<svg width="109" height="185" viewBox="0 0 109 185" fill="none" xmlns="http://www.w3.org/2000/svg">
<path d="M35.7952 56.124C34.5957 56.8951 33.7389 57.452 33.2248 57.7947C25.5135 63.7067 16.26 71.2037 5.4643 80.2859C4.69318 77.8011 4.13625 74.631 3.79353 70.7753C3.36513 66.577 2.76537 63.1926 1.99424 60.6222C10.9907 54.5389 17.3739 49.955 21.1438 46.8705C24.6567 46.7848 27.6984 45.4139 30.2688 42.7578C35.0669 37.7883 37.2089 35.5178 36.6948 35.9462C34.6385 36.8887 33.4818 37.4456 33.2248 37.617C34.51 34.3611 36.8233 32.2191 40.1649 31.191C41.0217 32.3048 40.7647 33.3758 39.3938 34.404C39.8222 34.2326 40.0792 34.1469 40.1649 34.1469C40.5076 34.661 40.5504 35.9034 40.2934 37.874C40.0364 40.1017 39.9935 41.7297 40.1649 42.7578C40.0792 43.5289 39.5651 44.043 38.6226 44.3001C36.7377 44.8998 35.9237 45.1569 36.1807 45.0712C36.4378 45.5853 37.0804 45.5853 38.1086 45.0712C38.3656 44.9855 38.7512 44.7713 39.2652 44.4286C39.6936 44.1715 39.9935 44.0002 40.1649 43.9145C39.7365 43.7431 39.9078 45.2854 40.679 48.5412C38.3656 49.6551 34.1673 52.0541 28.0839 55.7384C22.8574 58.9086 18.4021 61.1363 14.7178 62.4215C18.4021 61.9931 22.9003 60.0653 28.2125 56.6381C34.4671 52.5254 38.8368 50.0407 41.3216 49.1838C41.4073 51.1545 40.4648 52.9109 38.4941 54.4532C37.8944 54.8816 36.9947 55.4385 35.7952 56.124ZM25.128 116.657C34.0387 108.603 38.6655 104.405 39.0082 104.062C37.1232 110.231 33.9531 119.142 29.4977 130.794C24.5282 143.904 21.1438 153.071 19.3445 158.298C19.4302 158.469 17.8451 153.885 14.5893 144.546C12.6186 138.72 11.8903 134.05 12.4044 130.537C12.7471 128.738 16.9883 124.111 25.128 116.657ZM93.8865 120.77C94.9147 121.027 95.0861 121.584 94.4006 122.441C95.0861 122.526 95.5573 122.141 95.8144 121.284C96.1571 120.341 96.457 119.785 96.714 119.613C94.9147 119.528 93.9722 119.913 93.8865 120.77ZM87.589 132.722C89.731 133.408 91.0591 133.836 91.5732 134.008C91.5732 133.493 91.7017 132.765 91.9587 131.823C92.2158 131.052 92.2586 130.238 92.0872 129.381C91.3161 128.952 89.4312 129.167 86.4323 130.023C84.2047 127.624 81.8913 126.082 79.4922 125.397C79.0638 127.796 80.349 129.723 83.3478 131.18C84.376 131.608 85.7897 132.123 87.589 132.722ZM76.5362 118.971C74.6513 119.913 74.2657 121.455 75.3796 123.597C78.4641 123.854 80.0063 123.083 80.0063 121.284C79.8349 120.17 79.3637 119.399 78.5926 118.971C77.9071 118.628 77.2217 118.628 76.5362 118.971ZM76.0222 116.143C76.3649 114.772 75.5938 114.172 73.7088 114.344C73.5374 115.715 74.3086 116.314 76.0222 116.143ZM95.0432 104.576C96.9282 104.234 98.4705 104.062 99.67 104.062C104.382 110.06 107.253 119.228 108.281 131.566C109.309 144.161 107.767 154.228 103.654 161.768C103.654 161.768 102.112 161.382 99.0274 160.611C99.3701 161.04 99.8413 161.468 100.441 161.896C101.041 162.239 101.555 162.753 101.983 163.439C99.1559 169.008 93.3725 174.406 84.633 179.632C83.2622 174.663 81.9341 167.637 80.6489 158.555C79.021 147.502 77.8643 140.305 77.1789 136.963C77.6929 136.792 78.1213 136.921 78.4641 137.349C78.8068 137.863 79.1495 138.12 79.4922 138.12C80.4347 137.777 80.9916 136.792 81.163 135.164C81.2487 133.708 81.0773 132.38 80.6489 131.18C79.9635 131.009 78.9353 131.094 77.5644 131.437C76.6219 131.608 76.1078 131.309 76.0222 130.537C76.1935 135.764 77.1788 143.732 78.9781 154.442C81.1202 166.952 82.4482 175.563 82.9623 180.275C74.5656 183.617 65.6977 185.159 56.3585 184.902C57.4723 169.822 58.0293 161.168 58.0293 158.941C57.1725 161.682 56.5727 165.881 56.23 171.536C55.8873 178.476 55.5445 182.931 55.2018 184.902C38.0657 183.788 26.1133 175.691 19.3445 160.611C27.7412 137.906 34.1244 120.941 38.4941 109.717C39.3509 111.345 40.8503 111.902 42.9923 111.388C45.1344 110.874 46.291 109.76 46.4624 108.046C46.2054 106.847 45.5199 105.861 44.4061 105.09C43.1209 104.234 41.8785 104.276 40.679 105.219C40.5076 102.991 43.0352 100.078 48.2617 96.4795C49.3755 99.9924 49.3755 101.535 48.2617 101.106C48.176 101.449 47.5334 101.706 46.3339 101.877C45.3914 101.963 45.0487 102.477 45.3057 103.42C45.9912 104.105 46.6338 104.448 47.2335 104.448C47.4049 104.362 47.7048 104.276 48.1332 104.191C48.6473 104.105 49.0757 104.062 49.4184 104.062C50.0181 111.174 51.2605 120.213 53.1455 131.18C55.4589 144.461 56.9154 153.328 57.5152 157.784C58.372 156.927 58.7575 155.385 58.6719 153.157C63.3843 154.871 66.5545 154.228 68.1824 151.229C69.4676 148.83 69.8103 144.675 69.2106 138.763C68.9535 136.192 68.0539 130.709 66.5116 122.312C65.3121 115.715 64.798 111.131 64.9694 108.56C66.0832 108.732 67.3684 108.689 68.825 108.432C70.2816 108.089 71.5239 107.961 72.5521 108.046C72.5521 107.961 72.7235 109.289 73.0662 112.03C73.7516 111.688 73.8802 111.045 73.4518 110.103C73.0233 108.903 72.8948 108.003 73.0662 107.404C79.4922 107.061 84.7187 106.333 88.7457 105.219C89.3455 105.99 90.0309 107.404 90.802 109.46C91.4875 111.602 92.1301 113.059 92.7299 113.83C92.9012 114.601 92.6013 115.158 91.8302 115.501C90.8877 115.843 90.4165 116.229 90.4165 116.657C91.2733 117.171 92.0872 117.3 92.8584 117.043C93.0297 116.957 93.3725 116.829 93.8865 116.657C94.3149 116.4 94.7005 116.229 95.0432 116.143C92.7299 112.802 91.1876 109.16 90.4165 105.219C91.4446 105.133 92.9869 104.919 95.0432 104.576ZM20.8868 115.886C19.2589 118.628 17.8023 120.813 16.5171 122.441C14.9748 124.326 13.2184 125.482 11.2477 125.911C11.2477 126.168 10.4766 120.984 8.93436 110.36C7.73483 102.049 7.17791 97.8075 7.26359 97.6362C7.43495 96.5223 11.0764 92.2811 18.1879 84.9126C25.4707 77.3727 29.3263 73.3457 29.7547 72.8317H33.2248C33.3105 72.3176 32.9677 72.1034 32.1966 72.1891C31.0828 72.2747 30.483 72.2747 30.3973 72.1891C31.0828 71.5893 33.0962 69.3616 36.4378 65.506C38.9225 62.5928 40.936 60.7936 42.4783 60.1081C43.078 61.1363 42.9067 62.293 41.9642 63.5782C40.3362 65.5488 39.5223 66.4913 39.5223 66.4056C39.9507 66.9197 40.4648 66.7055 41.0645 65.763C42.007 64.3064 42.4783 63.5782 42.4783 63.5782C44.1919 66.834 44.3632 70.3041 42.9923 73.9883C42.821 74.3311 40.936 77.8011 37.3374 84.3985C35.8809 86.8832 33.7389 90.9959 30.9114 96.7365C27.8269 102.991 25.5564 107.489 24.0998 110.231C25.9848 106.804 29.3263 100.549 34.1244 91.4672C38.3228 83.4989 41.6643 77.287 44.149 72.8317C44.6631 73.8598 45.0915 75.7448 45.4342 78.4866C45.6913 81.3997 46.034 83.3703 46.4624 84.3985C45.0915 91.9384 41.5358 98.8357 35.7952 105.09C33.8245 107.232 31.1256 109.803 27.6984 112.802C22.8146 117.086 20.03 119.528 19.3445 120.127C19.2589 120.556 19.1303 120.684 18.959 120.513C18.8733 120.256 18.8305 119.956 18.8305 119.613C19.1732 119.013 19.8586 117.771 20.8868 115.886ZM76.2792 58.9514C77.7358 61.6075 78.0357 63.7067 77.1789 65.2489C75.7223 64.3921 74.6513 62.5928 73.9658 59.8511C73.7945 59.1656 73.5803 57.9233 73.3232 56.124C73.0662 54.5817 72.8092 53.425 72.5521 52.6539C72.8092 53.3394 73.3661 54.3247 74.2229 55.6099C75.251 57.2378 75.9365 58.3517 76.2792 58.9514ZM54.5592 34.661C53.9594 34.5753 53.5739 34.7895 53.4025 35.3036C53.1455 34.9609 52.8028 34.404 52.3744 33.6328C51.8603 32.9474 51.4747 32.4333 51.2177 32.0906C50.1895 30.9767 48.8186 30.5055 47.105 30.6769C49.0757 28.7919 50.4037 28.4063 51.0891 29.5202C50.8321 29.6059 50.8321 29.0061 51.0891 27.7209C51.6889 27.8066 52.2887 27.7209 52.8884 27.4639C53.2312 27.2925 53.6167 27.3782 54.0451 27.7209C53.9594 28.0636 53.8309 28.1921 53.6596 28.1065C53.4882 28.0208 53.4025 27.8923 53.4025 27.7209C53.3168 28.0636 53.6167 29.0918 54.3022 30.8054C54.9876 32.4333 55.0733 33.7185 54.5592 34.661ZM80.0063 27.7209C77.4359 29.4345 75.8936 30.8054 75.3796 31.8336C76.4077 28.4063 80.8631 24.7221 88.7457 20.7808C88.66 21.3805 88.8314 21.9803 89.2598 22.5801C89.6882 23.1798 89.9024 23.7368 89.9024 24.2508C88.1888 24.7649 86.1325 25.7074 83.7334 27.0783C81.163 28.6205 79.1495 29.6059 77.6929 30.0343C77.8643 29.7772 78.2927 29.4345 78.9781 29.0061C79.5779 28.6634 79.9206 28.235 80.0063 27.7209ZM92.7299 54.3247V51.4972C91.616 50.3834 90.288 50.0407 88.7457 50.4691C87.0321 50.9831 86.4323 52.2683 86.9464 54.3247C87.7176 55.0101 88.7029 55.3528 89.9024 55.3528C91.0163 55.3528 91.9587 55.0101 92.7299 54.3247ZM82.9623 43.9145C80.2205 43.8288 78.4641 44.2144 77.6929 45.0712C80.092 45.1569 81.8484 44.7713 82.9623 43.9145ZM64.9694 55.4814C64.9694 57.2807 65.5692 58.4373 66.7687 58.9514C67.0257 57.2378 66.4259 56.0811 64.9694 55.4814ZM62.656 46.8705H62.7845C63.6413 46.8705 64.4981 46.3136 65.3549 45.1997C66.2118 44.0002 66.0832 43.4004 64.9694 43.4004C64.1983 44.4286 63.47 45.5853 62.7845 46.8705H62.656C59.9999 51.6686 59.0574 56.0811 59.8286 60.1081C59.9142 58.5659 60.4712 56.2096 61.4993 53.0395C62.4418 50.2977 62.8274 48.2414 62.656 46.8705ZM62.656 45.0712C63.5128 45.4996 63.8984 44.5571 63.8127 42.2437C62.5275 41.9867 61.7135 42.5865 61.3708 44.043C61.1994 44.5571 61.2423 44.9427 61.4993 45.1997C61.7564 45.4568 62.1419 45.4139 62.656 45.0712ZM84.633 31.8336C80.092 31.1481 76.065 32.6904 72.5521 36.4603C74.0944 33.1188 80.0491 29.2631 90.4165 24.8934C94.1007 35.7749 96.5855 47.1275 97.8707 58.9514C96.2428 57.4949 94.7005 56.8951 93.2439 57.1521C92.3871 57.9233 92.0444 58.7372 92.2158 59.594C92.3871 60.2795 92.8584 60.8792 93.6295 61.3933C94.4863 61.9074 95.3003 62.0788 96.0714 61.9074C97.0139 61.736 97.6136 61.1363 97.8707 60.1081C98.9845 64.9919 99.7557 69.79 100.184 74.5024C99.4129 74.4167 98.2991 74.5453 96.8425 74.888C95.5573 75.2307 94.3578 75.3164 93.2439 75.145C84.1618 62.2073 78.5926 54.7102 76.5362 52.6539C77.9928 54.7102 80.7346 58.523 84.7616 64.0923C88.1888 68.8904 90.8449 72.746 92.7299 75.6591C91.7874 75.5734 90.6307 75.702 89.2598 76.0447C87.8889 76.3017 86.7322 76.3874 85.7897 76.3017C83.6477 71.7607 81.7199 68.0764 80.0063 65.2489C79.9206 64.6492 80.2633 64.0494 81.0345 63.4496C81.7199 62.8499 81.977 62.1216 81.8056 61.2648C81.4629 60.5794 80.9488 60.5365 80.2634 61.1363C79.5779 61.736 79.3209 62.3358 79.4922 62.9356C79.0638 62.5928 77.136 59.1656 73.7088 52.6539C72.5949 50.5119 73.1519 51.2402 75.3796 54.8388C75.808 53.8963 75.3796 52.6539 74.0944 51.1117C72.6378 49.3981 71.9095 47.9843 71.9095 46.8705C70.71 48.327 70.7528 52.6111 72.038 59.7225C73.2375 66.4913 72.6378 70.6468 70.2387 72.1891C70.1531 71.5893 69.9817 70.3898 69.7247 68.5905C69.3819 66.7912 69.1677 65.4203 69.082 64.4778C68.7393 60.9649 69.1249 58.523 70.2387 57.1521C70.2387 60.9221 70.4101 63.2354 70.7528 64.0923C70.6671 64.3493 70.4958 60.5365 70.2387 52.6539C68.4394 55.31 67.7968 59.8939 68.3109 66.4056C68.7393 71.9749 67.4541 75.8305 64.4553 77.9725C64.4553 78.0582 64.8409 72.6603 65.612 61.7789C64.3268 63.4068 63.5557 66.1057 63.2986 69.8757C63.2129 70.5611 63.1273 72.2319 63.0416 74.888C62.9559 76.9443 62.8274 78.5723 62.656 79.7718C61.6278 79.6861 61.0709 79.8575 60.9852 80.2859C59.1003 76.773 58.8432 72.1034 60.2141 66.2771C60.3855 65.4203 60.9852 63.1926 62.0134 59.594C62.6989 57.0236 63.1273 55.0958 63.2986 53.8106C61.2423 57.4092 59.8714 61.8217 59.1859 67.0482C57.6437 64.6492 57.1725 61.6075 57.7722 57.9233C58.2863 54.8388 59.3573 52.097 60.9852 49.6979C61.4993 51.1545 60.8996 51.7543 59.1859 51.4972C58.7575 51.7543 58.9289 51.2402 59.7 49.955C60.8139 48.07 61.4136 47.0418 61.4993 46.8705C60.2998 46.7848 58.7575 49.2695 56.8726 54.3247C56.2728 52.9538 56.6155 51.4115 57.9007 49.6979C60.0428 46.8705 61.0709 45.5424 60.9852 45.7138C60.2998 45.3711 59.4858 45.928 58.5433 47.3846C57.4295 49.1839 56.487 50.1692 55.7159 50.3405C55.9729 49.141 56.6584 47.9843 57.7722 46.8705C59.2288 45.3282 60.0856 44.3429 60.3426 43.9145C59.0574 44.0859 57.7294 45.2426 56.3585 47.3846C55.2446 46.6134 55.5445 45.6709 57.2581 44.5571C57.7722 44.1287 58.5434 43.7003 59.5715 43.2719C60.6854 42.6721 61.328 42.3294 61.4993 42.2437C61.328 41.5583 60.8567 41.3869 60.0856 41.7296C59.2288 41.9867 58.7575 42.3294 58.6719 42.7578C57.9864 42.5008 58.0721 42.0724 58.9289 41.4726C59.7857 40.8728 60.6425 40.7443 61.4993 41.087C61.1566 40.4016 60.771 40.016 60.3426 39.9304C60.9424 39.759 61.9706 39.8875 63.4271 40.3159C64.8837 40.7443 66.3831 40.7872 67.9254 40.4444C66.9829 41.3869 67.0686 42.3723 68.1824 43.4004C69.2962 44.3429 70.1531 44.5143 70.7528 43.9145C70.7528 43.4004 70.2387 42.8435 69.2106 42.2437C68.4394 41.7296 68.1824 40.9585 68.4394 39.9304C69.1249 39.8447 70.4101 39.4591 72.2951 38.7737C73.8373 38.2596 75.251 38.0454 76.5362 38.1311C76.1935 37.2743 75.251 37.1029 73.7088 37.617C72.3379 38.1311 71.5668 37.7455 71.3954 36.4603C70.71 36.1176 73.1947 35.732 78.8496 35.3036C78.6783 34.7039 78.3355 34.5753 77.8215 34.9181C77.0503 35.3465 76.4506 35.475 76.0222 35.3036C76.7933 34.5325 79.6636 33.3758 84.633 31.8336ZM52.7599 25.9216H52.8884C52.8884 26.0073 52.8884 26.0501 52.8884 26.0501C52.9741 26.0501 52.9313 26.0501 52.7599 26.0501V25.9216ZM52.8884 25.9216C51.4319 24.208 50.8321 22.4944 51.0891 20.7808C52.2887 20.9521 52.8028 21.6804 52.6314 22.9656C52.5457 24.4222 52.8028 25.2362 53.4025 25.4075C53.4025 25.4932 53.2312 25.6646 52.8884 25.9216ZM48.2617 28.8776C46.1197 30.0771 44.5774 31.0624 43.6349 31.8336C42.9495 31.4908 42.5639 30.634 42.4783 29.2631C42.4783 28.8347 42.4783 28.1921 42.4783 27.3353C42.4783 26.4785 42.4783 25.8359 42.4783 25.4075C43.4207 25.3218 44.4061 25.7931 45.4342 26.8212C46.291 27.7637 47.4049 28.0636 48.7758 27.7209C49.7183 26.9498 50.318 25.7931 50.5751 24.2508C50.9178 24.3365 51.3033 24.6364 51.7318 25.1505C52.0745 25.6646 52.4172 25.9644 52.7599 26.0501C51.9031 26.7356 50.4037 27.6781 48.2617 28.8776ZM74.8655 14.4833C74.3514 14.3119 73.9658 15.4686 73.7088 17.9533C73.2804 18.5531 73.109 18.5531 73.1947 17.9533C73.5374 16.7538 73.7088 16.154 73.7088 16.154C73.2804 17.5249 72.8948 18.3817 72.5521 18.7244C72.2951 19.0672 72.2094 18.9387 72.2951 18.3389C72.3807 16.711 73.2375 15.4257 74.8655 14.4833ZM77.6929 24.8934C77.4359 23.951 76.6648 24.5079 75.3796 26.5642C77.0932 21.4234 80.1777 17.3964 84.633 14.4833C84.5474 15.2544 85.1471 16.0255 86.4323 16.7966C86.518 16.6253 82.6624 21.0378 74.8655 30.0343C73.7516 28.7491 74.6941 27.0354 77.6929 24.8934ZM74.6084 20.9093C76.065 18.4246 77.4787 17.225 78.8496 17.3107C77.8215 16.711 77.7358 15.8113 78.5926 14.6118C79.8778 12.9839 80.5632 11.9557 80.6489 11.5273C81.163 11.4416 81.5914 11.613 81.9341 12.0414C82.2768 12.4698 82.6196 12.684 82.9623 12.684C82.4482 14.5689 81.2487 16.5824 79.3637 18.7244C77.3074 21.2949 75.9793 23.137 75.3796 24.2508C74.9512 23.9938 75.0797 23.394 75.7651 22.4515C76.6219 21.3377 77.0932 20.6094 77.1789 20.2667C76.4077 20.7808 74.8655 22.8799 72.5521 26.5642C72.6378 25.022 73.3232 23.137 74.6084 20.9093ZM75.6366 18.5959C73.5803 21.5947 72.3379 23.6939 71.9095 24.8934C71.6525 23.6939 73.4089 19.8383 77.1789 13.3266C77.7786 13.4123 78.1642 13.1981 78.3355 12.684C78.1642 14.0549 77.2645 16.0255 75.6366 18.5959ZM79.2352 11.6558C78.3784 11.9985 77.8643 12.3412 77.6929 12.684C77.1788 12.5983 77.1788 12.2556 77.6929 11.6558C78.207 10.8847 78.4212 10.2849 78.3355 9.85652C78.6783 9.85652 79.021 9.9422 79.3637 10.1136C79.7921 10.3706 80.2205 10.4563 80.6489 10.3706C80.5632 10.9704 80.092 11.3988 79.2352 11.6558ZM4.95022 43.4004H1.99424C1.56584 44.857 2.07992 45.5853 3.53649 45.5853C4.90738 45.5853 5.37862 44.857 4.95022 43.4004ZM11.7618 34.5325C13.3041 33.5043 14.118 32.2191 14.2037 30.6769C14.2894 29.1346 13.861 27.9779 12.9185 27.2068C12.1474 26.5214 11.2049 26.35 10.091 26.6927C7.26359 27.5495 6.1069 30.0343 6.62099 34.1469C8.42028 35.4321 10.1339 35.5607 11.7618 34.5325ZM32.5822 9.728C34.4671 11.5273 35.838 12.5126 36.6948 12.684C35.9237 12.3412 34.4671 10.9704 32.3251 8.57131C30.6115 6.60066 29.1978 5.65817 28.0839 5.74385C28.8551 6.25794 30.3545 7.58599 32.5822 9.728ZM19.7301 43.0149C20.3299 44.8141 20.8011 45.8852 21.1438 46.2279C12.2331 52.8253 5.84986 57.2378 1.99424 59.4655C-1.09026 47.9843 0.109272 37.617 5.59282 28.3635C5.76418 28.1065 11.5048 21.1663 22.8146 7.54314C23.0716 7.62882 23.2858 8.39995 23.4572 9.85652C24.057 9.42812 25.2136 8.10007 26.9273 5.87238C28.2981 4.15877 29.8404 3.17344 31.554 2.9164C32.2394 2.9164 32.8392 3.25912 33.3533 3.94456C33.9531 4.71569 34.51 5.14409 35.0241 5.22977C34.9384 4.97273 34.6813 4.54433 34.2529 3.94456C33.9102 3.43048 33.7817 2.87356 33.8674 2.2738C36.5235 2.10244 38.2371 1.75971 39.0082 1.24563C39.7793 1.75971 40.5933 2.78788 41.4501 4.33013C42.3069 5.95806 43.0352 7.02906 43.6349 7.54314C42.6925 7.97155 42.4783 8.91403 42.9923 10.3706C43.5921 12.2556 43.8063 13.6265 43.6349 14.4833C43.2065 14.1405 42.3926 13.2409 41.1931 11.7843C40.1649 10.5848 39.2652 9.728 38.4941 9.21391C42.3497 13.4123 44.0633 15.3401 43.6349 14.9973C42.1784 17.5678 41.4073 21.8089 41.3216 27.7209C40.3791 28.3207 39.1367 29.3917 37.5945 30.9339C36.0522 32.4762 34.8099 33.5472 33.8674 34.1469C33.696 31.2338 32.4965 28.3635 30.2688 25.536C27.6984 22.1945 26.199 19.6669 25.7706 17.9533C25.3422 18.296 24.6567 18.7244 23.7142 19.2385C22.7718 19.8383 22.1292 20.2667 21.7864 20.5237C20.3299 21.7233 19.5159 23.1798 19.3445 24.8934C19.7729 25.4075 20.2442 25.2362 20.7583 24.3794C21.358 23.1798 21.8721 22.5801 22.3005 22.5801C23.8428 23.0941 25.5564 23.2655 27.4413 23.0942C29.0693 32.8617 29.8404 37.874 29.7547 38.1311C29.0693 40.7015 27.4842 41.8153 24.9994 41.4726C20.6297 40.7015 18.1878 40.3588 17.6738 40.4444C18.6163 40.7015 19.3017 41.5583 19.7301 43.0149ZM10.9907 20.1382C7.39211 23.9081 5.16442 26.8213 4.30761 28.8776C5.33578 21.8518 9.4056 16.0684 16.5171 11.5273C16.1744 13.9263 14.3322 16.7966 10.9907 20.1382ZM19.0875 9.34243C20.03 8.31427 21.101 7.71451 22.3005 7.54314C21.9578 8.14291 21.2723 8.91403 20.2442 9.85652C19.216 10.799 18.5306 11.5701 18.1879 12.1699C17.6738 11.3988 17.9736 10.4563 19.0875 9.34243ZM105.453 108.946C105.882 111.174 106.053 112.973 105.967 114.344C105.282 113.401 104.34 111.773 103.14 109.46C102.026 107.232 101.041 105.604 100.184 104.576C100.27 103.805 100.869 103.42 101.983 103.42C102.24 103.42 102.712 103.42 103.397 103.42C104.083 103.42 104.554 103.42 104.811 103.42C104.811 104.79 105.025 106.633 105.453 108.946ZM47.2335 93.7805C46.5481 95.9225 45.1344 97.2077 42.9923 97.6362C43.2494 96.608 43.7635 94.9801 44.5346 92.7524C45.22 90.7817 45.6913 89.1538 45.9483 87.8686C47.4906 89.5822 47.919 91.5528 47.2335 93.7805ZM67.0257 77.4584C67.7968 76.773 68.2681 76.1732 68.4394 75.6591C68.0967 75.6591 68.3109 76.8158 69.082 79.1292H65.612C65.7834 78.6151 66.2546 78.0582 67.0257 77.4584ZM74.8655 77.9725C72.8092 78.4866 71.2669 78.7008 70.2387 78.6151C69.896 76.7301 70.0674 75.1879 70.7528 73.9883C70.6671 74.074 71.4383 73.0887 73.0662 71.0324C73.4946 71.7178 73.8373 72.8316 74.0944 74.3739C74.3514 76.2589 74.6084 77.4584 74.8655 77.9725ZM75.3796 68.719C75.3796 68.719 76.5363 71.6321 78.8496 77.4584C78.5069 77.4584 77.9928 77.5869 77.3074 77.844C76.7076 78.101 76.065 78.1439 75.3796 77.9725C75.3796 77.5441 75.1225 75.8733 74.6084 72.9602C74.18 70.9895 74.4371 69.5758 75.3796 68.719ZM82.0626 70.6468C83.4335 73.3886 84.5045 75.2735 85.2757 76.3017C84.7616 76.6444 83.9476 76.9015 82.8338 77.0728C81.2915 77.1585 80.349 77.287 80.0063 77.4584C79.8349 76.773 79.4922 75.7448 78.9781 74.3739C78.2927 72.8316 77.8643 71.7607 77.6929 71.1609C76.9218 68.5048 77.3074 66.5341 78.8496 65.2489C79.7921 66.3628 80.8631 68.1621 82.0626 70.6468ZM72.5521 58.3088C74.6084 62.7642 75.3796 65.8487 74.8655 67.5623C73.8373 67.0482 73.2376 65.763 73.0662 63.7067C72.6378 59.7654 72.4664 57.9661 72.5521 58.3088ZM27.4413 72.1891C27.4413 72.3604 27.8269 72.5746 28.598 72.8317C27.3128 74.0312 23.7142 77.9725 17.8023 84.6556C13.4326 89.7107 9.70548 93.0951 6.62099 94.8087C6.62099 95.0657 6.06406 90.439 4.95022 80.9285C8.12039 78.7008 14.1609 73.9455 23.0716 66.6627C30.5258 60.665 36.7805 56.1668 41.8357 53.168C41.9213 53.0823 41.7071 53.8963 41.1931 55.6099C41.1931 55.6099 41.6215 55.9526 42.4783 56.6381C41.4501 58.8657 39.3938 61.5218 36.3093 64.6063C32.9677 67.8622 30.7829 70.3898 29.7547 72.1891H27.4413ZM54.5592 42.7578C54.6449 41.3012 55.416 40.5301 56.8726 40.4444C57.1296 41.7297 56.3585 42.5008 54.5592 42.7578ZM70.3673 35.5607C70.6243 36.1604 70.5815 36.6317 70.2387 36.9744C68.8678 35.8605 68.0967 34.9181 67.9254 34.1469H70.7528C70.3244 34.5753 70.1959 35.0466 70.3673 35.5607ZM69.9817 30.2913C69.3819 31.8336 69.082 32.519 69.082 32.3476C68.3966 32.0906 68.2252 31.6194 68.568 30.9339C69.082 29.9914 69.2534 29.306 69.082 28.8776C70.0245 28.7919 70.3244 29.2631 69.9817 30.2913ZM55.2018 35.3036C55.2018 35.1323 55.5874 34.9181 56.3585 34.661C56.7869 34.3183 57.1725 33.7614 57.5152 32.9902C58.2863 32.9902 59.1003 33.5472 59.9571 34.661C60.7282 35.6892 61.0709 36.2889 60.9852 36.4603C61.1566 36.7173 62.0134 36.5031 63.5557 35.8177C65.0122 35.1323 65.869 34.9609 66.1261 35.3036C65.9547 34.8752 65.6977 34.0612 65.3549 32.8617C65.0979 31.8336 64.798 31.1053 64.4553 30.6769C63.9412 30.7625 63.8984 31.1053 64.3268 31.705C64.9265 32.4762 65.1407 33.0759 64.9694 33.5043C64.2839 32.9046 63.8555 32.6475 63.6842 32.7332C63.6842 32.7332 63.5128 32.8617 63.1701 33.1188C62.8274 33.2901 62.4846 33.4186 62.1419 33.5043C61.4565 32.8189 61.4136 32.0478 62.0134 31.191C62.6989 30.0771 62.9131 29.1346 62.656 28.3635C65.3978 29.4773 67.1542 30.0343 67.9254 30.0343C67.1542 30.8054 66.7687 32.0478 66.7687 33.7614C66.7687 35.475 67.1542 36.9315 67.9254 38.1311C66.9829 37.617 66.5116 37.4456 66.5116 37.617C66.5973 38.0454 66.683 38.2168 66.7687 38.1311C65.1407 39.3306 63.2986 39.2021 61.2423 37.7455C58.6719 35.9462 56.6584 35.1323 55.2018 35.3036ZM60.3426 22.5801C61.0281 23.1798 61.4136 24.3365 61.4993 26.0501C62.0991 25.7074 62.2276 25.1505 61.8849 24.3794C61.4565 23.3512 61.328 22.5372 61.4993 21.9375C63.0416 23.2227 63.2558 25.1505 62.1419 27.7209C60.0856 25.5789 59.4858 23.8653 60.3426 22.5801ZM63.2986 20.7808C64.1554 21.8946 64.541 24.0366 64.4553 27.2068C63.5985 26.093 63.2129 23.951 63.2986 20.7808ZM83.3478 22.7086C81.7199 24.1652 80.4347 25.0648 79.4922 25.4075C79.9206 24.6364 81.0345 23.4369 82.8338 21.8089C84.376 20.4381 85.3613 19.1528 85.7897 17.9533C86.5609 17.8676 87.1606 18.6388 87.589 20.2667C86.3038 20.6094 84.8901 21.4234 83.3478 22.7086ZM70.3673 17.9533C70.6243 17.4392 70.7528 17.0537 70.7528 16.7966C71.3526 17.3107 71.3954 18.0818 70.8813 19.11C70.2816 20.3952 70.0674 21.3377 70.2387 21.9375C69.639 21.5091 69.5105 20.6951 69.8532 19.4956C69.9389 19.1528 70.1102 18.6388 70.3673 17.9533ZM58.8004 18.4674C58.7147 17.6106 58.6719 17.0537 58.6719 16.7966C59.2716 17.0537 59.6572 17.8248 59.8286 19.11C59.9999 20.7379 60.1713 21.6804 60.3426 21.9375C59.5715 21.8518 59.1003 21.2092 58.9289 20.0097C58.8432 19.6669 58.8004 19.1528 58.8004 18.4674ZM48.7758 14.9973C48.8615 16.4539 48.4759 17.4392 47.6191 17.9533C46.848 17.9533 46.3339 17.3964 46.0768 16.2826C45.9055 15.2544 46.034 14.4404 46.4624 13.8407C46.8051 14.012 47.1907 14.2262 47.6191 14.4833C48.1332 14.7403 48.5187 14.9117 48.7758 14.9973ZM60.9852 12.1699C61.0709 12.4269 61.4565 15.5114 62.1419 21.4234C61.0281 20.6523 60.3855 19.1528 60.2141 16.9252C60.0428 14.8688 60.2998 13.2837 60.9852 12.1699ZM51.7318 8.69983C53.3597 11.7843 54.3022 14.2691 54.5592 16.154C53.4454 15.3829 52.46 14.1834 51.6032 12.5555C50.7464 10.7562 50.7893 9.47095 51.7318 8.69983ZM49.9325 11.0132C50.6179 12.4698 51.2177 13.4123 51.7318 13.8407C51.7318 14.1834 51.389 14.4404 50.7036 14.6118C50.1895 14.7831 49.9325 15.1259 49.9325 15.6399C48.6473 13.9263 47.919 12.8125 47.7476 12.2984C47.1478 10.9275 47.3192 9.5138 48.2617 8.05723C48.7758 8.57131 49.3327 9.55663 49.9325 11.0132ZM74.994 12.2984C74.5656 12.2984 74.3086 12.8125 74.2229 13.8407C73.7088 13.2409 73.7516 12.2556 74.3514 10.8847C75.0368 9.17107 75.3796 8.05723 75.3796 7.54314C76.2364 7.45746 77.0075 8.01439 77.6929 9.21391C76.4934 12.127 75.5509 13.6693 74.8655 13.8407C75.3796 12.8125 75.4224 12.2984 74.994 12.2984ZM62.2705 14.3547C62.2705 11.9557 62.6132 9.85652 63.2986 8.05723C63.8984 8.57131 64.0697 10.4134 63.8127 13.5836C63.47 17.0965 63.47 19.3242 63.8127 20.2667C62.7845 18.9815 62.2705 17.0108 62.2705 14.3547ZM54.1736 12.5555C53.1455 10.2421 52.8884 8.18575 53.4025 6.38646C54.9448 8.69983 56.1015 12.5555 56.8726 17.9533C56.6155 17.3536 56.1871 16.4539 55.5874 15.2544C54.9019 14.0549 54.4307 13.1552 54.1736 12.5555ZM74.8655 6.38646C72.8948 12.2984 71.7381 15.5543 71.3954 16.154C71.0527 15.2115 71.2241 13.6265 71.9095 11.3988C72.7663 8.82835 73.1519 6.94338 73.0662 5.74385C73.666 6.17226 74.2657 6.38646 74.8655 6.38646ZM71.1384 11.0132C70.6243 13.5836 70.1102 15.5114 69.5961 16.7966C69.1677 15.5971 69.2534 13.6693 69.8532 11.0132C70.5386 8.01439 70.8385 5.87238 70.7528 4.58717C71.3526 5.01557 71.9523 5.22977 72.5521 5.22977C72.2094 6.34362 71.7381 8.27143 71.1384 11.0132ZM69.5961 4.07309C69.1677 9.728 68.3966 14.5261 67.2828 18.4674C66.8544 17.0965 66.8972 14.7831 67.4113 11.5273C67.9254 7.84303 68.0967 5.14409 67.9254 3.43048C68.2681 3.43048 68.568 3.51616 68.825 3.68752C69.1677 3.94456 69.4248 4.07309 69.5961 4.07309ZM65.612 2.9164H67.2828C66.5116 10.4563 66.1261 15.8541 66.1261 19.11C64.9266 17.4821 64.7552 12.0842 65.612 2.9164ZM61.4993 1.75971C62.6989 1.58835 63.6842 1.75971 64.4553 2.2738C64.6267 3.38764 64.4125 4.33013 63.8127 5.10125C63.0416 6.04373 62.656 6.8577 62.656 7.54314C61.7992 6.4293 61.4136 4.50149 61.4993 1.75971ZM58.0293 1.24563H59.1859C60.4712 1.58835 61.1566 3.43048 61.2423 6.77202C61.328 10.1136 60.6425 11.9128 59.1859 12.1699C59.2716 11.3131 58.8861 7.67166 58.0293 1.24563ZM42.4783 1.24563C42.3069 0.902907 42.6925 2.23095 43.6349 5.22977C43.1209 5.05841 42.6068 4.50149 42.0927 3.559C41.5786 2.61652 41.1074 2.01675 40.679 1.75971C40.7647 1.50267 41.3644 1.33131 42.4783 1.24563ZM53.4025 0.603027H56.3585C58.4148 7.88587 58.9717 13.0695 58.0293 16.154C56.8297 13.6693 55.2875 8.48563 53.4025 0.603027ZM45.9483 0.603027H49.9325C49.9325 1.11711 49.7183 1.97391 49.2899 3.17344C49.0328 4.11592 48.8615 4.97273 48.7758 5.74385C47.5762 4.20161 46.6338 2.488 45.9483 0.603027ZM45.8198 2.53084C46.2482 3.64468 46.6766 4.33013 47.105 4.58717C46.0768 5.70102 45.22 5.65818 44.5346 4.45865C43.9348 3.3448 43.8063 2.0596 44.149 0.603027C44.8345 0.774388 45.3914 1.41699 45.8198 2.53084Z" fill="white"/>
</svg>
