<svg width="217" height="246" viewBox="0 0 217 246" fill="none" xmlns="http://www.w3.org/2000/svg">
<path d="M108.4 195.098C114.238 197.159 114.925 197.502 114.925 203.34C114.925 215.017 114.925 226.349 114.925 237.682C114.925 244.207 113.552 245.581 107.37 244.551C81.957 241.46 59.2913 232.874 40.4033 215.36C35.252 210.896 30.7876 205.744 25.9797 200.593C23.5758 197.846 20.8284 194.755 22.5455 189.947C23.2324 187.886 20.485 184.796 19.1113 182.392C17.3942 179.301 14.9903 176.554 13.6166 173.806C11.5561 169.685 11.2127 164.877 6.40484 162.817C5.37458 162.473 5.03116 160.413 4.68774 159.383C1.59697 146.333 -2.52405 133.626 2.28381 120.233C2.97065 118.172 3.65749 115.425 2.97065 114.051C-1.4938 105.123 1.94039 96.537 4.34432 88.295C18.4245 42.6203 48.6454 14.4599 95.3503 3.47051C99.4714 2.44026 103.592 2.09683 107.713 1.41C113.208 0.72315 114.582 1.75341 114.925 6.90469C114.925 8.96522 114.925 11.0257 114.925 13.4296C113.895 25.7927 111.834 38.1558 105.309 48.8018C104.279 50.5189 102.219 52.236 100.502 52.9228C70.2808 63.5688 51.0493 95.8502 55.5137 132.596C58.6045 156.979 69.2505 176.554 91.5727 188.573C96.724 191.664 102.906 193.038 108.4 195.098ZM89.1688 10.3389L88.8254 10.6823C89.1688 11.0257 89.1688 11.0257 89.5122 11.3691C89.5122 11.0257 89.5122 10.6823 89.8556 10.3389C89.5122 10.3389 89.5122 10.3389 89.1688 10.3389ZM60.3216 202.997C62.7255 200.25 63.4124 192.007 61.3519 189.26C60.3216 188.23 57.9177 187.2 56.544 187.543C48.3019 191.321 39.7165 190.977 29.4139 190.29C31.131 192.007 31.4744 193.038 31.8178 193.038C37.9994 194.068 41.777 197.846 44.5243 202.997C45.5546 204.371 47.2717 206.088 48.6454 206.431C53.1098 207.118 57.2308 206.431 60.3216 202.997ZM132.44 49.8321C127.975 49.4886 126.258 47.0847 126.258 42.9637C126.258 30.6006 126.258 18.5809 126.258 6.21786C126.258 2.09683 128.319 0.379735 132.44 0.72315C140.338 1.41 148.237 2.09683 155.792 3.81392C177.427 7.93496 196.315 18.2375 212.456 33.348C213.143 34.0348 213.83 34.7216 214.517 35.7519C214.86 36.0953 214.86 36.7821 215.547 38.4992C208.679 46.3979 201.81 54.2965 194.942 62.5386C192.538 65.2859 189.791 68.0333 187.387 70.7806C183.266 75.2451 182.579 75.2451 177.771 71.4675C172.963 68.0333 168.499 64.2557 163.347 61.1649C154.075 55.3268 143.772 50.8623 132.44 49.8321ZM180.862 46.3979C180.518 46.3979 179.488 47.7715 179.488 48.4584C179.488 48.8018 180.518 50.1755 181.205 50.1755C181.892 50.1755 182.579 49.1452 183.609 48.115C182.579 47.4281 181.548 46.3979 180.862 46.3979ZM213.486 197.846C217.951 202.653 217.951 203.34 213.486 207.805C197.346 224.289 178.458 236.309 155.792 241.46C148.58 243.177 141.025 244.207 133.813 244.894C127.975 245.581 126.601 243.864 126.258 238.369C126.258 227.38 126.258 216.39 126.258 205.401C126.258 202.31 126.945 199.219 130.379 197.159C134.157 195.098 136.904 195.098 139.995 198.876C142.055 201.28 143.429 204.371 145.489 206.774C147.207 208.835 149.611 210.209 152.358 207.805C154.762 205.401 154.762 202.31 152.701 199.906C150.984 198.532 149.267 197.502 146.176 195.098C153.388 189.947 160.6 187.543 167.125 183.422C169.185 185.483 170.559 187.2 171.933 188.917C175.024 188.23 176.741 186.856 176.054 183.765C175.71 181.705 174.337 178.271 175.367 177.24C178.114 174.493 180.518 170.716 185.67 170.372C186.013 171.402 186.356 172.089 186.356 172.776C186.7 179.988 187.043 179.301 193.225 181.018C196.316 182.048 199.75 184.109 202.497 186.513C206.275 189.947 209.709 194.068 213.486 197.846ZM173.65 215.36C173.993 214.33 174.68 213.643 174.337 212.613C174.337 212.269 172.963 211.239 172.62 211.582C171.933 211.926 170.902 212.613 170.902 213.299C170.902 214.33 171.589 215.36 171.933 216.39C172.62 216.047 172.963 215.703 173.65 215.36ZM111.148 46.0545C111.148 46.0545 112.178 45.3676 112.521 45.3676C112.865 45.711 113.552 46.0545 114.238 46.7413C113.208 47.4281 112.865 47.7715 112.178 48.115C111.834 47.4281 111.491 46.7413 111.148 46.0545Z" fill="white"/>
</svg>
