<svg width="137" height="187" viewBox="0 0 137 187" fill="none" xmlns="http://www.w3.org/2000/svg">
<path d="M71.5434 0.345093H89.5363C92.6208 0.944856 94.1631 1.6303 94.1631 2.40142V3.42959L93.1349 4.97184V5.48592H94.6772C94.8485 5.48592 95.3626 5.1432 96.2194 4.45776H97.2476C100.075 8.39906 102.645 10.6267 104.959 11.1408C104.959 9.0845 105.816 8.05634 107.529 8.05634V4.45776H108.043C108.472 4.45776 109.329 5.65728 110.614 8.05634C110.699 6.34273 111.214 5.48592 112.156 5.48592C116.954 5.48592 120.895 10.1127 123.98 19.3662V27.0774C123.98 35.4741 121.067 42.3285 115.24 47.6407C113.098 49.3543 110.014 50.2111 105.987 50.2111L86.4518 47.6407C82.3392 47.6407 78.0552 49.0116 73.5998 51.7534C71.8862 51.7534 71.0294 52.0961 71.0294 52.7815C72.743 52.7815 73.5998 53.1243 73.5998 53.8097C73.0857 55.1806 72.5716 55.866 72.0575 55.866L69.4871 53.8097H68.973C68.973 55.1806 69.8298 55.866 71.5434 55.866V56.8942C71.5434 57.5796 71.2007 57.9224 70.5153 57.9224C70.5153 57.2369 70.1726 56.8942 69.4871 56.8942H68.4589C68.4589 57.5796 68.2876 57.9224 67.9449 57.9224C67.9449 58.3508 68.8017 59.2076 70.5153 60.4928V61.5209H69.4871C67.0881 60.8355 65.8885 59.636 65.8885 57.9224H65.3745V59.9787C66.7453 60.6641 67.4308 61.6923 67.4308 63.0632C67.0881 63.0632 66.9167 63.2346 66.9167 63.5773L65.8885 63.0632H65.3745C65.3745 63.7486 64.5176 64.6054 62.804 65.6336C64.5176 66.062 65.3745 66.5761 65.3745 67.1759C65.0317 67.7756 64.8604 68.4611 64.8604 69.2322C65.5458 69.3179 65.8885 69.6606 65.8885 70.2604L61.7759 73.8589L60.7477 71.8026C61.0904 71.2028 61.2618 70.5174 61.2618 69.7463V69.2322H60.7477C60.3193 69.2322 59.4625 70.089 58.1773 71.8026V72.8308C60.2336 72.8308 62.29 75.9153 64.3463 82.0843C64.3463 84.3976 63.3181 86.2826 61.2618 87.7392V88.2533C61.2618 89.0244 61.4332 89.7098 61.7759 90.3096C60.7477 92.0232 60.2336 93.2227 60.2336 93.9082C62.9754 96.0502 64.3463 97.2497 64.3463 97.5067C61.9472 98.5349 60.2336 100.934 59.2055 104.704H58.1773V105.732H58.6914C59.3768 105.389 59.8909 105.218 60.2336 105.218L60.7477 106.246L59.2055 108.302C60.405 108.302 61.0904 109.673 61.2618 112.415V113.957C63.5752 117.299 65.9742 119.698 68.4589 121.155C68.1162 121.84 67.9449 122.354 67.9449 122.697C68.2876 123.382 68.4589 123.896 68.4589 124.239L69.4871 123.725H71.0294V129.38L72.0575 128.866H73.0857C80.1972 136.748 87.9084 140.69 96.2194 140.69C98.8755 140.69 106.073 139.319 117.811 136.577H119.867C129.378 136.577 135.033 144.974 136.832 161.767V166.908C136.832 176.504 127.921 183.187 110.1 186.957H72.0575C61.4331 184.472 56.121 182.93 56.121 182.33V181.816H55.6069L52.0083 182.33C51.3229 181.474 50.9801 180.96 50.9801 180.788C51.3229 180.103 51.4942 179.589 51.4942 179.246H50.9801C50.3804 179.589 49.6949 179.76 48.9238 179.76C47.2102 178.218 46.3534 177.361 46.3534 177.19C45.2395 177.875 44.3827 178.218 43.783 178.218L43.2689 177.19L43.783 176.161H38.1281L38.6421 173.591C36.9285 173.591 36.0717 173.248 36.0717 172.563L32.9872 170.507C32.9872 168.793 32.4732 167.936 31.445 167.936H30.9309L29.9027 168.45L30.4168 169.478V170.507H29.9027C29.2173 170.507 28.8746 170.164 28.8746 169.478L27.8464 169.992H27.3323C26.6469 169.992 26.3042 169.65 26.3042 168.964L28.3605 167.936L27.8464 166.908L28.3605 163.823C28.0178 163.138 27.8464 162.624 27.8464 162.281C28.1891 162.281 28.3605 162.11 28.3605 161.767H27.3323C27.0753 161.767 26.2185 162.624 24.7619 164.337C22.3629 163.566 20.4779 162.367 19.107 160.739V160.225L21.1633 158.169C20.8206 156.284 20.6493 154.741 20.6493 153.542H17.0507C16.3652 153.542 16.0225 152.685 16.0225 150.971L14.9943 151.485C14.4803 151.485 13.7948 150.286 12.938 147.887L13.4521 144.802V144.288L12.4239 142.746C13.1094 142.746 13.6235 141.375 13.9662 138.633C12.938 138.633 12.4239 138.119 12.4239 137.091H10.8817C10.8817 137.434 11.2244 138.805 11.9098 141.204L8.82535 143.774C8.1399 143.774 7.79718 143.431 7.79718 142.746V142.232L9.33943 140.176V139.662C7.96854 138.034 7.2831 136.32 7.2831 134.521C7.96854 133.407 8.31126 132.379 8.31126 131.436C6.51197 128.352 5.31245 126.809 4.71268 126.809L4.1986 125.781L4.71268 124.753C3.59884 118.756 2.74203 115.328 2.14227 114.471C2.31363 113.443 3.17043 112.244 4.71268 110.873C4.1986 110.873 3.68452 110.359 3.17043 109.331V108.817C3.17043 108.474 3.34179 108.302 3.68452 108.302C2.65635 106.332 1.79955 103.933 1.1141 101.105C1.45682 100.677 1.62819 99.8201 1.62819 98.5349C0.857062 98.5349 0.342979 96.8213 0.0859375 93.3941L1.1141 92.88C1.28546 92.88 1.79955 93.2227 2.65635 93.9082L3.17043 92.88L1.1141 90.8237L1.62819 89.7955L2.65635 90.3096C3.34179 90.3096 3.68452 89.9669 3.68452 89.2814V88.7673C2.31363 88.7673 1.62819 88.4246 1.62819 87.7392C2.31363 86.8824 2.65635 86.3683 2.65635 86.1969V84.6547C1.97091 83.7979 1.62819 83.2838 1.62819 83.1124C2.99907 79.5138 5.56949 69.4035 9.33943 52.7815C15.3371 38.3872 19.2784 31.1901 21.1633 31.1901C21.8488 31.1901 22.1915 31.7041 22.1915 32.7323H22.7056C23.9908 31.3614 25.3617 30.676 26.8182 30.676V29.1337H26.3042L24.7619 30.1619C24.0765 30.1619 23.7337 29.8192 23.7337 29.1337L22.7056 29.6478C22.0201 29.6478 21.6774 29.3051 21.6774 28.6196L23.7337 27.0774H24.2478L25.7901 28.1056C26.4755 27.7628 26.9896 27.5915 27.3323 27.5915L26.3042 26.0492L28.3605 25.0211L27.8464 23.9929V23.4788C29.0459 21.4225 29.9027 20.3943 30.4168 20.3943H30.9309L32.9872 21.9366H34.0154L33.5013 20.9084C34.1868 18.5093 35.729 16.9671 38.1281 16.2817L39.1562 16.7957V15.2535L36.5858 15.7676L36.0717 14.7394C36.0717 14.054 37.0999 13.5399 39.1562 13.1972C39.8417 13.5399 40.3558 13.7112 40.6985 13.7112L42.2407 10.6267L46.3534 11.6549C46.7818 9.94131 47.2959 9.0845 47.8956 9.0845H49.4379L50.9801 10.1127L50.4661 7.54225C50.5517 6.85681 50.8945 6.51409 51.4942 6.51409L53.0365 7.54225C53.0365 6.68545 54.236 5.82864 56.635 4.97184C57.3205 5.31456 57.8346 5.48592 58.1773 5.48592C58.8627 3.77231 60.2336 2.91551 62.29 2.91551L64.3463 3.42959C64.3463 1.71598 66.574 0.859177 71.0294 0.859177C71.0294 0.516455 71.2007 0.345093 71.5434 0.345093ZM100.846 3.42959H101.874V4.45776C101.189 4.45776 100.846 4.11503 100.846 3.42959ZM62.29 5.48592C62.3756 6.17136 62.7184 6.51409 63.3181 6.51409H63.8322V5.48592H62.29ZM58.6914 6V6.51409C58.7771 7.19953 59.1198 7.54225 59.7195 7.54225C60.405 7.19953 60.9191 7.02817 61.2618 7.02817V6H58.6914ZM51.4942 10.6267H52.5224C53.8933 10.1127 54.5787 9.59858 54.5787 9.0845C52.5224 9.5129 51.4942 10.027 51.4942 10.6267ZM30.4168 22.9647V23.9929C30.5025 24.6783 30.8452 25.0211 31.445 25.0211C32.1304 25.0211 32.4732 24.6783 32.4732 23.9929C32.4732 23.3075 32.1304 22.9647 31.445 22.9647H30.4168ZM63.8322 61.5209C63.8322 61.8637 63.6608 62.3778 63.3181 63.0632H63.8322C64.5176 63.0632 64.8604 62.7205 64.8604 62.035V61.5209H63.8322ZM64.3463 73.3448V74.373H63.3181C63.4038 73.6876 63.7465 73.3448 64.3463 73.3448ZM63.3181 90.3096L63.8322 91.3377V92.3659C63.8322 93.0514 63.4895 93.3941 62.804 93.3941L62.29 92.3659V91.3377C62.3756 90.6523 62.7184 90.3096 63.3181 90.3096ZM64.3463 100.591H65.3745V101.619H64.3463V100.591ZM11.3958 102.133L10.8817 103.162H12.4239C12.4239 102.476 12.0812 102.133 11.3958 102.133ZM9.33943 109.331V110.359H10.3676V109.331H9.33943ZM12.4239 116.014V116.528H13.4521V116.014H12.4239ZM4.71268 116.528V118.07H5.22677V116.528H4.71268ZM12.938 120.126H13.9662V119.098C13.2807 119.184 12.938 119.527 12.938 120.126ZM5.22677 121.669H6.25493V120.64C5.56949 120.726 5.22677 121.069 5.22677 121.669ZM8.31126 120.64V121.669H8.82535V120.64H8.31126ZM68.4589 126.809C68.4589 127.838 68.2876 129.037 67.9449 130.408L68.973 130.922V126.809H68.4589ZM11.3958 128.866V129.894H12.4239V128.866H11.3958ZM16.5366 135.035C16.6223 135.72 16.965 136.063 17.5648 136.063L18.0788 135.035H16.5366ZM14.9943 136.577V137.605H16.0225C16.0225 136.92 15.6798 136.577 14.9943 136.577ZM17.0507 138.633L16.5366 140.69L17.5648 141.204C18.2502 141.204 18.5929 140.861 18.5929 140.176V138.633H17.0507ZM14.4803 142.746V143.774C14.5659 144.46 14.9087 144.802 15.5084 144.802H16.0225V144.288C15.6798 143.603 15.5084 143.089 15.5084 142.746H14.4803ZM15.5084 146.859V148.401C15.5941 149.086 15.9368 149.429 16.5366 149.429H17.0507L16.5366 146.859H15.5084ZM22.1915 148.401L21.1633 149.943H23.7337C23.7337 149.429 23.2197 148.915 22.1915 148.401ZM19.107 149.943V150.971C19.7924 150.971 20.1352 150.629 20.1352 149.943H19.107ZM24.7619 150.971V153.028H25.7901V152C25.7901 151.314 25.4474 150.971 24.7619 150.971ZM25.276 156.112V157.14C25.3617 157.826 25.7044 158.169 26.3042 158.169H26.8182V157.14C26.8182 156.455 26.4755 156.112 25.7901 156.112H25.276ZM22.7056 159.711C22.7913 160.396 23.134 160.739 23.7337 160.739V159.711H22.7056ZM35.0436 168.964C35.1292 169.65 35.472 169.992 36.0717 169.992V168.964H35.0436ZM35.5576 175.133C36.2431 175.219 36.5858 175.562 36.5858 176.161L35.5576 176.675C34.8722 176.675 34.5295 176.333 34.5295 175.647L35.5576 175.133ZM41.2126 177.704H41.7266V178.732H41.2126V177.704Z" fill="white"/>
</svg>
