<svg width="145" height="222" viewBox="0 0 145 222" fill="none" xmlns="http://www.w3.org/2000/svg">
<path d="M143.526 164.702C143.35 164.878 142.736 165.667 141.683 167.071C140.981 167.949 140.192 169.089 139.314 170.493C138.437 171.721 137.472 173.037 136.419 174.441C136.77 174.09 137.033 173.915 137.209 173.915C137.56 173.739 137.911 173.476 138.262 173.125C138.612 172.774 138.963 172.599 139.314 172.599C139.665 172.423 140.016 172.248 140.367 172.072C140.718 171.897 140.981 171.809 141.157 171.809C140.981 171.984 140.806 172.248 140.63 172.599C140.455 172.95 140.279 173.3 140.104 173.651C139.929 173.827 139.665 174.178 139.314 174.704C138.612 176.108 136.945 178.565 134.313 182.074C133.962 182.425 133.524 182.952 132.997 183.653C132.646 184.18 132.208 184.706 131.681 185.233C132.208 185.057 132.559 184.706 132.734 184.18C133.436 183.302 133.524 183.39 132.997 184.443C132.646 185.496 131.769 186.987 130.365 188.918C130.19 189.269 130.014 189.62 129.839 189.97C129.839 190.146 129.751 190.409 129.576 190.76C129.225 191.111 128.961 191.374 128.786 191.55C128.786 191.725 128.698 191.901 128.523 192.076C127.645 193.48 126.768 194.621 125.891 195.498C125.189 196.024 124.575 196.638 124.048 197.34C123.697 197.867 123.259 198.305 122.732 198.656C122.206 199.007 121.679 199.358 121.153 199.709C120.626 200.06 120.188 200.411 119.837 200.762C119.31 201.113 118.872 201.289 118.521 201.289C118.345 201.464 118.082 201.727 117.731 202.078C117.205 202.254 116.678 202.429 116.152 202.605C115.801 202.78 115.362 203.131 114.836 203.657C114.485 204.008 113.958 204.272 113.257 204.447C112.73 204.623 112.291 204.886 111.94 205.237C111.59 205.412 111.239 205.5 110.888 205.5C110.712 205.675 110.449 205.851 110.098 206.026C109.923 206.202 109.659 206.29 109.308 206.29C109.133 206.29 108.87 206.377 108.519 206.553C106.413 207.43 104.307 208.22 102.202 208.922C100.096 209.799 98.2535 210.676 96.6743 211.554C97.5516 211.554 98.429 211.466 99.3064 211.291C100.359 211.291 101.5 211.203 102.728 211.027C103.079 211.027 103.342 210.94 103.518 210.764C103.869 210.764 104.22 210.764 104.571 210.764C105.272 210.589 105.799 210.325 106.15 209.974C107.378 209.799 108.256 209.448 108.782 208.922C110.01 208.395 110.361 208.395 109.835 208.922C109.659 209.273 109.396 209.536 109.045 209.711C108.87 209.887 108.606 210.15 108.256 210.501C107.905 210.852 107.027 211.378 105.623 212.08C105.097 212.431 104.571 212.782 104.044 213.133C103.518 213.659 102.816 214.098 101.938 214.449C101.588 214.625 101.237 214.712 100.886 214.712C100.535 214.888 100.184 215.063 99.8328 215.239C99.3064 215.414 98.8677 215.59 98.5167 215.765C98.3413 215.941 98.0781 216.116 97.7271 216.292C97.2007 216.467 96.6743 216.642 96.1479 216.818C95.7969 216.993 95.3582 217.169 94.8318 217.344C94.4809 217.344 94.0422 217.432 93.5157 217.608C92.9893 217.783 92.4629 217.959 91.9365 218.134C91.761 218.134 91.4978 218.134 91.1469 218.134C90.9714 218.309 90.7082 218.397 90.3572 218.397C90.1817 218.397 89.9185 218.397 89.5676 218.397C89.3921 218.573 89.1289 218.66 88.778 218.66C88.427 218.836 87.9883 218.924 87.4619 218.924C86.9355 218.924 86.4968 219.011 86.1459 219.187C85.6194 219.187 85.093 219.187 84.5666 219.187C84.2156 219.362 83.8647 219.45 83.5138 219.45H82.1977C81.6713 219.45 81.1449 219.538 80.6184 219.713H77.9863H75.6174H74.0382H72.4589C72.108 219.713 71.6693 219.626 71.1429 219.45C70.6164 219.45 70.09 219.45 69.5636 219.45C69.0372 219.45 68.5108 219.362 67.9843 219.187C67.6334 219.187 67.2824 219.187 66.9315 219.187C66.4051 219.187 65.9664 219.099 65.6154 218.924C64.9136 218.924 64.3871 218.836 64.0362 218.66L61.6673 218.397C61.1409 218.222 60.7022 218.134 60.3512 218.134C60.0003 218.134 59.5616 218.046 59.0352 217.871C58.5088 217.52 57.8069 217.344 56.9295 217.344C56.5786 217.169 56.1399 216.993 55.6134 216.818C55.2625 216.642 54.9116 216.467 54.5606 216.292C53.6832 216.116 52.8936 215.853 52.1917 215.502C51.6653 215.326 50.9634 215.063 50.086 214.712C49.3841 214.537 48.6822 214.274 47.9803 213.923C47.2785 213.747 46.8398 213.484 46.6643 213.133C46.6643 213.133 46.4888 212.958 46.1379 212.607C45.7869 212.431 45.5237 212.256 45.3482 212.08C45.1728 212.08 44.9096 211.992 44.5586 211.817L46.6643 213.923C48.2436 214.975 49.7351 215.853 51.1389 216.555C50.437 216.204 49.8228 216.028 49.2964 216.028C49.1209 216.028 48.9455 215.941 48.77 215.765C48.77 215.765 48.6822 215.765 48.5068 215.765H48.2436C49.6473 216.467 50.8757 217.081 51.9285 217.608C53.1568 218.309 54.2974 218.924 55.3502 219.45C55.8767 219.801 56.2276 220.064 56.4031 220.24C56.754 220.591 57.105 220.854 57.4559 221.029C57.4559 221.205 57.5437 221.38 57.7191 221.556H57.9823H56.9295C56.754 221.38 56.4031 221.205 55.8767 221.029C55.3502 221.029 54.8238 220.942 54.2974 220.766C52.8936 220.415 51.3143 219.889 49.5596 219.187C47.8049 218.66 45.6992 217.959 43.2426 217.081C42.0142 216.379 41.0491 215.853 40.3472 215.502C39.8208 215.151 39.2944 214.888 38.768 214.712C38.417 214.537 38.1538 214.361 37.9784 214.186C37.8029 214.186 37.5397 214.186 37.1887 214.186H36.6623C36.4868 214.186 35.7849 213.835 34.5566 213.133C33.3283 212.431 32.5387 211.992 32.1877 211.817C31.8368 211.641 31.4858 211.466 31.1349 211.291C30.9594 211.115 30.7839 210.852 30.6085 210.501C30.6085 210.325 30.2575 209.887 29.5556 209.185L26.9235 206.553C26.5726 206.377 26.3094 206.377 26.1339 206.553V207.606C25.6075 206.904 25.1688 206.202 24.8178 205.5C24.6424 205.324 24.5546 205.149 24.5546 204.973C24.5546 204.973 24.4669 204.886 24.2914 204.71C24.1159 204.359 23.8527 204.008 23.5018 203.657C23.1508 203.306 22.5367 202.517 21.6593 201.289C21.1329 200.762 20.6942 200.148 20.3433 199.446C19.9923 199.095 19.8168 198.832 19.8168 198.656L18.5008 197.34C18.5008 197.165 18.3253 196.726 17.9744 196.024C17.7989 195.673 17.3602 195.147 16.6583 194.445C16.4828 193.743 16.2196 192.866 15.8687 191.813V191.55L15.0791 190.76L14.8158 189.97L13.763 187.865C12.8856 186.987 12.2715 186.198 11.9205 185.496L11.3941 184.969C11.7451 184.619 11.6573 184.268 11.1309 183.917C10.7799 183.39 10.429 182.776 10.0781 182.074C9.90258 181.899 9.81484 181.723 9.81484 181.548C9.81484 181.197 9.63937 180.758 9.28842 180.232C9.28842 179.53 8.93747 178.214 8.23558 176.284C7.70916 175.406 7.35821 174.704 7.18274 174.178C7.00726 173.651 6.83179 173.125 6.65632 172.599C6.65632 172.072 6.30537 171.195 5.60348 169.966C5.25253 169.089 4.98932 168.387 4.81384 167.861C4.81384 167.159 4.72611 166.457 4.55063 165.755C4.55063 164.702 4.4629 163.913 4.28742 163.386C4.11195 162.684 3.93648 162.158 3.761 161.807C3.58553 161.456 3.41006 161.105 3.23458 160.754C3.05911 160.579 2.97137 160.403 2.97137 160.228L2.70816 159.964L3.23458 160.491C3.41006 160.491 3.32232 160.052 2.97137 159.175C2.62042 157.947 2.53269 157.069 2.70816 156.543C2.88363 156.016 2.88363 155.139 2.70816 153.911C2.70816 153.209 2.70816 152.419 2.70816 151.542C2.53269 150.664 2.44495 149.875 2.44495 149.173C2.44495 149.699 2.62042 150.313 2.97137 151.015C3.14685 151.366 3.23458 151.717 3.23458 152.068C2.88363 150.664 2.70816 149.436 2.70816 148.383C2.70816 147.33 2.70816 146.365 2.70816 145.488V143.119C2.70816 142.768 2.7959 142.505 2.97137 142.329C2.97137 142.505 3.05911 142.768 3.23458 143.119C3.41006 143.47 3.58553 143.821 3.761 144.172C3.761 144.523 3.93648 144.961 4.28742 145.488C4.4629 145.839 4.55063 146.102 4.55063 146.278C4.55063 146.453 4.63837 146.716 4.81384 147.067C4.63837 146.014 4.55063 145.049 4.55063 144.172C4.55063 143.294 4.55063 142.417 4.55063 141.54C4.37516 140.136 4.37516 138.908 4.55063 137.855C4.55063 136.802 4.72611 135.661 5.07705 134.433C5.25253 133.731 5.34026 132.942 5.34026 132.064C5.51574 131.011 5.77895 129.783 6.1299 128.379C6.30537 127.151 6.48084 125.835 6.65632 124.431C6.83179 122.852 7.00726 120.746 7.18274 118.114C7.53369 117.588 7.70916 117.061 7.70916 116.535C7.70916 115.833 7.7969 115.219 7.97237 114.692C7.97237 113.289 8.06011 112.236 8.23558 111.534C8.23558 111.183 8.23558 110.92 8.23558 110.744C8.41105 110.569 8.49879 110.305 8.49879 109.955C8.32332 109.077 8.14784 108.2 7.97237 107.322C7.7969 106.445 7.70916 105.568 7.70916 104.69C7.18274 103.462 6.91953 102.146 6.91953 100.742L6.65632 101.005V101.532C6.83179 102.76 6.74405 103.725 6.39311 104.427C6.04216 104.954 5.77895 106.094 5.60348 107.849C5.428 108.024 5.34026 108.375 5.34026 108.902C5.34026 109.779 5.25253 110.305 5.07705 110.481C5.07705 111.534 4.98932 112.323 4.81384 112.85C4.81384 112.499 4.81384 112.148 4.81384 111.797C4.63837 111.446 4.55063 111.095 4.55063 110.744V109.955C4.55063 111.358 4.55063 112.762 4.55063 114.166C4.37516 115.394 4.19969 116.535 4.02421 117.588C3.67327 118.991 3.49779 119.869 3.49779 120.22C3.32232 120.571 3.23458 120.834 3.23458 121.009C3.05911 120.658 2.97137 120.307 2.97137 119.957C2.7959 119.606 2.70816 119.255 2.70816 118.904C2.70816 118.553 2.62042 118.026 2.44495 117.324C2.26948 116.973 2.18174 116.184 2.18174 114.956C2.00627 114.605 1.91853 114.254 1.91853 113.903C1.91853 113.376 1.74306 112.762 1.39211 112.06V109.691C1.21664 108.814 1.1289 107.41 1.1289 105.48V99.4261C0.953425 99.2506 0.865688 99.1629 0.865688 99.1629C0.690215 98.9874 0.602478 98.1978 0.602478 96.794C0.602478 95.5657 0.690215 94.776 0.865688 94.4251C0.865688 94.0742 0.865688 93.7232 0.865688 93.3723C0.865688 93.3723 1.21664 92.4949 1.91853 90.7402C2.62042 89.1609 2.97137 88.3713 2.97137 88.3713C2.97137 88.1958 3.05911 87.9326 3.23458 87.5816C3.23458 87.2307 3.05911 87.0552 2.70816 87.0552C2.53269 87.0552 2.35721 87.1429 2.18174 87.3184C2.35721 86.0901 2.53269 85.3005 2.70816 84.9495C2.88363 84.5986 3.05911 84.3354 3.23458 84.1599C3.41006 83.809 3.67327 83.3703 4.02421 82.8438C4.19969 82.3174 4.55063 81.3523 5.07705 79.9485C5.428 78.5447 5.69121 77.4919 5.86669 76.79C6.04216 76.0881 6.21763 75.474 6.39311 74.9475C6.56858 74.5966 6.65632 74.3334 6.65632 74.1579C6.83179 73.9824 7.00726 73.7192 7.18274 73.3683V72.5786C7.53369 70.8239 7.7969 69.5079 7.97237 68.6305C8.32332 67.5776 8.58653 66.7003 8.762 65.9984C8.93747 64.7701 9.28842 64.0682 9.81484 63.8927C9.99032 63.5417 10.0781 63.2785 10.0781 63.1031C10.2535 62.9276 10.5167 62.6644 10.8677 62.3134C11.2186 61.787 11.5696 61.2606 11.9205 60.7342C12.4469 60.2077 13.0611 59.4181 13.763 58.3653C13.9385 58.1898 14.0262 58.0143 14.0262 57.8388C14.2017 57.6634 14.3772 57.4879 14.5526 57.3124L15.3423 56.5228C15.6932 56.1719 15.8687 55.8209 15.8687 55.47C16.0442 55.119 16.2196 54.7681 16.3951 54.4171C16.746 54.0662 17.0093 53.803 17.1847 53.6275C17.5357 53.452 17.7112 53.2765 17.7112 53.1011C18.0621 52.7501 18.2376 52.5746 18.2376 52.5746C18.413 52.3992 18.6763 51.8728 19.0272 50.9954C19.7291 49.9425 19.3782 49.4161 17.9744 49.4161H15.8687C16.5706 48.1878 17.1847 47.2227 17.7112 46.5208C18.2376 45.8189 18.6763 45.2048 19.0272 44.6783C19.7291 44.1519 20.431 43.5378 21.1329 42.8359C21.6593 42.4849 22.098 42.2217 22.4489 42.0462C22.7999 41.6953 23.2386 41.3443 23.765 40.9934C24.4669 39.9405 25.1688 39.0632 25.8707 38.3613L26.6603 36.782C27.1867 36.4311 27.7131 35.7292 28.2396 34.6763C28.9415 34.1499 29.4679 33.6235 29.8188 33.0971C30.3453 32.3952 30.7839 31.6933 31.1349 30.9914C32.0123 30.2895 32.7141 29.4121 33.2406 28.3593C33.767 28.1838 34.1179 27.8329 34.2934 27.3064C34.6444 26.9555 34.8198 26.6923 34.8198 26.5168C35.5217 26.3413 35.9604 25.9027 36.1359 25.2008C37.1887 24.1479 37.8906 23.3583 38.2416 22.8319C38.5925 22.4809 39.1189 22.0422 39.8208 21.5158C40.5227 20.8139 41.3124 20.112 42.1897 19.4101C42.5407 19.0592 42.9794 18.7082 43.5058 18.3573C44.0322 17.8309 44.4709 17.3922 44.8218 17.0412C46.0501 16.5148 46.752 15.9884 46.9275 15.462C47.6294 15.2865 48.1558 15.0233 48.5068 14.6723C48.6822 14.4969 48.8577 14.4091 49.0332 14.4091C49.2087 14.4091 49.4719 14.3214 49.8228 14.1459C50.1738 13.9704 50.5247 13.8827 50.8757 13.8827C51.2266 13.7072 51.6653 13.6195 52.1917 13.6195C52.8936 13.2686 53.5955 13.0931 54.2974 13.0931C54.6483 12.9176 54.9116 12.8299 55.087 12.8299C55.2625 12.8299 55.5257 12.7421 55.8767 12.5667C56.5786 12.3912 56.9295 12.0402 56.9295 11.5138H55.087C54.9116 11.6893 54.2974 11.9525 53.2446 12.3035C52.8936 12.3035 52.6304 12.3912 52.4549 12.5667C52.2795 12.5667 52.0162 12.5667 51.6653 12.5667C50.2615 12.9176 49.3841 13.0931 49.0332 13.0931C48.8577 12.9176 49.7351 12.3912 51.6653 11.5138C52.0162 11.1629 52.3672 10.8997 52.7181 10.7242C53.0691 10.5487 53.42 10.3732 53.771 10.1978C54.2974 9.84683 54.8238 9.40814 55.3502 8.88172C55.8767 8.35529 56.2276 7.91661 56.4031 7.56567C56.754 7.03924 57.105 6.60056 57.4559 6.24962C57.8069 5.89866 58.1578 5.45998 58.5088 4.93357C58.8597 4.40714 59.2984 3.96846 59.8248 3.61752C60.1758 3.26656 60.7899 2.91561 61.6673 2.56467C62.3692 2.21372 63.2466 1.77503 64.2994 1.24862C66.0541 0.546725 67.4579 0.371249 68.5108 0.722191C69.7391 1.07314 70.6164 1.59957 71.1429 2.30146C71.4938 2.65241 71.8448 3.17883 72.1957 3.88072C72.3712 4.23166 72.4589 4.49487 72.4589 4.67034C72.6344 3.79298 72.9853 3.35429 73.5118 3.35429C74.2137 3.17882 75.0033 3.26656 75.8807 3.61752C76.0561 3.79299 76.2316 3.96846 76.4071 4.14393C76.5825 4.14393 76.758 4.3194 76.9335 4.67034C77.8109 4.14393 78.776 3.70525 79.8288 3.35429C80.8817 3.00335 81.8468 2.65241 82.7241 2.30146C83.9524 1.77504 85.093 1.42409 86.1459 1.24862C87.3742 1.07314 88.2515 0.897663 88.778 0.722191C92.112 0.195777 92.6384 0.634461 90.3572 2.03824C89.8308 2.3892 89.3921 2.74014 89.0412 3.09109C88.6902 3.44204 88.3393 3.70525 87.9883 3.88072C87.8129 4.23166 87.7251 4.75808 87.7251 5.45998V5.98641C87.9006 5.98641 87.9883 5.98641 87.9883 5.98641C88.1638 5.81093 88.427 5.72319 88.778 5.72319C92.4629 4.49488 94.7441 3.79299 95.6214 3.61752C95.7969 3.61752 96.4111 3.44204 97.4639 3.09109C97.8148 3.09109 98.0781 3.09109 98.2535 3.09109C98.6045 2.91561 99.2186 2.74014 100.096 2.56467C101.324 2.3892 102.816 2.47694 104.571 2.82788C105.272 3.00335 105.974 3.26656 106.676 3.61752C107.378 3.79299 107.905 4.05619 108.256 4.40714C110.712 5.9864 111.94 6.6883 111.94 6.51282C112.116 6.33735 111.765 5.89867 110.888 5.19677C110.537 4.67035 110.098 4.3194 109.572 4.14393C109.221 3.79299 108.87 3.44204 108.519 3.09109C107.466 2.38919 106.852 1.95051 106.676 1.77504C106.676 1.24861 107.378 1.24861 108.782 1.77504C110.186 2.30146 111.502 2.3892 112.73 2.03824C112.906 2.03824 113.081 2.03824 113.257 2.03824C113.607 1.86277 113.958 1.77504 114.309 1.77504C114.485 1.59956 115.011 1.33635 115.889 0.985398C116.941 0.634456 117.907 0.458984 118.784 0.458984C120.363 0.458984 121.679 0.985404 122.732 2.03824C124.136 2.74014 125.101 3.88072 125.627 5.45998C125.803 6.33735 125.627 7.39019 125.101 8.61851C124.926 9.14493 124.75 9.58361 124.575 9.93456C124.399 10.2855 124.224 10.6365 124.048 10.9874C123.873 11.1629 123.785 11.4261 123.785 11.777C123.785 11.9525 123.697 12.128 123.522 12.3035C124.399 11.4261 124.926 11.1629 125.101 11.5138C125.101 11.8648 125.189 12.2157 125.364 12.5667C125.54 12.9176 125.452 13.2686 125.101 13.6195C125.627 13.6195 126.154 13.8827 126.68 14.4091C127.558 15.462 127.996 16.6026 127.996 17.8309C128.172 18.3573 128.172 18.8837 127.996 19.4101C127.996 19.7611 127.996 20.112 127.996 20.463C127.821 20.8139 127.733 21.1649 127.733 21.5158V22.0422C128.26 20.8139 128.698 20.3752 129.049 20.7262C129.576 20.9017 130.014 21.5158 130.365 22.5687C130.541 23.446 130.541 24.4989 130.365 25.7272C130.365 26.9555 130.102 28.0083 129.576 28.8857C129.225 29.2367 128.961 29.6753 128.786 30.2018C128.786 30.5527 128.698 30.9037 128.523 31.2546H129.312C129.312 31.2546 129.488 31.1669 129.839 30.9914C130.365 30.9914 130.716 30.9037 130.892 30.7282C131.594 30.3772 132.295 30.0263 132.997 29.6753C133.699 29.1489 134.226 28.3593 134.577 27.3064C135.103 25.9027 135.103 26.0781 134.577 27.8329C134.05 29.5876 133.348 31.6056 132.471 33.8867V34.4131C132.471 34.4131 132.295 34.5886 131.944 34.9395C131.418 35.9924 130.804 37.133 130.102 38.3613C129.4 39.4141 128.874 40.5547 128.523 41.783L127.733 44.9415C127.382 45.9944 127.031 46.9595 126.68 47.8369C126.505 48.7142 126.242 49.2406 125.891 49.4161C125.715 49.5916 125.276 49.6793 124.575 49.6793C123.873 49.6793 123.259 49.5916 122.732 49.4161C122.206 49.2406 121.504 49.0652 120.626 48.8897C119.925 48.5387 119.135 48.3633 118.258 48.3633C117.907 48.5387 117.292 48.6265 116.415 48.6265H114.836C114.309 48.9774 113.607 49.1529 112.73 49.1529C112.379 49.3284 112.028 49.4161 111.677 49.4161C111.326 47.8369 110.624 47.5736 109.572 48.6265C109.045 48.6265 108.782 48.8897 108.782 49.4161H107.992L106.413 50.2057C105.711 50.2057 105.097 50.118 104.571 49.9425C104.22 49.9425 103.869 49.9425 103.518 49.9425C103.342 49.7671 102.991 49.5916 102.465 49.4161H98.78H96.9375C96.4111 49.7671 95.6214 50.0303 94.5686 50.2057C93.6912 50.7322 92.9016 50.9954 92.1997 50.9954C91.8488 51.1709 91.4978 51.3463 91.1469 51.5218C90.9714 51.5218 90.7959 51.6095 90.6204 51.785C90.2695 52.136 90.0063 52.3114 89.8308 52.3114C89.6553 52.3114 89.4799 52.3992 89.3044 52.5746C88.9534 52.5746 88.6902 52.6624 88.5147 52.8379C88.3393 52.8379 88.1638 52.8379 87.9883 52.8379C87.6374 53.1888 87.3742 53.3643 87.1987 53.3643C86.8478 53.7152 86.4968 53.9784 86.1459 54.1539C85.7949 54.5049 85.3562 55.0313 84.8298 55.7332C84.8298 56.0841 84.6543 56.2596 84.3034 56.2596C84.1279 56.4351 84.0402 56.6105 84.0402 56.786C84.0402 56.9615 83.9524 57.137 83.777 57.3124C83.2505 57.4879 82.7241 57.8389 82.1977 58.3653C81.6713 59.2426 81.1449 59.7691 80.6184 59.9445C80.2675 60.2955 79.8288 60.5587 79.3024 60.7342C78.9514 60.7342 78.6005 60.9096 78.2495 61.2606C77.8986 61.2606 77.6354 61.3483 77.4599 61.5238C77.4599 61.5238 77.2844 61.5238 76.9335 61.5238C76.758 61.6993 76.5825 61.8748 76.4071 62.0502C76.4071 62.2257 76.3193 62.4012 76.1439 62.5766H75.8807C75.3542 63.2785 74.8278 63.8927 74.3014 64.4191C73.9504 64.9455 73.5118 65.4719 72.9853 65.9984C72.9853 66.1738 72.8976 66.3493 72.7221 66.5248C72.7221 66.5248 72.7221 66.6125 72.7221 66.788C72.7221 67.139 72.6344 67.5776 72.4589 68.1041C72.4589 68.455 72.4589 68.806 72.4589 69.1569V69.4201V70.4729V70.7362C72.2834 70.5607 72.1957 70.3852 72.1957 70.2097C72.0202 70.0343 71.9325 69.8588 71.9325 69.6833C71.9325 69.5079 71.8448 69.3324 71.6693 69.1569C71.3183 69.1569 71.0551 69.0692 70.8797 68.8937C70.8797 68.7182 70.8797 68.806 70.8797 69.1569C70.7042 69.1569 70.5287 69.2446 70.3532 69.4201C70.3532 69.5956 70.2655 69.8588 70.09 70.2097C70.09 70.3852 70.09 70.5607 70.09 70.7362C69.9145 71.2626 69.7391 71.7013 69.5636 72.0522C69.5636 72.4032 69.3881 72.7541 69.0372 73.1051C68.8617 73.456 68.423 73.9824 67.7211 74.6843C67.3702 75.0353 67.0192 75.3862 66.6683 75.7372C66.4928 75.9126 66.2296 76.1758 65.8787 76.5268C65.0013 76.8777 64.2994 77.8428 63.773 79.4221C63.0711 80.6504 62.4569 82.2297 61.9305 84.1599C61.4041 85.9146 60.9654 87.2307 60.6144 88.108C60.6144 87.5816 60.439 86.9675 60.088 86.2656C59.0352 88.3713 58.1578 91.0911 57.4559 94.4251V94.6883C57.4559 94.6883 57.2804 94.776 56.9295 94.9515C59.0352 95.4779 60.2635 96.2676 60.6144 97.3204C60.9654 98.1978 60.7022 100.04 59.8248 102.848C59.4739 103.725 59.0352 104.866 58.5088 106.27C57.9823 107.673 57.6314 109.165 57.4559 110.744C57.105 113.201 56.9295 115.131 56.9295 116.535C56.9295 117.939 56.9295 118.991 56.9295 119.693V122.062C56.0521 122.062 55.6134 122.413 55.6134 123.115C55.7889 123.641 55.9644 124.256 56.1399 124.958C56.1399 125.484 56.3153 126.274 56.6663 127.326C56.8418 127.853 56.9295 128.467 56.9295 129.169C56.9295 129.695 56.9295 130.134 56.9295 130.485C57.2804 130.836 57.3682 131.275 57.1927 131.801C57.0172 132.152 56.9295 132.591 56.9295 133.117C56.9295 133.468 56.8418 133.907 56.6663 134.433C56.6663 134.784 56.5786 135.398 56.4031 136.276C56.2276 136.802 56.1399 137.679 56.1399 138.908C55.9644 139.61 55.8767 140.487 55.8767 141.54C56.0521 142.593 56.1399 143.733 56.1399 144.962C56.3153 146.19 56.5786 147.506 56.9295 148.91C57.2804 149.261 57.4559 149.612 57.4559 149.962C57.4559 150.313 57.5437 150.664 57.7191 151.015C58.0701 152.068 58.2456 152.595 58.2456 152.595C58.421 153.472 58.6842 154.437 59.0352 155.49C59.3861 156.016 59.7371 156.63 60.088 157.332C60.439 158.385 60.6144 159.087 60.6144 159.438C60.7899 160.315 61.1409 160.93 61.6673 161.281C61.8428 161.456 61.9305 161.719 61.9305 162.07C62.106 162.246 62.3692 162.509 62.7201 162.86C62.8956 163.211 63.0711 163.562 63.2466 163.913C63.5975 164.088 63.9484 164.351 64.2994 164.702C64.8258 165.229 65.2645 165.843 65.6154 166.545L66.9315 167.861C67.4579 168.387 67.8089 168.826 67.9843 169.177C68.3353 169.352 68.5108 169.616 68.5108 169.966C68.6862 170.142 68.8617 170.317 69.0372 170.493C69.7391 170.844 70.0023 171.019 69.8268 171.019C70.1778 171.37 70.3532 171.546 70.3532 171.546L71.1429 172.335C71.6693 172.686 71.9325 173.213 71.9325 173.915L72.7221 174.704C72.7221 174.88 72.9853 175.231 73.5118 175.757C73.5118 175.933 73.5118 176.108 73.5118 176.284C73.6872 176.284 73.775 176.459 73.775 176.81C74.1259 177.161 74.4769 177.687 74.8278 178.389C75.3542 178.916 75.7929 179.267 76.1439 179.442C76.4948 179.793 76.8458 180.232 77.1967 180.758C77.7231 181.285 78.2495 181.723 78.776 182.074C80.3552 182.952 81.6713 183.478 82.7241 183.653C82.8996 183.829 83.2505 183.917 83.777 183.917H84.3034C84.6543 184.092 85.1808 184.092 85.8827 183.917H86.1459H86.6723H87.1987H87.7251V183.653V183.917C87.7251 183.917 87.5496 184.004 87.1987 184.18L86.4091 184.969C86.0581 185.32 86.0581 185.584 86.4091 185.759C86.5845 185.759 86.8478 185.847 87.1987 186.022C87.7251 186.022 88.1638 186.022 88.5147 186.022C89.2166 185.847 89.9185 185.759 90.6204 185.759C91.4978 185.759 92.0242 185.847 92.1997 186.022C92.9016 186.022 93.428 186.11 93.779 186.286C94.3054 186.461 94.8318 186.636 95.3582 186.812C96.762 187.163 97.8148 187.338 98.5167 187.338C100.096 187.689 101.851 187.689 103.781 187.338C106.589 186.987 109.133 186.373 111.414 185.496C114.046 184.619 116.24 183.566 117.994 182.337C117.117 183.215 116.24 184.004 115.362 184.706C114.66 185.233 114.046 185.847 113.52 186.549C112.993 186.724 112.467 187.075 111.94 187.602C111.765 187.777 111.677 187.953 111.677 188.128C111.677 188.303 111.59 188.391 111.414 188.391C115.099 186.461 118.608 184.443 121.942 182.337C122.82 181.986 123.522 181.635 124.048 181.285C124.75 180.758 125.452 180.319 126.154 179.968C126.505 179.618 126.943 179.354 127.47 179.179C127.996 178.828 128.435 178.477 128.786 178.126C131.594 175.494 134.226 173.125 136.682 171.019C138.963 169.089 140.806 167.247 142.21 165.492C142.561 165.141 142.824 164.965 142.999 164.965C143.35 164.79 143.613 164.615 143.789 164.439L144.315 163.913L143.526 164.702ZM60.6144 89.9505C60.439 90.126 60.3512 90.126 60.3512 89.9505C60.3512 89.2486 60.439 88.6345 60.6144 88.108V88.8977V89.9505ZM120.1 181.021C120.451 180.495 120.539 180.495 120.363 181.021C120.012 181.197 119.574 181.372 119.047 181.548C118.696 181.723 118.345 181.986 117.994 182.337C118.521 181.811 119.223 181.372 120.1 181.021ZM4.81384 112.85V113.639V112.85ZM2.18174 148.646C2.18174 148.295 2.18174 148.208 2.18174 148.383C2.18174 148.559 2.26948 148.822 2.44495 149.173C2.26948 148.997 2.18174 148.822 2.18174 148.646ZM52.1917 217.344C52.1917 217.344 51.8408 217.081 51.1389 216.555C51.6653 216.906 52.0162 217.081 52.1917 217.081C52.5427 217.257 52.5427 217.344 52.1917 217.344Z" fill="white"/>
</svg>
