<svg width="131" height="145" viewBox="0 0 131 145" fill="none" xmlns="http://www.w3.org/2000/svg">
<path d="M125.731 107.558L129.588 112.254C122.21 120.526 115.391 127.066 109.13 131.873C102.982 136.568 96.7216 139.922 90.3496 141.934C83.9776 143.946 76.6553 144.952 68.3829 144.952C55.3035 144.952 43.6214 142.157 33.3367 136.568C23.052 130.867 15.0032 122.874 9.19008 112.589C3.377 102.193 0.470459 90.6222 0.470459 77.8782C0.470459 67.4817 2.42678 57.4765 6.33943 47.8626C10.2521 38.2486 15.618 29.9203 22.4372 22.8775C29.2564 15.8347 37.3612 10.357 46.7515 6.44437C56.2537 2.41993 66.1471 0.407715 76.4318 0.407715C85.9339 0.407715 94.8212 2.19636 103.094 5.77364C111.366 9.23913 117.906 13.9343 122.713 19.8592C127.632 25.784 130.091 32.2679 130.091 39.3106C130.091 43.894 128.694 47.8067 125.899 51.0486C123.216 54.1787 119.806 55.7438 115.67 55.7438C109.633 55.7438 105.106 52.8372 102.088 47.0241C100.746 44.453 99.6841 39.3665 98.9016 31.7648C98.0072 24.2749 96.554 18.909 94.5417 15.6671C92.7531 12.6487 90.1819 10.3011 86.8282 8.62428C83.4745 6.83564 79.6737 5.94132 75.4257 5.94132C67.7121 5.94132 60.893 8.62428 54.9681 13.9902C49.0432 19.3561 44.4598 26.8461 41.2179 36.46C38.0878 46.0739 36.5227 57.2529 36.5227 69.997C36.5227 82.6293 38.3673 93.92 42.0563 103.869C45.7454 113.707 50.8878 121.309 57.4834 126.675C64.1908 131.929 71.9602 134.556 80.7916 134.556C85.8221 134.556 90.685 133.661 95.3802 131.873C100.075 129.972 104.938 127.01 109.969 122.985C115.111 118.849 120.365 113.707 125.731 107.558ZM67.7121 140.425C37.1935 132.488 21.9341 109.794 21.9341 72.3446C21.9341 58.259 23.9464 46.5211 27.9708 37.1307C32.107 27.7404 39.3175 18.6854 49.6022 9.96576C20.8721 24.722 6.50712 47.2477 6.50712 77.5428C6.50712 89.3926 9.13419 100.124 14.3883 109.738C19.6424 119.24 26.9088 126.73 36.1874 132.208C45.5777 137.574 56.086 140.313 67.7121 140.425ZM96.2186 9.96576C99.4605 14.2138 101.529 17.7911 102.423 20.6976C103.429 23.4924 104.379 28.3552 105.274 35.2862C106.168 41.2111 107.118 45.0678 108.124 46.8565C109.242 48.6451 110.975 49.5394 113.322 49.5394C117.012 49.5394 118.856 46.8565 118.856 41.4905C118.856 30.4233 111.31 19.9151 96.2186 9.96576Z" fill="white"/>
</svg>
