<svg width="199" height="307" viewBox="0 0 199 307" fill="none" xmlns="http://www.w3.org/2000/svg">
<path d="M198.764 154.213C198.764 167.292 197.143 180.93 193.901 195.128C190.771 209.325 186.356 223.243 180.654 236.881C174.953 250.52 168.134 263.32 160.197 275.281C152.26 287.355 143.54 297.751 134.038 306.471L112.742 294.9C115.76 289.311 118.611 283.051 121.294 276.12C123.977 269.189 126.38 261.866 128.504 254.153C130.74 246.328 132.696 238.279 134.373 230.006C136.162 221.734 137.615 213.573 138.733 205.524C139.963 197.364 140.857 189.482 141.416 181.881C142.087 174.167 142.422 167.013 142.422 160.417C142.422 156.057 142.254 151.418 141.919 146.499C141.584 141.469 140.857 136.494 139.739 131.575C138.733 126.545 137.336 121.738 135.547 117.154C133.758 112.571 131.355 108.546 128.337 105.081C125.43 101.615 121.853 98.8207 117.605 96.6967C113.468 94.5727 108.55 93.5107 102.848 93.5107C97.2589 93.5107 92.2843 94.7963 87.9245 97.3674C83.5647 99.8268 79.7079 103.125 76.3542 107.261C73.0005 111.285 70.094 115.925 67.6346 121.179C65.287 126.433 63.3307 131.855 61.7656 137.444C60.3124 142.922 59.2503 148.344 58.5796 153.71C57.9088 159.076 57.5735 163.883 57.5735 168.131V265.22H0.728271V0.277832H57.4058V100.05C64.6721 89.4304 73.5595 81.2697 84.0677 75.5684C94.6878 69.7553 106.426 66.8488 119.282 66.8488C132.696 66.8488 144.378 69.0287 154.328 73.3885C164.277 77.7483 172.55 83.8409 179.145 91.6662C185.741 99.3797 190.659 108.602 193.901 119.334C197.143 129.954 198.764 141.58 198.764 154.213Z" fill="white"/>
</svg>
