<svg width="190" height="252" viewBox="0 0 190 252" fill="none" xmlns="http://www.w3.org/2000/svg">
<path d="M5.62898 251.615C3.79742 251.615 2.42373 250.928 1.50795 249.554C0.592166 247.951 0.134277 246.349 0.134277 244.746C0.363223 241.312 1.16453 239.48 2.53821 239.251C4.14083 238.794 5.9724 238.565 8.03291 238.565C14.4434 238.565 18.7934 237.534 21.0828 235.474C23.6012 233.184 24.9749 230.208 25.2039 226.545C25.6618 222.882 25.8907 219.104 25.8907 215.212V47.6237C25.8907 43.5027 25.6618 39.7251 25.2039 36.2909C24.9749 32.6278 23.7157 29.766 21.4263 27.7054C19.1368 25.416 14.7868 24.2713 8.37633 24.2713C6.31581 24.2713 4.36978 24.0423 2.53821 23.5844C0.935587 22.8976 0.134277 20.8371 0.134277 17.4029C0.134277 13.9687 1.96585 11.9082 5.62898 11.2213C16.1605 9.61872 24.1736 8.01609 29.6683 6.41348C35.392 4.81085 39.7419 3.43717 42.7182 2.29244C45.6945 0.918771 48.3274 0.231934 50.6169 0.231934C52.4484 0.231934 53.9366 0.689828 55.0813 1.60561C56.455 2.29244 57.1418 4.00953 57.1418 6.75689V117.338H57.8287C62.4076 112.988 67.101 108.867 71.9088 104.975C76.7167 100.854 82.3259 97.534 88.7364 95.0156C95.3758 92.2682 103.503 90.8945 113.119 90.8945C128.687 90.8945 141.051 95.5879 150.208 104.975C159.366 114.361 163.945 126.725 163.945 142.064V215.212C163.945 219.104 164.06 222.882 164.289 226.545C164.746 230.208 166.12 233.184 168.41 235.474C170.928 237.534 175.278 238.565 181.459 238.565C183.749 238.565 185.58 238.794 186.954 239.251C188.328 239.48 189.129 241.312 189.358 244.746C189.358 246.349 188.9 247.951 187.984 249.554C187.298 250.928 186.038 251.615 184.207 251.615C177.567 251.157 171.386 250.813 165.662 250.584C159.939 250.584 154.1 250.584 148.148 250.584C141.966 250.584 136.128 250.584 130.633 250.584C125.139 250.813 119.072 251.157 112.432 251.615C110.601 251.615 109.227 250.928 108.311 249.554C107.395 247.951 106.938 246.349 106.938 244.746C107.167 241.312 107.968 239.48 109.341 239.251C110.715 238.794 112.547 238.565 114.836 238.565C121.247 238.565 125.597 237.534 127.886 235.474C130.405 233.184 131.778 230.208 132.007 226.545C132.236 222.882 132.351 219.104 132.351 215.212V142.407C132.351 130.96 128.916 122.718 122.048 117.681C115.18 112.415 107.739 109.783 99.7258 109.783C91.9416 109.783 85.0732 111.271 79.1206 114.247C73.168 116.994 68.3602 120.2 64.697 123.863C61.0339 127.526 58.5155 130.731 57.1418 133.478V215.212C57.1418 219.104 57.2563 222.882 57.4852 226.545C57.9431 230.208 59.3168 233.184 61.6063 235.474C64.1247 237.534 68.4746 238.565 74.6562 238.565C76.9456 238.565 78.7772 238.794 80.1509 239.251C81.5246 239.48 82.3259 241.312 82.5548 244.746C82.5548 246.349 82.0969 247.951 81.1811 249.554C80.4943 250.928 79.2351 251.615 77.4035 251.615C70.7641 251.157 64.5826 250.813 58.8589 250.584C53.1353 250.584 47.2971 250.584 41.3445 250.584C35.163 250.584 29.3249 250.584 23.8302 250.584C18.3355 250.813 12.2684 251.157 5.62898 251.615Z" fill="white"/>
</svg>
