<svg width="185" height="257" viewBox="0 0 185 257" fill="none" xmlns="http://www.w3.org/2000/svg">
<path d="M48.9604 73.825V144.569C56.7446 131.061 66.7037 119.156 78.8378 108.854C90.972 98.5511 103.564 90.538 116.614 84.8144C135.616 93.2854 145.118 111.258 145.118 138.731C145.118 139.876 145.118 140.906 145.118 141.822L143.401 213.596C143.401 215.199 143.401 216.802 143.401 218.404C143.401 229.623 144.889 238.208 147.865 244.161C151.07 249.884 158.282 252.746 169.5 252.746C175.453 252.746 179.917 251.83 182.894 249.999L184.954 252.403C181.52 255.15 176.025 256.524 168.47 256.524C156.107 256.524 148.094 253.319 144.431 246.908C140.768 240.269 138.936 230.653 138.936 218.061C138.936 216.687 138.936 215.199 138.936 213.596L140.653 141.822C140.653 140.448 140.653 139.075 140.653 137.701C140.653 113.433 132.526 97.1775 116.27 88.9354C102.992 94.888 90.2851 103.473 78.151 114.692C66.2458 125.681 56.5156 137.815 48.9604 151.094V228.363C48.9604 243.932 58.8051 251.716 78.4944 251.716C82.6154 251.716 87.1944 251.144 92.2312 249.999L92.918 253.09C88.797 254.692 83.3023 255.494 76.4339 255.494C69.5655 255.494 63.155 254.005 57.2024 251.029C51.2498 248.053 47.7012 243.588 46.5565 237.636C45.4117 243.588 41.8631 248.053 35.9105 251.029C30.1868 254.005 23.8908 255.494 17.0224 255.494C10.1541 255.494 4.65936 254.692 0.53833 253.09L1.22516 249.999C6.26197 251.144 10.8409 251.716 14.9619 251.716C34.6513 251.716 44.4959 243.932 44.4959 228.363V73.825C44.4959 54.8225 45.7552 40.6278 48.2736 31.241C51.0209 21.6253 54.7985 14.6425 59.6064 10.2925C64.6432 5.71356 71.0537 2.50832 78.8378 0.676758L79.5247 4.11095C65.33 8.23197 56.5156 17.1609 53.0814 30.8976C50.3341 41.887 48.9604 56.1961 48.9604 73.825Z" fill="white"/>
</svg>
