<svg width="141" height="219" viewBox="0 0 141 219" fill="none" xmlns="http://www.w3.org/2000/svg">
<path d="M140.671 218.915H105.96V122.496C105.96 110.311 103.668 101.871 99.0849 97.1755C94.5016 92.4804 87.85 90.1328 79.1304 90.1328C66.2746 90.1328 55.7663 95.331 47.6057 105.727C39.5568 116.124 35.5323 130.489 35.5323 148.823V218.915H0.821533V0.0859375H35.5323V101.871C38.9978 88.3441 45.4257 77.8359 54.8161 70.346C64.2065 62.7442 75.7767 58.9434 89.5269 58.9434C105.513 58.9434 118.033 64.1416 127.088 74.5381C136.143 84.9345 140.671 100.921 140.671 122.496V218.915Z" fill="white"/>
</svg>
