<svg width="189" height="247" viewBox="0 0 189 247" fill="none" xmlns="http://www.w3.org/2000/svg">
<path d="M0.591064 0.607422H68.8389V91.1573C78.1174 81.5434 87.3401 74.6683 96.5069 70.5321C105.674 66.3958 116.517 64.3277 129.038 64.3277C147.595 64.3277 162.183 69.9731 172.804 81.2639C183.535 92.5547 188.901 109.882 188.901 133.246V246.434H120.318V148.506C120.318 137.327 118.25 129.445 114.114 124.862C109.978 120.167 104.165 117.819 96.6746 117.819C88.4021 117.819 81.6947 120.949 76.5524 127.21C71.41 133.47 68.8389 144.705 68.8389 160.914V246.434H0.591064V0.607422Z" fill="white"/>
</svg>
