<svg width="193" height="224" viewBox="0 0 193 224" fill="none" xmlns="http://www.w3.org/2000/svg">
<path d="M80.7773 223.41C75.0537 223.41 70.4748 221.807 67.0406 218.602C63.8354 215.397 62.2327 211.047 62.2327 205.552C62.2327 202.118 63.034 198.226 64.6367 193.876C66.2393 189.526 68.7577 185.061 72.1919 180.482C77.4576 173.385 82.4944 167.204 87.3023 161.938C92.1102 156.443 95.6588 151.521 97.9483 147.171C100.238 143.05 101.382 139.845 101.382 137.555C101.382 134.121 99.322 132.404 95.2009 132.404C91.5378 132.404 86.272 134.464 79.4037 138.585C72.7642 142.477 65.7814 148.888 58.4551 157.817C54.3341 162.854 49.6407 168.806 44.3749 175.675C39.1092 182.314 34.8737 188.496 31.6684 194.219C30.2948 196.738 28.9211 199.37 27.5474 202.118C26.4027 204.636 24.5711 208.986 22.0527 215.168C21.3659 216.77 19.4198 218.487 16.2146 220.319C13.2383 222.151 10.8344 223.066 9.00279 223.066C7.62912 223.066 6.94228 222.494 6.94228 221.349C6.94228 220.433 7.2857 219.289 7.97253 217.915C9.11726 215.855 11.6357 209.33 15.5278 198.34C19.6488 187.351 24.8001 174.415 30.9816 159.534C27.5474 163.197 23.7698 167.204 19.6488 171.554C15.5278 175.675 10.9488 179.681 5.91203 183.573C4.99624 184.489 3.96598 184.947 2.82125 184.947C1.44758 184.947 0.760742 184.375 0.760742 183.23C0.760742 182.314 1.791 181.055 3.85151 179.452C9.11727 174.873 14.383 170.065 19.6488 165.029C24.9145 159.763 30.6382 153.238 36.8197 145.454C38.8802 140.417 42.5434 133.205 47.8091 123.818C53.0749 114.203 59.3709 103.557 66.6972 91.8804C74.0234 80.2041 82.151 68.5279 91.0799 56.8516C100.009 45.1754 109.167 34.7583 118.553 25.6005C127.024 17.3585 135.839 11.0624 144.997 6.71246C154.383 2.36249 162.854 0.1875 170.41 0.1875C177.049 0.1875 182.429 1.79013 186.55 4.99537C190.671 8.20061 192.732 13.3519 192.732 20.4492C192.732 27.5465 190.786 35.1018 186.894 43.1149C183.002 51.128 178.881 57.5385 174.531 62.3463C164.686 73.3357 153.01 83.4093 139.502 92.5672C126.223 101.725 112.257 109.509 97.6049 115.92C97.147 116.149 96.6891 116.378 96.2312 116.607C95.7733 116.607 95.3154 116.607 94.8575 116.607C93.2549 116.607 92.4536 116.034 92.4536 114.889C92.4536 113.516 93.7128 112.371 96.2312 111.455C104.931 107.563 113.746 102.755 122.674 97.0316C131.832 91.308 140.303 85.1264 148.087 78.487C155.872 71.8476 162.397 65.2082 167.662 58.5687C173.844 50.7846 177.85 44.4886 179.682 39.6807C181.514 34.6439 182.429 30.4084 182.429 26.9742C182.429 22.3953 179.911 20.1058 174.874 20.1058C172.585 20.1058 169.265 21.2505 164.915 23.54C160.565 25.6005 155.414 29.0347 149.461 33.8426C140.303 41.1688 130.802 50.0977 120.957 60.6292C111.342 71.1608 101.84 82.6081 92.4536 94.9711C83.2958 107.334 74.5958 119.926 66.3538 132.747C58.1117 145.568 50.671 158.046 44.0315 170.18C46.7789 166.288 49.6407 162.396 52.617 158.504C55.5933 154.383 58.5696 150.719 61.5459 147.514C68.4143 139.959 75.1682 134.464 81.8076 131.03C88.447 127.596 94.3996 125.879 99.6654 125.879C105.618 125.879 110.426 127.71 114.089 131.374C117.752 134.808 119.584 139.501 119.584 145.454C119.584 148.659 119.011 151.864 117.867 155.069C116.951 158.046 115.806 160.793 114.432 163.311C112.601 167.204 110.197 171.782 107.221 177.048C104.244 182.314 101.382 187.236 98.6351 191.815C93.3694 200.286 90.7365 206.353 90.7365 210.016C90.7365 212.077 91.6523 213.107 93.4838 213.107C95.7733 213.107 99.5509 211.505 104.817 208.299C108.938 205.781 113.517 202.576 118.553 198.684C123.819 194.563 128.97 190.327 134.007 185.977C139.273 181.627 143.737 177.85 147.401 174.644C151.293 171.21 153.811 168.921 154.956 167.776C156.329 166.402 157.36 165.715 158.047 165.715C158.733 165.715 159.077 166.059 159.077 166.746C159.077 167.89 158.276 169.493 156.673 171.554C150.72 177.735 143.28 184.718 134.351 192.502C125.422 200.286 115.348 207.841 104.13 215.168C99.7799 218.144 95.5444 220.319 91.4233 221.693C87.5313 222.837 83.9826 223.41 80.7773 223.41Z" fill="white"/>
</svg>
