<svg width="108" height="191" viewBox="0 0 108 191" fill="none" xmlns="http://www.w3.org/2000/svg">
<path d="M71.947 1.45108C77.0022 1.45108 80.1295 1.32255 81.329 1.06551C81.1577 2.35072 81.5861 3.93581 82.6142 5.82078C83.471 7.44871 83.6852 8.73391 83.2568 9.6764C81.7146 8.81959 78.2874 8.00563 72.9752 7.2345C68.4341 6.46338 65.0069 5.04965 62.6935 2.99332C64.6642 1.96516 67.7487 1.45108 71.947 1.45108ZM86.5984 59.5424C86.5984 59.5424 86.3842 59.5424 85.9558 59.5424C86.2128 59.5424 86.427 59.5424 86.5984 59.5424ZM89.2973 181.38C91.0966 182.665 91.9962 183.308 91.9962 183.308C94.481 183.222 96.0232 182.194 96.623 180.223C97.3084 178.167 96.8372 176.325 95.2093 174.697C90.2398 173.497 88.2691 175.725 89.2973 181.38ZM87.8836 83.5758V86.9173C89.1688 87.6028 90.7539 87.8598 92.6389 87.6885C94.9522 87.4314 96.4945 87.3886 97.2656 87.5599C97.0942 86.1034 96.2374 84.861 94.6952 83.8328C92.8102 82.462 91.6535 81.4766 91.2251 80.8769C91.9963 82.0764 91.8677 82.719 90.8396 82.8047C89.1259 83.0617 88.1406 83.3188 87.8836 83.5758ZM89.2973 64.2977C87.9264 64.4691 87.241 65.1117 87.241 66.2255C88.0121 67.5107 89.126 67.7678 90.5825 66.9966C91.782 66.3969 92.6817 65.4972 93.2814 64.2977C92.9387 64.2977 92.2533 64.2977 91.2251 64.2977C90.3683 64.212 89.7257 64.212 89.2973 64.2977ZM77.9875 168.914C80.2152 169.856 82.6571 169.556 85.3132 168.014C84.9705 167.071 85.099 166.215 85.6987 165.443C86.3842 164.501 86.6841 163.816 86.5984 163.387C86.427 161.588 85.6559 160.174 84.285 159.146C83.0855 158.203 81.7146 157.818 80.1723 157.989C78.6301 158.075 77.3449 158.675 76.3167 159.789C75.1172 160.988 74.5603 162.616 74.646 164.672C74.7316 166.557 75.8455 167.971 77.9875 168.914ZM67.4488 177.01C66.9347 178.381 66.8919 179.838 67.3203 181.38C68.0057 183.693 69.2909 184.764 71.1759 184.593C73.1465 184.507 74.9458 182.965 76.5738 179.966C74.7745 175.425 72.5468 173.626 69.8907 174.568C68.7768 174.997 67.9629 175.811 67.4488 177.01ZM67.9629 145.394H71.3044C71.133 143.938 70.2762 142.695 68.734 141.667C66.849 140.296 65.6924 139.311 65.2639 138.711C66.8919 142.053 67.7915 144.28 67.9629 145.394ZM65.778 102.083C64.7499 101.569 64.3643 101.612 64.6213 102.211C64.8784 102.297 65.3068 102.597 65.9065 103.111C66.592 103.711 67.0632 104.139 67.3203 104.396C68.4341 105.082 69.1196 104.568 69.3766 102.854C68.5198 103.111 67.3203 102.854 65.778 102.083ZM64.2358 87.9455C63.7217 87.2601 62.9934 86.9173 62.0509 86.9173C59.7375 86.746 58.3667 87.4314 57.9383 88.9737C57.5955 90.2589 57.9383 91.6298 58.9664 93.0863C60.0803 94.5429 61.2798 95.1427 62.565 94.8856C64.1073 94.6286 65.2639 93.0863 66.0351 90.2589C65.778 90.0018 65.1783 89.2307 64.2358 87.9455ZM68.6055 105.553C68.7768 107.695 70.1049 109.665 72.5896 111.465C72.5039 110.951 71.1759 108.98 68.6055 105.553ZM68.6055 82.5476C69.2052 82.976 69.4623 83.533 69.3766 84.2184C68.6055 83.533 67.7915 83.3616 66.9347 83.7043C65.9922 84.1327 65.6923 84.9467 66.0351 86.1462C66.8062 86.4889 67.92 86.4461 69.3766 86.0177C70.7475 85.5893 72.0755 85.6321 73.3607 86.1462C73.7035 84.9467 74.3461 83.9614 75.2886 83.1902C76.3167 82.3334 77.0022 81.5623 77.3449 80.8769C76.231 81.9907 74.7316 82.1192 72.8467 81.2624C70.7903 80.3199 69.1624 80.1914 67.9629 80.8769C67.7915 81.5623 68.0057 82.1192 68.6055 82.5476ZM89.2973 46.9474C89.2973 46.4333 88.8261 44.8911 87.8836 42.3207C85.2275 42.4063 82.9141 43.306 80.9435 45.0196C79.1442 46.5618 78.0303 48.4468 77.6019 50.6745C77.2592 52.9022 77.7304 54.83 79.0157 56.4579C80.4722 58.2572 82.7856 59.2854 85.9558 59.5424C85.099 59.6281 84.6706 60.185 84.6706 61.2132C84.5849 62.327 85.0133 62.884 85.9558 62.884C88.4405 59.2854 89.8114 57.1862 90.0684 56.5865C91.3536 53.8447 91.525 51.0601 90.5825 48.2326C91.1823 48.918 91.6964 49.0037 92.1248 48.4896C92.6389 48.0612 92.8102 47.333 92.6389 46.3048C92.1248 46.2191 91.6107 46.3476 91.0966 46.6904C90.5825 47.0331 89.9828 47.1188 89.2973 46.9474ZM100.607 68.9244C99.2362 68.7531 98.1224 68.9673 97.2656 69.567C97.0942 70.5095 97.2227 71.195 97.6512 71.6234C97.9939 72.0518 98.4651 72.2231 99.0649 72.1375C100.778 71.8804 101.293 70.8094 100.607 68.9244ZM95.2093 95.5282C97.3513 95.6139 98.6793 95.3997 99.1934 94.8856C99.5361 93.8575 99.4076 93.0006 98.8078 92.3152C98.2081 91.4584 97.9082 90.773 97.9082 90.2589H94.5667C94.481 93.0006 94.6952 94.7571 95.2093 95.5282ZM38.0175 13.6605C36.9894 14.7744 36.9894 15.8882 38.0175 17.0021C39.9882 17.2591 40.9735 16.7022 40.9735 15.3313C40.9735 13.9604 39.9882 13.4035 38.0175 13.6605ZM36.6038 152.848C38.1461 152.506 39.3028 150.921 40.0739 148.093C39.8168 147.922 39.2171 147.151 38.2746 145.78C37.7605 145.18 37.0322 144.837 36.0897 144.752C33.7764 144.666 32.4055 145.351 31.9771 146.808C31.6344 148.179 31.9771 149.55 33.0052 150.921C34.1191 152.377 35.3186 153.02 36.6038 152.848ZM32.7482 170.713H37.375C37.0322 169.685 37.2036 168.871 37.889 168.271C38.6602 167.585 38.9172 166.857 38.6602 166.086C38.4888 165.144 37.7177 164.458 36.3468 164.03C34.9759 163.601 33.9906 163.601 33.3908 164.03C32.1913 166.086 31.5058 167.414 31.3345 168.014C32.4483 168.185 32.9196 169.085 32.7482 170.713ZM35.9612 14.3031C36.9037 14.2175 37.375 13.7891 37.375 13.0179C36.8609 12.5039 36.2611 12.3325 35.5757 12.5039C34.8902 12.6752 34.3761 13.0608 34.0334 13.6605C34.5475 14.1746 35.1901 14.3888 35.9612 14.3031ZM16.0405 16.3595C15.8692 17.9874 16.3404 18.887 17.4542 19.0584C17.8826 17.1734 18.0968 16.2738 18.0968 16.3595H16.0405ZM17.4542 48.2326H14.7553C14.2412 49.7749 14.6696 50.4603 16.0405 50.2889C17.3257 50.1176 17.797 49.4321 17.4542 48.2326ZM13.4701 53.6305C13.4701 54.4873 13.6843 55.1299 14.1127 55.5583C14.8838 55.8153 15.5264 55.7296 16.0405 55.3012C16.726 54.7015 17.1972 54.3588 17.4542 54.2731C17.2829 52.3024 16.169 51.4028 14.1127 51.5742C13.6843 52.0026 13.4701 52.688 13.4701 53.6305ZM12.0564 71.6234C11.0282 72.7372 11.0282 73.8082 12.0564 74.8364C14.027 75.0934 15.0123 74.5794 15.0123 73.2941C15.0123 71.9233 14.027 71.3663 12.0564 71.6234ZM9.61447 70.4667C8.92903 70.6381 8.41496 71.0236 8.07224 71.6234C8.58632 72.0518 9.22892 72.266 10 72.266C10.9425 72.1803 11.4138 71.7091 11.4138 70.8522C10.9854 70.3382 10.3856 70.2096 9.61447 70.4667ZM69.3766 62.2414C68.7768 61.7273 67.406 61.5131 65.2639 61.5988C64.9212 62.7983 65.521 63.4837 67.0632 63.6551C68.5198 63.7408 69.2909 63.2695 69.3766 62.2414ZM98.8078 152.463C96.0661 142.096 92.8959 134.856 89.2973 130.743C92.4675 136.141 95.5948 145.137 98.6793 157.732C101.935 171.184 104.805 180.395 107.29 185.364C106.262 185.536 92.0391 186.435 64.6213 188.063C64.45 185.236 63.9359 174.868 63.0791 156.961C62.4793 144.366 61.8796 134.084 61.2798 126.116C61.5368 125.602 62.565 125.131 64.3643 124.702C66.0779 124.274 67.0632 123.417 67.3203 122.132C65.1783 121.961 63.1648 122.175 61.2798 122.775C61.7082 120.89 61.7082 118.833 61.2798 116.606C60.7657 114.035 60.5515 111.893 60.6372 110.18C58.8379 110.008 56.6959 110.051 54.2112 110.308C51.298 110.651 49.2417 110.822 48.0422 110.822C48.1278 112.536 48.3849 117.377 48.8133 125.345C49.156 131.257 49.3274 136.184 49.3274 140.125C48.6419 140.039 47.6138 139.611 46.2429 138.84C45.129 138.154 43.9295 137.897 42.6443 138.069C43.4154 137.383 43.6725 138.711 43.4154 142.053C42.8157 141.453 42.0445 141.282 41.1021 141.539C40.1596 141.71 39.8168 142.353 40.0739 143.466C41.4448 144.152 43.0727 144.366 44.9577 144.109C47.4424 143.938 48.6848 142.824 48.6848 140.768C49.7129 144.28 50.3127 149.678 50.4841 156.961C50.7411 165.786 51.041 171.484 51.3837 174.054C49.8415 173.626 48.2135 173.754 46.4999 174.44C44.7863 175.125 43.7581 176.111 43.4154 177.396C42.8157 179.281 43.1584 180.866 44.4436 182.151C46.2429 183.865 47.2282 184.936 47.3996 185.364C48.2564 185.536 49.0703 185.364 49.8415 184.85C50.6126 184.25 51.3409 183.95 52.0263 183.95V188.706C50.9125 188.706 49.156 188.791 46.757 188.963C43.9295 189.22 41.9588 189.391 40.845 189.477C36.1326 189.734 32.7482 189.263 30.6919 188.063C25.4654 190.205 18.3967 191.062 9.48596 190.634C9.22892 185.15 6.52999 131.257 1.38916 28.9545C1.47484 28.2691 1.98891 27.6693 2.9314 27.1552C4.04524 26.7268 4.64502 26.2127 4.7307 25.613C3.44549 24.4134 2.88856 21.5431 3.05992 17.0021C3.31696 9.63356 3.44548 5.64942 3.44548 5.04965C12.7847 4.44989 25.8509 3.76445 42.6443 2.99332C42.73 4.10717 43.8438 26.0842 45.9858 68.9244C50.1842 70.124 53.7399 71.0236 56.6531 71.6234C57.4242 71.5377 57.4242 71.195 56.6531 70.5952C55.8819 69.9954 55.8819 69.6527 56.6531 69.567C59.7376 70.5952 64.1929 70.381 70.0192 68.9244C69.6765 67.8106 69.0339 67.2965 68.0914 67.3822C67.5773 67.3822 66.5491 67.6821 65.0069 68.2818C61.9224 69.4814 59.8232 69.2672 58.7094 67.6392C58.1953 66.0113 59.0521 65.3259 61.2798 65.5829C61.4512 64.5547 61.0656 63.8265 60.1231 63.398C58.8379 62.7983 58.1525 62.4127 58.0668 62.2414C57.9811 56.4151 57.5955 47.59 56.9101 35.7661C56.2247 24.3706 55.9248 15.4598 56.0105 9.03379C59.9518 6.63474 64.5785 6.54906 69.8907 8.77676C73.6606 10.4047 77.2592 12.9323 80.6864 16.3595C80.4294 17.9017 79.6154 19.7439 78.2445 21.8859C76.8736 24.0279 76.1025 25.9557 75.9312 27.6693C78.7586 27.2409 80.8578 25.0989 82.2287 21.2433C83.9423 16.1024 85.1847 13.1465 85.9558 12.3753C88.0978 13.0608 90.2826 12.8894 92.5103 11.8613C94.738 10.8331 96.5373 10.5332 97.9082 10.9616C97.9939 9.76208 95.552 15.3313 90.5825 27.6693C92.8102 28.012 94.4381 27.4123 95.4663 25.87C95.809 25.5273 96.2374 24.8418 96.7515 23.8137C97.1799 22.7855 97.5655 22.0572 97.9082 21.6288C97.9939 22.657 98.3366 25.3988 98.9364 29.8541C99.3648 33.6241 99.6646 36.7086 99.836 39.1076C100.35 46.6475 99.7075 52.1311 97.9082 55.5583C97.7368 56.1581 98.1652 56.3722 99.1934 56.2009C100.307 56.1152 100.778 56.3723 100.607 56.972C100.95 69.1386 101.678 85.5036 102.792 106.067C104.077 127.83 104.891 144.495 105.234 156.061C105.234 156.833 104.848 157.775 104.077 158.889C103.306 159.831 103.049 160.902 103.306 162.102C105.448 166.557 106.519 171.184 106.519 175.982C104.548 172.384 101.978 164.544 98.8078 152.463ZM89.2973 8.64823C90.2398 8.56255 91.3536 8.90527 92.6389 9.6764C92.2104 10.6189 90.4112 11.0473 87.241 10.9616C87.3267 9.41936 88.0121 8.64823 89.2973 8.64823ZM1.38916 6.33486V16.3595C1.04644 17.7304 0.832233 17.2591 0.746553 14.9457C0.746553 14.346 0.746553 13.3607 0.746553 11.9898C0.746553 10.7902 0.746553 10.0191 0.746553 9.6764C0.746553 9.33368 0.575191 8.73391 0.232469 7.87711C-0.0245723 7.19166 -0.0674167 6.46338 0.103944 5.69226C0.875068 5.60658 1.30348 5.82078 1.38916 6.33486ZM85.9558 2.99332C85.4417 3.67877 85.2275 4.36421 85.3132 5.04965C84.285 5.22102 83.5996 4.79261 83.2568 3.76445C82.8284 2.56492 82.4 1.87947 81.9716 1.70811C81.886 2.2222 83.4282 2.008 86.5984 1.06551C86.6841 1.66528 86.4699 2.30788 85.9558 2.99332ZM95.2093 4.40705C94.6952 3.80729 93.3671 3.59308 91.2251 3.76445C90.8824 4.96397 91.4822 5.64942 93.0244 5.82078C94.481 5.90646 95.2093 5.43521 95.2093 4.40705ZM97.2656 0.422908C97.3513 0.508588 97.5655 2.69344 97.9082 6.97747C94.1383 7.14883 91.0538 6.29202 88.6547 4.40705C89.0831 4.06433 89.5972 3.50741 90.197 2.73628C90.8824 1.96516 91.3965 1.45107 91.7392 1.19403C93.1101 0.0801872 94.9522 -0.176856 97.2656 0.422908Z" fill="white"/>
</svg>
