<svg width="180" height="233" viewBox="0 0 180 233" fill="none" xmlns="http://www.w3.org/2000/svg">
<path d="M54.4484 126.338C61.3794 118.177 68.0309 111.47 74.4029 106.216C80.775 100.85 86.9234 97.0488 92.8483 94.813C98.7732 92.5772 105.201 91.4593 112.132 91.4593C120.628 91.4593 128.509 93.4715 135.776 97.4959C143.154 101.52 148.799 106.942 152.712 113.761C157.183 121.363 159.419 131.648 159.419 144.615V200.287C159.419 209.565 160.761 216.161 163.444 220.074C166.238 223.986 171.437 226.613 179.038 227.955V232.482H105.425V227.955C113.026 226.613 118.169 223.986 120.852 220.074C123.646 216.161 125.044 209.565 125.044 200.287V143.609C125.044 131.424 124.261 122.984 122.696 118.289C121.019 113.147 118.336 109.178 114.647 106.383C110.958 103.477 106.543 102.023 101.4 102.023C94.2457 102.023 87.2588 104.427 80.4396 109.234C73.7322 114.041 65.0685 122.705 54.4484 135.225V200.287C54.4484 209.565 55.7899 216.161 58.4729 220.074C61.2676 223.986 66.4659 226.613 74.0676 227.955V232.482H0.453857V227.955C8.05558 226.613 13.2538 224.042 16.0486 220.241C18.8433 216.329 20.2407 209.677 20.2407 200.287V38.3031C20.2407 28.9128 18.7874 22.2613 15.8809 18.3486C13.0861 14.3242 7.94379 11.753 0.453857 10.6351V6.94604L54.4484 0.741699V126.338ZM122.193 225.104H155.562L151.706 222.086C151.706 222.086 151.594 222.03 151.37 221.918C151.259 221.695 151.147 221.583 151.035 221.583L148.855 219.906C147.178 218.229 146.34 216.105 146.34 213.534V210.18L146.172 208.503V144.448C146.172 135.952 145.613 129.244 144.495 124.326C143.377 119.407 141.477 115.103 138.794 111.414C131.863 102.023 122.864 97.3283 111.797 97.3283C110.679 97.3283 108.108 97.5518 104.083 97.999C111.014 99.0051 116.38 101.073 120.181 104.203C123.982 107.222 126.665 111.805 128.23 117.954C129.907 124.102 130.745 132.598 130.745 143.442V208.503C130.745 213.087 130.522 215.937 130.074 217.055C129.739 218.173 128.453 219.682 126.218 221.583C125.994 221.806 125.826 221.918 125.715 221.918C125.715 221.918 125.659 221.974 125.547 222.086L122.193 225.104ZM17.2224 225.104H50.7594L46.7349 222.086C46.5113 221.862 46.2878 221.695 46.0642 221.583L43.8843 219.906C42.3192 218.341 41.4808 216.217 41.369 213.534V210.18V7.78447L13.8687 10.8028L20.4084 15.498C20.5202 15.498 20.7437 15.6657 21.0791 16.001L23.259 17.6779C24.3769 18.4604 25.1035 19.6342 25.4389 21.1993C25.7743 22.6525 25.942 25.2796 25.942 29.0805V208.503C25.942 213.087 25.7184 215.937 25.2712 217.055C24.8241 218.173 23.4826 219.682 21.2468 221.583C21.2468 221.583 21.135 221.639 20.9114 221.751C20.7996 221.862 20.7437 221.974 20.7437 222.086L17.2224 225.104Z" fill="white"/>
</svg>
