<svg width="218" height="204" viewBox="0 0 218 204" fill="none" xmlns="http://www.w3.org/2000/svg">
<path d="M217.112 101.963C217.112 112.024 215.771 121.47 213.088 130.301C210.405 139.133 206.66 147.294 201.853 154.783C197.158 162.273 191.456 169.037 184.749 175.073C178.041 180.998 170.663 186.029 162.614 190.165C154.677 194.301 146.125 197.487 136.959 199.723C127.904 201.959 118.569 203.077 108.955 203.077C99.3413 203.077 90.0068 201.959 80.9518 199.723C71.8969 197.487 63.3449 194.301 55.296 190.165C47.3589 186.029 40.0367 180.998 33.3293 175.073C26.6219 169.037 20.8647 162.273 16.0577 154.783C11.3626 147.294 7.6735 139.133 4.99054 130.301C2.30758 121.358 0.966064 111.912 0.966064 101.963C0.966064 92.0134 2.30758 82.623 4.99054 73.7916C7.6735 64.8484 11.3626 56.6318 16.0577 49.1419C20.8647 41.652 26.6219 34.9446 33.3293 29.0197C40.0367 22.9831 47.3589 17.8966 55.296 13.7604C63.3449 9.62415 71.8969 6.43814 80.9518 4.20234C90.0068 1.96654 99.3413 0.848633 108.955 0.848633C118.569 0.848633 127.904 1.96654 136.959 4.20234C146.125 6.43814 154.677 9.62415 162.614 13.7604C170.663 17.8966 178.041 22.9831 184.749 29.0197C191.456 34.9446 197.158 41.652 201.853 49.1419C206.66 56.6318 210.405 64.8484 213.088 73.7916C215.771 82.623 217.112 92.0134 217.112 101.963ZM159.428 101.963C159.428 96.5968 159.093 90.9514 158.422 85.0265C157.863 78.9899 156.857 73.1209 155.404 67.4196C153.951 61.6065 151.938 56.0729 149.367 50.8188C146.908 45.4528 143.834 40.8136 140.145 36.9009C136.456 32.8765 132.04 29.6905 126.898 27.3429C121.755 24.8835 115.774 23.6538 108.955 23.6538C102.471 23.6538 96.7142 24.8835 91.6837 27.3429C86.6531 29.8022 82.2374 33.1 78.4365 37.2363C74.7475 41.2607 71.6174 45.9559 69.0462 51.3218C66.5868 56.6877 64.5746 62.2772 63.0095 68.0903C61.4445 73.7916 60.3266 79.6047 59.6558 85.5296C58.9851 91.3426 58.6497 96.8204 58.6497 101.963C58.6497 107.105 58.9851 112.639 59.6558 118.564C60.3266 124.377 61.4445 130.19 63.0095 136.003C64.5746 141.816 66.5868 147.405 69.0462 152.771C71.6174 158.025 74.7475 162.721 78.4365 166.857C82.2374 170.881 86.6531 174.123 91.6837 176.583C96.7142 179.042 102.471 180.272 108.955 180.272C115.663 180.272 121.588 179.098 126.73 176.75C131.872 174.291 136.288 171.049 139.977 167.024C143.778 163 146.908 158.361 149.367 153.107C151.827 147.852 153.783 142.319 155.236 136.506C156.801 130.693 157.863 124.824 158.422 118.899C159.093 112.974 159.428 107.329 159.428 101.963Z" fill="white"/>
</svg>
