<svg width="161" height="165" viewBox="0 0 161 165" fill="none" xmlns="http://www.w3.org/2000/svg">
<path d="M80.9827 164.705C64.9564 164.705 50.8763 160.928 38.7421 153.373C26.8369 145.817 17.5646 135.973 10.9252 123.839C4.28574 111.704 0.966064 98.7689 0.966064 85.0322C0.966064 71.5244 3.36999 59.5047 8.17786 48.9732C12.9857 38.4417 19.2817 29.6272 27.0659 22.5299C35.079 15.4326 43.7789 10.0524 53.1657 6.38924C62.5525 2.7261 71.8248 0.894531 80.9827 0.894531C97.0089 0.894531 110.975 4.67214 122.88 12.2274C135.014 19.7826 144.401 29.6272 151.04 41.7614C157.68 53.8955 160.999 66.831 160.999 80.5677C160.999 94.0755 158.481 106.095 153.444 116.627C148.636 127.158 142.226 135.973 134.213 143.07C126.428 150.167 117.843 155.547 108.456 159.211C99.0694 162.874 89.9116 164.705 80.9827 164.705ZM80.9827 151.999C92.201 151.999 101.015 148.679 107.426 142.04C114.065 135.4 118.759 126.7 121.506 115.94C124.482 104.95 125.971 93.1597 125.971 80.5677C125.971 68.4336 124.482 57.3297 121.506 47.2561C118.53 37.1825 113.722 29.0549 107.082 22.8733C100.443 16.6918 91.7431 13.601 80.9827 13.601C69.7643 13.601 60.8354 16.9207 54.196 23.5602C47.5566 29.9707 42.8631 38.5561 40.1158 49.3166C37.3684 59.8481 35.9948 71.5243 35.9948 84.3453C35.9948 96.2505 37.3684 107.354 40.1158 117.657C43.0921 127.96 47.8999 136.316 54.5394 142.727C61.1788 148.908 69.9933 151.999 80.9827 151.999Z" fill="white"/>
</svg>
