<svg width="119" height="170" viewBox="0 0 119 170" fill="none" xmlns="http://www.w3.org/2000/svg">
<path d="M67.9327 169.837C44.5803 169.837 27.5238 162.053 16.7633 146.484C6.23179 130.687 0.966064 109.624 0.966064 83.2954C0.966064 51.9298 10.2383 25.0286 28.783 2.59192C36.1092 0.989298 43.55 0.187988 51.1052 0.187988C74.6867 0.187988 91.7431 7.05637 102.275 20.7931C112.806 34.3009 118.072 53.9903 118.072 79.8612C118.072 115.806 108.8 144.996 90.2549 167.433C82.9287 169.036 75.488 169.837 67.9327 169.837ZM68.963 166.059C75.6024 166.059 82.0129 165.372 88.1945 163.999C105.136 142.478 113.607 114.546 113.607 80.2046C113.607 55.2495 108.685 36.3615 98.8405 23.5405C88.9958 10.4906 72.7406 3.96559 50.075 3.96559C43.4355 3.96559 37.025 4.65243 30.8435 6.02611C13.9015 26.8602 5.43048 52.5021 5.43048 82.952C5.43048 138.357 26.608 166.059 68.963 166.059Z" fill="white"/>
</svg>
