<svg width="165" height="165" viewBox="0 0 165 165" fill="none" xmlns="http://www.w3.org/2000/svg">
<path d="M164.627 82.9413C164.627 95.1264 162.67 106.194 158.758 116.143C154.957 126.092 149.423 134.7 142.157 141.966C135.002 149.121 126.394 154.711 116.333 158.735C106.272 162.759 95.0374 164.772 82.6287 164.772C70.4436 164.772 59.3204 162.759 49.2593 158.735C39.1982 154.711 30.5345 149.121 23.2682 141.966C16.1136 134.7 10.58 126.092 6.66736 116.143C2.8665 106.194 0.966064 95.1264 0.966064 82.9413C0.966064 71.0916 2.8665 60.1362 6.66736 50.0751C10.58 39.9022 16.1136 31.1826 23.2682 23.9162C30.5345 16.5381 39.1982 10.8927 49.2593 6.98002C59.3204 2.95558 70.4436 0.943359 82.6287 0.943359C95.0374 0.943359 106.272 2.95558 116.333 6.98002C126.394 10.8927 135.002 16.5381 142.157 23.9162C149.423 31.1826 154.957 39.9022 158.758 50.0751C162.67 60.1362 164.627 71.0916 164.627 82.9413ZM130.083 82.9413C130.083 75.8986 128.966 69.247 126.73 62.9868C124.606 56.6148 121.476 51.193 117.339 46.7214C113.203 42.2498 108.173 38.7284 102.248 36.1572C96.4347 33.4742 89.895 32.1328 82.6287 32.1328C75.2505 32.1328 68.6549 33.4742 62.8419 36.1572C57.0288 38.7284 52.11 42.2498 48.0856 46.7214C44.0611 51.193 40.931 56.6148 38.6952 62.9868C36.5712 69.247 35.5092 75.8986 35.5092 82.9413C35.5092 90.3195 36.5712 97.0269 38.6952 103.064C40.931 109.1 44.0611 114.41 48.0856 118.994C52.11 123.577 57.0288 127.154 62.8419 129.725C68.6549 132.185 75.2505 133.415 82.6287 133.415C89.895 133.415 96.4347 132.185 102.248 129.725C108.173 127.154 113.203 123.577 117.339 118.994C121.476 114.41 124.606 109.1 126.73 103.064C128.966 97.0269 130.083 90.3195 130.083 82.9413Z" fill="white"/>
</svg>
