<svg width="206" height="187" viewBox="0 0 206 187" fill="none" xmlns="http://www.w3.org/2000/svg">
<path d="M0.966064 93.8959C0.966064 66.7309 10.1328 44.3729 28.4664 26.8219C46.7999 9.15905 71.5614 0.327637 102.751 0.327637C138.412 0.327637 165.353 10.6682 183.575 31.3494C198.22 48.0061 205.542 68.5195 205.542 92.8898C205.542 120.278 196.431 142.748 178.209 160.299C160.099 177.738 135.002 186.458 102.919 186.458C74.3003 186.458 51.1598 179.192 33.4969 164.659C11.8097 146.661 0.966064 123.073 0.966064 93.8959ZM69.3815 93.7282C69.3815 109.602 72.5675 121.34 78.9396 128.942C85.4234 136.544 93.5282 140.345 103.254 140.345C113.091 140.345 121.14 136.6 127.401 129.11C133.773 121.62 136.959 109.602 136.959 93.0574C136.959 77.6304 133.773 66.172 127.401 58.682C121.028 51.0803 113.147 47.2794 103.757 47.2794C93.8076 47.2794 85.5911 51.1362 79.1072 58.8497C72.6234 66.4514 69.3815 78.0776 69.3815 93.7282Z" fill="white"/>
</svg>
