<svg width="151" height="103" viewBox="0 0 151 103" fill="none" xmlns="http://www.w3.org/2000/svg">
<path d="M34.2777 102.157C25.3488 102.157 18.5949 99.9823 14.016 95.6323C9.66602 91.0534 7.49103 85.2153 7.49103 78.118C7.49103 73.768 8.0634 69.5325 9.20813 65.4115C10.3529 61.2904 11.612 57.6273 12.9857 54.422C11.3831 56.0247 9.78048 57.5128 8.17786 58.8865C6.80418 60.0312 5.65947 60.947 4.74368 61.6339C3.8279 62.3207 3.02659 62.6641 2.33975 62.6641C1.42397 62.6641 0.966064 62.0917 0.966064 60.947C0.966064 59.3444 2.11078 57.5128 4.40024 55.4523C12.4133 48.8129 18.7094 42.9748 23.2883 37.938C27.8672 32.6722 32.6751 27.8643 37.7119 23.5144C46.1829 16.1881 55.2263 10.4644 64.842 6.34341C74.4577 2.22239 84.0734 0.161865 93.6891 0.161865C103.763 0.161865 111.661 2.56579 117.385 7.37366C123.109 12.1815 125.971 19.2789 125.971 28.6656C125.971 33.9314 124.368 39.9985 121.163 46.8668C118.186 53.7352 113.379 60.8325 106.739 68.1588C103.992 71.1351 100.901 74.1114 97.4668 77.0877C94.0326 79.835 91.0563 81.8956 88.5379 83.2692C99.7562 82.1245 110.288 78.2324 120.132 71.593C129.977 64.7246 138.792 57.9707 146.576 51.3313C147.72 50.6444 148.522 50.301 148.98 50.301C150.124 50.301 150.697 50.8734 150.697 52.0181C150.697 52.9339 150.124 53.9642 148.98 55.1089C139.135 64.4957 128.489 72.3943 117.042 78.8048C105.823 85.2153 93.3457 88.306 79.609 88.0771C71.5959 92.4271 63.6972 95.8613 55.9131 98.3797C48.3579 100.898 41.1461 102.157 34.2777 102.157ZM49.7315 92.5415C52.9368 92.5415 56.371 91.9692 60.0341 90.8244C63.6973 89.6797 67.3604 88.1916 71.0235 86.36C69.6499 86.36 68.2762 85.6732 66.9025 84.2995C65.7578 82.9258 65.1854 81.0943 65.1854 78.8048C65.1854 74.2259 66.9025 69.5325 70.3367 64.7246C73.7709 59.9168 78.0064 55.7957 83.0432 52.3616C88.08 48.9274 93.0023 47.2103 97.8102 47.2103C100.558 47.2103 103.076 48.0116 105.365 49.6142C107.884 50.9879 109.258 52.9339 109.486 55.4523C113.379 51.1023 116.011 46.4089 117.385 41.3721C118.988 36.3353 119.789 31.6419 119.789 27.292C119.789 21.3394 117.843 16.8749 113.951 13.8986C110.288 10.6934 105.251 9.09076 98.8405 9.09076C92.6589 9.09076 85.7905 11.2657 78.2353 15.6157C70.9091 19.9657 63.9262 25.5749 57.2868 32.4433C50.8763 39.3116 45.4961 46.7524 41.1461 54.7655C37.0251 62.7786 34.9645 70.4483 34.9645 77.7746C34.9645 87.6192 39.8869 92.5415 49.7315 92.5415Z" fill="white"/>
</svg>
