<svg width="185" height="248" viewBox="0 0 185 248" fill="none" xmlns="http://www.w3.org/2000/svg">
<path d="M50.6268 0.207275H183.873C184.383 0.309379 184.587 0.564643 184.485 0.97306L135.322 247.095C135.22 247.605 134.914 247.861 134.403 247.861H1.15743C0.646912 247.861 0.442709 247.605 0.544814 247.095L40.6717 46.4604C42.5096 44.8268 43.4796 43.8057 43.5817 43.3973V43.091C42.1522 42.7847 41.4886 42.4273 41.5907 42.0189L49.7079 0.97306C49.9121 0.462539 50.2184 0.207275 50.6268 0.207275ZM108.673 26.5501C107.244 28.7964 105.355 29.9196 103.006 29.9196C101.679 29.9196 100.352 29.1538 99.0242 27.6222C98.1053 32.4211 95.5016 34.8206 91.2132 34.8206C91.009 34.8206 90.1922 34.5653 88.7627 34.0548C87.9459 35.7905 86.8738 37.2711 85.5465 38.4963L85.3933 38.9558C88.3543 39.2621 89.6306 40.6405 89.2222 43.091L88.9159 44.6226C88.4054 46.8688 86.4654 48.2473 83.0959 48.7578C80.5433 48.043 79.3692 47.022 79.5734 45.6946H77.7355C78.0418 46.5115 78.1439 47.2773 78.0418 47.992L77.8887 48.2983C76.8676 51.5656 75.0297 53.1993 72.375 53.1993H71.6092C70.5882 53.1993 69.4651 52.5867 68.2398 51.3614L66.8614 58.8661C68.6993 58.8661 69.4651 60.4997 69.1588 63.7671C67.7293 66.5239 66.0956 67.9023 64.2577 67.9023H62.7262L60.2757 67.1365L59.8162 69.4338C59.7141 69.9444 58.3868 70.3017 55.8342 70.5059L54.7621 71.7312L54.3026 73.8754C55.7321 73.6712 56.8042 73.5691 57.5189 73.5691C59.7652 74.488 60.6841 76.1217 60.2757 78.4701C59.1525 81.2269 57.4678 82.6053 55.2216 82.6053H53.3837L52.771 82.1458L51.2395 89.8036C51.3416 91.5394 51.3927 92.5094 51.3927 92.7136L51.2395 93.4794C50.2184 96.032 48.6869 97.3083 46.6448 97.3083H44.8069L41.2843 114.615C44.0411 114.615 45.1643 115.993 44.6538 118.75C44.2453 120.588 42.6628 121.711 39.906 122.12L36.2302 139.886C38.2723 139.886 38.987 141.366 38.3744 144.327C37.2512 146.369 36.077 147.39 34.8518 147.39L34.086 151.066C35.6176 150.045 36.8428 149.534 37.7618 149.534H38.5275C40.7738 149.534 41.6928 151.066 41.2843 154.129C40.3654 156.58 39.1401 157.805 37.6086 157.805L36.8428 161.328C38.4765 160.306 39.8549 159.796 40.978 159.796C43.1222 159.796 44.0922 161.276 43.888 164.237L43.7349 164.697C42.7138 167.147 41.2333 168.373 39.2933 168.373H38.5275C36.8939 168.373 35.8218 167.505 35.3112 165.769L35.9239 162.4H31.7887L31.3292 164.697C32.5545 166.229 33.0139 167.709 32.7076 169.138C31.6865 171.181 30.7166 172.202 29.7976 172.202L29.0318 175.877L31.0229 175.571H32.095C34.137 175.571 34.9539 176.592 34.5455 178.634L34.2392 180.472L32.7076 182.004L31.9418 186.139L33.9329 185.679H34.2392C36.7918 185.679 37.7617 187.058 37.1491 189.815C36.8428 191.448 35.5155 192.469 33.1671 192.878H31.3292L30.7166 192.571L29.9508 196.247H33.3202C33.8307 196.247 34.2902 196.4 34.6986 196.707C35.2091 196.4 35.7197 196.247 36.2302 196.247H36.996C39.2422 196.553 40.1612 197.677 39.7528 199.617C39.3443 201.761 37.7107 203.037 34.8518 203.445L33.1671 202.68L31.4823 210.644H34.2392C35.056 207.581 36.5876 206.049 38.8339 206.049H40.0591C42.2033 206.355 43.0712 207.479 42.6628 209.419L42.5096 210.644C41.6927 212.89 40.3144 214.013 38.3744 214.013H35.7707L35.4644 215.392H39.5996C39.9059 215.392 40.1612 215.902 40.3654 216.923C40.5696 216.923 41.1312 216.821 42.0501 216.617C44.1943 217.127 45.0622 218.353 44.6538 220.293C44.3474 221.722 43.3775 222.896 41.7438 223.815H38.6807L38.3744 225.194H47.4106C47.819 225.194 48.1253 226.827 48.3295 230.095V230.554C48.0232 231.881 47.4106 233.005 46.4917 233.923L46.3385 234.689C49.7079 234.894 52.1584 234.996 53.69 234.996H60.1225C60.6331 235.098 60.8373 235.353 60.7352 235.761L59.9694 239.897H65.6362C68.0867 237.446 70.0777 236.221 71.6092 236.221H73.1408C74.0598 236.221 75.0808 236.68 76.204 237.599C76.8166 234.434 78.8586 232.443 82.3302 231.626H84.6275C85.6486 231.932 86.4654 232.086 87.078 232.086C87.6907 229.329 90.0901 227.44 94.2764 226.419H95.8079C96.5227 226.419 97.6458 226.929 99.1774 227.95C100.505 224.377 102.496 222.59 105.15 222.59H106.682C107.703 222.59 108.826 223.203 110.051 224.428C110.766 220.956 111.889 219.221 113.421 219.221V218.914C109.132 218.914 107.397 216.872 108.214 212.788C108.826 210.133 111.072 208.5 114.952 207.887C115.769 207.887 116.79 208.397 118.016 209.419C118.118 208.602 118.526 207.121 119.241 204.977C118.526 204.977 117.505 204.313 116.178 202.986C115.259 206.56 113.421 208.346 110.664 208.346H109.132C106.478 208.346 105.355 206.56 105.763 202.986C106.478 199.514 108.571 197.779 112.042 197.779H112.808C113.523 197.779 114.442 198.136 115.565 198.851C116.484 194.154 119.241 191.806 123.835 191.806C124.142 191.806 125.214 192.061 127.052 192.571L127.971 189.815C125.418 189.815 124.193 187.824 124.295 183.841V183.535C124.601 182.004 125.571 180.37 127.205 178.634C123.631 178.634 122.202 176.847 122.917 173.274L123.07 172.508C123.58 169.853 125.775 168.22 129.655 167.607L132.565 168.373L132.872 167.301C132.974 166.382 133.842 165.003 135.475 163.165C133.229 163.165 132.208 161.532 132.412 158.264V157.805C132.719 156.171 133.995 154.793 136.241 153.67H138.845C139.56 153.67 140.274 153.925 140.989 154.435C141.499 152.291 142.01 150.913 142.521 150.3C141.704 150.3 140.529 149.432 138.998 147.697C138.181 150.76 136.599 152.291 134.25 152.291H133.178C130.932 152.291 129.962 150.76 130.268 147.697C131.391 145.246 132.923 144.021 134.863 144.021H135.935C136.752 144.021 137.568 144.378 138.385 145.093C139.508 139.273 142.214 136.363 146.503 136.363H148.034L150.638 136.823C150.74 136.21 150.944 135.699 151.25 135.291C148.698 135.291 147.37 133.045 147.268 128.552C147.881 127.021 148.238 125.897 148.34 125.183C145.379 123.651 144.205 121.354 144.818 118.291L144.971 117.984C146.707 113.492 149.157 111.245 152.323 111.245H154.16L156.764 111.552C156.866 111.041 157.07 110.531 157.377 110.02C155.028 110.02 153.803 108.029 153.701 104.047L154.007 102.516L154.926 99.9119C153.497 99.1972 152.374 98.4314 151.557 97.6146C150.332 100.678 148.698 102.209 146.656 102.209H145.43C143.184 102.209 142.163 100.576 142.367 97.3083C143.388 94.5514 145.022 93.173 147.268 93.173H149.566L150.485 93.9388H150.944L151.097 93.173C151.608 91.6415 151.914 90.5183 152.016 89.8036L149.106 87.8126C148.085 90.5694 146.4 91.9478 144.052 91.9478H142.521C140.274 91.9478 139.253 90.3141 139.457 87.0468C140.887 83.7795 142.827 82.1458 145.277 82.1458L148.187 82.9116C148.494 81.1758 149.464 79.44 151.097 77.7043C148.953 77.7043 147.779 75.9685 147.575 72.497C147.881 71.1696 148.8 69.7912 150.331 68.3617C145.328 68.3617 143.286 66.0644 144.205 61.4697C145.839 57.9982 147.575 56.2624 149.413 56.2624V55.803L147.422 56.2624H146.809C144.052 55.854 142.929 54.4756 143.439 52.1272L143.593 51.3614C144.512 48.6046 146.145 47.2262 148.494 47.2262H148.953C150.28 47.2262 151.301 47.5836 152.016 48.2983C152.323 46.8688 152.629 46.001 152.935 45.6946C152.118 45.6946 151.863 44.5715 152.169 42.3252C151.863 42.3252 151.506 42.2231 151.097 42.0189C149.77 45.4904 147.422 47.2262 144.052 47.2262C140.989 47.2262 139.611 45.3373 139.917 41.5594V41.2531C140.223 39.9258 140.836 38.7516 141.755 37.7305C137.364 37.1179 135.526 35.0248 136.241 31.4511L136.394 30.9917C136.599 29.7664 137.211 28.5412 138.232 27.3159C136.905 27.0096 135.935 26.8564 135.322 26.8564C133.689 30.1238 131.493 31.7574 128.737 31.7574H126.745C125.622 31.7574 124.397 30.9917 123.07 29.4601C122.355 33.2379 120.109 35.1269 116.331 35.1269C113.472 34.5142 112.298 32.7785 112.808 29.9196L112.961 29.4601C113.063 28.7454 113.625 27.7754 114.646 26.5501H108.673ZM107.601 29.9196C109.643 29.9196 110.919 30.9406 111.43 32.9827L111.124 35.1269C110.511 37.8837 108.571 39.2621 105.304 39.2621C102.751 38.4453 101.679 36.9647 102.087 34.8206C103.108 31.5532 104.946 29.9196 107.601 29.9196ZM149.259 32.2169C149.055 33.1358 148.34 34.259 147.115 35.5863L146.962 35.8927C148.494 35.8927 149.566 36.3011 150.178 37.1179C150.28 36.5053 150.689 35.1269 151.404 32.9827C150.689 32.9827 149.974 32.7274 149.259 32.2169ZM131.953 32.2169H133.791C135.118 33.0337 135.68 34.1569 135.475 35.5863L135.322 35.8927C134.607 38.1389 133.28 39.2621 131.34 39.2621H129.809C128.379 38.6495 127.818 37.6795 128.124 36.3521L128.43 35.1269C128.839 33.1869 130.013 32.2169 131.953 32.2169ZM95.8079 34.3611H97.3395C99.6879 34.3611 100.709 36.1479 100.403 39.7216C99.8921 41.8657 97.799 43.3463 94.1232 44.1631C91.2643 43.4484 90.0901 41.9678 90.6006 39.7216L90.7537 38.4963C91.1622 36.4542 92.8469 35.0758 95.8079 34.3611ZM121.691 36.6584C123.325 36.6584 124.091 37.7816 123.989 40.0279L123.682 41.5594C122.559 43.091 121.283 43.8568 119.853 43.8568C117.607 43.8568 116.688 42.8357 117.097 40.7937L117.403 38.9558C118.628 37.4242 120.058 36.6584 121.691 36.6584ZM51.3927 38.19C51.2905 38.7005 50.729 39.5684 49.7079 40.7937H51.2395L51.6989 38.19H51.3927ZM110.358 40.4873C112.808 40.4873 113.829 42.2231 113.421 45.6946C112.094 47.9409 110.613 49.0641 108.979 49.0641H107.907C105.661 49.0641 104.691 47.5836 104.997 44.6226C105.406 42.4784 107.193 41.1 110.358 40.4873ZM80.186 41.2531L80.0329 42.0189H80.3391L80.4923 41.2531H80.186ZM134.863 42.3252H135.169C137.415 42.6315 138.334 43.7547 137.926 45.6946L137.773 46.4604C137.364 48.4004 135.884 49.5236 133.331 49.8299C131.187 49.3193 130.268 48.1962 130.574 46.4604L130.728 45.6946C131.544 43.4484 132.923 42.3252 134.863 42.3252ZM99.3305 44.6226C102.292 45.2352 103.517 46.7157 103.006 49.0641L102.853 49.8299C101.628 52.893 99.841 54.4245 97.4926 54.4245H96.7268C94.0721 54.4245 92.898 52.6377 93.2043 49.0641C93.7148 46.4094 95.7569 44.9289 99.3305 44.6226ZM123.529 46.4604H124.601C126.745 46.7667 127.664 47.8899 127.358 49.8299L127.052 51.3614C126.235 53.6077 124.857 54.7309 122.917 54.7309H120.619C119.088 53.8119 118.475 52.5867 118.781 51.0551L118.934 50.2893C119.751 47.7367 121.283 46.4604 123.529 46.4604ZM87.078 49.5235H88.6096C91.0601 50.0341 92.0811 51.2593 91.6727 53.1993L91.3664 54.7309C90.8559 57.0793 88.9159 58.4577 85.5465 58.8661C82.9939 58.8661 81.8196 57.2324 82.0239 53.9651L82.177 53.6588C83.096 50.902 84.7296 49.5235 87.078 49.5235ZM113.574 50.5956C115.922 51.6167 116.841 53.2503 116.331 55.4966C115.208 58.2534 113.574 59.6319 111.43 59.6319H110.358C107.907 59.1213 106.886 57.845 107.295 55.803L107.754 53.6588C108.979 51.6167 110.919 50.5956 113.574 50.5956ZM152.629 51.0551C152.22 53.3014 151.302 54.884 149.872 55.803H150.638C150.842 55.803 151.199 55.7008 151.71 55.4966L155.079 56.2624C155.488 55.4456 155.743 54.5777 155.845 53.6588C153.803 52.944 152.884 52.0762 153.088 51.0551H152.629ZM137.313 52.893H137.926C139.355 52.893 140.223 53.6588 140.529 55.1903L140.223 56.5687C139.815 58.815 138.232 59.9382 135.475 59.9382C133.535 59.3255 132.77 58.1003 133.178 56.2624C133.995 54.0161 135.373 52.893 137.313 52.893ZM75.7445 53.6588H77.5823C79.7265 53.6588 80.7986 55.1393 80.7986 58.1003L80.6455 59.3255C79.4202 62.2866 77.6334 63.7671 75.285 63.7671H73.7534C71.3029 63.7671 70.1798 61.8781 70.384 58.1003C71.8135 55.1393 73.6003 53.6588 75.7445 53.6588ZM100.709 55.1903H103.313C105.048 56.2114 105.763 57.5898 105.457 59.3255L105.304 60.3976C104.283 63.1544 102.598 64.5328 100.249 64.5328H98.7179C96.4716 64.5328 95.4505 62.8992 95.6547 59.6319C96.88 56.6708 98.5647 55.1903 100.709 55.1903ZM126.133 57.3345H126.592C128.532 57.3345 129.4 58.6108 129.196 61.1634C128.788 63.4097 127.052 64.5328 123.989 64.5328C122.355 63.8181 121.691 62.695 121.998 61.1634L122.304 59.6319C123.529 58.1003 124.805 57.3345 126.133 57.3345ZM90.7537 59.3255C93.6127 60.0403 94.7869 61.776 94.2764 64.5328L94.1232 64.8392C93.919 65.9623 93.0511 67.2386 91.5196 68.6681C94.1743 68.6681 96.1142 69.0254 97.3395 69.7402L97.4926 69.4338C98.1053 66.3707 100.3 64.635 104.078 64.2265H104.538C106.274 64.2265 107.754 64.9413 108.979 66.3707C109.081 65.7581 109.694 65.2476 110.817 64.8392C111.124 63.0013 112.706 61.8781 115.565 61.4697C117.709 62.2866 118.577 63.5629 118.169 65.2986V65.6049C117.658 68.1575 116.025 69.4338 113.268 69.4338L112.042 75.1006H113.574C113.88 73.467 115.055 72.5991 117.097 72.497H119.088C120.415 73.3138 120.874 74.539 120.466 76.1727C119.241 78.419 117.76 79.5421 116.025 79.5421L112.502 97.6146C112.298 98.4314 113.778 99.0951 116.943 99.6056L115.565 106.651C117.301 108.182 118.016 109.561 117.709 110.786L117.556 112.011C117.25 113.236 115.973 114.615 113.727 116.146L113.115 118.75C114.544 118.035 115.616 117.678 116.331 117.678H116.79C119.241 117.984 120.262 119.21 119.853 121.354L119.547 122.885L118.934 123.651H125.673C126.184 123.651 126.286 124.417 125.98 125.948H126.439C126.643 124.723 127.766 123.957 129.809 123.651H130.574C132.821 123.957 133.74 125.081 133.331 127.021L133.178 127.786C132.361 130.033 130.983 131.156 129.043 131.156H128.43C126.184 130.747 125.214 129.726 125.52 128.093H122.151C122.968 129.216 123.274 130.237 123.07 131.156L122.763 132.687C121.844 135.444 120.211 136.823 117.862 136.823H117.403C114.238 136.516 112.961 134.883 113.574 131.922V131.462C113.778 130.543 114.544 129.42 115.871 128.093H111.277L110.205 133.453C110.817 134.372 111.021 135.24 110.817 136.057L110.664 137.129C110.154 139.375 108.52 140.498 105.763 140.498L104.078 139.886L103.466 142.796H107.601C108.111 142.898 108.316 143.153 108.214 143.561L110.205 143.255H110.511C111.94 143.255 112.91 143.97 113.421 145.399L113.115 147.39C112.706 149.33 111.226 150.453 108.673 150.76L106.835 150.3C106.529 151.832 106.12 152.598 105.61 152.598H102.24C101.73 152.7 101.424 152.955 101.322 153.363L100.403 158.264H101.475C103.925 158.571 104.946 159.847 104.538 162.093C103.517 164.34 102.036 165.463 100.096 165.463H98.871L95.0421 184.607C96.88 184.607 97.5947 185.475 97.1863 187.211C96.88 188.742 95.859 189.508 94.1232 189.508H93.3574C92.4385 189.508 92.1322 188.487 92.4385 186.445H84.9338L84.7807 186.905C87.5375 186.905 88.7117 188.64 88.3033 192.112C87.7928 194.562 85.7507 196.094 82.177 196.707C79.5223 196.707 78.3481 194.92 78.6544 191.346H74.9787C74.4682 191.346 74.4171 190.223 74.8255 187.977H74.5192C74.1108 190.019 71.9666 191.295 68.0867 191.806C64.7172 190.785 63.2878 188.998 63.7983 186.445L64.1046 185.373C64.6151 182.514 66.9635 180.727 71.1498 180.013H71.9156L72.6813 176.337C72.7834 175.826 72.5792 175.571 72.0687 175.571C71.0477 178.838 69.363 180.472 67.0146 180.472H65.483C63.1346 180.472 62.0625 178.838 62.2667 175.571C63.1857 172.304 65.1257 170.67 68.0867 170.67C69.6182 170.67 70.7924 171.181 71.6092 172.202V171.742C71.7114 171.538 71.6603 171.436 71.4561 171.436C71.9666 169.802 72.5792 168.424 73.294 167.301C72.375 167.301 71.1498 166.535 69.6182 165.003C68.9035 168.577 67.1677 170.364 64.4109 170.364H62.8794C59.9183 170.364 58.7952 168.475 59.5099 164.697C60.7352 161.634 62.8283 160.102 65.7893 160.102H66.0956C67.0146 160.102 68.0356 160.613 69.1588 161.634C69.7714 158.673 70.7924 156.682 72.2219 155.661C68.8524 155.048 67.4741 153.261 68.0867 150.3C69.414 146.829 71.5071 145.093 74.3661 145.093C75.6934 145.093 76.9697 145.706 78.195 146.931C78.3992 145.603 78.8587 143.868 79.5734 141.724C78.7565 141.724 77.6334 141.111 76.204 139.886C74.9787 143.357 73.1408 145.093 70.6903 145.093H68.6993C66.6572 145.093 65.5851 143.561 65.483 140.498L65.6362 140.192C66.6572 136.72 68.4951 134.985 71.1498 134.985H72.6813C73.4982 134.985 74.315 135.342 75.1319 136.057H75.4381C76.4592 133.504 77.0208 131.973 77.1229 131.462C76.2039 131.462 75.0808 130.849 73.7534 129.624C72.4261 133.198 70.2819 134.985 67.3209 134.985H66.7083C63.7472 134.372 62.522 132.84 63.0325 130.39L63.3388 128.858C63.7472 126.612 65.7893 125.132 69.4651 124.417C70.384 124.417 71.5582 124.927 72.9877 125.948C73.4982 123.294 74.6213 121.252 76.3571 119.822C72.6814 119.414 71.1498 117.78 71.7624 114.921C72.375 111.858 74.6213 110.122 78.5013 109.714C79.1139 109.714 80.0328 110.071 81.2581 110.786C81.4623 109.561 81.9728 108.182 82.7897 106.651C81.9728 106.447 80.9007 105.681 79.5734 104.353C78.3481 107.621 76.5103 109.254 74.0598 109.254H72.8345C70.1798 108.744 69.1077 107.366 69.6182 105.119L69.9245 103.741C70.333 101.392 72.2219 100.014 75.5913 99.6056C76.4081 99.6056 77.4292 100.065 78.6544 100.984C79.7776 95.7767 82.5855 93.173 87.078 93.173C89.1201 93.6836 90.4475 93.9388 91.0601 93.9388L92.5916 91.6415C89.4264 91.6415 87.8438 89.4973 87.8438 85.2089L87.9969 84.9026C88.2011 83.4732 88.967 82.0948 90.2943 80.7674C86.6186 80.2569 85.0359 78.6232 85.5465 75.8664L86.0059 73.5691C86.3123 72.4459 87.3843 71.0675 89.2222 69.4338C85.4444 69.1275 83.8107 67.7491 84.3212 65.2986L84.6275 63.7671C85.138 61.2145 87.1801 59.734 90.7537 59.3255ZM140.529 63.0013C142.367 63.716 143.133 64.8392 142.827 66.3707L142.674 66.8302C141.959 69.0765 140.632 70.1996 138.692 70.1996C137.262 70.1996 136.292 69.4338 135.782 67.9023L136.088 66.3707C136.496 64.4307 137.977 63.3076 140.529 63.0013ZM156.611 63.4608C156.407 64.2776 155.386 65.5028 153.548 67.1365C155.284 67.1365 156.509 67.3918 157.224 67.9023L157.836 64.5328C157.938 64.1244 157.53 63.7671 156.611 63.4608ZM78.5013 64.5328H79.5734C82.0239 65.0434 83.0449 66.3197 82.6365 68.3617L82.3302 69.7402C81.9218 71.8843 80.1349 73.1606 76.9697 73.5691C74.315 73.0585 73.1919 71.7822 73.6003 69.7402L73.9066 68.3617C74.9276 65.8091 76.4592 64.5328 78.5013 64.5328ZM128.277 67.596H129.349C131.698 67.596 132.565 69.0765 131.953 72.0375C130.83 74.0796 129.349 75.1006 127.511 75.1006H125.98C124.448 74.1817 123.835 72.9054 124.142 71.2717C124.857 68.8212 126.235 67.596 128.277 67.596ZM68.0867 68.9744C70.7414 69.587 71.8645 71.0165 71.4561 73.2628L71.3029 73.8754C70.384 76.6322 68.7503 78.0106 66.4019 78.0106H65.6362C63.2878 78.0106 62.2157 76.428 62.4199 73.2628C62.9304 70.9144 64.8193 69.4849 68.0867 68.9744ZM157.989 73.2628L157.224 75.4069L160.44 75.8664L160.746 74.6412C160.338 74.6412 159.419 74.1817 157.989 73.2628ZM143.286 73.2628C145.226 73.8754 145.992 75.1006 145.584 76.9385C144.767 79.4911 143.286 80.7674 141.142 80.7674C138.998 80.7674 137.977 79.389 138.079 76.6322C138.487 74.6922 140.223 73.5691 143.286 73.2628ZM81.1049 75.4069H82.6365C84.2701 76.3259 84.9338 77.6022 84.6275 79.2358L84.4744 79.5421C84.066 81.6863 82.4323 82.9626 79.5734 83.371C77.5313 83.371 76.5613 81.8395 76.6634 78.7764C77.9907 76.5301 79.4713 75.4069 81.1049 75.4069ZM96.5737 77.7043L96.4205 78.4701H96.7268L96.88 77.7043H96.5737ZM131.8 78.0106C133.637 78.8274 134.403 80.1037 134.097 81.8395C133.791 83.4732 132.463 84.4942 130.115 84.9026H129.655C127.715 84.9026 126.95 83.8816 127.358 81.8395L127.664 80.3079C128.788 78.7764 130.166 78.0106 131.8 78.0106ZM70.2309 79.2358C73.0898 79.8485 74.315 81.2269 73.9066 83.371L73.7534 84.4431C72.7324 86.9957 71.2009 88.272 69.1588 88.272H67.6272C65.1767 88.272 64.3088 86.4852 65.0235 82.9116C66.5551 80.4611 68.2909 79.2358 70.2309 79.2358ZM119.547 82.9116H121.385C122.508 83.6263 122.968 84.6473 122.763 85.9747L122.61 86.4342C122.202 88.3742 121.028 89.3441 119.088 89.3441H117.556C116.229 88.5273 115.718 87.3021 116.025 85.6684C116.841 83.8305 118.016 82.9116 119.547 82.9116ZM59.5099 83.6774C61.8583 83.6774 62.9304 85.311 62.7262 88.5784L62.573 89.0378C62.1646 91.2841 60.2757 92.6625 56.9063 93.173C54.2516 92.6625 53.1284 91.3862 53.5368 89.3441L53.8431 87.8126C54.3536 85.0558 56.2426 83.6774 59.5099 83.6774ZM162.125 84.4431L161.359 86.4342H162.89L163.197 84.9026C162.992 84.9026 162.635 84.7495 162.125 84.4431ZM84.4744 85.6684C86.6186 86.1789 87.4865 87.4042 87.078 89.3441L86.9248 90.1099C86.5164 92.0499 85.0359 93.173 82.4833 93.4794H82.0239C79.8797 93.173 79.0118 92.0499 79.4202 90.1099L79.5734 89.0378C80.0839 86.7915 81.7176 85.6684 84.4744 85.6684ZM133.791 89.0378C135.833 89.0378 136.598 90.161 136.088 92.4073C135.577 93.4283 134.812 94.1941 133.791 94.7046H131.493C130.37 93.9899 129.962 92.9688 130.268 91.6415C130.574 90.1099 131.749 89.242 133.791 89.0378ZM72.2219 89.8036H73.4471C75.7955 90.3141 76.7655 91.5394 76.3571 93.4794L76.0508 95.0109C75.6424 97.1551 73.9066 98.4314 70.8435 98.8398C68.1888 98.3293 67.0656 97.053 67.474 95.0109L67.7803 93.4794C68.8014 91.0289 70.2819 89.8036 72.2219 89.8036ZM121.079 93.9388H122.61C124.346 93.9388 125.061 94.8067 124.754 96.5425C124.55 97.5635 123.733 98.4314 122.304 99.1461H120.466C119.343 98.5335 118.934 97.5125 119.241 96.083C119.445 95.1641 120.058 94.4493 121.079 93.9388ZM61.1946 94.7046H63.0325C64.6662 95.4193 65.3299 96.5425 65.0235 98.074L64.7172 99.6056C63.9004 101.852 62.522 102.975 60.582 102.975H59.0505C57.621 102.975 56.7021 102.056 56.2936 100.218L56.9063 97.3083C58.1315 95.5725 59.561 94.7046 61.1946 94.7046ZM50.4737 99.1461C52.6179 99.1461 53.69 100.678 53.69 103.741C52.5668 106.191 51.0863 107.417 49.2485 107.417H47.2574C45.7259 106.6 45.0622 105.477 45.2664 104.047L45.5727 102.975C45.9811 100.831 47.6148 99.5546 50.4737 99.1461ZM136.547 99.6056C138.079 99.6056 138.641 100.473 138.232 102.209C137.926 103.945 136.905 104.813 135.169 104.813H134.403C133.28 104.2 132.872 103.179 133.178 101.75C133.995 100.32 135.118 99.6056 136.547 99.6056ZM91.6727 101.75L90.9069 103.741H91.6727L92.1322 101.75H91.6727ZM125.52 103.741C127.154 104.456 127.818 105.579 127.511 107.11C127.205 108.54 126.031 109.408 123.989 109.714H122.917C122.508 109.714 121.998 109.101 121.385 107.876L121.538 106.651C121.947 104.711 123.274 103.741 125.52 103.741ZM149.566 104.353H150.638C152.68 104.353 153.497 105.374 153.088 107.417L152.629 109.254C151.506 110.786 150.229 111.552 148.8 111.552H148.494C146.247 111.245 145.328 110.122 145.737 108.182L145.89 107.876C146.298 105.528 147.524 104.353 149.566 104.353ZM63.7983 105.885H64.8704C66.1978 106.804 66.7593 107.927 66.5551 109.254C66.1467 110.888 64.8193 111.909 62.573 112.318C60.5309 112.318 59.7141 111.297 60.1225 109.254V108.948C60.531 106.906 61.7562 105.885 63.7983 105.885ZM138.385 108.948H140.376C141.704 109.867 142.214 110.99 141.908 112.318V112.777C141.091 115.023 139.713 116.146 137.773 116.146H137.007C134.965 116.146 134.148 115.125 134.556 113.083L134.863 112.011C135.271 109.969 136.445 108.948 138.385 108.948ZM53.2305 109.714C55.3747 110.531 56.2426 111.756 55.8342 113.39L55.681 114.155C55.3747 116.095 53.8942 117.27 51.2395 117.678H50.9332C48.6869 117.27 47.768 116.095 48.1764 114.155L48.4827 113.083C48.8911 110.837 50.4737 109.714 53.2305 109.714ZM127.664 114.155C129.604 114.155 130.37 115.33 129.962 117.678C129.349 118.699 128.583 119.414 127.664 119.822H125.367C124.244 119.21 123.835 118.24 124.142 116.912C124.448 115.279 125.622 114.36 127.664 114.155ZM81.8707 114.921C81.5644 116.453 80.8497 117.729 79.7265 118.75C81.9728 118.75 83.4023 119.005 84.0149 119.516L84.6275 116.453C83.9128 116.453 82.9939 115.942 81.8707 114.921ZM67.0146 116.146C68.6482 116.657 69.3119 117.627 69.0056 119.056L68.6993 120.588C67.474 122.12 66.1978 122.885 64.8704 122.885C63.9515 122.885 63.1346 122.12 62.4199 120.588L62.573 119.056C62.9814 117.116 64.462 116.146 67.0146 116.146ZM142.061 119.056C143.899 119.056 144.614 120.588 144.205 123.651C143.593 124.774 142.674 125.642 141.448 126.255H138.692C137.364 125.336 136.854 124.213 137.16 122.885L137.313 122.426C137.722 120.18 139.304 119.056 142.061 119.056ZM55.2216 120.282C57.6721 120.588 58.6931 121.813 58.2846 123.957C57.7741 126.51 56.0384 127.786 53.0774 127.786C51.1374 127.072 50.3716 125.795 50.78 123.957C51.5969 121.507 53.0774 120.282 55.2216 120.282ZM44.6538 124.723C46.2874 124.723 47.1043 126.102 47.1043 128.858C46.3895 130.594 45.3175 131.717 43.888 132.228H42.3564C40.1101 131.922 39.1912 130.798 39.5996 128.858L39.7528 128.093C40.1612 125.846 41.7948 124.723 44.6538 124.723ZM142.521 129.624H144.512C146.452 129.624 147.217 130.645 146.809 132.687L146.503 134.525C145.277 136.057 144.001 136.823 142.674 136.823H142.367C140.121 136.516 139.202 135.393 139.611 133.453V132.994C139.917 131.666 140.887 130.543 142.521 129.624ZM57.2126 131.156H59.0505C60.1736 131.768 60.633 132.789 60.4288 134.219L60.2757 134.525C59.8673 136.567 58.6931 137.588 56.7531 137.588H55.9873C53.9452 137.588 53.1795 136.312 53.69 133.759C54.5068 132.024 55.681 131.156 57.2126 131.156ZM133.331 132.994C135.884 133.708 136.956 135.087 136.547 137.129L136.394 138.354C135.373 140.805 133.842 142.03 131.8 142.03H130.268C128.226 142.03 127.307 140.549 127.511 137.588C128.022 135.138 129.962 133.606 133.331 132.994ZM46.3385 134.985H47.1043C49.4527 134.985 50.3716 136.618 49.8611 139.886C48.6358 142.132 46.9 143.255 44.6538 143.255C42.3054 142.54 41.2844 141.264 41.5907 139.426L41.7438 138.66C42.6627 136.21 44.1943 134.985 46.3385 134.985ZM120.926 137.895H122.457C124.499 137.895 125.469 139.273 125.367 142.03C124.448 145.297 122.508 146.931 119.547 146.931C116.995 146.114 115.871 144.736 116.178 142.796L116.484 141.724C117.505 139.171 118.986 137.895 120.926 137.895ZM59.6631 141.264H61.6541C62.9815 142.183 63.492 143.306 63.1857 144.634C62.3689 146.982 60.9904 148.156 59.0505 148.156H57.672C56.3447 147.237 55.7831 146.063 55.9873 144.634C56.4978 142.387 57.7231 141.264 59.6631 141.264ZM49.5548 144.634C52.2095 145.45 53.3326 146.829 52.9242 148.769L52.771 149.534C51.8521 152.291 50.2184 153.67 47.87 153.67H47.1043C44.3475 153.67 43.2754 152.036 43.888 148.769C44.3985 146.522 46.2874 145.144 49.5548 144.634ZM123.682 149.228H124.448C126.388 149.228 127.154 150.249 126.745 152.291L126.592 153.057C126.184 154.997 125.01 155.967 123.07 155.967H122.304C120.262 155.967 119.445 154.997 119.853 153.057L120.007 152.291C120.415 150.249 121.64 149.228 123.682 149.228ZM62.1136 149.994H63.9514C66.0956 149.994 67.2188 151.372 67.3209 154.129L67.0146 155.661C66.402 158.622 64.2067 160.102 60.4288 160.102C57.5699 159.49 56.4468 157.754 57.0594 154.895V154.435C58.3868 151.474 60.0715 149.994 62.1136 149.994ZM76.3571 154.129H77.1229L77.276 153.363C76.7655 153.466 76.4592 153.721 76.3571 154.129ZM113.421 153.363C115.055 153.363 115.871 154.742 115.871 157.499C114.952 159.745 113.625 160.868 111.889 160.868H111.124C108.979 160.562 108.06 159.439 108.367 157.499L108.52 156.733C109.03 154.487 110.664 153.363 113.421 153.363ZM51.2395 155.661H53.0774C54.711 156.478 55.3236 157.703 54.9152 159.336V159.796C54.0984 162.246 52.5668 163.472 50.3206 163.472H49.5548C47.4106 163.165 46.5427 162.042 46.9511 160.102L47.1043 159.03C47.9211 156.784 49.2995 155.661 51.2395 155.661ZM33.3202 156.733L33.1671 157.499H33.9329C34.035 156.988 33.8307 156.733 33.3202 156.733ZM141.755 158.571C141.551 159.592 141.091 160.511 140.376 161.328C141.397 161.328 142.725 161.583 144.358 162.093C144.46 161.787 144.665 161.379 144.971 160.868C143.746 160.562 142.674 159.796 141.755 158.571ZM126.439 159.796H127.511C128.839 160.613 129.349 161.736 129.043 163.165C128.736 164.799 127.409 165.82 125.061 166.229C123.121 166.229 122.355 165.207 122.763 163.165V162.706C123.172 160.766 124.397 159.796 126.439 159.796ZM114.952 164.237H116.484C117.811 165.156 118.322 166.28 118.016 167.607C117.607 169.649 116.127 170.772 113.574 170.976C111.94 170.976 111.175 169.853 111.277 167.607L111.43 167.301C111.736 165.259 112.91 164.237 114.952 164.237ZM54.9152 165.463C57.2636 165.973 58.2847 167.198 57.9784 169.138L57.672 170.67C57.1615 173.223 55.1194 174.499 51.5458 174.499C49.5037 173.58 48.6358 172.304 48.9421 170.67L49.2485 169.138C49.759 166.79 51.6479 165.565 54.9152 165.463ZM103.772 169.138H104.997C105.304 169.138 105.814 169.751 106.529 170.976L106.069 173.274C105.15 174.601 103.976 175.265 102.547 175.265C101.628 175.265 100.913 174.601 100.403 173.274L100.709 171.742C101.015 170.006 102.036 169.138 103.772 169.138ZM41.4375 170.67H44.5006C46.0322 171.793 46.5937 173.172 46.1853 174.805C45.7769 176.949 44.0412 178.226 40.978 178.634C38.8339 178.124 37.9149 177 38.2212 175.265L38.6807 172.967C38.7828 172.559 39.7017 171.793 41.4375 170.67ZM133.637 174.499L132.106 176.643L131.953 177.103H132.719L135.322 177.409L135.628 175.571L133.637 174.499ZM117.709 174.805C119.751 174.805 120.568 175.826 120.16 177.868L120.007 178.94C119.904 179.247 119.139 179.859 117.709 180.778H115.412C114.289 180.166 113.88 179.196 114.187 177.868C114.595 175.826 115.769 174.805 117.709 174.805ZM57.3657 175.571C59.3057 175.571 60.3778 177.052 60.582 180.013C59.3568 183.076 57.672 184.607 55.5278 184.607H54.4557C52.0052 184.097 50.9842 182.82 51.3927 180.778L51.6989 179.706C52.2095 176.949 54.0984 175.571 57.3657 175.571ZM106.682 179.706C108.214 179.706 108.877 180.727 108.673 182.769C108.367 184.199 107.346 184.914 105.61 184.914H104.385C103.976 184.914 103.568 184.454 103.159 183.535L103.619 181.238C104.231 180.217 105.253 179.706 106.682 179.706ZM45.879 180.472C48.2274 181.085 49.2484 182.31 48.9421 184.148L48.6358 185.373C48.2274 187.517 46.4916 188.742 43.4285 189.049C40.978 188.436 39.957 187.058 40.3654 184.914L40.5186 184.607C41.0291 182.157 42.8159 180.778 45.879 180.472ZM74.6724 181.544C75.1829 182.565 75.3871 183.331 75.285 183.841H75.7445L76.0508 181.544H74.6724ZM136.701 185.679L136.547 186.445H138.385V186.139L136.701 185.679ZM58.591 186.139H60.1225C62.3688 186.139 63.3388 187.619 63.0325 190.58L62.8794 191.04C62.4709 193.286 60.582 194.665 57.2126 195.175C54.5578 194.767 53.4347 193.388 53.8431 191.04L54.1495 189.815C55.1705 187.364 56.651 186.139 58.591 186.139ZM119.241 186.139H121.079C121.487 186.139 121.793 186.496 121.998 187.211L121.691 189.049C121.589 189.457 121.13 189.866 120.313 190.274H118.475C117.556 189.764 117.199 188.998 117.403 187.977C118.118 186.854 118.73 186.241 119.241 186.139ZM108.979 190.274C110.715 190.274 111.43 191.142 111.124 192.878C110.817 194.409 109.643 195.277 107.601 195.481C106.58 195.175 105.967 194.562 105.763 193.643L105.916 192.878C106.223 191.142 107.244 190.274 108.979 190.274ZM47.4106 191.346H48.6358C50.4737 191.346 51.3416 192.622 51.2395 195.175C50.9332 196.809 49.81 198.034 47.87 198.851H45.879C44.0412 198.851 43.1733 197.626 43.2754 195.175C44.0922 192.622 45.4706 191.346 47.4106 191.346ZM72.5282 192.112H73.6003C75.9487 192.112 76.8676 193.746 76.3571 197.013C75.1318 199.259 73.6513 200.382 71.9156 200.382H70.8435C68.5972 200.382 67.6272 198.902 67.9335 195.941C69.0566 193.388 70.5882 192.112 72.5282 192.112ZM97.7989 193.95H98.1053C100.147 193.95 100.964 194.971 100.556 197.013L100.403 197.779C99.9942 199.821 98.6668 200.842 96.4205 200.842C94.3785 200.638 93.5616 199.617 93.97 197.779L94.1232 197.013C94.5316 194.971 95.7568 193.95 97.7989 193.95ZM60.2757 197.013H63.1857C64.7172 198.136 65.3299 199.514 65.0235 201.148C64.6151 203.292 62.8793 204.569 59.8162 204.977C57.672 204.466 56.7531 203.343 57.0594 201.608L57.5189 199.31C57.621 198.902 58.5399 198.136 60.2757 197.013ZM86.6186 198.544C88.8648 198.851 89.7838 199.974 89.3754 201.914C88.5585 204.16 87.1801 205.283 85.2401 205.283C83.0959 204.977 82.2281 203.854 82.6365 201.914C83.3512 199.668 84.6786 198.544 86.6186 198.544ZM128.583 200.076L127.358 201.914C127.46 202.118 128.328 202.22 129.962 202.22L130.268 200.842L128.583 200.076ZM50.3206 201.608H51.0863C53.2305 201.914 54.0984 203.037 53.69 204.977V205.743C52.6689 208.193 51.1374 209.419 49.0953 209.419C46.3385 209.419 45.2664 207.785 45.879 204.518C47.0022 202.578 48.4827 201.608 50.3206 201.608ZM74.9787 202.68H76.0508C78.195 202.986 79.1139 204.109 78.8076 206.049L78.5013 207.121C78.0929 209.47 76.5102 210.644 73.7534 210.644C71.3029 210.235 70.2819 208.959 70.6903 206.815L70.8435 206.049C71.6603 203.803 73.0387 202.68 74.9787 202.68ZM99.4837 206.049H100.556C100.964 206.049 101.27 206.406 101.475 207.121L101.322 207.887C101.219 208.295 100.607 208.806 99.4837 209.419C98.8711 209.419 98.4116 208.806 98.1053 207.581C98.6158 206.56 99.0753 206.049 99.4837 206.049ZM64.2577 207.121C66.9124 207.53 67.9845 208.908 67.474 211.256C67.0656 213.605 65.2277 214.881 61.9604 215.085C60.0204 214.371 59.2547 213.094 59.6631 211.256V210.95C60.582 208.397 62.1135 207.121 64.2577 207.121ZM89.069 209.419C91.009 209.419 91.7748 210.44 91.3664 212.482C91.0601 214.013 89.8859 214.881 87.8438 215.085C86.108 215.085 85.3933 214.217 85.6996 212.482L85.8528 212.022C86.1591 210.286 87.2312 209.419 89.069 209.419ZM52.771 212.022H53.5368C55.3747 212.022 56.2426 213.298 56.1405 215.851C55.7321 217.893 54.0984 219.169 51.2395 219.68C49.0953 219.067 48.2274 217.791 48.6358 215.851V215.392C49.4527 213.145 50.8311 212.022 52.771 212.022ZM118.628 213.554L118.322 215.392H120.926V215.085C120.313 215.085 119.547 214.575 118.628 213.554ZM76.8166 214.013H77.8887C79.9307 214.013 80.7476 214.983 80.3391 216.923C79.3181 218.965 78.0928 219.986 76.6634 219.986C74.7234 219.782 73.9576 218.761 74.3661 216.923L74.5192 215.851C74.6213 215.545 75.3871 214.932 76.8166 214.013ZM116.331 217.689H117.403L117.709 216.157C117.403 216.157 116.943 216.668 116.331 217.689ZM101.934 216.157H103.466C103.772 216.157 104.078 216.566 104.385 217.383L104.078 218.455C104.078 218.863 103.517 219.374 102.394 219.986C101.066 219.986 100.352 219.629 100.249 218.914L100.556 217.383C100.658 216.974 101.117 216.566 101.934 216.157ZM66.2488 218.148H68.0867C69.414 218.965 69.9245 220.088 69.6182 221.518C68.9035 223.764 67.5761 224.887 65.6362 224.887H64.1046C62.7772 223.968 62.2667 222.845 62.573 221.518C62.9814 219.272 64.2067 218.148 66.2488 218.148ZM91.2132 221.058H91.5196C91.928 221.058 92.2343 221.467 92.4385 222.284L92.2853 223.049C92.1832 223.356 91.7238 223.713 90.9069 224.122H90.6006C90.1922 224.122 89.8859 223.764 89.6817 223.049L89.8348 222.284C89.9369 221.875 90.3964 221.467 91.2132 221.058ZM55.681 223.815C56.8042 224.122 57.2636 224.989 57.0594 226.419L56.9063 226.725C56.8042 227.134 56.1916 227.644 55.0684 228.257H53.69C52.6689 227.848 52.3116 226.98 52.6179 225.653C53.2305 224.428 54.2516 223.815 55.681 223.815ZM120.313 227.491V227.95C120.926 227.95 121.895 228.155 123.223 228.563C123.835 227.236 124.55 226.113 125.367 225.194H121.998C121.181 225.5 120.619 226.266 120.313 227.491ZM80.186 225.653C81.1049 226.061 81.5133 226.419 81.4112 226.725L81.2581 227.491C81.156 227.899 80.6965 228.257 79.8797 228.563H79.1139C78.6034 228.563 78.3481 227.95 78.3481 226.725L80.186 225.653ZM68.2398 230.554H69.3119C69.8224 230.656 70.0266 230.911 69.9245 231.32L69.7714 232.392C69.6693 232.902 69.363 233.158 68.8524 233.158H67.6272C67.2188 233.158 67.0146 232.902 67.0146 232.392L67.3209 231.32C67.5251 230.809 67.8314 230.554 68.2398 230.554ZM88.1501 238.059C87.9459 238.876 87.6906 239.488 87.3843 239.897H88.9159L89.2222 238.365C88.9159 238.365 88.5585 238.263 88.1501 238.059ZM75.4381 245.563L75.285 246.023C76.306 246.023 77.1229 246.227 77.7355 246.635L78.195 244.798H76.204C75.6934 244.9 75.4381 245.155 75.4381 245.563Z" fill="white"/>
</svg>
