<svg width="153" height="212" viewBox="0 0 153 212" fill="none" xmlns="http://www.w3.org/2000/svg">
<path d="M151.573 96.6004C152.484 98.6057 152.393 100.429 151.3 102.069C150.388 103.71 149.477 105.26 148.565 106.718C148.747 107.447 148.93 108.085 149.112 108.632C149.294 108.997 149.477 109.452 149.659 109.999C149.659 111.275 149.294 112.643 148.565 114.101C148.747 115.559 148.656 117.018 148.292 118.476C148.109 119.752 148.109 121.119 148.292 122.578C148.474 123.125 148.656 123.672 148.839 124.219C149.021 124.765 149.112 125.312 149.112 125.859C148.93 127.318 148.474 128.411 147.745 129.141C147.198 129.87 146.651 130.69 146.104 131.602C146.469 132.513 146.651 133.516 146.651 134.609C146.833 135.703 146.742 136.706 146.378 137.617C145.648 138.164 145.101 138.893 144.737 139.805C144.372 140.534 144.008 141.263 143.643 141.993C144.008 143.816 144.099 145.365 143.917 146.641C143.734 147.917 143.278 149.011 142.549 149.923C143.096 153.751 142.276 156.759 140.088 158.946C139.177 161.498 138.174 163.139 137.08 163.868C135.987 164.415 135.166 165.418 134.619 166.876C134.802 168.152 135.075 169.428 135.44 170.704C135.804 171.798 135.257 172.527 133.799 172.892C133.252 173.804 132.614 174.715 131.885 175.626C131.338 176.538 130.882 177.449 130.518 178.361C130.518 180.731 130.062 181.916 129.15 181.916C128.968 182.463 128.695 182.918 128.33 183.283C127.965 183.465 127.601 183.83 127.236 184.377C126.689 184.924 126.325 185.562 126.142 186.291C126.142 187.02 125.869 187.567 125.322 187.932C122.77 189.208 121.038 190.21 120.127 190.939C119.215 191.669 118.486 192.671 117.939 193.947C116.481 194.312 115.296 194.95 114.384 195.862C113.655 196.591 112.379 196.864 110.556 196.682C109.462 197.046 108.824 197.958 108.642 199.416C108.46 200.692 107.822 201.513 106.728 201.877C104.176 202.789 102.444 203.883 101.532 205.159C100.803 206.435 99.3447 206.891 97.1572 206.526C95.1519 207.62 93.0555 208.805 90.8679 210.081C89.5918 209.716 88.3157 209.625 87.0396 209.807C85.9458 210.172 84.7609 210.172 83.4848 209.807C82.9379 209.26 82.4822 208.805 82.1176 208.44C81.753 208.075 81.2973 207.711 80.7504 207.346C79.4743 207.529 78.4716 207.984 77.7425 208.714C77.1956 209.625 76.4664 210.354 75.5549 210.901C74.0965 211.266 72.6381 211.266 71.1797 210.901C69.9036 210.719 68.5364 210.628 67.078 210.628C66.1666 210.263 65.3462 209.898 64.617 209.534C63.8878 209.352 63.0675 209.169 62.156 208.987C61.6091 208.622 61.1534 208.167 60.7888 207.62C60.4242 207.073 60.0596 206.617 59.695 206.252C58.7835 206.07 57.872 205.979 56.9605 205.979C56.2313 206.161 55.411 206.252 54.4995 206.252C53.588 205.888 52.7677 205.341 52.0385 204.612C51.3093 204.065 50.5801 203.518 49.8509 202.971C49.1217 202.789 48.4837 202.607 47.9368 202.424C47.3899 202.06 46.9341 201.695 46.5695 201.33C44.382 200.601 42.7413 199.69 41.6475 198.596C41.1006 198.778 40.5537 199.052 40.0068 199.416C39.6423 199.599 39.0953 199.599 38.3661 199.416C37.637 199.052 37.0901 198.505 36.7255 197.776C36.5432 196.864 35.9963 196.044 35.0848 195.315C34.5379 194.768 33.5353 194.221 32.0769 193.674C30.9831 192.58 30.2539 191.578 29.8893 190.666C29.707 189.208 29.4336 188.296 29.069 187.932C28.8867 187.567 28.6132 187.202 28.2486 186.838C25.6965 184.833 23.7824 183.283 22.5063 182.189C21.4125 180.913 20.8656 178.999 20.8656 176.447C20.501 175.353 20.2275 174.35 20.0452 173.439C18.9514 172.527 17.9488 171.525 17.0373 170.431C16.3081 169.337 15.4878 168.243 14.5763 167.15C14.394 165.874 14.394 164.415 14.5763 162.774C14.2117 161.863 13.756 161.225 13.2091 160.86C12.6622 160.313 12.2064 159.584 11.8418 158.673C11.6595 157.944 11.7507 157.488 12.1153 157.306C12.6622 156.941 12.7534 156.394 12.3888 155.665C12.2065 154.936 11.7507 154.48 11.0215 154.298C10.4746 154.115 10.0189 153.842 9.65428 153.477C8.74279 152.019 8.46933 150.105 8.83393 147.735C8.46933 146.823 8.01358 146.185 7.46669 145.821C6.9198 145.456 6.46408 145 6.09949 144.454C6.28178 143.542 6.46408 142.722 6.64638 141.993C6.82867 141.081 6.9198 140.078 6.9198 138.985C6.7375 137.891 6.37292 136.888 5.82602 135.977C5.27913 134.883 4.82338 133.88 4.45879 132.969C5.37027 131.146 5.37027 129.232 4.45879 127.226C4.82338 126.315 5.27913 125.495 5.82602 124.765C6.37292 123.854 6.46408 122.669 6.09949 121.211C5.0057 120.299 4.00303 119.752 3.09155 119.57C2.36236 119.388 1.81548 119.023 1.45088 118.476C0.90399 117.2 0.721697 115.924 0.903995 114.648C1.08629 113.19 1.35975 112.005 1.72435 111.093C1.90664 108.906 2.08894 107.356 2.27123 106.445C2.63583 105.351 2.90925 104.166 3.09155 102.89C1.63317 99.973 1.17745 97.7854 1.72435 96.327C2.27124 94.6863 2.72695 93.0456 3.09155 91.405C2.90925 90.8581 2.72696 90.4023 2.54466 90.0377C2.36236 89.4908 2.18007 88.9439 1.99777 88.397C1.99777 86.5741 2.18006 85.0245 2.54466 83.7485C2.90925 82.4724 3.27388 81.1051 3.63847 79.6468C4.54996 78.7353 5.27913 77.5503 5.82602 76.092C5.82602 74.6336 6.00832 73.5398 6.37291 72.8106C7.1021 71.1699 7.2844 70.2584 6.9198 70.0761C6.7375 69.7115 6.7375 69.3469 6.9198 68.9823C6.9198 66.9771 7.01097 64.9718 7.19326 62.9665C7.55786 60.9612 7.55786 58.8648 7.19326 56.6773C8.10475 55.4012 9.10738 54.0339 10.2012 52.5756C10.5658 52.0287 10.9303 51.4818 11.2949 50.9349C11.8418 50.2057 12.3888 49.4765 12.9356 48.7473C12.571 45.8306 12.8445 43.7341 13.756 42.458C14.8497 41.182 16.3081 40.1793 18.1311 39.4501C20.8656 38.174 22.7797 36.8068 23.8735 35.3484C24.9673 33.7078 26.2434 32.2494 27.7017 30.9733C27.7017 29.5149 27.884 28.33 28.2486 27.4185C28.6132 26.3247 28.9778 25.2309 29.3424 24.1371C30.4362 23.2256 31.4389 22.4964 32.3503 21.9496C33.4441 21.2204 34.4468 20.4912 35.3582 19.762C35.5405 18.4859 35.9051 17.4833 36.452 16.7541C37.1812 16.0249 37.8193 15.2957 38.3661 14.5665C40.1891 13.8373 41.7387 12.9258 43.0147 11.832C44.2908 10.7383 45.9315 9.91791 47.9368 9.37102C48.4837 8.45953 49.0306 7.63919 49.5775 6.91C50.1244 5.99851 50.8535 5.36047 51.765 4.99587C52.4942 4.99587 53.0411 4.90473 53.4057 4.72243C53.9526 4.35783 54.4995 4.17553 55.0464 4.17553C57.234 4.35783 58.6923 4.26668 59.4215 3.90209C60.333 3.35519 61.1534 2.89945 61.8826 2.53486C62.794 2.89945 63.6144 2.9906 64.3436 2.8083C65.0728 2.44371 65.7108 2.07911 66.2577 1.71452C66.9869 1.16762 67.6249 0.803027 68.1718 0.62073C68.7187 0.438432 69.4479 0.62073 70.3594 1.16762C71.4532 2.626 72.3647 3.1729 73.0938 2.8083C73.823 2.44371 74.6434 2.17026 75.5549 1.98796C76.831 2.35256 78.0159 2.35256 79.1097 1.98796C80.3858 1.62337 81.753 1.62337 83.2114 1.98796C83.9406 1.62337 84.4874 1.34992 84.852 1.16762C85.3989 0.803027 86.1281 0.62073 87.0396 0.62073C88.3157 1.89681 88.7715 2.71715 88.4069 3.08175C88.2246 3.26405 88.1334 3.53749 88.1334 3.90209C89.4095 4.08438 90.5945 4.72243 91.6882 5.81621C94.0581 5.45162 95.8811 5.26932 97.1572 5.26932C98.0686 5.45162 99.2536 5.90736 100.712 6.63655C101.077 7.00115 101.441 7.45689 101.806 8.00378C102.17 8.36838 102.535 8.73297 102.9 9.09757C104.54 11.1028 105.725 12.3789 106.454 12.9258C107.184 13.4727 108.004 13.9285 108.915 14.2931C109.645 14.1108 109.918 13.7462 109.736 13.1993C109.736 12.6524 110.191 12.2878 111.103 12.1055C112.014 11.9232 112.652 12.3789 113.017 13.4727C113.564 14.5665 114.111 15.3868 114.658 15.9337C115.569 16.6629 116.298 17.4833 116.845 18.3948C117.575 19.3062 118.577 19.9443 119.853 20.3089C120.947 20.1266 121.95 20.1266 122.861 20.3089C123.773 20.4912 124.411 21.0381 124.775 21.9496C124.958 23.2256 124.866 24.1371 124.502 24.684C124.137 25.2309 123.864 25.9601 123.681 26.8716C124.228 27.6008 124.958 28.0565 125.869 28.2388C126.963 28.4211 127.692 28.968 128.057 29.8795C130.244 30.9733 131.247 32.1582 131.065 33.4343C130.882 34.7104 130.609 35.8042 130.244 36.7157C130.609 37.6272 130.973 38.4475 131.338 39.1767C131.703 39.7236 132.523 39.9059 133.799 39.7236C135.44 40.8174 136.26 43.1872 136.26 46.8332C137.354 47.5624 138.448 48.7473 139.541 50.388C140.635 51.8464 140.635 53.487 139.541 55.31C139.906 56.2215 140.362 57.0419 140.909 57.771C141.455 58.5002 141.729 59.5029 141.729 60.779C143.37 62.2373 144.281 63.1488 144.463 63.5134C144.646 63.6957 144.828 63.9692 145.01 64.3338C144.828 64.8807 144.737 65.5187 144.737 66.2479C144.919 66.7948 145.01 67.524 145.01 68.4354C145.01 70.623 145.193 72.3549 145.557 73.6309C145.922 74.7247 146.469 75.7274 147.198 76.6388C147.198 77.1857 147.289 77.7326 147.471 78.2795C147.654 78.6441 147.836 79.0999 148.018 79.6468C148.018 80.9228 147.927 82.0166 147.745 82.9281C147.562 83.8396 147.471 84.8422 147.471 85.936C147.471 88.1236 147.654 89.6731 148.018 90.5846C148.565 91.4961 148.747 92.8633 148.565 94.6863C148.93 95.0509 149.385 95.4155 149.932 95.7801C150.662 95.9624 151.208 96.2358 151.573 96.6004ZM115.205 99.8818C114.84 99.3349 114.749 98.788 114.931 98.2411C115.113 97.5119 115.205 96.7827 115.205 96.0536L111.923 92.7722C111.559 91.8607 111.376 90.9492 111.376 90.0377C111.559 88.9439 111.923 88.1236 112.47 87.5767C111.559 85.2068 111.103 83.475 111.103 82.3812C111.103 81.1051 111.194 80.0114 111.376 79.0999C111.012 78.1884 110.738 77.368 110.556 76.6388C110.374 75.7274 110.374 74.6336 110.556 73.3575C111.103 70.9876 110.829 69.4381 109.736 68.7089C108.824 67.7974 108.368 66.8859 108.368 65.9744C108.186 63.4223 107.548 61.6904 106.454 60.779C105.543 59.8675 104.905 58.6825 104.54 57.2242C103.446 55.2189 102.808 53.9428 102.626 53.3959C102.444 52.6667 102.444 51.9375 102.626 51.2083C102.261 50.8437 101.806 50.5703 101.259 50.388C100.712 50.0234 100.256 49.6588 99.8916 49.2942C99.7093 48.565 99.3447 48.0181 98.7978 47.6535C98.2509 47.2889 97.7952 46.6509 97.4306 45.7394C97.4306 43.5518 96.8837 41.9111 95.7899 40.8174C94.3315 40.4528 93.2377 39.9059 92.5086 39.1767C91.9617 38.2652 91.4148 37.3537 90.8679 36.4422C89.9564 35.3484 89.2272 35.075 88.6803 35.6219C88.3157 35.9865 87.6777 36.0776 86.7662 35.8953C85.8547 35.713 85.399 35.2573 85.399 34.5281C85.5813 33.7989 85.8547 33.1609 86.2193 32.614C85.3078 32.4317 84.3963 32.3405 83.4848 32.3405C82.5734 32.3405 82.0264 31.8848 81.8441 30.9733C79.8389 30.4264 78.6539 29.7884 78.2893 29.0592C77.9247 28.1477 77.1955 27.5096 76.1018 27.145C75.1903 27.5096 74.4611 27.9654 73.9142 28.5123C73.5496 28.8769 73.0027 29.2415 72.2735 29.6061C72.2735 31.2467 71.4532 32.3405 69.8125 32.8874C69.2656 33.0697 68.7187 33.0697 68.1718 32.8874C67.8072 32.7051 67.3515 32.614 66.8046 32.614C66.0754 32.7963 65.4374 32.9786 64.8905 33.1609C64.5259 33.3432 64.0701 33.6166 63.5232 33.9812C62.9763 35.075 62.156 35.9865 61.0622 36.7157C60.1507 37.4449 59.2393 38.174 58.3278 38.9032C57.7809 40.7262 57.234 41.82 56.6871 42.1846C56.1402 42.5492 55.411 42.9138 54.4995 43.2784C54.1349 44.1899 53.588 45.1014 52.8588 46.0128C52.1296 46.742 51.4916 47.5624 50.9447 48.4739C49.6686 51.026 48.8483 52.7579 48.4837 53.6693C48.1191 54.5808 47.9368 55.7658 47.9368 57.2242C47.0253 59.0471 46.205 60.779 45.4758 62.4196C44.9289 63.878 44.2908 65.3364 43.5616 66.7948C42.8324 68.8001 42.0121 70.8053 41.1006 72.8106C40.3714 74.6336 40.1891 76.8211 40.5537 79.3733C40.736 82.2901 40.6449 84.5688 40.2803 86.2095C39.9157 87.6679 39.5511 89.3997 39.1865 91.405C38.8219 91.7695 38.5484 92.3164 38.3661 93.0456C38.1838 93.5925 37.9104 94.1394 37.5458 94.6863C38.4573 96.8739 38.7307 98.2411 38.3661 98.788C38.1838 99.3349 38.1838 99.8818 38.3661 100.429L39.46 104.257C39.0954 104.804 38.8219 105.26 38.6396 105.624C38.4573 105.989 38.1839 106.445 37.8193 106.991C38.1839 107.721 38.275 108.45 38.0927 109.179C37.9104 109.726 37.8193 110.455 37.8193 111.367C38.1839 112.278 38.5484 113.19 38.913 114.101C39.2776 114.83 39.6423 115.651 40.0068 116.562C39.8245 117.291 39.6423 117.929 39.46 118.476C39.2777 118.841 39.0953 119.388 38.913 120.117C39.0953 121.028 39.5511 121.575 40.2803 121.758C41.0095 121.94 41.4652 122.487 41.6475 123.398C41.4652 126.68 41.1918 129.323 40.8272 131.328C40.6449 133.151 40.9183 134.792 41.6475 136.25C43.1059 138.438 43.6528 139.987 43.2882 140.899C43.1059 141.81 43.1059 142.813 43.2882 143.907C44.9289 145 45.7492 147.006 45.7492 149.923C46.1138 150.469 46.5695 151.016 47.1164 151.563C47.8456 151.928 48.3925 152.475 48.7571 153.204C49.1217 154.115 49.304 155.027 49.304 155.938C49.304 156.668 49.4863 157.579 49.8509 158.673C51.6739 159.584 52.8588 161.225 53.4057 163.595C53.2234 165.965 53.7703 167.423 55.0464 167.97C56.3225 169.428 57.2339 170.249 57.7808 170.431C58.3277 170.431 58.7835 170.613 59.1481 170.978C60.0596 174.259 61.7914 176.173 64.3436 176.72L67.6249 177.814C68.5364 178.179 69.4479 178.999 70.3594 180.275C71.8178 180.457 72.9115 180.457 73.6407 180.275C74.5522 179.91 75.4637 179.546 76.3752 179.181C77.1044 179.181 78.1982 179.364 79.6566 179.728C80.2035 179.364 80.8415 179.09 81.5707 178.908C82.2999 178.543 83.1202 178.543 84.0317 178.908C86.037 177.632 87.2219 176.811 87.5865 176.447C88.1334 176.082 88.9538 175.9 90.0475 175.9C90.4121 175.353 90.6856 174.715 90.8679 173.986C91.0502 173.257 91.5059 172.71 92.2351 172.345C94.0581 171.981 95.3342 171.707 96.0634 171.525C97.5218 169.155 98.6155 167.879 99.3447 167.697C100.256 167.332 100.894 166.876 101.259 166.329C101.259 163.413 101.532 161.59 102.079 160.86C102.626 159.949 103.264 159.129 103.993 158.399C104.176 156.941 104.358 155.847 104.54 155.118C104.905 154.207 105.087 153.022 105.087 151.563C105.816 150.287 106.637 149.284 107.548 148.555C108.46 147.644 109.371 146.732 110.283 145.821C110.283 142.357 110.283 139.076 110.283 135.977C110.283 134.518 110.374 133.789 110.556 133.789C110.738 133.607 110.829 133.333 110.829 132.969C111.559 131.51 112.106 130.326 112.47 129.414C112.835 128.32 113.199 127.318 113.564 126.406C113.017 124.036 112.926 122.487 113.29 121.758C113.655 121.028 114.02 120.208 114.384 119.297C114.567 117.838 114.475 116.653 114.111 115.742C113.746 114.648 113.382 113.645 113.017 112.734C113.382 111.458 113.655 110.273 113.837 109.179C114.202 107.903 114.567 106.809 114.931 105.898C114.749 104.804 114.384 103.984 113.837 103.437C113.29 102.89 113.017 102.069 113.017 100.976L115.205 99.8818Z" fill="white"/>
</svg>
