<svg width="87" height="204" viewBox="0 0 87 204" fill="none" xmlns="http://www.w3.org/2000/svg">
<path d="M24.4351 199.542C46.6263 185.49 57.2079 178.636 56.1797 178.979C58.7501 175.637 63.2912 172.296 69.8029 168.954C77.6855 164.927 82.6978 162.014 84.8398 160.215C85.3539 175.894 79.3991 187.932 66.9754 196.329C54.2947 204.897 40.1146 205.968 24.4351 199.542ZM77.7712 135.025C79.6562 135.11 80.8557 134.896 81.3698 134.382C81.6268 133.525 81.4983 132.754 80.9842 132.069C80.3844 131.383 80.1274 130.783 80.2131 130.269H77.2571C77.1714 132.754 77.3428 134.339 77.7712 135.025ZM72.1163 124.357C70.7454 125.386 70.7025 126.585 71.9877 127.956C73.1873 128.556 74.2154 128.556 75.0722 127.956C76.1004 127.271 76.4431 126.114 76.1004 124.486C74.8152 123.372 73.4872 123.329 72.1163 124.357ZM32.1463 177.693C33.3459 177.265 34.5025 177.308 35.6164 177.822C35.9591 176.708 36.5589 175.808 37.4157 175.123C38.2725 174.438 38.8294 173.752 39.0864 173.067C38.1439 174.095 36.8587 174.223 35.2308 173.452C33.3458 172.595 31.8893 172.467 30.8611 173.067C30.7754 173.666 30.9896 174.181 31.5037 174.609C32.0178 174.952 32.1891 175.423 32.0178 176.023C31.418 175.423 30.7326 175.294 29.9615 175.637C29.1047 175.98 28.8476 176.708 29.1903 177.822C29.8758 178.079 30.8611 178.036 32.1463 177.693ZM27.5196 179.364C27.0912 178.764 26.4486 178.422 25.5918 178.336C23.6211 178.25 22.4216 178.893 21.9932 180.264C21.7362 181.378 22.0789 182.577 23.0214 183.862C23.9638 185.148 24.992 185.705 26.1058 185.533C27.4767 185.276 28.5049 183.862 29.1903 181.292C28.9333 181.121 28.3764 180.478 27.5196 179.364ZM85.4824 107.393C86.0822 107.307 86.4677 107.521 86.6391 108.035C86.6391 125.857 86.2535 143.036 85.4824 159.572C70.4883 167.797 60.7208 173.495 56.1797 176.665C55.1515 176.58 54.2519 176.066 53.4807 175.123C52.5383 174.009 51.8528 173.324 51.4244 173.067C51.5101 173.581 51.9385 174.352 52.7096 175.38C53.3094 176.237 53.4808 177.222 53.2237 178.336C49.7108 180.478 44.6985 183.905 38.1868 188.618C31.7608 193.416 26.7913 196.843 23.2784 198.899C19.9368 196.843 15.6528 192.945 10.4263 187.204C19.9369 174.523 28.8905 163.171 37.2871 153.146C37.8012 154.603 38.0154 158.158 37.9297 163.813C37.9297 167.412 39.0864 169.554 41.3998 170.239C44.4843 171.096 46.712 169.725 48.0829 166.127C49.7108 161.671 51.4244 159.101 53.2237 158.415H49.1111V141.451C52.7953 137.681 58.8786 132.026 67.361 124.486C75.415 117.203 81.4554 111.505 85.4824 107.393ZM5.67105 108.421C4.98561 110.906 4.60005 112.533 4.51437 113.305C4.17165 113.048 3.65758 112.833 2.97214 112.662C2.11533 112.491 1.64406 112.705 1.55838 113.305C1.55838 112.533 2.201 111.163 3.4862 109.192C5.02845 107.05 5.97094 105.465 6.31366 104.437C6.48502 105.122 6.27081 106.45 5.67105 108.421ZM6.31366 103.28C2.97212 108.678 1.21567 111.634 1.04431 112.148C1.12999 112.833 0.915784 102.08 0.401701 79.8892C0.401701 80.2319 1.17284 79.418 2.71509 77.4473C2.88645 76.6762 2.54372 76.0764 1.68692 75.648C0.744433 75.2196 0.316021 74.6627 0.401701 73.9773C1.85827 74.1486 2.62941 73.7631 2.71509 72.8206C2.71509 72.5635 1.94395 72.3493 0.401701 72.178C0.830103 70.4644 0.958621 65.4092 0.78726 57.0125C0.70158 50.4151 1.5584 46.4738 3.35769 45.1886C1.81545 42.4468 1.72976 38.5912 3.10065 33.6218C3.27201 33.022 4.72856 29.0807 7.47034 21.7979C14.0677 38.6769 17.5806 49.8154 18.009 55.2132C17.4093 55.2989 16.7239 55.1704 15.9527 54.8277C15.2673 54.5706 14.5818 54.485 13.8964 54.5706C14.0678 55.1704 14.6247 55.6845 15.5671 56.1129C16.5953 56.627 17.1951 57.0982 17.3665 57.5266C17.3665 59.4973 17.1522 61.9392 16.7238 64.8523C16.2954 67.5084 16.1241 70.3787 16.2097 73.4632C15.867 72.7777 15.3958 71.7924 14.796 70.5072C14.1106 69.1363 13.5965 68.151 13.2538 67.5512C14.2819 71.6639 14.1106 78.9039 12.7397 89.2712C12.3113 89.6996 11.84 89.8281 11.326 89.6568C10.4692 89.3997 9.95508 89.2712 9.78372 89.2712C9.78372 89.1855 9.82655 90.5136 9.91223 93.2554C9.91223 94.7976 9.48385 95.226 8.62704 94.5406C9.14113 97.1967 8.36999 100.11 6.31366 103.28ZM23.5354 43.1323C23.5354 42.0184 22.6786 41.5472 20.965 41.7186C20.0225 42.6611 20.0225 43.6464 20.965 44.6745C22.6786 44.8459 23.5354 44.3318 23.5354 43.1323ZM18.7802 40.6904C18.1804 40.8618 17.7092 41.2045 17.3665 41.7186C17.7949 42.147 18.3946 42.3183 19.1657 42.2326C19.9369 42.2326 20.3224 41.8471 20.3224 41.076C19.894 40.6476 19.3799 40.519 18.7802 40.6904ZM54.8945 24.1112C55.3229 19.3131 55.5371 16.9569 55.5371 17.0426C55.28 17.1283 54.8517 17.1283 54.2519 17.0426C53.6521 17.0426 53.1809 17.0426 52.8382 17.0426C51.8957 17.1283 51.4244 17.5138 51.4244 18.1993C51.7672 21.1981 53.2237 24.3683 55.7941 27.7098C58.5359 31.4797 60.2067 34.3929 60.8064 36.4492H64.2765C64.1051 35.5067 63.2912 34.5642 61.8346 33.6218C60.4637 32.765 59.7354 31.7368 59.6497 30.5373C60.5066 28.738 60.8921 27.5813 60.8064 27.0672C59.9496 26.8958 58.9643 26.4246 57.8505 25.6535C56.7366 24.7967 55.7513 24.2826 54.8945 24.1112ZM60.1638 39.9193C64.7906 41.3758 68.7319 40.9903 71.9877 38.7626C71.1309 37.8201 70.2741 37.6059 69.4173 38.12C68.0464 38.9768 67.1468 39.4052 66.7184 39.4052C65.2618 39.4052 62.9056 38.7626 59.6497 37.4774C56.9937 36.4492 55.023 36.3207 53.7378 37.0918C53.4808 39.1482 54.4661 40.4762 56.6938 41.076C59.864 41.9328 61.6204 42.5325 61.9631 42.8753C62.1345 42.2755 61.7061 41.7186 60.6779 41.2045C59.8211 40.6904 59.6497 40.262 60.1638 39.9193ZM71.3451 33.4932C70.831 32.9792 69.6743 32.8078 67.8751 32.9792C67.5323 34.0073 68.0464 34.6071 69.4173 34.7785C70.7025 34.8641 71.3451 34.4357 71.3451 33.4932ZM67.8751 68.0653C72.3304 69.6076 74.4725 70.4215 74.3011 70.5072C75.929 69.0506 76.6145 67.5084 76.3575 65.8805C76.1861 64.5096 75.4578 63.3529 74.1726 62.4104C72.8874 61.5536 71.6022 61.3822 70.317 61.8963C68.7747 62.4104 67.7466 63.6956 67.2325 65.7519C67.4038 65.9233 67.6609 66.1375 68.0036 66.3945C68.3463 66.6516 68.5605 66.8229 68.6462 66.9086C68.9033 67.2513 68.6462 67.6369 67.8751 68.0653ZM79.3134 97.4966C79.3134 96.9825 79.3991 96.3827 79.5705 95.6973C77.5141 92.7841 75.6292 91.9702 73.9156 93.2554C72.8874 94.0265 72.0306 95.4402 71.3451 97.4966C72.2876 100.324 74.858 100.881 79.0564 99.1673C79.2277 98.4819 79.3134 97.925 79.3134 97.4966ZM78.4138 68.7079V71.0213C78.7565 71.4497 79.3563 71.6639 80.2131 71.6639C80.9842 71.6639 81.5411 71.4497 81.8838 71.0213C81.8838 69.7361 81.584 68.9221 80.9842 68.5794C80.5558 68.3223 79.699 68.3652 78.4138 68.7079ZM61.0635 88.2431C61.4919 88.8428 61.7918 89.3569 61.9631 89.7853C61.6204 89.9567 63.077 89.6568 66.3328 88.8857C67.8751 88.5429 68.9889 87.6861 69.6744 86.3152C68.4749 86.4866 67.7894 85.9725 67.618 84.773C67.361 82.7167 67.2325 81.6457 67.2325 81.56C64.8334 80.1034 62.3058 80.3176 59.6497 82.2026C59.307 83.9162 59.4784 85.4156 60.1638 86.7008C60.3352 86.9578 60.6351 87.4719 61.0635 88.2431ZM37.9297 143.764C14.7103 162.271 3.35768 171.267 3.87176 170.753C0.0161424 159.444 0.444555 147.534 5.15698 135.025C6.52787 131.34 11.583 121.744 20.3224 106.236C15.4386 111.205 9.18394 123.543 1.55838 143.25C-0.326592 133.397 0.830098 124.786 5.02844 117.417C5.1998 117.16 5.62821 116.86 6.31366 116.518C6.91342 116.175 7.29897 115.875 7.47034 115.618C7.55602 115.361 7.47036 114.975 7.21332 114.461C6.87059 114.033 6.74208 113.647 6.82776 113.305C6.99912 112.791 7.47036 112.105 8.24148 111.248C9.01261 110.391 9.52668 109.706 9.78372 109.192C15.61 95.1403 19.1229 82.2454 20.3224 70.5072C21.1792 61.9392 20.1082 52.8999 17.1094 43.3893C16.5953 41.8471 15.2244 37.9058 12.9967 31.5654C11.2831 26.6816 9.99792 22.6547 9.14111 19.4845C12.8254 12.5444 18.1376 7.40354 25.0777 4.062C32.6176 0.46342 41.3998 -0.650425 51.4244 0.720462C50.2249 2.94815 50.0964 5.00448 51.0388 6.88945C51.8957 8.4317 53.3522 9.54555 55.4086 10.231C57.3792 10.9164 59.1785 10.8308 60.8064 9.97395C62.6057 9.11715 63.5911 7.5749 63.7624 5.34721C70.9596 9.03147 76.486 14.9863 80.3416 23.2116C84.1115 31.2655 85.8251 40.5619 85.4824 51.1006C84.9683 49.644 83.5974 48.1446 81.3698 46.6023C78.885 45.0601 76.743 44.4175 74.9437 44.6745C72.202 45.0173 70.4883 46.688 69.8029 49.6868C69.2888 52.0859 69.4173 54.6992 70.1884 57.5266C74.4725 54.9562 76.4431 53.7995 76.1004 54.0565C76.2718 54.2279 76.6145 54.6563 77.1286 55.3418C77.6427 55.9415 78.1139 56.4128 78.5423 56.7555C79.6561 57.7836 80.77 57.8693 81.8838 57.0125C81.7125 56.7555 82.098 57.8693 83.0405 60.3541C83.4689 61.6393 84.4542 62.0677 85.9965 61.6393C86.4249 63.7813 86.5534 66.1803 86.382 68.8364C86.2107 71.4925 86.2964 73.8059 86.6391 75.7766C85.868 75.8622 85.0968 76.3335 84.3257 77.1903C83.4689 78.0471 82.6549 78.5612 81.8838 78.7325C81.5411 83.1879 83.1262 86.3152 86.6391 88.1145V106.236C82.1837 109.835 75.8005 115.532 67.4895 123.329C58.9215 131.126 52.7953 136.567 49.1111 139.651C49.2824 137.595 49.2824 133.611 49.1111 127.699C48.9397 121.016 48.9397 116.218 49.1111 113.305C50.3106 113.219 51.5101 112.833 52.7096 112.148C53.6521 111.634 54.8088 111.42 56.1797 111.505C56.6081 113.562 57.6791 115.018 59.3927 115.875C60.9349 116.646 62.6486 116.817 64.5335 116.389C66.3328 115.875 67.7894 114.933 68.9032 113.562C70.1028 111.934 70.5312 110.092 70.1884 108.035C69.9314 107.178 70.2313 106.75 71.0881 106.75C72.8017 106.75 73.4871 106.793 73.1444 106.879C73.1444 105.593 72.4161 104.522 70.9596 103.666C69.4173 102.723 68.5605 101.823 68.3892 100.967C67.8751 101.395 68.0036 101.995 68.7747 102.766C69.7172 103.708 70.0171 104.694 69.6744 105.722C67.7037 102.38 64.7049 101.224 60.6779 102.252C56.5653 103.366 54.8516 106.279 55.5371 110.991C54.766 109.963 53.8663 109.792 52.8382 110.477C51.2959 111.334 50.0535 111.677 49.1111 111.505V105.079C49.7965 105.079 50.6105 105.422 51.5529 106.107C52.4098 106.793 53.3522 107.05 54.3804 106.879C54.2947 106.622 54.1662 106.107 53.9948 105.336C53.7378 104.651 53.6093 104.094 53.6093 103.666C53.5236 102.552 54.1662 101.866 55.5371 101.609C52.7096 101.524 51.5958 101.524 52.1956 101.609C50.5676 101.352 49.5395 100.538 49.1111 99.1673C51.0817 99.51 52.4954 99.2102 53.3522 98.2677C54.0377 97.4965 54.2091 96.4684 53.8663 95.1832C53.5236 93.9837 52.9238 93.084 52.067 92.4842C51.0389 91.8845 50.0535 91.9702 49.1111 92.7413C49.1111 87.7718 49.1111 85.03 49.1111 84.516C49.4538 81.7742 50.4391 80.0177 52.067 79.2466C51.4673 77.8757 50.4819 76.8904 49.1111 76.2906V70.5072C51.5958 71.1926 53.6093 70.9784 55.1515 69.8646C56.4367 68.9221 57.0365 67.5941 56.9508 65.8805C56.8651 64.1668 56.1797 62.8816 54.8945 62.0248C53.3522 61.0823 51.4244 61.168 49.1111 62.2819C48.854 60.4826 48.8112 57.6551 48.9825 53.7995C49.2396 48.573 49.3252 45.36 49.2396 44.1605C49.2396 36.7063 47.4403 32.9792 43.8417 32.9792C42.5565 32.8935 40.5858 34.1358 37.9297 36.7063C35.0166 39.3623 33.6457 41.6329 33.8171 43.5179C33.9028 44.3747 35.2737 46.1311 37.9297 48.7872C37.7584 51.7003 37.7156 55.7273 37.8012 60.8681C37.9726 66.8658 38.0154 71.2355 37.9297 73.9773C35.7877 73.8059 33.6457 74.4485 31.5037 75.9051C28.7619 77.79 27.5624 80.489 27.9051 84.0019C28.1622 85.9725 28.7619 87.5148 29.7044 88.6286C31.2467 90.4279 33.0031 91.199 34.9738 90.942C37.1158 96.5112 38.1439 104.694 38.0583 115.489C37.9726 134.168 37.9297 143.593 37.9297 143.764ZM37.2871 144.921C36.8587 144.492 37.0729 146.848 37.9297 151.989C34.4169 155.16 29.6616 160.772 23.6639 168.826C17.752 176.622 12.9111 182.149 9.14111 185.405C8.79839 184.291 7.89874 182.192 6.44217 179.107C5.15696 176.537 4.30017 174.352 3.87176 172.553C7.38466 168.012 12.6968 163.128 19.8083 157.901C30.2613 150.361 36.0876 146.035 37.2871 144.921Z" fill="white"/>
</svg>
