<svg width="252" height="244" viewBox="0 0 252 244" fill="none" xmlns="http://www.w3.org/2000/svg">
<path d="M246.73 86.9212C256.689 125.041 251.538 160.413 229.215 192.694C220.973 204.714 210.671 215.016 197.621 222.915C195.904 220.855 194.53 219.137 193.156 217.077C186.975 220.168 193.156 222.915 192.813 225.662C179.763 235.965 147.825 245.237 133.745 242.833C131.684 236.995 131.684 206.774 133.401 197.159C137.522 195.785 141.987 194.411 146.451 193.038C174.612 185.482 192.469 161.443 195.904 133.626C198.994 110.961 193.843 90.3554 179.076 72.4976C169.117 60.478 156.067 53.2662 140.613 49.832C135.119 48.8017 133.058 47.7715 133.058 42.6202C132.715 29.2268 132.715 15.8335 132.715 1.40992C140.613 -0.994025 147.825 1.75333 154.693 3.12701C177.702 7.59146 197.621 17.894 214.792 34.0347C224.064 42.6202 231.276 53.2662 237.801 64.2556C240.548 68.3766 237.801 71.124 236.084 74.9016C243.639 75.9318 245.356 81.0831 246.73 86.9212ZM215.822 140.495C216.852 139.464 218.226 138.434 217.882 137.747C217.539 136.717 216.509 136.03 215.822 135.343C215.135 136.03 213.761 136.717 213.761 137.404C214.105 138.434 214.792 139.121 215.822 140.495ZM220.63 115.082L220.973 114.738H220.286L220.63 115.082ZM228.528 99.9711C232.993 98.5975 235.053 96.1935 234.023 92.0725C233.336 88.9817 229.559 87.6081 225.438 88.2949C221.317 88.9817 219.943 91.7291 222.69 94.8199C224.407 96.8804 226.468 98.254 228.528 99.9711ZM231.276 149.423C232.306 148.737 233.336 148.05 234.71 147.02C233.336 145.989 232.649 144.959 231.619 144.616C231.276 144.616 229.559 145.989 229.902 146.333C229.902 147.363 230.932 148.393 231.276 149.423ZM88.757 58.4175C67.8085 71.8108 57.1624 91.3857 55.7887 116.112C54.4151 135.687 59.2229 153.544 71.2426 169.342C77.0807 177.24 84.2925 183.079 92.878 187.886C98.3727 190.977 98.0293 190.977 97.3425 197.502C96.999 203.684 96.999 209.865 97.3425 216.39C97.6859 219.824 100.09 220.511 104.211 218.794C103.867 212.956 103.524 207.118 103.181 200.936C102.494 194.411 103.181 193.381 110.392 194.068C120.008 195.442 120.352 196.128 120.352 205.744C120.352 215.36 120.352 224.976 120.352 234.591C120.352 237.339 120.352 239.743 120.352 242.147C109.706 244.894 99.0596 242.833 91.8478 236.995C81.8886 239.056 73.3031 235.622 68.8387 227.38C63.344 229.44 58.5361 226.693 53.7283 223.259C23.8508 202.653 6.67983 174.493 1.52855 138.434C-2.24906 110.274 3.24571 84.1739 17.6693 59.7911C36.5573 28.54 64.3743 9.65197 100.09 2.44018C104.898 1.40992 109.706 1.0665 114.513 0.723067C118.634 0.379653 120.352 2.44018 119.321 6.5612C117.261 7.24804 114.17 6.90461 113.14 8.27829C111.766 9.99538 111.766 13.0862 111.766 15.8335C111.766 20.9848 112.109 20.9848 118.978 20.9848C121.382 28.8834 120.351 36.7821 119.665 44.6807C119.321 49.1451 115.544 49.1451 112.453 49.4886C103.867 50.5188 95.9688 53.953 88.757 58.4175ZM114.857 35.065C114.17 35.065 112.796 36.0952 112.796 36.7821C112.796 37.4689 113.827 38.8426 114.857 38.8426C115.2 38.8426 116.23 37.8123 117.261 37.1255C116.23 36.0952 115.544 35.065 114.857 35.065ZM39.3047 126.414C39.3047 125.728 38.6178 124.697 36.9007 121.95C36.2139 124.01 35.527 125.041 35.527 125.728C35.1836 127.445 35.1836 129.162 35.527 130.879C35.527 130.879 37.2441 131.566 37.2441 131.222C38.2744 129.849 38.9613 128.131 39.3047 126.414ZM44.7994 149.08C45.4862 148.393 46.5164 147.363 46.8598 146.333C46.8598 145.989 45.8296 144.959 44.4559 143.585C43.7691 145.302 42.7389 146.333 42.7389 147.363C42.7389 148.05 44.1125 148.737 44.7994 149.08Z" fill="white"/>
</svg>
