<svg width="161" height="188" viewBox="0 0 161 188" fill="none" xmlns="http://www.w3.org/2000/svg">
<path d="M69.9764 0.20636H77.1735C87.1981 0.20636 99.0221 3.80494 112.645 11.0021C118.814 15.4575 123.098 18.8847 125.497 21.2838L126.525 20.7697C127.896 22.3119 130.295 24.1969 133.723 26.4246C133.723 27.4527 133.037 27.9668 131.666 27.9668V28.4809C131.666 28.995 132.18 29.5091 133.209 30.0232L135.779 29.5091L137.321 32.0795L136.807 34.6499C137.407 34.6499 140.663 37.563 146.575 43.3893V43.9034C146.232 45.36 146.061 46.5595 146.061 47.502C148.117 47.502 149.145 48.5301 149.145 50.5865V52.6428L147.089 54.6991V55.2132H147.603L150.173 54.6991L151.201 56.2414C151.201 56.6698 150.173 57.3552 148.117 58.2977L147.089 57.7836C147.089 59.1545 146.575 59.84 145.547 59.84C144.861 59.4972 144.347 59.3259 144.004 59.3259V59.84L145.032 61.3822C146.66 61.1252 148.374 60.097 150.173 58.2977H152.23C152.915 58.2977 153.258 58.8118 153.258 59.84C152.915 61.8963 152.401 62.9245 151.716 62.9245H151.201L149.659 61.8963V62.4104C150.345 63.2672 150.687 63.9526 150.687 64.4667L150.173 67.0371L151.201 67.5512C151.716 66.1803 152.23 65.4949 152.744 65.4949L153.258 66.523C152.915 67.5512 152.572 68.0653 152.23 68.0653L152.744 69.0935V69.6075C151.716 70.7214 151.201 71.5782 151.201 72.1779V72.692H151.716C151.716 70.9784 152.572 70.1216 154.286 70.1216L154.8 71.1498V73.7202C157.199 77.8329 158.399 81.0887 158.399 83.4878H157.885L159.427 86.0582V91.199L159.941 92.2272C159.255 92.5699 158.741 92.7413 158.399 92.7413V96.8539C158.399 102.937 156.856 113.733 153.772 129.241C146.318 154.431 136.036 170.882 122.927 178.593C112.388 184.419 103.306 187.333 95.6805 187.333H71.0045C64.8355 187.333 56.6102 184.419 46.3286 178.593C45.7288 178.936 45.0434 179.107 44.2722 179.107C44.2722 177.222 42.73 176.023 39.6455 175.509C39.6455 174.48 39.3028 173.966 38.6173 173.966L37.5891 174.48C35.8755 171.396 34.676 169.854 33.9906 169.854C33.9906 170.882 33.6478 171.396 32.9624 171.396H31.9342C31.2488 171.396 30.9061 171.053 30.9061 170.368V169.854C30.9061 169.168 31.5915 168.826 32.9624 168.826C32.9624 168.226 30.0493 165.484 24.223 160.6C23.5375 160.686 23.1948 161.029 23.1948 161.628L24.7371 163.685V164.199C24.7371 164.884 24.3944 165.227 23.7089 165.227C21.4812 164.37 20.2817 163.513 20.1104 162.657V161.628L22.1667 159.572L21.1385 159.058H18.5681V158.03H19.5963C19.2535 152.975 18.3967 150.233 17.0258 149.804C17.0258 150.319 16.5117 150.833 15.4836 151.347C14.7981 150.49 14.4554 149.976 14.4554 149.804V149.29C14.4554 148.605 14.9695 148.262 15.9977 148.262V146.206C14.6268 146.206 13.9413 145.863 13.9413 145.178C13.9413 144.664 14.2841 143.121 14.9695 140.551C13.5986 140.208 12.9132 139.523 12.9132 138.495C13.2559 137.809 13.4273 137.295 13.4273 136.952L12.3991 137.466C11.7137 137.466 11.3709 137.124 11.3709 136.438V135.41C11.3709 134.725 11.885 134.382 12.9132 134.382L7.77237 125.643L6.7442 126.157C6.23012 126.157 5.71602 125.643 5.20193 124.614C5.88738 123.758 6.2301 123.244 6.2301 123.072L5.20193 121.53C5.88738 120.159 6.40148 119.474 6.7442 119.474C5.37331 117.417 4.68787 115.875 4.68787 114.847C4.68787 114.504 5.37331 113.476 6.7442 111.762C4.68787 111.762 3.6597 111.42 3.6597 110.734V106.622L4.17377 103.023C2.2888 103.023 1.08928 102.166 0.575195 100.453C0.832237 96.6826 1.34631 94.7976 2.11743 94.7976L1.60336 91.199V90.6849C1.60336 89.2284 1.77471 87.8575 2.11743 86.5723L1.60336 83.4878C1.60336 83.1451 1.77471 82.631 2.11743 81.9455L1.60336 79.3751C2.37449 73.8059 3.40266 70.3787 4.68787 69.0935L3.6597 67.5512V66.009C4.34514 65.1522 4.68787 64.6381 4.68787 64.4667C4.00242 63.6099 3.6597 63.0958 3.6597 62.9245C5.03059 61.3822 5.71603 60.5254 5.71603 60.354L5.20193 57.2696C7.94371 54.4421 9.31461 50.8435 9.31461 46.4738C9.74301 46.4738 10.0857 45.7884 10.3428 44.4175C10.0001 43.732 9.82867 43.218 9.82867 42.8752C11.5423 42.1041 12.3991 41.2473 12.3991 40.3048C12.0564 39.6194 11.885 39.1053 11.885 38.7626C12.4848 38.4198 13.3416 38.2485 14.4554 38.2485V37.7344L13.4273 36.1922C13.513 35.5067 13.8557 35.164 14.4554 35.164C14.5411 35.8494 14.8838 36.1922 15.4836 36.1922C15.4836 35.164 15.9977 34.6499 17.0258 34.6499L16.5117 32.0795L18.054 33.1077H18.5681C18.5681 31.7368 19.4249 30.3659 21.1385 28.995C20.6244 28.995 20.1103 28.4809 19.5963 27.4527C19.6819 26.7673 20.0247 26.4246 20.6244 26.4246H22.1667C23.5376 22.0549 26.9648 17.4281 32.4483 12.5443C38.2746 8.43168 47.1853 4.8331 59.1806 1.74861C63.1219 0.720442 66.7205 0.20636 69.9764 0.20636ZM134.751 24.3683C135.436 24.3683 135.779 24.8823 135.779 25.9105C135.436 26.5959 135.265 27.11 135.265 27.4527H134.237C134.237 26.3389 134.065 25.4821 133.723 24.8823L134.751 24.3683ZM138.863 39.7907V40.8189H140.92C140.92 40.1335 140.577 39.7907 139.892 39.7907H138.863ZM139.892 42.3611V43.3893C140.577 44.5032 141.605 46.9022 142.976 50.5865C143.319 50.5865 144.518 51.4433 146.575 53.1569H147.089V51.1006C144.004 49.3013 142.462 47.0736 142.462 44.4175L143.49 42.8752C141.52 42.8752 140.32 42.7039 139.892 42.3611ZM151.201 47.502L151.716 48.5301V50.0724H151.201C150.516 50.0724 150.173 49.7297 150.173 49.0442V48.5301C150.259 47.8447 150.602 47.502 151.201 47.502ZM67.92 55.7273H66.8918V52.6428H66.3778C66.3778 54.0137 65.6924 54.6991 64.3215 54.6991C63.636 54.3564 63.122 54.1851 62.7792 54.1851L68.9482 59.3259V59.84C68.9482 60.5254 68.6055 60.8681 67.92 60.8681H67.4059C66.7205 60.8681 66.3778 60.354 66.3778 59.3259H65.8637C65.0926 59.3259 64.4071 59.4972 63.8074 59.84C63.1219 59.4972 62.6079 59.3259 62.2651 59.3259C61.9224 59.7543 61.751 60.7824 61.751 62.4104C62.4365 62.4961 62.7792 62.8388 62.7792 63.4385C62.7792 66.523 62.0938 68.0653 60.7229 68.0653V68.5794C60.7229 69.2648 61.237 69.6075 62.2651 69.6075V70.6357H61.751C61.0656 70.6357 60.7229 70.293 60.7229 69.6075C59.1807 70.293 58.3238 70.9784 58.1525 71.6639V74.7484C59.1806 75.6908 59.8661 77.7472 60.2088 80.9174C60.5515 80.9174 60.7229 81.0887 60.7229 81.4314V82.4596C59.0093 82.4596 58.1525 83.3164 58.1525 85.03C58.6665 85.03 59.1806 85.5441 59.6947 86.5723C59.0093 87.9432 58.4952 88.6286 58.1525 88.6286C58.1525 88.9713 58.3238 89.1427 58.6666 89.1427L58.1525 91.7131C58.4952 92.3985 58.6666 92.9126 58.6666 93.2554C58.4095 93.2554 57.8955 93.7694 57.1243 94.7976L57.6384 95.8258C57.2956 96.5112 57.1243 97.0253 57.1243 97.368C59.1807 97.7964 60.2088 98.3105 60.2088 98.9103V99.9384C59.4377 99.9384 58.7522 100.11 58.1525 100.453L58.6666 103.023C58.3238 103.708 58.1525 104.222 58.1525 104.565L59.1806 105.079C59.2663 104.394 59.609 104.051 60.2088 104.051H61.751V104.565C61.751 105.936 60.8942 106.622 59.1806 106.622V107.136C59.866 109.192 60.7229 110.22 61.751 110.22V110.734L60.2088 112.79L62.2651 117.417C62.2651 117.76 62.0938 117.931 61.751 117.931C62.5222 123.072 63.0362 125.643 63.2933 125.643C64.3214 125.643 64.8356 125.985 64.8356 126.671C63.4647 127.185 62.7792 127.699 62.7792 128.213V128.727L63.8074 130.269L63.2933 131.297C64.6642 131.469 65.3496 131.983 65.3496 132.84C65.3496 133.011 65.0069 133.525 64.3215 134.382C64.8356 134.382 65.521 135.067 66.3778 136.438L67.4059 135.924H68.4341C69.1196 136.01 69.4623 136.353 69.4623 136.952C69.4623 137.466 68.9482 137.981 67.92 138.495C67.2346 138.152 66.7205 137.981 66.3778 137.981L65.8637 139.009V141.065C68.3484 140.722 70.2334 139.866 71.5186 138.495H72.5468C72.5468 139.266 72.7181 139.951 73.0609 140.551C73.7463 140.208 74.2604 140.037 74.6031 140.037H76.1454V137.981C77.602 137.981 78.9728 138.495 80.2581 139.523C82.8285 139.18 85.2275 138.666 87.4552 137.981C87.4552 137.295 87.1124 136.952 86.427 136.952C86.427 137.638 86.0843 137.981 85.3989 137.981L84.8848 136.952C84.8848 136.096 86.2557 135.41 88.9974 134.896H90.5397L90.0256 132.326C90.1969 132.326 90.7111 131.983 91.5679 131.297C91.9963 133.697 92.5103 134.896 93.1101 134.896H93.6242V130.269C91.9106 130.269 91.0538 129.241 91.0538 127.185L92.0819 126.671C92.7673 127.013 93.2815 127.185 93.6242 127.185V124.1L93.1101 123.072L92.0819 123.586C91.3965 123.586 91.0538 123.244 91.0538 122.558V122.044L92.596 119.988L93.6242 120.502C94.1383 120.502 94.6524 119.988 95.1664 118.959V118.445C94.1383 117.16 93.6242 115.961 93.6242 114.847V114.333C95.7662 114.333 97.1371 112.619 97.7368 109.192C98.0795 109.192 98.4223 108.335 98.765 106.622C97.9082 105.593 97.0514 105.079 96.1946 105.079L96.7087 101.481V100.453C95.6805 100.453 95.1664 100.11 95.1664 99.4243V98.3962H95.6805L96.7087 98.9103C96.7087 97.5394 97.2227 96.3398 98.2509 95.3117C97.6512 94.7119 97.1371 92.6556 96.7087 89.1427C94.3096 87.4291 93.1101 86.4009 93.1101 86.0582L94.6523 85.03L94.1382 84.0019V83.4878L95.1664 81.9455V80.9174L91.5679 82.4596V81.4314C91.5679 80.746 92.2533 80.4033 93.6242 80.4033V79.8892C92.9388 79.0324 92.596 78.1756 92.596 77.3188H91.5679L90.0256 78.347L89.5115 77.3188C90.0256 77.3188 90.8824 76.1193 92.0819 73.7202V72.1779C90.1969 72.1779 88.1407 70.293 85.913 66.523V65.4949L88.4833 63.4385V62.9245L85.913 63.4385H85.3989C84.8848 63.4385 84.3707 62.9245 83.8566 61.8963V61.3822C83.8566 60.5254 85.0561 59.6686 87.4552 58.8118C87.4552 58.1264 87.1124 57.7836 86.427 57.7836H85.913C85.2275 57.7836 84.8848 58.4691 84.8848 59.84H82.8284C81.9716 58.4691 81.1149 57.7836 80.2581 57.7836V54.6991C80.2581 54.3564 80.4294 54.1851 80.7721 54.1851L76.1454 48.5301H75.6313L71.0045 51.1006L67.92 55.7273ZM71.0045 52.1287H73.0609C73.7463 52.2144 74.0891 52.5571 74.0891 53.1569V53.671L70.4905 57.7836H69.9764C69.2909 57.7836 68.9482 57.4409 68.9482 56.7555C70.3191 55.2132 71.0045 53.671 71.0045 52.1287ZM142.976 52.6428V53.671H144.004V52.6428H142.976ZM145.547 63.9526C145.804 66.6944 146.318 68.0653 147.089 68.0653C147.089 67.5512 147.432 66.8658 148.117 66.009C148.117 65.4949 147.431 64.8094 146.061 63.9526H145.547ZM57.6384 65.4949L58.6666 66.009V64.4667C57.9811 64.5524 57.6384 64.8951 57.6384 65.4949ZM57.1243 67.5512V68.5794C57.21 69.2648 57.5527 69.6075 58.1525 69.6075H59.1806V69.0935C58.8379 68.408 58.6666 67.8939 58.6666 67.5512H57.1243ZM150.687 68.5794V69.6075H151.201V68.5794H150.687ZM147.089 69.0935V71.1498H148.631V69.6075C148.288 69.6075 147.774 69.4362 147.089 69.0935ZM158.913 71.6639H159.427C160.112 71.7495 160.455 72.0923 160.455 72.692L159.427 73.2061L158.913 72.1779V71.6639ZM59.1806 95.3117V96.8539C58.4952 96.8539 58.1525 96.5112 58.1525 95.8258L59.1806 95.3117ZM4.68787 99.4243L7.25827 99.9384C7.25827 99.4243 6.7442 98.9103 5.71603 98.3962C5.03059 98.4819 4.68787 98.8246 4.68787 99.4243ZM2.11743 100.453V101.481H4.17377V99.9384C3.574 100.281 2.88856 100.453 2.11743 100.453ZM7.25827 103.023C7.34395 103.708 7.68667 104.051 8.28644 104.051L8.80051 103.023H7.25827ZM99.7932 110.22V110.734C101.078 110.734 102.107 111.077 102.878 111.762C103.563 111.762 103.906 111.42 103.906 110.734L102.878 109.192C103.734 108.506 104.42 108.164 104.934 108.164V107.65C104.934 106.964 104.591 106.622 103.906 106.622L99.7932 110.22ZM8.28644 108.678H10.3428V107.65H9.31461C8.62916 107.735 8.28644 108.078 8.28644 108.678ZM6.2301 115.361V115.875C6.2301 116.389 6.91555 117.075 8.28644 117.931H8.80051L8.28644 115.361V114.847C8.97188 113.99 9.31461 113.476 9.31461 113.305V112.79H8.80051C8.3721 112.79 7.51531 113.647 6.2301 115.361ZM101.335 118.445V119.474H101.849V118.445H101.335ZM92.0819 118.959H93.1101V119.474H92.0819V118.959ZM8.80051 121.53L9.31461 124.614H10.3428L9.82867 121.53H8.80051ZM97.7368 126.157H98.765C99.2791 126.157 99.7932 125.643 100.307 124.614V123.586C99.8788 123.586 99.022 124.443 97.7368 126.157ZM94.6523 128.213V128.727H95.6805V127.185C94.995 127.27 94.6523 127.613 94.6523 128.213ZM19.0822 144.664L17.5399 147.234V147.748H19.5963L20.1104 145.178L19.0822 144.664ZM23.7089 158.03V159.058H24.7371V158.03H23.7089ZM26.2793 166.255H26.7934V167.283H26.2793V166.255ZM29.8779 166.769L30.392 167.797C29.8779 169.168 29.3638 169.854 28.8498 169.854C28.1643 169.854 27.8216 169.511 27.8216 168.826V168.311C27.8216 167.797 28.507 167.283 29.8779 166.769Z" fill="white"/>
</svg>
