<svg width="127" height="206" viewBox="0 0 127 206" fill="none" xmlns="http://www.w3.org/2000/svg">
<path d="M15.3475 63.9445C15.874 63.4181 15.7862 63.6813 15.0843 64.7342C15.0843 64.5587 15.0843 64.4709 15.0843 64.4709C15.2598 64.2955 15.3475 64.12 15.3475 63.9445ZM7.18802 155.015C7.18802 155.366 7.18802 155.454 7.18802 155.279C7.18802 154.928 7.10028 154.489 6.9248 153.962C7.10028 154.138 7.18802 154.489 7.18802 155.015ZM40.6158 113.428V112.375V113.428ZM81.4134 13.1449C81.0624 12.794 80.7992 12.6185 80.6237 12.6185V12.3553L81.4134 13.1449ZM125.633 118.956C125.633 119.306 125.545 119.482 125.369 119.482C125.369 119.482 125.369 119.657 125.369 120.008C125.369 120.71 125.545 120.886 125.896 120.535C126.071 120.535 126.335 120.359 126.686 120.008C126.335 121.412 126.159 122.114 126.159 122.114C125.984 122.465 125.896 122.816 125.896 123.167C125.72 123.342 125.633 123.518 125.633 123.693C125.633 123.869 125.545 124.132 125.369 124.483C125.369 124.658 125.194 125.623 124.843 127.378C124.492 129.133 124.317 130.098 124.317 130.274C124.141 130.624 124.053 130.888 124.053 131.063C124.053 131.239 123.966 131.414 123.79 131.59C124.317 132.116 124.492 132.555 124.317 132.906C124.492 133.432 124.317 134.222 123.79 135.275C123.264 136.152 122.825 137.468 122.474 139.223C121.948 141.328 121.685 142.732 121.685 143.434C121.509 143.785 121.421 144.048 121.421 144.224V144.487C121.07 144.487 120.895 145.013 120.895 146.066C121.07 147.119 121.07 148.084 120.895 148.962C120.544 150.014 120.193 150.979 119.842 151.857C119.842 152.032 119.667 152.822 119.316 154.226V154.752C119.14 155.103 119.052 155.542 119.052 156.068C119.052 156.419 118.965 156.77 118.789 157.121C118.789 157.472 118.701 157.911 118.526 158.437C118.526 158.788 118.526 159.139 118.526 159.49C118.175 160.894 117.824 162.385 117.473 163.964C117.122 165.368 116.684 166.597 116.157 167.649C115.982 167.825 115.894 168.088 115.894 168.439C115.894 168.615 115.806 168.878 115.631 169.229C115.631 169.404 115.543 169.58 115.367 169.755C115.367 169.931 115.367 170.106 115.367 170.282C115.367 170.457 115.28 170.632 115.104 170.808C115.104 170.808 115.104 170.896 115.104 171.071C114.929 171.422 114.753 171.685 114.578 171.861C114.578 172.036 114.49 172.299 114.315 172.65C114.315 173.177 114.139 173.616 113.788 173.966C113.613 174.142 113.525 174.317 113.525 174.493C113.525 174.668 113.437 174.844 113.262 175.019C113.086 175.195 112.648 175.809 111.946 176.862C111.77 177.213 111.332 177.915 110.63 178.967C110.63 179.318 110.454 179.669 110.103 180.02C109.752 180.371 109.577 180.722 109.577 181.073C109.226 181.424 108.875 181.951 108.524 182.652C108.173 183.354 107.998 183.705 107.998 183.705L107.734 183.968V183.705C107.734 183.53 107.734 183.442 107.734 183.442C107.91 183.267 107.998 183.091 107.998 182.916H107.734C107.734 182.916 107.559 183.091 107.208 183.442C107.208 183.618 107.12 183.793 106.945 183.968C106.945 183.968 106.857 184.144 106.682 184.495C106.506 184.67 106.331 184.846 106.155 185.021C105.98 185.021 105.804 185.109 105.629 185.285C105.453 185.635 105.278 185.811 105.102 185.811C105.102 185.811 105.015 185.899 104.839 186.074C104.488 186.425 104.225 186.688 104.049 186.864C103.874 186.864 103.611 187.039 103.26 187.39C103.084 187.39 102.821 187.566 102.47 187.917C102.295 187.917 102.207 188.004 102.207 188.18C102.031 188.355 101.856 188.531 101.681 188.706C101.681 188.882 101.593 189.057 101.417 189.233L100.628 190.022C100.628 190.198 100.452 190.461 100.101 190.812C99.7503 191.163 99.4871 191.514 99.3117 191.865C98.9607 192.216 98.6975 192.567 98.522 192.918C97.9956 193.093 97.6446 193.444 97.4692 193.97C97.1182 194.146 96.855 194.321 96.6796 194.497C96.6796 194.672 96.5041 194.848 96.1531 195.023C95.9777 195.374 95.8022 195.637 95.6267 195.813C95.4512 195.813 95.2757 195.988 95.1003 196.339C94.7493 196.515 94.4861 196.69 94.3107 196.866C94.3107 197.041 94.1352 197.217 93.7842 197.392C93.4333 197.743 92.9946 198.094 92.4682 198.445C92.1172 198.621 91.7663 198.884 91.4153 199.235C91.0644 199.586 90.7135 199.849 90.3625 200.024C90.187 200.2 89.9238 200.463 89.5729 200.814C89.2219 200.989 88.871 201.165 88.52 201.34C88.3446 201.516 88.0814 201.691 87.7304 201.867C85.2738 203.271 83.4313 204.06 82.203 204.236C81.5011 204.587 80.7115 204.762 79.8341 204.762H79.3077L80.3605 204.236L81.1501 203.446C81.5011 203.271 81.9398 202.92 82.4662 202.393C82.6417 202.218 82.8171 202.13 82.9926 202.13C83.1681 201.955 83.3436 201.691 83.519 201.34C84.0455 200.814 84.3964 200.375 84.5719 200.024C85.4492 198.971 85.9757 197.831 86.1512 196.603C85.2738 197.129 84.3964 197.655 83.519 198.182C82.8171 198.708 82.0275 199.147 81.1501 199.498C80.6237 199.849 80.0973 200.112 79.5709 200.288C79.2199 200.288 78.7812 200.463 78.2548 200.814C77.3775 201.516 76.4123 202.218 75.3595 202.92C74.3067 203.622 72.9029 204.236 71.1481 204.762C70.0953 205.289 69.0425 205.552 67.9896 205.552H65.8839C64.8311 205.376 63.9537 204.938 63.2518 204.236C63.0764 204.06 62.9886 203.972 62.9886 203.972C62.9886 203.797 62.9009 203.622 62.7254 203.446H60.8829C60.3565 203.797 59.5669 203.622 58.514 202.92C57.1102 202.744 55.6187 202.305 54.0395 201.604C53.864 201.604 53.7762 201.516 53.7762 201.34C53.4253 201.516 53.0744 201.604 52.7234 201.604C52.3725 201.779 51.8461 201.867 51.1442 201.867V202.656C51.1442 203.183 51.0564 203.358 50.881 203.183C50.881 203.007 50.881 202.656 50.881 202.13C49.8281 202.13 49.1262 202.218 48.7753 202.393H45.0903C44.3884 202.393 43.9497 202.305 43.7743 202.13C43.7743 202.481 43.9497 202.656 44.3007 202.656C44.6516 203.007 44.9149 203.271 45.0903 203.446C45.2658 203.446 45.4413 203.534 45.6167 203.709L46.1432 204.236L45.8799 203.972C45.7045 203.972 45.529 203.885 45.3535 203.709C45.3535 203.709 45.0026 203.534 44.3007 203.183C44.1252 203.007 43.9497 202.92 43.7743 202.92C43.5988 202.92 43.4233 202.832 43.2478 202.656C42.8969 202.305 42.6337 202.13 42.4582 202.13C42.1073 202.13 41.7563 202.13 41.4054 202.13C41.2299 201.955 40.9667 201.867 40.6158 201.867C39.7384 201.516 38.861 201.253 37.9836 201.077C37.1063 200.726 36.1412 200.288 35.0883 199.761C34.7374 199.41 34.211 199.147 33.5091 198.971C32.9826 198.621 32.4562 198.27 31.9298 197.919C31.5789 197.568 31.1402 197.217 30.6137 196.866C30.0873 196.339 29.5609 195.901 29.0345 195.55C28.5081 195.374 27.3675 194.497 25.6127 192.918C24.9108 192.391 24.2089 191.865 23.507 191.338C22.8052 190.636 22.1033 189.847 21.4014 188.969C20.1731 187.215 19.2957 185.635 18.7693 184.232C18.4183 183.179 17.9796 181.951 17.4532 180.547C17.1023 179.143 16.7513 177.739 16.4004 176.335C16.0494 174.932 15.6985 173.528 15.3475 172.124C14.9966 170.72 14.6457 169.492 14.2947 168.439C13.9438 169.843 13.7683 171.247 13.7683 172.65C13.7683 173.352 13.7683 174.054 13.7683 174.756C13.7683 175.458 13.9438 176.072 14.2947 176.599C14.4702 177.476 14.3824 177.651 14.0315 177.125C13.5051 176.774 12.8909 175.897 12.189 174.493C11.3117 173.089 10.522 171.334 9.82013 169.229C9.11823 167.123 8.59182 164.842 8.24088 162.385C8.0654 161.683 7.97766 160.63 7.97766 159.227C7.80219 158.7 7.71445 157.735 7.71445 156.331C7.53897 155.63 7.45123 154.577 7.45123 153.173C7.27576 152.471 7.18802 151.506 7.18802 150.278C7.18802 149.751 7.18802 149.312 7.18802 148.962C7.01255 148.435 6.9248 147.996 6.9248 147.645V146.856C6.9248 147.207 6.9248 147.558 6.9248 147.909C6.74933 148.084 6.66159 148.347 6.66159 148.698C6.66159 149.225 6.74933 149.663 6.9248 150.014V151.594V153.962C6.74933 153.612 6.66159 153.348 6.66159 153.173C6.66159 152.822 6.57385 152.471 6.39838 152.12C6.2229 151.769 6.13516 151.418 6.13516 151.067C6.48611 152.471 6.66159 153.875 6.66159 155.279C6.66159 156.507 6.74933 157.647 6.9248 158.7V162.122C6.74933 161.947 6.57385 161.683 6.39838 161.332C6.2229 160.981 6.13516 160.63 6.13516 160.28C5.95969 159.753 5.6965 159.139 5.34555 158.437C5.17008 157.911 4.9946 157.296 4.81912 156.595C4.64365 155.717 4.38043 154.84 4.02948 153.962C3.85401 153.436 3.59082 152.471 3.23987 151.067C3.23987 150.19 3.06439 149.049 2.71344 147.645C2.36249 145.189 2.09927 143.61 1.9238 142.908C1.74832 142.206 1.66061 141.767 1.66061 141.592C1.48514 141.241 1.3974 141.065 1.3974 141.065C1.3974 140.89 1.22192 140.1 0.870972 138.696C0.520024 137.468 0.344543 136.678 0.344543 136.327C0.344543 135.801 0.344543 135.362 0.344543 135.011C0.344543 134.836 0.432284 134.66 0.607758 134.485C0.607758 134.134 0.695498 133.52 0.870972 132.642C1.22192 130.888 1.3974 130.01 1.3974 130.01C1.3974 130.01 1.3974 129.747 1.3974 129.221C1.3974 128.87 1.22192 128.694 0.870972 128.694C0.695498 128.694 0.520017 128.782 0.344543 128.958C0.520017 127.905 0.695498 127.203 0.870972 126.852C0.870972 126.501 0.958713 126.15 1.13419 125.799C1.13419 125.448 1.22193 125.009 1.3974 124.483C1.3974 123.956 1.48514 122.991 1.66061 121.588C2.01156 120.184 2.18701 119.219 2.18701 118.692C2.18701 117.99 2.27475 117.464 2.45023 117.113C2.45023 116.762 2.53797 116.411 2.71344 116.06C2.71344 115.534 2.80118 114.832 2.97665 113.954C2.97665 113.428 3.15214 112.638 3.50308 111.586C3.50308 111.41 3.59082 111.322 3.7663 111.322C3.7663 111.147 3.7663 110.971 3.7663 110.796V110.27C3.59082 110.27 3.59082 110.094 3.7663 109.743C3.7663 108.339 3.85401 107.462 4.02948 107.111V106.321C4.38043 106.321 4.46817 105.97 4.29269 105.269C4.11722 104.567 4.11722 103.777 4.29269 102.9C4.29269 102.549 4.38043 102.286 4.55591 102.11C4.55591 101.759 4.64365 101.32 4.81912 100.794C4.9946 100.268 5.17008 99.6534 5.34555 98.9515C5.52102 98.2496 5.69651 97.2845 5.87198 96.0562C6.04745 94.8279 6.2229 93.9505 6.39838 93.4241C6.39838 92.7222 6.48612 92.1958 6.66159 91.8448C6.66159 91.3184 6.74933 90.792 6.9248 90.2656C6.9248 89.7391 7.01255 88.9495 7.18802 87.8967C7.18802 86.6684 7.27576 85.791 7.45123 85.2646C7.62671 84.5627 7.80219 83.9485 7.97766 83.4221C8.50408 82.5447 8.85501 81.4919 9.03049 80.2636C9.38143 78.5088 9.55692 77.456 9.55692 77.105V76.0522V76.3154C9.55692 76.6664 9.64466 76.8418 9.82013 76.8418C9.82013 77.0173 9.82013 77.0173 9.82013 76.8418C9.9956 76.6664 10.0833 76.2277 10.0833 75.5258C10.4343 74.122 10.7852 73.1569 11.1362 72.6305C11.6626 72.1041 12.189 71.139 12.7154 69.7352C13.0664 69.0333 13.2419 68.5946 13.2419 68.4191C13.5928 67.7172 13.856 67.2785 14.0315 67.1031C14.207 66.5766 14.3824 66.138 14.5579 65.787C14.7334 65.4361 14.9088 65.0851 15.0843 64.7342C14.7334 65.787 14.5579 66.4012 14.5579 66.5766C14.3824 66.9276 14.2947 67.2785 14.2947 67.6295C15.3475 64.9974 16.5759 62.7162 17.9796 60.786C18.6815 59.7332 19.1202 59.119 19.2957 58.9435C19.4712 58.5926 19.7344 58.3294 20.0853 58.1539C20.0853 58.5048 19.9976 58.8558 19.8221 59.2067C19.6466 59.5577 19.4712 59.9964 19.2957 60.5228C19.1202 60.8737 18.9448 61.3124 18.7693 61.8388C18.7693 62.1898 18.5938 62.8917 18.2429 63.9445C18.2429 64.12 18.1551 64.2955 17.9796 64.4709C17.9796 64.6464 17.9796 64.8219 17.9796 64.9974C17.8042 65.3483 17.7164 65.6115 17.7164 65.787C17.7164 65.787 17.6287 65.9625 17.4532 66.3134C17.4532 67.0153 17.2777 67.8927 16.9268 68.9455C16.7513 69.2965 16.6636 69.5597 16.6636 69.7352C16.6636 69.9106 16.5759 70.1738 16.4004 70.5248C16.7513 70.1738 16.9268 69.8229 16.9268 69.472C17.1023 69.121 17.2777 68.7701 17.4532 68.4191C17.8042 67.5417 18.0674 66.9276 18.2429 66.5766C18.5938 66.0502 18.9447 65.6115 19.2957 65.2606C19.8221 64.3832 20.4363 63.5058 21.1382 62.6285C22.0156 61.7511 23.2439 60.1718 24.8231 57.8907C25.876 56.6624 26.841 55.2586 27.7184 53.6793C28.2448 52.9774 28.6835 52.3633 29.0345 51.8368C29.5609 51.135 29.9996 50.4331 30.3505 49.7312C30.7015 49.2048 30.9647 48.6783 31.1402 48.1519C31.4911 47.6255 31.842 47.0991 32.193 46.5726C32.5439 45.8708 33.0704 44.9934 33.7723 43.9405C33.2459 44.2915 32.6317 44.7302 31.9298 45.2566C31.4034 45.6075 30.7892 46.0462 30.0873 46.5726L28.5081 48.1519C27.8062 48.8538 27.2798 49.468 26.9288 49.9944C26.0514 51.2227 25.9637 50.9595 26.6656 49.2047C27.3675 47.2745 28.5958 44.8179 30.3505 41.8349C31.2279 40.2556 32.193 38.6763 33.2458 37.0971C34.2987 35.3423 35.4393 33.6753 36.6676 32.0961C37.0185 31.5696 37.2817 31.131 37.4572 30.78C37.8082 30.2536 38.1591 29.8149 38.5101 29.464C38.861 29.113 39.2119 28.7621 39.5629 28.4111C39.9138 27.8847 40.2648 27.446 40.6158 27.0951C40.9667 26.7441 41.2299 26.3932 41.4054 26.0422C41.7563 25.6913 42.1073 25.3403 42.4582 24.9894C43.3356 24.112 44.0375 23.4979 44.5639 23.1469C45.9677 21.7431 47.3715 20.3393 48.7753 18.9356C50.3545 17.5318 51.8461 16.128 53.2498 14.7242L57.7244 10.2496C58.4263 9.54771 59.1282 8.93355 59.8301 8.40713C60.532 7.70523 61.2339 7.00334 61.9358 6.30146C63.1641 5.07314 64.3047 4.02029 65.3575 3.14293C66.4104 2.26556 67.2877 1.56366 67.9896 1.03724C69.3934 0.335344 69.9198 0.598557 69.5689 1.82688C69.0425 3.40614 69.0425 4.37124 69.5689 4.72219C70.0953 5.07314 70.7972 5.33635 71.6746 5.51182C72.5519 5.51182 73.4293 5.68729 74.3067 6.03824C75.184 6.21372 75.7982 6.82788 76.1491 7.88072V8.14392L76.4124 8.40713C76.4124 8.23166 76.3246 8.14392 76.1491 8.14392C76.1491 8.14392 76.1491 8.05619 76.1491 7.88072V7.61751L76.6756 8.14392L76.9388 8.40713C77.2897 8.40713 77.6407 8.40713 77.9916 8.40713C78.518 8.40713 79.0445 8.58261 79.5709 8.93356C79.9218 9.10903 80.185 9.2845 80.3605 9.45997C80.7114 9.45997 81.0624 9.63545 81.4134 9.9864C82.1153 10.3373 82.9049 10.8638 83.7823 11.5657C84.6596 12.0921 85.3615 12.794 85.8879 13.6713C86.2389 14.0223 86.5021 14.3732 86.6776 14.7242C86.853 15.0751 87.0285 15.4261 87.204 15.777H87.4672C87.9936 16.128 88.7832 16.6544 89.8361 17.3563C90.8889 18.0582 92.1172 18.9356 93.521 19.9884C94.9248 21.0412 96.4163 22.3573 97.9956 23.9365L99.3117 25.2526L100.101 26.0422C100.452 26.3932 100.628 26.6564 100.628 26.8319C100.803 27.0073 100.979 27.1828 101.154 27.3583C101.856 27.8847 102.207 28.1479 102.207 28.1479C102.207 28.3234 102.295 28.4111 102.47 28.4111C102.119 28.0602 101.944 27.7092 101.944 27.3583C101.593 27.0073 101.505 27.0073 101.681 27.3583C101.856 27.5338 102.119 27.8847 102.47 28.4111C102.646 28.4111 102.997 28.6743 103.523 29.2007C102.821 28.1479 102.382 27.446 102.207 27.0951C101.856 26.3932 101.33 25.5158 100.628 24.463C100.452 24.2875 100.277 24.112 100.101 23.9365C100.101 23.7611 100.014 23.5856 99.8381 23.4101C99.6626 23.2347 99.4871 23.0592 99.3117 22.8837C99.3117 22.7082 99.2239 22.5328 99.0484 22.3573C98.1711 21.129 97.3815 20.0761 96.6796 19.1988C96.3286 18.8478 96.1531 18.5846 96.1531 18.4091L95.8899 18.1459C95.8899 18.3214 95.9777 18.4091 96.1531 18.4091C96.1531 18.4091 96.5041 18.5846 97.206 18.9356C97.3814 19.2865 97.5569 19.5497 97.7324 19.7252C97.9079 19.7252 98.1711 19.9007 98.522 20.2516C98.873 20.4271 99.2239 20.6903 99.5749 21.0412C99.7503 21.2167 99.8381 21.3922 99.8381 21.5677C100.014 21.7431 100.277 21.9186 100.628 22.0941L101.681 23.1469C102.031 23.4979 102.207 23.7611 102.207 23.9365C102.382 24.112 102.646 24.2875 102.997 24.463C103.172 24.8139 103.611 25.3403 104.313 26.0422C104.488 26.3932 104.664 26.6564 104.839 26.8319C105.015 27.0073 105.19 27.2705 105.366 27.6215C105.892 28.3234 106.331 29.0253 106.682 29.7272C107.208 30.2536 107.734 30.8677 108.261 31.5696C108.261 31.7451 108.349 31.9206 108.524 32.0961C108.524 32.2715 108.524 32.447 108.524 32.6225C108.699 32.6225 108.787 32.7102 108.787 32.8857C108.963 33.0612 109.05 33.2367 109.05 33.4121C109.226 33.5876 109.401 33.7631 109.577 33.9385C109.928 34.2895 110.103 34.7282 110.103 35.2546C110.279 35.6055 110.542 35.9565 110.893 36.3074C111.244 36.8339 111.419 37.2725 111.419 37.6235C111.595 37.9744 111.77 38.3254 111.946 38.6763C112.297 39.2028 112.648 39.8169 112.999 40.5188C113.35 41.2207 113.525 41.7471 113.525 42.0981C113.701 42.449 113.876 42.8 114.051 43.1509C114.578 44.3792 114.929 45.0811 115.104 45.2566C115.104 45.2566 115.28 45.4321 115.631 45.783C115.806 46.134 115.982 46.5726 116.157 47.0991C116.333 47.45 116.596 48.0642 116.947 48.9415C117.298 49.9944 117.561 50.8717 117.736 51.5736C117.912 52.1001 118.175 52.5387 118.526 52.8897C118.701 53.4161 118.789 53.9425 118.789 54.469V55.5218C118.965 55.8727 119.052 56.2237 119.052 56.5746C119.052 56.9256 119.14 57.452 119.316 58.1539C119.491 59.5577 119.579 60.5228 119.579 61.0492C119.754 61.5756 119.842 62.0143 119.842 62.3653C119.842 62.7162 119.93 63.1549 120.105 63.6813C120.105 64.5587 120.281 64.8219 120.632 64.4709C120.807 64.2955 120.983 64.0323 121.158 63.6813C121.334 65.2606 121.421 66.4012 121.421 67.1031C121.597 67.6295 121.685 68.1559 121.685 68.6823C121.685 69.0333 121.685 69.6474 121.685 70.5248C121.86 71.4022 122.123 72.8937 122.474 74.9994C122.825 77.105 123.088 78.6843 123.264 79.7372C123.439 80.6145 123.615 81.4042 123.79 82.106C123.79 82.6325 123.79 83.2466 123.79 83.9485C123.966 84.4749 124.141 85.44 124.317 86.8438C124.317 87.8967 124.404 88.5986 124.58 88.9495C124.58 89.8269 124.492 90.441 124.317 90.792V92.3713C124.317 92.7222 124.229 92.9854 124.053 93.1609C124.053 93.3364 124.053 93.5996 124.053 93.9505V95.0034L123.79 95.2666C123.79 95.442 123.79 95.6175 123.79 95.793C123.966 95.793 124.053 95.8807 124.053 96.0562C124.053 95.7053 124.141 95.3543 124.317 95.0034C124.317 94.6524 124.404 94.3015 124.58 93.9505C124.755 93.2486 124.843 92.8099 124.843 92.6345C124.843 92.459 124.843 92.9854 124.843 94.2137C124.668 95.6175 124.58 96.6703 124.58 97.3722C124.755 97.8987 124.843 98.5128 124.843 99.2147C124.843 99.5657 124.843 99.9166 124.843 100.268C125.019 100.619 125.106 100.969 125.106 101.32C124.931 101.496 124.843 101.759 124.843 102.11C125.019 102.636 125.106 103.514 125.106 104.742C125.282 105.97 125.369 106.76 125.369 107.111C125.545 107.462 125.633 107.725 125.633 107.901C125.808 108.076 125.896 108.252 125.896 108.427C126.071 108.427 126.247 109.129 126.422 110.533C126.598 111.41 126.686 112.288 126.686 113.165V113.954C126.686 114.305 126.598 114.569 126.422 114.744C126.422 114.92 126.335 115.446 126.159 116.323C125.984 117.201 125.808 117.815 125.633 118.166C125.633 118.517 125.633 118.78 125.633 118.956ZM78.518 9.72318C78.3426 9.72318 78.0793 9.54771 77.7284 9.19677C77.7284 9.72319 77.9916 10.0741 78.518 10.2496C78.6935 10.6006 78.869 10.8638 79.0445 11.0392C79.2199 11.2147 79.3954 11.4779 79.5709 11.8289L81.1501 13.4081C81.3256 13.5836 81.5011 13.7591 81.6766 13.9346C81.852 13.9346 82.0275 14.0223 82.203 14.1978C82.0275 14.0223 81.852 13.8468 81.6766 13.6713C81.6766 13.4959 81.5888 13.3204 81.4134 13.1449C81.5888 13.4959 81.7643 13.7591 81.9398 13.9346C82.1152 13.9346 82.3785 14.11 82.7294 14.461L83.2558 14.9874H83.519C82.4662 13.5836 81.5888 12.6185 80.8869 12.0921C80.536 11.5657 80.0973 11.127 79.5709 10.776C79.2199 10.4251 78.869 10.0741 78.518 9.72318ZM81.9398 44.467C81.5888 44.116 81.4134 43.6773 81.4134 43.1509C81.2379 42.9754 81.1501 42.8 81.1501 42.6245L80.3605 44.2038C81.0624 44.5547 81.4134 44.7302 81.4134 44.7302C81.4134 44.7302 81.5888 44.7302 81.9398 44.7302V44.467ZM76.4124 8.67034C76.4124 9.02129 76.5001 9.19677 76.6756 9.19677C76.6756 9.19677 76.5878 9.02129 76.4124 8.67034ZM90.0993 95.5298C90.0993 95.3543 90.2748 94.5647 90.6257 93.1609C90.4502 93.1609 90.3625 92.9854 90.3625 92.6345C90.187 92.2835 90.0116 91.8448 89.8361 91.3184C89.8361 90.792 89.6606 90.2656 89.3097 89.7392C88.9587 88.6863 88.52 87.5457 87.9936 86.3174C87.9936 85.9665 87.7304 85.2646 87.204 84.2117C86.6776 82.9834 86.0634 81.4919 85.3615 79.7372C85.186 79.3862 85.0106 79.0353 84.8351 78.6843C84.6596 78.1579 84.4841 77.6315 84.3087 77.105C83.9577 76.0522 83.6068 75.1748 83.2558 74.4729C82.9049 73.5956 82.6417 72.806 82.4662 72.1041C82.2907 71.4022 82.203 70.7003 82.203 69.9984H82.4662C82.6417 69.9984 82.7294 70.0861 82.7294 70.2616C82.9049 70.2616 83.1681 70.2616 83.519 70.2616C84.0455 70.437 84.5719 70.5248 85.0983 70.5248C85.6247 70.5248 86.2389 70.6125 86.9408 70.788V69.7352C86.9408 69.2087 86.6776 68.2436 86.1512 66.8398C85.8002 65.6115 85.2738 64.0323 84.5719 62.102C83.87 60.6983 83.4313 59.9086 83.2558 59.7332C83.0804 59.5577 82.9049 59.3822 82.7294 59.2067C82.7294 59.3822 82.5539 58.9435 82.203 57.8907C82.203 57.7152 82.0275 57.2765 81.6766 56.5746V56.3114L80.8869 55.5218C81.0624 55.1708 80.9747 54.9954 80.6237 54.9954C80.4482 54.9954 80.2728 54.9076 80.0973 54.7322C79.9218 54.5567 79.8341 54.2935 79.8341 53.9425C80.0096 53.5916 79.9218 53.0652 79.5709 52.3633C79.2199 51.8368 78.9567 51.4859 78.7812 51.3104C78.7812 51.135 78.518 50.8717 77.9916 50.5208C77.6407 50.1699 77.4652 49.8189 77.4652 49.468C77.1143 50.3453 76.6756 51.135 76.1491 51.8368C75.6227 52.3633 75.0963 52.9774 74.5699 53.6793C74.2189 54.2057 73.517 54.9954 72.4642 56.0482C72.1133 56.3992 71.7623 56.7501 71.4113 57.1011C71.0604 57.452 70.7095 57.803 70.3585 58.1539C67.2 61.137 64.7434 64.0323 62.9886 66.8398C61.4094 69.4719 60.0056 72.0163 58.7773 74.4729C57.5489 76.9296 56.3206 79.123 55.0923 81.0532C54.0395 82.9834 52.5479 84.6504 50.6177 86.0542V85.0014V82.3693C50.4423 82.1938 50.3545 81.9306 50.3545 81.5796C49.8281 82.8079 49.3894 83.6853 49.0385 84.2117C48.863 84.7382 48.512 85.8787 47.9856 87.6335C47.8102 87.9844 47.7224 88.2476 47.7224 88.4231C47.7224 88.5986 47.6347 88.774 47.4592 88.9495C47.2837 89.3005 47.196 89.5637 47.196 89.7392C47.196 89.7392 47.1083 89.9146 46.9328 90.2656L46.1432 91.8448C45.7922 92.5467 45.3535 93.6873 44.8271 95.2666C44.8271 95.6175 44.7394 95.9685 44.5639 96.3194C44.5639 96.4949 44.5639 96.7581 44.5639 97.109C44.5639 97.46 44.4762 97.7232 44.3007 97.8987C44.3007 97.8987 44.3007 98.0742 44.3007 98.4251V99.4779V99.2147C44.3007 99.0393 44.2129 98.9515 44.0375 98.9515C44.0375 98.9515 44.0375 98.8638 44.0375 98.6883C43.862 98.6883 43.7743 98.776 43.7743 98.9515V100.268C43.5988 101.671 43.2479 102.724 42.7214 103.426C42.3705 103.953 42.0195 105.005 41.6686 106.585C41.6686 107.287 41.5808 107.813 41.4054 108.164C41.4054 108.515 41.3176 108.778 41.1422 108.954C41.1422 109.129 41.1422 109.392 41.1422 109.743C40.9667 110.094 40.8789 110.533 40.8789 111.059C40.8789 111.586 40.7912 112.024 40.6158 112.375V110.006V108.954C40.6158 110.006 40.528 110.796 40.3525 111.322V112.375C40.1771 112.726 40.0893 113.077 40.0893 113.428C40.0893 113.779 40.0016 114.13 39.8261 114.481C39.8261 114.832 39.8261 115.183 39.8261 115.534C39.8261 115.885 39.7384 116.236 39.5629 116.587C39.5629 116.762 39.5629 117.025 39.5629 117.376C39.3874 117.903 39.2997 118.429 39.2997 118.956C39.2997 119.306 39.2119 119.657 39.0365 120.008C38.861 120.535 38.7733 120.886 38.7733 121.061C38.5978 120.886 38.5101 120.535 38.5101 120.008C38.5101 119.657 38.4223 119.306 38.2469 118.956C38.2469 118.429 38.2469 117.727 38.2469 116.85C38.2469 116.499 38.1591 116.148 37.9836 115.797C37.9836 115.271 37.9836 114.832 37.9836 114.481V113.165V111.586V108.954C37.8082 109.655 37.5449 110.533 37.194 111.586C36.8431 113.165 36.4921 114.832 36.1412 116.587C35.7902 118.166 35.4393 119.745 35.0883 121.324C34.7374 122.904 34.4741 124.395 34.2987 125.799C34.2987 127.027 34.1232 128.08 33.7723 128.958C33.4213 130.361 33.1581 130.888 32.9826 130.537C32.9826 130.186 32.8949 129.308 32.7194 127.905C32.5439 128.782 32.3685 129.484 32.193 130.01C32.193 130.537 32.1053 131.063 31.9298 131.59C31.9298 132.116 31.8421 132.642 31.6666 133.169C31.6666 133.52 31.6666 133.871 31.6666 134.222V134.748C32.0175 135.099 32.3685 135.275 32.7194 135.275C33.4213 135.625 34.0355 136.064 34.5619 136.591C35.0883 136.942 35.4393 137.468 35.6147 138.17C35.9657 139.047 36.1412 140.1 36.1412 141.328C36.3166 142.381 36.4044 143.697 36.4044 145.277C36.4044 146.856 36.4044 148.611 36.4044 150.541C36.5799 152.295 36.9308 154.401 37.4572 156.858C37.6327 157.735 37.8082 158.525 37.9836 159.227C38.1591 159.929 38.3346 160.63 38.5101 161.332L38.7733 161.596L39.2997 162.122C39.2997 162.473 39.4752 162.912 39.8261 163.438C39.8261 163.614 39.8261 163.701 39.8261 163.701C40.0016 163.701 40.0893 163.789 40.0893 163.964C40.0893 164.14 40.1771 164.228 40.3525 164.228C40.528 164.403 40.6158 164.579 40.6158 164.754C40.7912 164.754 40.8789 164.842 40.8789 165.017C40.8789 165.017 40.9667 165.017 41.1422 165.017C41.1422 165.193 41.3176 165.105 41.6686 164.754V164.228L42.9846 165.544C42.9846 165.544 43.1601 165.719 43.511 166.07C43.511 166.07 43.6865 166.246 44.0375 166.597C44.2129 166.597 44.4762 166.772 44.8271 167.123C46.0554 167.649 46.8451 167.913 47.196 167.913C47.3715 168.088 47.6347 168.176 47.9856 168.176C47.6347 167.649 47.2837 167.035 46.9328 166.333C46.5819 165.982 46.4064 165.631 46.4064 165.281C46.2309 165.105 46.1432 164.93 46.1432 164.754C46.4941 165.105 46.8451 165.368 47.196 165.544C47.196 165.544 47.5469 165.719 48.2488 166.07C48.4243 166.07 48.5121 166.158 48.5121 166.333C48.6875 166.333 48.9507 166.333 49.3017 166.333C49.4772 166.509 49.8281 166.597 50.3545 166.597C50.53 166.597 50.7055 166.684 50.881 166.86C51.0564 166.86 51.2319 166.86 51.4074 166.86H52.4602H54.5659C54.9168 166.86 55.1801 166.86 55.3555 166.86C55.7065 166.684 56.0574 166.597 56.4084 166.597C56.5838 166.421 56.9348 166.333 57.4612 166.333C58.1631 165.982 58.514 165.807 58.514 165.807H58.7773C59.4791 165.281 60.3565 164.315 61.4094 162.912C62.2867 161.859 62.7254 160.894 62.7254 160.016C62.9009 159.841 62.9886 159.665 62.9886 159.49V159.227C62.9886 159.051 63.0764 158.963 63.2518 158.963H64.0415C64.2169 158.963 64.4801 159.051 64.8311 159.227C65.182 159.227 65.533 159.139 65.8839 158.963C64.8311 158.613 64.1292 158.349 63.7783 158.174C63.6028 158.174 63.4273 158.086 63.2518 157.911C63.0764 157.911 62.9886 157.823 62.9886 157.647C64.2169 157.647 65.3575 156.946 66.4104 155.542C67.1123 155.015 67.7264 154.401 68.2528 153.699C68.7793 152.822 69.3057 151.945 69.8321 151.067C70.3585 150.19 70.7972 149.312 71.1481 148.435C71.4991 147.909 71.85 147.294 72.201 146.593C72.3765 146.242 72.4642 145.978 72.4642 145.803C72.6397 145.452 72.8152 145.189 72.9906 145.013C73.1661 144.838 73.2538 144.662 73.2538 144.487V143.697C73.6048 142.469 73.868 141.504 74.0435 140.802C74.3944 139.925 74.7454 139.223 75.0963 138.696C74.2189 139.223 73.3416 139.398 72.4642 139.223C71.7623 139.047 71.8501 137.731 72.7274 135.275C73.2538 133.695 73.6925 132.555 74.0435 131.853C74.3944 130.975 74.7454 130.274 75.0963 129.747C75.4473 129.045 75.8859 128.431 76.4124 127.905C76.9388 127.203 77.6407 126.15 78.518 124.746C79.3954 123.342 80.6237 122.026 82.203 120.798V120.535C82.203 120.184 82.4662 119.745 82.9926 119.219C83.3436 118.868 83.519 118.429 83.519 117.903C83.87 117.201 84.1332 116.587 84.3087 116.06C84.6596 114.305 84.9228 113.253 85.0983 112.902C85.2738 112.551 85.3615 111.673 85.3615 110.27C85.3615 108.69 85.4493 107.637 85.6247 107.111C85.8002 106.76 85.8879 106.409 85.8879 106.058C86.0634 105.707 86.1512 105.269 86.1512 104.742C86.1512 104.391 86.0634 104.04 85.8879 103.689C85.8879 103.338 85.8879 102.987 85.8879 102.636C85.7125 102.461 85.6247 102.286 85.6247 102.11V101.847C85.6247 101.847 85.7125 102.022 85.8879 102.373C86.0634 102.373 86.1512 102.022 86.1512 101.32C85.8002 100.443 85.7125 99.7411 85.8879 99.2147C86.2389 98.6883 86.4144 97.8987 86.4144 96.8458V95.793V94.7402C86.2389 94.3892 86.1512 93.775 86.1512 92.8977C86.1512 93.5996 86.3266 94.126 86.6776 94.4769L86.9408 95.0034C86.5898 93.9505 86.4144 92.9854 86.4144 92.108C86.4144 91.2307 86.4144 90.3533 86.4144 89.4759C86.2389 88.9495 86.1512 88.3354 86.1512 87.6335V86.8438L86.4144 87.3703C86.5898 87.7212 87.0285 88.4231 87.7304 89.4759C87.9059 89.6514 87.9936 89.8269 87.9936 90.0024C87.9936 90.1778 88.0814 90.441 88.2568 90.792C88.4323 91.1429 88.52 91.4939 88.52 91.8448C88.6955 92.0203 88.871 92.2835 89.0464 92.6345L89.8361 95.0034C89.8361 95.0034 89.9238 95.1788 90.0993 95.5298ZM91.9418 21.8309C91.4153 21.3044 91.0644 20.8658 90.8889 20.5148C90.538 19.9884 90.187 19.5497 89.8361 19.1988C89.4851 18.6723 89.1342 18.2337 88.7832 17.8827C88.6078 17.8827 88.52 17.795 88.52 17.6195C88.871 18.4969 89.1342 19.1988 89.3097 19.7252C89.6606 20.0761 89.9238 20.4271 90.0993 20.778H90.3625L90.6257 21.0412C90.6257 21.0412 91.0644 21.3044 91.9418 21.8309ZM85.8879 92.108C85.8879 91.9326 85.8879 91.9326 85.8879 92.108C86.0634 92.2835 86.1512 92.5467 86.1512 92.8977C86.1512 92.7222 86.0634 92.6345 85.8879 92.6345C85.8879 92.459 85.8879 92.2835 85.8879 92.108Z" fill="white"/>
</svg>
