<svg width="157" height="145" viewBox="0 0 157 145" fill="none" xmlns="http://www.w3.org/2000/svg">
<path d="M0.966064 72.7315C0.966064 59.7639 4.43157 47.7464 11.3625 36.6792C18.4053 25.5002 27.8516 16.7247 39.7013 10.3527C51.6628 3.86886 64.7422 0.626953 78.9396 0.626953C89.5596 0.626953 99.5648 2.47148 108.955 6.16055C118.346 9.73783 126.618 14.8802 133.773 21.5876C140.927 28.1832 146.461 35.9526 150.373 44.8958C154.398 53.7272 156.41 63.0058 156.41 72.7315C156.41 85.5873 152.945 97.6048 146.014 108.784C139.194 119.963 129.804 128.794 117.842 135.278C105.993 141.65 93.081 144.836 79.1072 144.836C64.9099 144.836 51.8305 141.65 39.869 135.278C27.9074 128.906 18.4053 120.186 11.3625 109.119C4.43157 97.9401 0.966064 85.8109 0.966064 72.7315ZM37.6891 71.7254C37.6891 81.4511 38.6393 90.3943 40.5397 98.555C42.552 106.716 45.4026 113.703 49.0917 119.516C52.7807 125.217 57.1405 129.633 62.1711 132.763C67.3134 135.893 72.9029 137.458 78.9396 137.458C84.8644 137.458 90.3981 135.893 95.5404 132.763C100.683 129.521 105.043 125.105 108.62 119.516C112.197 113.814 114.936 106.827 116.836 98.555C118.849 90.2825 119.855 81.3393 119.855 71.7254C119.855 58.8695 118.122 47.467 114.656 37.5176C111.303 27.5683 106.496 19.8548 100.236 14.3771C94.0871 8.89941 86.9326 6.16055 78.7719 6.16055C66.3632 6.16055 56.4139 12.1972 48.924 24.2705C41.434 36.3439 37.6891 52.1621 37.6891 71.7254ZM50.6008 135.278C45.2349 131.03 41.5459 127.9 39.5336 125.888C37.6332 123.764 35.5651 120.969 33.3293 117.503C26.1747 105.877 22.5974 90.8974 22.5974 72.5638C22.5974 42.1569 32.938 20.805 53.6191 8.50815C44.2288 11.9736 35.9563 17.0042 28.8018 23.5998C21.759 30.1954 16.2813 37.6853 12.3687 46.0696C8.56779 54.4538 6.66733 63.3411 6.66733 72.7315C6.66733 81.8983 8.56779 90.7297 12.3687 99.2257C16.1695 107.722 21.4795 115.044 28.2987 121.192C31.9878 124.211 34.9502 126.447 37.186 127.9C39.4218 129.353 43.8934 131.813 50.6008 135.278ZM95.8757 137.961C110.632 131.477 121.867 122.646 129.58 111.467C137.406 100.176 141.318 87.2642 141.318 72.7315C141.318 57.8634 137.518 44.6163 129.916 32.9902C122.426 21.364 112.421 13.1474 99.9002 8.34046C117.004 20.8609 125.556 42.1569 125.556 72.2284C125.556 87.4319 123.376 100.12 119.016 110.293C114.768 120.466 107.949 129.018 98.5587 135.949L95.8757 137.961Z" fill="white"/>
</svg>
