<svg width="180" height="204" viewBox="0 0 180 204" fill="none" xmlns="http://www.w3.org/2000/svg">
<path d="M179.221 137.344C179.221 145.84 177.991 153.386 175.532 159.982C173.072 166.577 169.719 172.335 165.471 177.253C161.223 182.06 156.192 186.141 150.379 189.494C144.566 192.736 138.306 195.363 131.598 197.375C125.003 199.388 118.072 200.841 110.805 201.735C103.539 202.63 96.3286 203.077 89.174 203.077C79.5601 203.077 71.0641 202.462 63.686 201.232C56.3078 200.003 49.265 198.046 42.5576 195.363C35.8502 192.569 29.1428 188.991 22.4354 184.631C15.8398 180.272 8.4617 174.962 0.301025 168.701L33.335 141.704C36.3533 147.405 40.3218 152.604 45.2406 157.299C50.2712 161.882 55.4694 165.851 60.8353 169.204C66.2012 172.558 71.3994 175.129 76.43 176.918C81.4605 178.707 85.5408 179.601 88.671 179.601C91.2421 179.601 94.1488 179.545 97.3907 179.433C100.633 179.21 103.93 178.874 107.284 178.427C110.638 177.868 113.936 177.086 117.177 176.079C120.419 175.073 123.27 173.732 125.729 172.055C128.301 170.266 130.313 168.086 131.766 165.515C133.331 162.832 134.114 159.646 134.114 155.957C134.114 152.156 133.107 148.859 131.095 146.064C129.195 143.157 126.68 140.642 123.549 138.518C120.419 136.394 116.842 134.605 112.818 133.152C108.793 131.699 104.713 130.413 100.577 129.295C96.5522 128.177 92.6395 127.227 88.8387 126.445C85.0378 125.55 81.7401 124.712 78.9453 123.929C73.803 122.476 68.3811 121.023 62.6798 119.57C56.9785 118.005 51.3332 116.272 45.7437 114.371C40.1542 112.359 34.7882 110.012 29.6459 107.329C24.6153 104.646 20.1437 101.46 16.2311 97.7706C12.4302 93.9697 9.35601 89.554 7.00842 84.5234C4.77262 79.3811 3.65472 73.4003 3.65472 66.5812C3.65472 54.0607 6.11408 43.6083 11.0328 35.2241C16.0634 26.728 22.659 19.9647 30.8197 14.9342C38.9804 9.79183 48.2589 6.15866 58.6554 4.03465C69.0519 1.91064 79.616 0.848633 90.3478 0.848633C97.726 0.848633 105.495 1.63117 113.656 3.19623C121.817 4.6495 129.754 6.8853 137.467 9.90363C145.181 12.8102 152.391 16.3874 159.099 20.6355C165.806 24.8835 171.396 29.7463 175.867 35.2241L142.833 62.389C140.374 55.6816 137.132 49.9244 133.107 45.1175C129.195 40.3105 124.891 36.3979 120.196 33.3795C115.612 30.2494 110.861 27.9577 105.943 26.5044C101.136 25.0512 96.664 24.3245 92.5278 24.3245C88.5033 24.3245 83.9759 24.4922 78.9453 24.8276C73.9148 25.163 69.1637 26.1132 64.6921 27.6782C60.3323 29.2433 56.5873 31.6468 53.4572 34.8887C50.4388 38.0188 48.9297 42.3786 48.9297 47.9681C48.9297 51.9926 49.824 55.458 51.6126 58.3646C53.513 61.1593 55.9725 63.6187 58.9908 65.7427C62.0091 67.7549 65.4187 69.4877 69.2195 70.941C73.1322 72.2825 77.1007 73.5121 81.1252 74.63C85.1496 75.6362 89.0622 76.5305 92.8631 77.313C96.664 78.0955 100.074 78.9339 103.092 79.8283C108.234 81.2815 113.656 82.7907 119.357 84.3558C125.17 85.809 130.872 87.5418 136.461 89.554C142.051 91.4544 147.417 93.7461 152.559 96.4291C157.813 99.0003 162.396 102.186 166.309 105.987C170.222 109.788 173.352 114.26 175.7 119.402C178.047 124.432 179.221 130.413 179.221 137.344Z" fill="white"/>
</svg>
