<svg width="126" height="165" viewBox="0 0 126 165" fill="none" xmlns="http://www.w3.org/2000/svg">
<path d="M62.0742 164.705C44.4453 164.705 29.6783 161.615 17.7731 155.433C6.09689 149.023 0.258789 139.865 0.258789 127.96C0.258789 121.32 2.20484 115.94 6.09692 111.819C10.218 107.698 15.4837 105.637 21.8942 105.637C26.0152 105.637 29.3349 106.782 31.8533 109.071C34.6007 111.132 35.9744 112.62 35.9744 113.536C35.9744 114.223 34.6007 115.825 31.8533 118.344C29.3349 120.633 28.0757 124.411 28.0757 129.677C28.0757 136.087 31.052 141.467 37.0046 145.817C43.1861 149.938 52.4585 151.999 64.8215 151.999C75.582 151.999 83.9385 149.709 89.8911 145.13C96.0726 140.323 99.1634 133.683 99.1634 125.212C99.1634 118.344 96.874 113.078 92.295 109.415C87.9451 105.523 82.2214 102.432 75.1241 100.143C68.2557 97.8531 60.815 95.5637 52.8019 93.2742C45.0177 90.9848 37.5769 88.1229 30.4796 84.6887C23.3823 81.2545 17.5442 76.5612 12.9653 70.6086C8.6153 64.427 6.44031 56.2995 6.44031 46.2258C6.44031 35.9233 9.53111 27.4523 15.7126 20.8128C21.8942 14.1734 29.7928 9.25106 39.4085 6.04582C49.0242 2.61163 58.7544 0.894531 68.5991 0.894531C77.0701 0.894531 85.0833 2.15373 92.6385 4.67213C100.194 6.96159 106.375 10.5103 111.183 15.3181C116.22 20.126 118.738 26.1931 118.738 33.5193C118.738 39.243 116.907 44.3943 113.244 48.9732C109.58 53.5521 104.544 55.8416 98.1332 55.8416C94.0122 55.8416 90.578 54.8113 87.8306 52.7508C85.3122 50.4613 84.053 48.8587 84.053 47.9429C84.053 47.485 84.8543 46.6837 86.4569 45.539C88.2885 44.1653 90.0056 42.4482 91.6082 40.3877C93.2108 38.0982 94.0121 35.2364 94.0121 31.8022C93.5543 25.1628 90.349 20.2405 84.3964 17.0352C78.4438 13.83 71.8044 12.2274 64.4781 12.2274C56.465 12.2274 49.0243 14.1734 42.1559 18.0655C35.2875 21.9576 31.8533 27.5667 31.8533 34.893C31.8533 41.5324 33.227 46.6837 35.9744 50.3468C38.9507 54.01 43.5296 57.2152 49.7111 59.9626C56.1216 62.481 64.3636 65.3428 74.4373 68.548C84.5109 71.7533 93.3253 75.073 100.88 78.5072C108.665 81.9414 114.617 86.5203 118.738 92.244C123.088 97.7387 125.263 105.294 125.263 114.91C125.263 124.525 122.516 133.111 117.021 140.666C111.526 148.221 103.971 154.174 94.3555 158.524C84.9688 162.645 74.2083 164.705 62.0742 164.705Z" fill="white"/>
</svg>
