<svg width="96" height="173" viewBox="0 0 96 173" fill="none" xmlns="http://www.w3.org/2000/svg">
<path d="M13.7625 49.2365C13.7625 54.9602 17.9979 60.7983 26.4689 66.7509C34.9399 72.7035 44.2123 77.8548 54.2859 82.2047C64.5885 86.3258 73.9752 91.5915 82.4462 98.002C90.9172 104.184 95.1527 110.594 95.1527 117.233C95.1527 127.765 90.5739 138.068 81.416 148.141C72.2582 158.215 61.7267 166.342 49.8215 172.524C32.6505 172.524 16.1664 167.716 0.369141 158.1L2.42963 155.01C19.1427 164.167 34.711 168.746 49.1346 168.746C60.124 163.023 69.7398 155.467 77.9818 146.081C86.4528 136.694 90.6883 127.078 90.6883 117.233C90.6883 111.51 86.4528 105.672 77.9818 99.7191C69.5108 93.7665 60.124 88.7297 49.8215 84.6087C39.7479 80.2587 30.4755 74.9929 22.0045 68.8114C13.5335 62.4009 9.29803 55.3036 9.29803 47.5194C9.29803 39.5063 13.5335 30.9208 22.0045 21.763C30.7045 12.3762 39.8623 5.39337 49.478 0.814453C65.7332 0.814453 80.8436 4.82102 94.8093 12.8341L92.7488 15.9249C79.012 8.36966 64.9319 4.59206 50.5083 4.59206C41.3505 9.17098 32.8794 15.8104 25.0953 24.5104C17.5401 32.9814 13.7625 41.2234 13.7625 49.2365Z" fill="white"/>
</svg>
