<svg width="155" height="165" viewBox="0 0 155 165" fill="none" xmlns="http://www.w3.org/2000/svg">
<path d="M154.645 114.131C154.645 124.304 152.353 132.576 147.77 138.948C143.186 145.32 137.261 150.463 129.995 154.375C122.84 158.288 114.791 160.971 105.848 162.424C97.0169 163.989 88.3532 164.772 79.8571 164.772C65.6598 164.772 51.5183 162.703 37.4328 158.567C23.3473 154.431 11.1621 149.009 0.877441 142.302L15.2984 113.795C27.5953 120.95 38.8302 126.036 49.0031 129.055C59.2877 131.961 69.5724 133.415 79.8571 133.415C93.8309 133.415 104.004 131.961 110.376 129.055C116.748 126.036 119.934 121.9 119.934 116.646C119.934 114.075 119.039 111.951 117.251 110.274C115.462 108.597 112.5 107.088 108.364 105.746C104.227 104.293 98.7496 102.896 91.9304 101.554C85.223 100.101 76.8387 98.5919 66.7776 97.0269C58.7288 95.6854 51.0712 94.0644 43.8048 92.164C36.6502 90.1518 30.3342 87.357 24.8564 83.7797C19.3787 80.2025 14.963 75.675 11.6093 70.1973C8.3674 64.7195 6.74646 57.8445 6.74646 49.572C6.74646 41.1878 8.87045 33.9214 13.1185 27.773C17.4783 21.5127 23.1237 16.3704 30.0547 12.3459C37.0975 8.3215 44.9786 5.41496 53.6982 3.62632C62.4179 1.83768 71.1375 0.943359 79.8571 0.943359C92.154 0.943359 104.06 2.56431 115.574 5.80622C127.2 8.93634 137.373 13.4638 146.093 19.3887L132.343 46.2183C123.623 40.7406 115.127 37.0515 106.854 35.1511C98.6937 33.1389 89.6946 32.1328 79.8571 32.1328C75.7209 32.1328 71.417 32.3563 66.9454 32.8035C62.4738 33.2507 58.3375 34.145 54.5367 35.4865C50.7358 36.7162 47.5498 38.4489 44.9786 40.6847C42.5193 42.8087 41.2896 45.4358 41.2896 48.5659C41.2896 52.7021 44.9227 56.1117 52.1891 58.7947C59.5672 61.3659 72.0877 63.937 89.7505 66.5082C99.3645 67.8497 108.14 69.5824 116.077 71.7064C124.014 73.7186 130.833 76.5134 136.535 80.0907C142.236 83.5562 146.652 88.0837 149.782 93.6732C153.024 99.1509 154.645 105.97 154.645 114.131Z" fill="white"/>
</svg>
