<svg width="190" height="187" viewBox="0 0 190 187" fill="none" xmlns="http://www.w3.org/2000/svg">
<path d="M0.102783 133.134L67.8475 126.762C70.6423 134.811 74.5549 140.568 79.5854 144.034C84.616 147.499 91.3235 149.232 99.7077 149.232C108.874 149.232 115.973 147.276 121.004 143.363C124.916 140.456 126.873 136.823 126.873 132.463C126.873 127.545 124.301 123.744 119.159 121.061C115.47 119.16 105.688 116.813 89.8143 114.018C66.1148 109.882 49.6257 106.081 40.3472 102.615C31.1804 99.0382 23.411 93.0575 17.0389 84.6732C10.7787 76.289 7.64862 66.7309 7.64862 55.9991C7.64862 44.2611 11.0582 34.1441 17.8774 25.6481C24.6966 17.152 34.0869 10.8359 46.0485 6.69966C58.01 2.45164 74.0519 0.327637 94.1741 0.327637C115.414 0.327637 131.065 1.9486 141.126 5.19051C151.299 8.43242 159.739 13.463 166.446 20.2822C173.266 27.1013 178.911 36.324 183.383 47.9502L118.656 54.3222C116.979 48.6209 114.184 44.4288 110.272 41.7458C104.906 38.1686 98.4221 36.3799 90.8204 36.3799C83.1069 36.3799 77.4614 37.7773 73.8842 40.572C70.4187 43.255 68.6859 46.5528 68.6859 50.4655C68.6859 54.8253 70.9218 58.1231 75.3934 60.3589C79.865 62.5947 89.5906 64.6069 104.57 66.3955C127.264 68.9667 144.144 72.544 155.211 77.1274C166.279 81.7108 174.719 88.2505 180.532 96.7465C186.457 105.243 189.419 114.577 189.419 124.75C189.419 135.035 186.289 145.04 180.029 154.766C173.88 164.491 164.099 172.261 150.684 178.074C137.381 183.775 119.215 186.626 96.1863 186.626C63.6554 186.626 40.4589 181.986 26.597 172.708C12.8468 163.429 4.01543 150.238 0.102783 133.134Z" fill="white"/>
</svg>
