<svg width="143" height="114" viewBox="0 0 143 114" fill="none" xmlns="http://www.w3.org/2000/svg">
<path d="M40.2008 113.844C31.0429 113.844 23.0298 112.127 16.1615 108.693C9.06414 105.03 3.91285 98.3904 0.707605 88.7747C0.478658 87.8589 0.822033 87.2865 1.73782 87.0576C2.42466 86.8287 2.88259 87.2866 3.11154 88.4313C5.401 93.4681 8.37729 97.0167 12.0404 99.0773C15.7036 101.138 19.7101 102.168 24.0601 102.168C31.3864 102.168 37.7968 99.9931 43.2915 95.6431C49.0152 91.2931 54.052 85.7984 58.4019 79.159C62.9809 72.5195 66.9874 65.7656 70.4216 58.8973C74.0847 51.7999 77.519 45.7329 80.7242 40.696C85.761 32.225 91.7136 24.5554 98.582 17.687C105.679 10.8186 112.09 6.58311 117.813 4.98048C116.44 4.29365 114.723 3.95023 112.662 3.95023C106.938 3.95023 100.643 5.66732 93.7741 9.10152C86.9058 12.5357 79.9228 17.0001 72.8255 22.4948C65.9571 27.9895 59.2032 33.8277 52.5638 40.0092C46.1533 45.9618 40.2008 51.571 34.7061 56.8367C29.4403 61.8735 25.2048 65.8801 21.9995 68.8564C20.168 70.459 18.7943 71.2603 17.8785 71.2603C16.9627 71.2603 16.5048 70.8024 16.5048 69.8866C16.5048 68.513 17.0772 67.2538 18.2219 66.1091C25.0903 60.1565 32.1877 53.517 39.5139 46.1908C46.8402 38.6355 54.2809 31.4237 61.8361 24.5554C69.3914 17.458 77.0611 11.6199 84.8452 7.041C92.6294 2.46208 100.528 0.172607 108.541 0.172607C109.457 0.172607 110.258 0.172607 110.945 0.172607C111.861 0.172607 112.777 0.287087 113.692 0.516037C116.211 0.74498 118.5 1.43182 120.561 2.57655C122.85 3.72128 123.537 4.52259 122.621 4.98048C117.356 7.26995 113.235 11.8489 110.258 18.7172C107.282 25.5856 104.535 33.5987 102.016 42.7566C99.4977 51.9144 96.407 61.1867 92.7439 70.5735C89.3097 79.9603 84.2728 88.3168 77.6334 95.6431C80.8386 94.4984 85.8755 91.8655 92.7439 87.7444C99.6122 83.6234 107.167 78.5866 115.41 72.634C123.652 66.4525 131.321 59.6986 138.419 52.3723C139.334 51.4565 140.25 50.9986 141.166 50.9986C142.311 50.9986 142.883 51.571 142.883 52.7157C142.883 53.6315 142.425 54.5473 141.509 55.4631C135.328 61.4157 128.459 67.8261 120.904 74.6945C113.349 81.3339 105.107 87.63 96.1781 93.5826C87.4781 99.5352 78.4347 104.457 69.0479 108.35C59.6612 112.013 50.0454 113.844 40.2008 113.844Z" fill="white"/>
</svg>
