<svg width="170" height="236" viewBox="0 0 170 236" fill="none" xmlns="http://www.w3.org/2000/svg">
<path d="M47.9768 0.33374H168.817C169.328 0.435844 169.532 0.691103 169.43 1.09952L158.249 57.1547C158.147 57.6652 157.33 57.9204 155.799 57.9204L151.817 77.9839L152.276 79.056C151.766 79.1581 151.459 79.4133 151.357 79.8218L149.979 87.3264C151.408 87.3264 152.072 87.5817 151.97 88.0922L139.717 149.508C139.615 150.018 138.849 150.274 137.42 150.274L132.519 174.625C133.948 174.625 134.612 174.881 134.51 175.391L123.942 228.536H123.636L122.564 227.771H117.663C117.152 227.771 116.948 227.515 117.05 227.005L118.888 217.969H114.447C114.753 218.99 114.855 219.755 114.753 220.266L113.221 222.104L111.077 232.672H115.212C115.723 232.672 115.927 232.927 115.825 233.437L115.519 234.816C115.417 235.326 115.11 235.582 114.6 235.582H67.5808C67.0703 235.582 66.8661 235.326 66.9682 234.816L67.4277 232.672H62.5267L62.0672 234.816C61.9651 235.326 61.6588 235.582 61.1483 235.582H33.7333C33.2228 235.582 33.0186 235.326 33.1207 234.816L33.5802 232.672H30.2107C29.1897 232.876 28.3218 233.846 27.6071 235.582H0.957909C0.447388 235.582 0.243186 235.326 0.34529 234.816L25.9224 107.237C26.0245 106.726 26.3308 106.471 26.8413 106.471H29.7513L31.7423 96.8221H28.6792C28.1686 96.8221 27.9644 96.5668 28.0665 96.0563L47.0579 1.09952C47.2621 0.588999 47.5684 0.33374 47.9768 0.33374ZM52.7247 4.92842C53.031 5.74526 53.1331 6.51104 53.031 7.22577L52.5715 9.82942H53.9499L54.5626 7.22577C53.9499 6.20473 53.6947 5.43895 53.7968 4.92842H52.7247ZM82.8964 10.5952L82.2838 13.5052C82.1817 14.0157 81.8754 14.2709 81.3649 14.2709H77.2297L76.9233 15.8025L76.3107 20.3972L75.545 20.7035H74.7791C74.1665 20.7035 73.9113 20.193 74.0134 19.1719H66.8151V19.6314C68.3466 19.6314 69.0614 20.8567 68.9592 23.3072L68.8061 24.5324C68.3976 26.1661 67.1213 27.5445 64.9772 28.6676H62.3735C61.4546 28.6676 60.6378 28.2592 59.923 27.4424C59.7188 28.4634 59.3614 28.9739 58.8509 28.9739H54.7157L52.8778 38.0101C52.7757 38.5207 52.4694 38.7759 51.9589 38.7759H48.2831L45.5263 52.4068C45.4242 52.8152 45.1179 53.0194 44.6074 53.0194H40.4722L37.5622 67.7224L38.328 67.4161C38.7364 67.4161 39.0427 67.7735 39.247 68.4882V68.9477C39.1448 69.4582 38.4301 69.7135 37.1028 69.7135L34.6522 82.4254H38.7875C39.1959 82.5275 39.4001 82.7828 39.4001 83.1912L36.6433 96.8221H40.319C40.8296 96.8221 41.0338 97.0263 40.9317 97.4347L40.1659 101.57H44.3011C44.8116 101.672 45.0158 101.927 44.9137 102.336L43.0759 111.372H46.9048L46.5984 110.606L46.9048 109.228C47.109 108.717 47.4153 108.462 47.8237 108.462H49.0489C49.4574 108.462 49.6105 108.717 49.5084 109.228L49.2021 110.606L48.7426 111.372C51.4994 111.372 52.8268 111.627 52.7247 112.138L51.9589 116.273H60.5356C60.842 115.048 61.2504 114.435 61.7609 114.435H62.3735C62.884 114.537 63.0883 114.792 62.9862 115.201L62.833 115.967C62.7309 116.477 62.3225 116.732 61.6077 116.732L60.6888 121.174H64.824C65.3345 121.174 65.4366 122.552 65.1303 125.309C65.4366 125.718 66.8661 126.126 69.4187 126.534L68.4998 130.976H76.0044L78.9144 130.21L79.3739 131.435L79.2207 132.201C79.1186 132.61 78.557 132.814 77.536 132.814L77.0765 135.571H81.2117C81.7222 135.571 81.9264 135.826 81.8243 136.336L80.9054 140.778C81.6202 140.778 81.9264 141.033 81.8243 141.544L81.6712 142.309L80.2928 143.841L79.0675 150.274H83.2028C83.5091 150.274 83.8664 150.886 84.2748 152.111L84.1217 152.877L83.2028 153.949L80.1396 168.959C80.0375 169.469 79.7312 169.724 79.2207 169.724H75.0855L74.3197 173.86C74.2176 174.37 73.9113 174.625 73.4008 174.625H65.4366C64.9261 174.625 64.7219 174.37 64.824 173.86L65.743 169.724H61.6077C61.0972 169.724 60.893 169.469 60.9951 168.959L65.743 145.373H48.4363C47.8237 148.129 46.3942 149.508 44.1479 149.508H43.3821C40.9316 149.508 39.9617 148.129 40.4722 145.373H26.8413L20.1024 179.22H23.9313C24.4418 179.322 24.6461 179.577 24.544 179.986L21.7871 193.923H25.9224C26.3308 193.923 26.535 194.178 26.535 194.689L24.6971 203.572H28.8323C29.3428 203.674 29.5471 203.929 29.445 204.338L28.526 208.473H37.5622C38.0728 208.575 38.277 208.83 38.1749 209.239L37.5622 212.608C37.4601 213.119 37.1538 213.374 36.6433 213.374H32.5081L31.5892 217.969H35.7243L35.5712 217.203L35.7243 216.131C35.8264 215.722 36.2859 215.314 37.1028 214.905H37.8685C38.1748 214.905 38.4812 215.314 38.7875 216.131L38.4811 217.203C38.379 217.713 37.7154 217.969 36.4901 217.969L35.5712 222.87H44.6074C45.0158 222.972 45.169 223.227 45.0669 223.635L44.3011 227.771H54.1031L55.022 222.87H52.8778L51.0399 223.942H49.9678C49.5594 223.942 49.2531 223.584 49.0489 222.87L49.2021 221.644L50.7337 220.266L51.1931 217.969H42.1569C41.6464 217.969 41.4422 217.713 41.5443 217.203L43.0759 209.239C43.2801 208.728 43.5863 208.473 43.9948 208.473H52.2652C52.7757 208.575 52.9799 208.83 52.8778 209.239L52.112 213.374H56.2473C56.6557 213.476 56.8599 213.731 56.8599 214.14L56.0941 217.969H59.4635C59.872 215.927 61.0462 214.905 62.9862 214.905C64.4156 215.314 64.9772 216.335 64.6709 217.969H70.3376L71.1034 214.14C72.1244 212.404 72.7881 211.536 73.0944 211.536H74.3197L75.3918 213.374H81.0586L81.8243 209.239C83.0496 207.503 83.8664 206.635 84.2748 206.635H85.3469C86.2659 207.146 86.6743 207.758 86.5722 208.473H96.6805L97.2931 205.563C96.3742 206.073 95.7105 206.329 95.3021 206.329C94.4852 206.329 93.8726 205.563 93.4642 204.031C94.2811 202.5 94.9447 201.734 95.4552 201.734H97.2931L97.9057 202.194C98.4163 199.947 98.9268 198.824 99.4373 198.824H103.113L104.032 194.689C104.236 194.178 104.543 193.923 104.951 193.923H109.086L111.843 179.986C112.047 179.475 112.353 179.22 112.762 179.22H116.897L117.663 175.391C118.071 173.247 118.378 171.001 118.582 168.652C118.99 167.733 119.348 166.61 119.654 165.283C116.795 165.283 115.468 163.139 115.672 158.85C117.306 155.072 119.45 153.184 122.104 153.184L122.564 150.886C122.666 150.478 122.972 150.274 123.483 150.274H127.618C125.474 148.436 124.555 146.547 124.861 144.607L125.168 143.382C126.495 140.421 128.026 138.94 129.762 138.94L130.069 137.715C129.15 138.225 128.333 138.481 127.618 138.481H126.852C124.198 137.97 123.074 136.745 123.483 134.805L123.789 133.273C123.993 132.252 125.014 130.976 126.852 129.444L127.465 126.075L126.24 126.841H124.708C122.666 126.841 121.849 125.82 122.258 123.778L122.411 123.471C122.411 123.267 122.87 122.246 123.789 120.408L124.402 117.498L123.483 117.804H121.645C118.888 117.804 117.816 116.171 118.429 112.903C118.633 111.985 119.501 110.861 121.032 109.534L121.645 106.471H112.915C112.405 106.471 112.2 106.267 112.302 105.858L114.14 96.8221H108.473C108.167 98.2515 107.299 98.9663 105.87 98.9663C105.461 98.4558 105.359 97.741 105.564 96.8221H100.203C99.6925 96.8221 99.4883 96.5668 99.5904 96.0563L100.356 92.2274H95.9147C95.7105 93.0442 94.8937 93.81 93.4642 94.5248H91.32C90.1969 93.81 89.7374 92.789 89.9416 91.4616C90.35 89.4195 91.5753 88.3985 93.6174 88.3985C94.4342 88.3985 95.251 88.8069 96.0679 89.6238L96.5273 87.3264H92.3921C91.8816 87.3264 91.8816 86.1012 92.3921 83.6507C91.4732 84.0591 90.6563 84.2633 89.9416 84.2633C88.0016 84.1612 87.1848 83.2933 87.4911 81.6596C88.1038 79.4134 88.5122 78.0349 88.7164 77.5244H84.8875C84.3769 77.5244 84.1727 77.2692 84.2748 76.7586L84.8875 73.3892C84.9896 72.8787 84.8364 72.6234 84.428 72.6234H80.9054C80.3949 72.6234 80.1907 72.3682 80.2928 71.8577L83.9685 53.7852C84.1727 53.2747 84.4791 53.0194 84.8875 53.0194H93.4642L94.23 49.3437C94.4342 48.8332 94.7405 48.5779 95.1489 48.5779H98.5184C99.0289 48.68 99.2331 48.9353 99.131 49.3437L98.3652 53.0194C98.2631 53.9384 98.161 55.1126 98.0589 56.542C97.7526 56.9504 97.5484 57.4099 97.4463 57.9204H101.581C102.092 58.0225 102.296 58.2778 102.194 58.6862L98.3652 77.5244H100.356L100.05 76.7586L100.203 76.4523C100.203 76.0439 100.663 75.6355 101.581 75.2271H102.654C103.164 75.2271 103.266 75.9929 102.96 77.5244H108.167L109.086 73.3892C109.086 73.0829 109.903 72.7255 111.537 72.3171C111.741 70.9898 112.507 70.3261 113.834 70.3261C114.344 71.245 114.549 72.0108 114.447 72.6234H131.447L134.97 68.1819C137.012 67.3651 138.441 66.9566 139.258 66.9566L140.177 62.8214L139.87 58.3799C140.075 57.3589 140.738 56.0826 141.862 54.551C138.696 53.7342 137.267 52.7642 137.573 51.641C137.369 49.9053 137.42 48.3737 137.726 47.0464C137.828 46.2295 138.543 45.1064 139.87 43.6769C139.462 43.6769 139.207 42.9111 139.105 41.3796C138.288 41.1754 137.726 40.4606 137.42 39.2354L137.879 36.1723C138.798 34.947 139.564 34.3344 140.177 34.3344L140.33 33.8749C137.573 33.8749 136.246 33.5176 136.348 32.8028C136.858 30.4544 135.633 29.076 132.672 28.6676L133.591 24.0729H129.456C128.945 24.0729 128.741 23.8177 128.843 23.3072L129.609 19.1719H128.843V21.163L128.69 22.2351C128.384 23.5624 127.414 24.5835 125.78 25.2982H124.402C122.155 24.8898 121.237 23.7156 121.645 21.7756V21.4693C122.564 19.223 123.687 18.0998 125.014 18.0998L125.627 14.7304C124.095 15.7515 122.768 16.262 121.645 16.262L116.438 13.9646C116.131 13.9646 116.029 13.8115 116.131 13.5052L116.897 9.82942H112.302C110.771 10.8505 109.546 11.361 108.627 11.361H107.555C106.125 11.361 104.951 10.8505 104.032 9.82942H103.726C102.5 13.8115 100.458 15.8025 97.5994 15.8025H95.7615C92.9026 15.8025 91.6774 13.8115 92.0858 9.82942H86.7253C84.8875 10.3399 83.6112 10.5952 82.8964 10.5952ZM153.348 9.82942V11.6673L152.889 14.2709H154.727L155.186 12.1268C154.369 11.1057 154.012 10.3399 154.114 9.82942H153.348ZM86.7253 13.5052C87.1337 13.5052 87.4401 13.9136 87.6443 14.7304V15.0367C87.5422 15.5472 87.2358 15.8025 86.7253 15.8025H86.2658C85.9595 15.8025 85.6533 15.4451 85.3469 14.7304C85.449 14.322 85.9085 13.9136 86.7253 13.5052ZM111.383 14.2709H112.149C112.558 14.2709 112.864 14.6794 113.068 15.4962L112.915 16.262C112.915 16.5683 112.456 16.9257 111.537 17.3341H110.924C110.516 17.3341 110.209 16.9767 110.005 16.262L110.158 15.4962C110.158 15.0878 110.567 14.6794 111.383 14.2709ZM100.203 19.6314H100.969C101.479 19.6314 101.684 19.8867 101.581 20.3972C101.479 20.7035 101.02 21.0609 100.203 21.4693H99.8968C99.3863 21.4693 99.1821 21.214 99.2842 20.7035V20.3972C99.4884 19.8867 99.7947 19.6314 100.203 19.6314ZM88.8695 24.0729H89.4821C89.9927 24.175 90.1969 24.4303 90.0948 24.8387V25.2982C89.9927 25.8087 89.6864 26.064 89.1758 26.064H88.41C87.8995 26.064 87.6953 25.8087 87.7974 25.2982L87.9506 24.8387C88.0527 24.3282 88.359 24.0729 88.8695 24.0729ZM114.293 24.8387H114.6C115.008 24.8387 115.314 25.2471 115.519 26.064V26.3703C115.417 26.6766 114.957 27.034 114.14 27.4424H113.375C112.864 27.4424 112.66 27.1871 112.762 26.6766L112.915 26.064C113.017 25.6556 113.477 25.2471 114.293 24.8387ZM77.6891 28.6676H78.4549C78.9654 28.6676 79.1696 28.9229 79.0675 29.4334V29.7397C78.9654 30.1481 78.506 30.5055 77.6891 30.8118H77.2297C76.7191 30.8118 76.5149 30.6076 76.617 30.1992L76.7702 29.4334C76.9744 28.9229 77.2807 28.6676 77.6891 28.6676ZM103.113 29.4334C103.521 29.4334 103.828 29.7908 104.032 30.5055L103.879 31.2713C103.777 31.7818 103.47 32.0371 102.96 32.0371H102.347C101.837 32.0371 101.633 31.7818 101.735 31.2713L101.888 30.5055C101.888 30.0971 102.296 29.7397 103.113 29.4334ZM127.771 30.5055H128.537C128.945 30.5055 129.252 30.8629 129.456 31.5776L129.303 32.3434C128.894 33.1602 128.077 33.5686 126.852 33.5686L126.24 32.3434L126.393 31.5776C126.495 31.2713 126.954 30.9139 127.771 30.5055ZM66.6619 33.1091H66.9682C67.4787 33.2112 67.6829 33.4665 67.5808 33.8749L67.4277 34.6407C67.3256 35.1512 67.0703 35.4065 66.6619 35.4065H66.2024C65.6919 35.4065 65.4877 35.1512 65.5898 34.6407L65.743 33.8749C65.9472 33.3644 66.2535 33.1091 66.6619 33.1091ZM91.6263 34.3344H92.0858C92.3921 34.3344 92.6984 34.6918 93.0047 35.4065C92.9026 35.7128 92.4432 36.0702 91.6263 36.4786H91.1669C90.6564 36.4786 90.4521 36.2233 90.5542 35.7128L90.7074 34.947C90.9116 34.5386 91.2179 34.3344 91.6263 34.3344ZM116.744 34.947H117.05C117.459 34.947 117.765 35.3554 117.969 36.1723L117.816 36.9381C117.816 37.2444 117.357 37.6017 116.438 38.0101H116.131C115.723 38.0101 115.417 37.6528 115.212 36.9381L115.366 36.1723C115.468 35.7639 115.927 35.3554 116.744 34.947ZM55.6346 37.7038C55.941 37.7038 56.2473 38.0612 56.5536 38.7759L56.4004 39.2354C56.2983 39.6438 55.992 39.848 55.4815 39.848H55.1752C54.7668 39.848 54.4604 39.4907 54.2562 38.7759C54.3583 38.4696 54.8178 38.1122 55.6346 37.7038ZM80.5991 38.7759C80.9054 38.7759 81.2117 39.1333 81.518 39.848L81.3649 40.3075C81.2628 40.818 80.9565 41.0733 80.4459 41.0733H79.8333C79.3228 41.0733 79.1186 40.818 79.2207 40.3075V39.848C79.3228 39.5417 79.7823 39.1843 80.5991 38.7759ZM105.257 39.848H106.023C106.329 39.848 106.585 40.2564 106.789 41.0733V41.3796C106.687 41.788 106.227 42.1964 105.41 42.6048H104.645C104.134 42.6048 103.93 42.3496 104.032 41.839L104.338 40.6138C104.543 40.1033 104.849 39.848 105.257 39.848ZM130.222 41.0733H130.987C131.498 41.1754 131.702 41.4306 131.6 41.839L131.447 42.6048C131.345 43.1154 131.039 43.3706 130.528 43.3706H129.762C129.252 43.3706 129.047 43.1154 129.15 42.6048L129.303 41.839C129.507 41.3285 129.813 41.0733 130.222 41.0733ZM69.5719 43.3706C69.8782 43.3706 70.1845 43.728 70.4908 44.4427L70.3376 44.749C70.2355 45.2595 69.9292 45.5148 69.4187 45.5148H68.6529C68.1424 45.5148 67.9382 45.2595 68.0403 44.749L68.1934 44.4427C68.2955 44.0343 68.755 43.6769 69.5719 43.3706ZM94.0768 44.4427H94.5363C94.8426 44.4427 95.1489 44.8001 95.4552 45.5148L95.3021 45.9743C95.2 46.4848 94.8936 46.74 94.3831 46.74H93.6174C93.2089 46.74 93.0558 46.4848 93.1579 45.9743L93.311 45.2085C93.4131 44.698 93.6684 44.4427 94.0768 44.4427ZM119.194 45.5148H119.96C120.369 45.6169 120.522 45.8722 120.42 46.2806L120.267 47.0464C120.267 47.4548 119.858 47.8632 119.041 48.2716C118.633 48.2716 118.327 47.8632 118.122 47.0464L118.276 46.2806C118.378 45.7701 118.684 45.5148 119.194 45.5148ZM57.932 48.2716H58.3915C58.902 48.2716 59.1062 48.4758 59.0041 48.8842L58.8509 49.3437C58.7488 49.8542 58.4425 50.1095 57.932 50.1095H57.6257C57.1152 50.1095 56.9109 49.8542 57.013 49.3437L57.1662 48.8842C57.2683 48.4758 57.5236 48.2716 57.932 48.2716ZM119.654 48.5779H123.023C123.534 48.68 123.738 48.9353 123.636 49.3437L123.023 52.4068C122.921 52.8152 122.615 53.0194 122.104 53.0194H118.735C118.224 53.0194 118.02 52.8152 118.122 52.4068L118.735 49.3437C118.939 48.8332 119.245 48.5779 119.654 48.5779ZM83.0496 48.8842H83.509C84.0196 48.8842 84.2748 49.5479 84.2748 50.8753L82.8964 51.641H82.1307C81.6201 51.641 81.4159 51.3858 81.518 50.8753L81.6712 50.1095C81.7733 49.7011 82.2328 49.2926 83.0496 48.8842ZM133.438 49.3437C135.582 49.65 136.501 50.7732 136.195 52.7131C135.48 54.7552 134.255 55.7763 132.519 55.7763H132.213C130.171 55.7763 129.354 54.7552 129.762 52.7131V52.4068C130.171 50.3647 131.396 49.3437 133.438 49.3437ZM107.708 50.1095H108.78C109.29 50.2116 109.495 50.4668 109.392 50.8753L109.239 51.9474C109.137 52.4579 108.831 52.7131 108.32 52.7131H107.095C106.687 52.7131 106.534 52.4579 106.636 51.9474L106.789 50.8753C106.993 50.3647 107.299 50.1095 107.708 50.1095ZM46.5984 52.7131H46.9048C47.3132 52.7131 47.6195 53.0705 47.8237 53.7852C47.7216 54.1936 47.2621 54.6021 46.4453 55.0105C46.139 55.0105 45.8326 54.6021 45.5263 53.7852L45.6795 53.4789C45.8837 52.9684 46.19 52.7131 46.5984 52.7131ZM72.0223 53.4789C72.3287 53.4789 72.635 53.8363 72.9413 54.551L72.7881 55.3168C72.686 55.8273 72.3797 56.0826 71.8692 56.0826H71.1034C70.5929 56.0826 70.3887 55.8273 70.4908 55.3168L70.644 54.551C70.7461 54.2447 71.2055 53.8873 72.0223 53.4789ZM121.951 55.7763C122.36 55.7763 122.666 56.1336 122.87 56.8484L122.717 57.6141C122.615 58.1246 122.309 58.3799 121.798 58.3799H121.032C120.522 58.3799 120.318 58.1246 120.42 57.6141L120.573 56.8484C120.675 56.4399 121.134 56.0826 121.951 55.7763ZM88.1037 57.9204L87.9506 58.3799L88.5632 59.452L88.1037 61.7493L87.0317 62.8214H91.6263L92.5453 57.9204H88.1037ZM60.5356 58.3799H60.842C61.2504 58.3799 61.5567 58.7373 61.7609 59.452C61.6588 59.8604 61.1993 60.2688 60.3825 60.6773H60.0762C59.6678 60.6773 59.3614 60.2688 59.1572 59.452C59.2593 59.1457 59.7188 58.7883 60.5356 58.3799ZM110.618 60.2178H110.924C111.332 60.2178 111.639 60.6262 111.843 61.443L111.69 62.0557C111.588 62.4641 111.128 62.8725 110.311 63.2809H110.005C109.597 63.2809 109.29 62.8725 109.086 62.0557L109.239 61.443C109.239 61.0346 109.699 60.6262 110.618 60.2178ZM136.195 60.2178C137.624 60.2178 138.186 61.0857 137.879 62.8214C137.573 64.6593 136.501 65.5782 134.663 65.5782C133.234 65.5782 132.672 64.6593 132.978 62.8214C133.285 61.0857 134.357 60.2178 136.195 60.2178ZM49.0489 62.8214H49.8147C50.3252 62.9235 50.5294 63.1788 50.4273 63.5872L50.2742 64.353C50.1721 64.8635 49.8657 65.1188 49.3552 65.1188H48.5895C48.0789 65.1188 47.8747 64.8635 47.9768 64.353L48.13 63.5872C48.3342 63.0767 48.6405 62.8214 49.0489 62.8214ZM74.4729 63.5872C75.3918 63.9956 75.8002 64.4041 75.6981 64.8125V65.5782C75.596 65.8846 75.1365 66.2419 74.3197 66.6503H73.5539C72.9413 66.6503 72.686 66.0377 72.7881 64.8125L74.4729 63.5872ZM124.095 66.1909H124.708C125.219 66.293 125.423 66.5482 125.321 66.9566L125.168 67.7224C125.168 68.1308 124.759 68.5393 123.942 68.9477C123.534 68.9477 123.228 68.5393 123.023 67.7224L123.177 66.9566C123.279 66.4461 123.585 66.1909 124.095 66.1909ZM63.2924 68.4882C63.7009 68.4882 64.0072 68.8966 64.2114 69.7135V70.0198C64.1093 70.5303 63.803 70.7856 63.2924 70.7856H62.5267C62.0162 70.7856 61.812 70.5303 61.9141 70.0198L62.0672 69.7135C62.0672 69.305 62.4756 68.8966 63.2924 68.4882ZM51.4994 73.3892H52.2652C52.6736 73.4913 52.8778 73.7466 52.8778 74.155L52.7247 74.6145C52.6226 74.9208 52.1631 75.2781 51.3463 75.6866C51.04 75.6866 50.7336 75.3292 50.4273 74.6145L50.5805 74.155C50.7847 73.6445 51.091 73.3892 51.4994 73.3892ZM76.4639 74.155H77.2297C77.6381 74.155 77.9444 74.5123 78.1486 75.2271V75.6866C78.0465 75.9929 77.587 76.3502 76.7702 76.7586H76.0044C75.4939 76.7586 75.2897 76.5034 75.3918 75.9929L75.6981 74.9208C75.8002 74.4102 76.0554 74.155 76.4639 74.155ZM130.069 77.5244C129.66 79.3623 128.486 80.7407 126.546 81.6596L126.393 82.4254H131.294L132.366 77.5244H130.069ZM40.319 77.9839H41.0848C41.5953 77.9839 41.7995 78.2391 41.6974 78.7497L41.5443 79.3623C41.4422 79.8728 41.1359 80.1281 40.6253 80.1281H40.0127C39.5022 80.1281 39.298 79.8728 39.4001 79.3623L39.5532 78.7497C39.6553 78.2391 39.9106 77.9839 40.319 77.9839ZM65.4366 79.056H66.2024C66.6108 79.1581 66.8151 79.4133 66.8151 79.8218L66.6619 80.5875C66.5598 81.0981 66.2535 81.3533 65.743 81.3533H64.9772C64.4666 81.3533 64.2624 81.0981 64.3645 80.5875L64.5177 79.8218C64.7219 79.3112 65.0282 79.056 65.4366 79.056ZM54.2562 83.6507H54.7157C55.022 83.6507 55.3283 84.008 55.6346 84.7228C55.5325 85.0291 55.0731 85.3864 54.2562 85.7949H53.7968C53.4905 85.7949 53.2352 85.4375 53.031 84.7228C53.031 84.3144 53.4394 83.957 54.2562 83.6507ZM79.0675 84.2633H80.1396C80.6501 84.3654 80.8543 84.6207 80.7522 85.0291L80.4459 86.5606C80.3438 87.0712 80.0375 87.3264 79.527 87.3264H78.4549C77.9444 87.3264 77.7402 87.0712 77.8423 86.5606L78.1486 85.0291C78.2507 84.5186 78.557 84.2633 79.0675 84.2633ZM42.9227 88.0922H43.6885C44.0969 88.1943 44.3011 88.4496 44.3011 88.858L44.1479 89.6238C44.0458 90.1343 43.7395 90.3895 43.229 90.3895H42.4632C41.9527 90.3895 41.7485 90.1343 41.8506 89.6238L42.0038 88.858C42.208 88.3475 42.5143 88.0922 42.9227 88.0922ZM67.8872 89.1643H68.6529C69.1634 89.2664 69.3676 89.5217 69.2655 89.9301L69.1124 90.6959C69.0103 91.2064 68.704 91.4616 68.1934 91.4616H67.4277C66.9172 91.4616 66.713 91.2064 66.8151 90.6959L66.9682 89.9301C67.1724 89.4196 67.4787 89.1643 67.8872 89.1643ZM124.861 90.3895L123.636 96.8221H127.312C128.129 96.5158 128.639 95.75 128.843 94.5248L129.303 92.5337C126.342 92.4316 124.963 91.7169 125.168 90.3895H124.861ZM56.8599 93.759H57.1662C57.5746 93.759 57.8809 94.1163 58.0851 94.8311L57.932 95.2905C57.932 95.8011 57.6767 96.0563 57.1662 96.0563H56.4004C55.8899 96.0563 55.6857 95.8011 55.7878 95.2905L55.941 94.5248C56.0431 94.0142 56.3494 93.759 56.8599 93.759ZM81.8243 94.8311H82.1307C82.5391 94.8311 82.8454 95.2395 83.0496 96.0563V96.3626C82.9475 96.771 82.488 97.1284 81.6712 97.4347C81.2628 97.4347 80.9564 97.0773 80.7522 96.3626L80.9054 95.5969C81.1096 95.0863 81.4159 94.8311 81.8243 94.8311ZM45.6795 98.66H45.9858C46.4963 98.7621 46.7005 99.0173 46.5984 99.4258V99.7321C46.4963 100.243 46.19 100.498 45.6795 100.498H44.9137C44.4032 100.498 44.199 100.243 44.3011 99.7321C44.4032 99.4258 44.8627 99.0684 45.6795 98.66ZM70.3376 99.7321H71.1034C71.5118 99.8342 71.665 100.089 71.5629 100.498V100.957C71.4608 101.264 71.0013 101.621 70.1845 102.029C69.8782 102.029 69.5718 101.672 69.2655 100.957L69.4187 100.498C69.5208 99.9873 69.8271 99.7321 70.3376 99.7321ZM95.7615 100.498C96.0679 100.498 96.3742 100.855 96.6805 101.57L96.5273 102.336C96.4252 102.846 96.1189 103.101 95.6084 103.101H94.8426C94.3321 103.101 94.1279 102.846 94.23 102.336L94.3831 101.57C94.4852 101.264 94.9447 100.906 95.7615 100.498ZM59.1572 104.327H59.923C60.4335 104.327 60.6377 104.582 60.5356 105.093L60.3825 105.858C60.2804 106.267 59.9741 106.471 59.4635 106.471H58.6978C58.1873 106.471 57.983 106.267 58.0851 105.858L58.2383 105.093C58.4425 104.582 58.7488 104.327 59.1572 104.327ZM84.2748 105.399H84.8875C85.398 105.501 85.6022 105.756 85.5001 106.165L85.3469 106.93C85.2448 107.441 84.9896 107.696 84.5811 107.696H83.8154C83.3049 107.696 83.1007 107.441 83.2028 106.93L83.3559 106.165C83.458 105.654 83.7643 105.399 84.2748 105.399ZM108.933 106.165H110.005C110.413 106.165 110.72 106.522 110.924 107.237L110.771 108.002C110.669 108.411 110.209 108.819 109.392 109.228H108.627C108.32 109.228 108.014 108.819 107.708 108.002L108.014 106.93C108.218 106.42 108.525 106.165 108.933 106.165ZM73.0944 109.994H73.5539C73.8602 109.994 74.1665 110.351 74.4729 111.066C74.3708 111.372 73.9113 111.729 73.0944 112.138H72.635C72.1244 112.138 71.9202 111.882 72.0223 111.372L72.1755 110.606C72.3797 110.198 72.686 109.994 73.0944 109.994ZM28.8323 111.372L28.3729 113.669C28.2708 113.873 29.0876 114.741 30.8233 116.273H32.6612L33.7333 111.372H28.8323ZM98.0589 111.066H98.5184C98.8247 111.066 99.131 111.423 99.4373 112.138C99.3352 112.546 98.8757 112.955 98.0589 113.363H97.7526C97.3442 113.363 97.0379 112.955 96.8336 112.138C96.8336 111.831 97.242 111.474 98.0589 111.066ZM86.7253 115.507H87.4911C87.8995 115.609 88.1037 115.865 88.1037 116.273L87.9506 117.039C87.8485 117.549 87.5422 117.804 87.0317 117.804H86.2658C85.7553 117.804 85.5511 117.549 85.6532 117.039L85.8064 116.273C86.0106 115.762 86.3169 115.507 86.7253 115.507ZM111.69 116.732H112.456C112.966 116.835 113.17 117.09 113.068 117.498L112.915 118.264C112.813 118.57 112.353 118.928 111.537 119.336C111.128 119.336 110.822 118.979 110.618 118.264L110.771 117.498C110.975 116.988 111.281 116.732 111.69 116.732ZM76.0044 120.102C76.3107 120.102 76.617 120.459 76.9233 121.174L76.7702 121.633C76.6681 122.144 76.3618 122.399 75.8512 122.399H75.2386C74.7281 122.399 74.5239 122.144 74.626 121.633V121.174C74.7281 120.868 75.1876 120.51 76.0044 120.102ZM100.663 121.174H100.969C101.377 121.174 101.684 121.582 101.888 122.399V122.705C101.786 123.114 101.326 123.471 100.509 123.778C100.101 123.778 99.7947 123.42 99.5904 122.705L99.7436 121.94C99.9478 121.429 100.254 121.174 100.663 121.174ZM89.1758 125.769H89.9416C90.2479 125.769 90.5542 126.126 90.8606 126.841L90.7074 127.606C90.6053 128.117 90.299 128.372 89.7885 128.372H88.7164C88.2058 128.372 88.0016 128.117 88.1037 127.606L88.2569 126.534C88.4611 126.024 88.7674 125.769 89.1758 125.769ZM114.293 126.075H115.519C115.825 126.075 116.182 126.585 116.591 127.606L116.438 128.679C116.336 129.087 115.723 129.598 114.6 130.21H113.068C112.762 130.21 112.456 129.853 112.149 129.138L112.456 127.606C112.558 127.198 113.17 126.688 114.293 126.075ZM102.96 131.742H103.726C104.236 131.844 104.44 132.099 104.338 132.507L104.185 133.273C104.083 133.784 103.777 134.039 103.266 134.039H102.5C102.092 134.039 101.939 133.784 102.041 133.273L102.194 132.507C102.296 131.997 102.551 131.742 102.96 131.742ZM91.6263 136.336H92.6984C93.2089 136.336 93.4131 136.541 93.311 136.949L93.1579 137.715C93.0558 138.225 92.7495 138.481 92.239 138.481H91.1669C90.6564 138.481 90.4521 138.225 90.5542 137.715L90.7074 136.949C90.9116 136.541 91.2179 136.336 91.6263 136.336ZM116.591 137.408H117.663C118.173 137.511 118.378 137.766 118.276 138.174L118.122 138.94C118.02 139.451 117.714 139.706 117.203 139.706H116.131C115.621 139.706 115.417 139.451 115.519 138.94L115.672 138.174C115.876 137.664 116.182 137.408 116.591 137.408ZM105.564 141.85H106.329C106.738 141.952 106.891 142.207 106.789 142.616V143.382C106.687 143.892 106.38 144.147 105.87 144.147H105.104C104.594 144.147 104.389 143.892 104.491 143.382L104.645 142.616C104.747 142.105 105.053 141.85 105.564 141.85ZM94.3831 146.445H95.1489C95.6595 146.547 95.8637 146.802 95.7615 147.21L95.6084 148.283C95.5063 148.793 95.2 149.048 94.6895 149.048H93.9237C93.5153 149.048 93.209 148.691 93.0047 147.976L93.1579 147.517C93.1579 147.21 93.5663 146.853 94.3831 146.445ZM119.501 147.517H120.113C120.624 147.619 120.828 147.874 120.726 148.283L120.573 149.508C120.471 150.018 120.164 150.274 119.654 150.274H118.888C118.582 150.274 118.275 149.865 117.969 149.048L118.122 148.742C118.122 148.334 118.582 147.925 119.501 147.517ZM32.9675 149.048H33.7333C34.1418 149.15 34.346 149.406 34.346 149.814L34.1928 150.58C34.0907 151.09 33.7844 151.346 33.2739 151.346H32.8144C32.5081 151.346 32.2018 150.988 31.8954 150.274L32.0486 149.814C32.2528 149.304 32.5591 149.048 32.9675 149.048ZM57.932 149.814H59.1572C59.6677 149.916 59.872 150.171 59.7699 150.58L59.4635 151.652C59.4635 152.06 59.0041 152.469 58.0851 152.877H57.7788C57.3704 152.877 56.962 152.367 56.5536 151.346L56.7067 150.886C56.7067 150.58 57.1151 150.223 57.932 149.814ZM108.32 152.111C108.729 152.111 109.035 152.469 109.239 153.184L109.086 153.949C108.984 154.46 108.678 154.715 108.167 154.715H107.401C106.993 154.715 106.789 154.46 106.789 153.949L106.942 153.184C107.044 152.877 107.504 152.52 108.32 152.111ZM46.9048 154.715H47.6705C48.0789 154.817 48.2831 155.072 48.2831 155.481L48.13 155.787C48.0279 156.196 47.5684 156.604 46.7516 157.012H46.4453C45.9348 157.012 45.7306 156.757 45.8327 156.247L45.9858 155.481C46.19 154.97 46.4963 154.715 46.9048 154.715ZM96.8336 157.012H97.5994C98.1099 157.115 98.3142 157.37 98.2121 157.778L98.0589 158.544C97.9568 158.952 97.6505 159.157 97.14 159.157H96.3742C95.8636 159.157 95.6594 158.952 95.7615 158.544L95.9147 157.778C96.1189 157.268 96.4252 157.012 96.8336 157.012ZM35.7243 159.157H36.1838C36.6943 159.259 36.8985 159.514 36.7964 159.922L36.6433 160.688C36.5412 161.199 36.2349 161.454 35.7243 161.454H35.4181C34.9075 161.454 34.7033 161.199 34.8054 160.688L34.9586 159.922C35.0607 159.412 35.3159 159.157 35.7243 159.157ZM60.3825 160.382H61.6077C62.0162 160.484 62.2204 160.739 62.2204 161.148L62.0672 161.913C61.9651 162.22 61.5056 162.577 60.6888 162.986C59.7698 162.577 59.3104 162.22 59.3104 161.913L59.4635 161.148C59.6678 160.637 59.9741 160.382 60.3825 160.382ZM85.3469 161.454H86.5722C87.0827 161.556 87.2869 161.811 87.1848 162.22L87.0317 162.986C86.9296 163.496 86.6232 163.751 86.1127 163.751H84.8875C84.4791 163.751 84.3259 163.496 84.428 162.986L84.5811 162.22C84.6832 161.709 84.9385 161.454 85.3469 161.454ZM110.465 162.22H111.537C111.945 162.22 112.251 162.73 112.456 163.751C111.843 164.772 111.383 165.283 111.077 165.283H109.852C109.341 165.283 109.137 165.028 109.239 164.517L109.546 162.986C109.75 162.475 110.056 162.22 110.465 162.22ZM24.2376 164.058H25.0034C25.5139 164.16 25.7182 164.415 25.6161 164.823V165.283C25.514 165.793 25.2076 166.049 24.6971 166.049H24.2376C23.9313 166.049 23.625 165.64 23.3187 164.823C23.5229 164.313 23.8292 164.058 24.2376 164.058ZM135.735 164.058H136.042C136.552 164.16 136.756 164.415 136.654 164.823C136.552 165.334 136.246 165.589 135.735 165.589H135.429C134.918 165.589 134.714 165.334 134.816 164.823C135.021 164.313 135.327 164.058 135.735 164.058ZM49.3552 164.823H50.121C50.4273 164.823 50.7336 165.232 51.0399 166.049C50.4273 167.07 49.9168 167.58 49.5084 167.58H48.8958C48.3852 167.58 48.181 167.325 48.2831 166.814L48.4363 165.589C48.6405 165.079 48.9468 164.823 49.3552 164.823ZM99.2842 167.121H100.05C100.56 167.223 100.765 167.478 100.663 167.887L100.509 168.652C100.407 168.959 99.9478 169.316 99.131 169.724C98.8247 169.724 98.5184 169.367 98.2121 168.652L98.3652 167.887C98.5694 167.376 98.8757 167.121 99.2842 167.121ZM38.1749 169.724H38.6343C39.0428 169.827 39.247 170.082 39.247 170.49L39.0938 170.95C38.9917 171.46 38.6854 171.715 38.1749 171.715H37.8685C37.358 171.715 37.1538 171.46 37.2559 170.95V170.49C37.4601 169.98 37.7664 169.724 38.1749 169.724ZM63.2924 170.49H64.0582C64.5687 170.592 64.773 170.848 64.6709 171.256L64.3645 172.481C64.2624 172.89 63.9561 173.094 63.4456 173.094H62.6798C62.3735 173.094 62.1183 172.736 61.9141 172.022V171.715C62.0162 171.307 62.4756 170.899 63.2924 170.49ZM112.915 170.95H113.987C116.029 170.95 116.846 171.92 116.438 173.86L116.284 174.319C115.876 176.259 114.702 177.229 112.762 177.229C110.516 176.923 109.597 175.8 110.005 173.86C110.209 172.941 111.179 171.971 112.915 170.95ZM88.2569 171.715H89.0227C89.5332 171.715 89.7374 171.971 89.6353 172.481L89.329 173.553C89.2269 174.064 88.9716 174.319 88.5632 174.319H87.7974C87.389 174.319 87.0827 173.911 86.8785 173.094V172.788C86.9806 172.379 87.4401 172.022 88.2569 171.715ZM26.8413 174.319H27.4539C27.9644 174.421 28.1686 174.676 28.0665 175.085L27.9134 175.851C27.8113 176.361 27.505 176.616 26.9944 176.616H26.6882C26.2797 176.616 25.9734 176.208 25.7692 175.391L25.9224 175.085C26.0245 174.574 26.3308 174.319 26.8413 174.319ZM51.8057 175.391H52.5715C52.9799 175.493 53.1841 175.749 53.1841 176.157L53.031 176.923C52.9289 177.433 52.6226 177.689 52.112 177.689H51.6526C51.3463 177.689 51.04 177.331 50.7337 176.616L50.8868 176.157C51.091 175.646 51.3973 175.391 51.8057 175.391ZM76.7702 176.157H77.9954C78.506 176.259 78.7102 176.514 78.608 176.923L78.3018 177.995C78.1997 178.607 77.4849 179.016 76.1576 179.22L75.3918 177.689C76.0044 176.667 76.4639 176.157 76.7702 176.157ZM102.194 177.229H102.5C102.909 177.229 103.215 177.637 103.419 178.454V178.761C103.317 179.169 102.858 179.577 102.041 179.986H101.275C100.765 179.986 100.56 179.731 100.663 179.22L100.816 178.454C100.918 178.046 101.377 177.637 102.194 177.229ZM40.6253 179.986H41.3911C41.9017 179.986 42.1059 180.241 42.0038 180.752V181.058C41.9017 181.466 41.4422 181.824 40.6253 182.13H40.1659C39.7574 182.13 39.6043 181.875 39.7064 181.364L39.8596 180.752C39.9617 180.241 40.2169 179.986 40.6253 179.986ZM66.2024 180.752C66.5087 180.752 66.764 181.109 66.9682 181.824L66.8151 182.59C66.8151 183.1 66.5598 183.355 66.0493 183.355H65.2835C64.8751 183.355 64.5688 182.947 64.3645 182.13C64.4666 181.824 65.0793 181.364 66.2024 180.752ZM90.7074 181.824H91.4732C92.0858 181.824 92.3411 182.436 92.239 183.662L90.5542 184.887C89.5332 184.581 89.1248 184.07 89.329 183.355C89.9416 182.334 90.4011 181.824 90.7074 181.824ZM29.5981 184.427H30.0576C30.3639 184.427 30.6702 184.836 30.9765 185.653C30.8744 185.959 30.4149 186.316 29.5981 186.725H29.1386C28.8323 186.725 28.526 186.367 28.2197 185.653C28.3218 185.244 28.7813 184.836 29.5981 184.427ZM104.798 185.193H105.87C107.81 185.193 108.678 186.469 108.473 189.022C107.759 191.473 106.38 192.698 104.338 192.698H103.266C101.326 192.698 100.458 191.473 100.663 189.022C101.479 186.469 102.858 185.193 104.798 185.193ZM54.5626 185.653H55.022C55.3283 185.653 55.6347 186.01 55.941 186.725L55.7878 187.031C55.6857 187.542 55.3794 187.797 54.8689 187.797H54.1031C53.7968 187.797 53.5415 187.439 53.3373 186.725C53.3373 186.316 53.7457 185.959 54.5626 185.653ZM79.2207 186.725H80.2928C80.8033 186.827 81.0075 187.082 80.9054 187.491L80.7522 188.256C80.7522 188.563 80.3438 188.92 79.527 189.328H79.0675C78.7612 189.328 78.4549 188.971 78.1486 188.256L78.3018 187.491C78.506 186.98 78.8123 186.725 79.2207 186.725ZM43.229 190.094H43.9948C44.4032 190.196 44.6074 190.452 44.6074 190.86L44.4542 191.626C44.3521 192.136 44.0458 192.392 43.5353 192.392H42.7695C42.259 192.392 42.0548 192.136 42.1569 191.626L42.31 190.86C42.5143 190.349 42.8206 190.094 43.229 190.094ZM68.1934 191.166H69.2655C69.7761 191.268 69.9803 191.524 69.8782 191.932L69.725 192.698C69.6229 193.106 69.1634 193.515 68.3466 193.923H67.5808C67.0703 193.923 66.8151 193.259 66.8151 191.932L68.1934 191.166ZM93.1579 192.392H93.9237C94.23 192.392 94.5363 192.749 94.8426 193.464L94.6895 193.923C94.6895 194.229 94.2811 194.587 93.4642 194.995H92.6984C92.1879 194.995 91.9837 194.74 92.0858 194.229L92.239 193.157C92.4432 192.647 92.7495 192.392 93.1579 192.392ZM32.0486 194.689H32.8144C33.3249 194.689 33.5291 194.893 33.427 195.301L33.2739 196.527C33.1718 197.037 32.8654 197.293 32.3549 197.293H31.5892C31.1807 197.293 30.8744 196.884 30.6702 196.067L30.8233 195.761C30.8233 195.353 31.2318 194.995 32.0486 194.689ZM57.1662 195.761H57.932C58.3404 195.863 58.4936 196.118 58.3915 196.527L58.2383 197.599C58.1362 198.109 57.8299 198.365 57.3194 198.365H56.5536C56.2473 198.365 55.941 198.007 55.6346 197.293L55.7878 196.833C55.7878 196.527 56.2473 196.169 57.1662 195.761ZM82.1307 196.833H82.8964C83.3048 196.935 83.509 197.19 83.509 197.599L83.2028 198.824C83.1007 199.232 82.7943 199.437 82.2838 199.437H81.518C81.2117 199.437 80.9054 199.079 80.5991 198.365L80.7522 198.058C80.8543 197.65 81.3138 197.241 82.1307 196.833ZM45.9858 200.202H46.4453C46.7516 200.202 47.0579 200.611 47.3642 201.428L47.211 201.734C47.1089 202.142 46.6495 202.551 45.8327 202.959H45.0669C44.6584 202.959 44.5053 202.704 44.6074 202.194V201.428C44.7095 201.019 45.169 200.611 45.9858 200.202ZM70.644 201.428H71.4097C71.8181 201.428 72.1245 201.785 72.3287 202.5L72.1755 203.266C72.0734 203.776 71.7671 204.031 71.2566 204.031H70.1845C69.674 204.031 69.4698 203.776 69.5719 203.266L69.725 202.194C69.9292 201.683 70.2355 201.428 70.644 201.428ZM34.6522 204.797H35.4181C35.7244 204.797 35.9796 205.155 36.1838 205.869L36.0307 206.635C36.0307 207.043 35.6222 207.452 34.8054 207.86H34.0396C33.6312 207.86 33.3249 207.452 33.1207 206.635L33.2739 205.869C33.2739 205.563 33.7333 205.206 34.6522 204.797ZM59.6167 205.869H60.3825C61.0972 206.176 61.3014 206.941 60.9951 208.167C60.0762 208.677 59.2593 208.932 58.5446 208.932L58.0851 207.86L58.2383 207.095C58.3404 206.686 58.7999 206.278 59.6167 205.869ZM9.38151 208.473L8.46256 213.374C9.58571 213.374 10.862 213.272 12.2915 213.068C14.4357 213.272 16.2735 213.374 17.8051 213.374L18.724 208.473H9.38151ZM22.7061 213.374L19.7961 227.771H24.6971L25.7692 222.87C24.4419 222.87 23.8803 222.461 24.0845 221.644L24.2376 220.572C24.4418 219.858 25.1566 219.5 26.3818 219.5L27.6071 213.374H22.7061ZM6.47152 222.87L5.55257 227.771H10.4536L11.3725 222.87H6.47152ZM69.4187 222.87L68.3466 227.771H73.2476L73.7071 225.78C73.0944 224.759 72.8902 223.789 73.0944 222.87H69.4187ZM114.447 228.843H115.672C116.08 228.945 116.233 229.2 116.131 229.608L115.978 230.681C115.876 231.089 115.417 231.497 114.6 231.906H113.834C113.119 231.599 112.915 230.834 113.221 229.608L114.447 228.843Z" fill="white"/>
</svg>
