<svg width="121" height="173" viewBox="0 0 121 173" fill="none" xmlns="http://www.w3.org/2000/svg">
<path d="M110.659 118.928C110.547 119.67 110.413 120.56 110.256 121.598C110.27 122.511 110.072 123.315 109.663 124.012C109.884 125.562 109.671 126.972 109.025 128.239C108.549 129.381 108.039 130.746 107.496 132.332C107.932 133.46 107.861 134.436 107.281 135.258C106.702 136.081 105.996 136.733 105.165 137.214C105.03 138.104 104.707 138.738 104.195 139.116C103.831 139.516 103.456 139.99 103.069 140.539C102.63 142.445 102.057 143.724 101.352 144.376C100.669 144.879 99.9746 145.457 99.2692 146.109C98.9415 147.274 98.625 148.364 98.3198 149.379C98.0146 150.395 97.5093 151.229 96.8039 151.881C96.5434 152.601 96.3684 153.257 96.2787 153.85C96.3374 154.466 96.1218 154.888 95.632 155.118C95.1646 155.199 94.6971 155.28 94.2297 155.361C93.9331 155.316 93.4993 155.175 92.9284 154.937C92.1419 155.121 91.4813 155.477 90.9466 156.003C90.4344 156.381 89.7738 156.736 88.9649 157.069C88.8667 158.723 88.5838 159.591 88.1164 159.672C87.7973 159.775 87.3929 159.942 86.9031 160.171C86.5168 160.719 86.0675 161.183 85.5553 161.56C85.043 161.938 84.7196 162.572 84.5851 163.462C84.0953 163.691 83.5943 163.995 83.082 164.373C82.7181 164.773 82.2913 165.088 81.8014 165.317C81.1771 166.436 80.3751 167.226 79.3954 167.684C77.7638 167.438 76.8514 167.452 76.6583 167.726C76.4875 167.852 76.2314 168.041 75.8899 168.293C75.1034 168.477 74.2427 168.65 73.3079 168.813C72.3731 168.975 71.3753 169.052 70.3146 169.043C69.1279 168.864 68.2043 168.952 67.5438 169.307C66.8608 169.811 65.9259 169.973 64.7393 169.793C64.1321 168.791 63.669 168.342 63.3499 168.446C63.1567 168.72 62.8152 168.972 62.3254 169.201C61.1388 169.022 60.1928 169.258 59.4874 169.91C58.9303 170.585 58.1102 170.992 57.027 171.131C56.2853 171.019 55.7998 170.718 55.5704 170.228C55.4669 169.909 55.2892 169.579 55.0374 169.238C53.2712 169.881 52.3321 170.574 52.2201 171.315C52.2563 172.079 51.8812 172.554 51.0947 172.738C50.0788 172.433 49.319 171.939 48.8154 171.256C48.2893 170.721 47.6778 170.249 46.981 169.841C46.0686 169.855 45.2191 169.954 44.4327 170.138C43.7721 170.494 42.8597 170.508 41.6955 170.18C39.7309 169.124 38.4925 168.786 37.9803 169.163C37.6163 169.563 37.1489 169.645 36.578 169.407C35.8363 169.294 35.362 168.919 35.155 168.281C34.9256 167.791 34.4737 167.268 33.7993 166.711C31.8486 166.568 30.7404 165.869 30.4747 164.615C29.8814 164.526 29.3622 164.447 28.9172 164.38C28.5981 164.483 28.2903 164.513 27.9936 164.468C26.3257 163.457 24.8467 162.703 23.5565 162.204C22.244 161.854 21.028 161.367 19.9086 160.743C19.279 159.889 18.8314 158.835 18.5657 157.581C18.4484 156.35 18.3311 155.118 18.2138 153.887C17.6738 152.44 17.1477 151.905 16.6355 152.283C16.1457 152.512 15.53 152.571 14.7883 152.459C14.0691 152.198 13.5024 151.43 13.0884 150.154C11.8069 148.595 10.9815 147.029 10.6123 145.456C10.2432 143.883 9.48076 142.402 8.3251 141.014C7.70411 139.099 6.75283 137.362 5.47127 135.803C4.36045 134.118 3.17548 132.422 1.91633 130.714C1.50234 129.438 1.48158 128.069 1.85407 126.608C2.10065 124.977 1.68664 123.701 0.612071 122.78C0.153243 121.8 0.784485 121.137 2.5058 120.79C4.10119 120.272 5.28522 119.465 6.05788 118.368C7.84644 117.576 9.17451 117.322 10.0421 117.605C11.058 117.91 12.0558 117.833 13.0354 117.374C13.727 115.81 14.2953 115.061 14.7403 115.129C15.356 115.07 15.92 114.852 16.4323 114.474C17.762 112.703 18.6088 111.617 18.9727 111.217C19.5074 110.691 19.9567 110.228 20.3206 109.827C21.3899 108.775 22.5851 107.894 23.9063 107.183C25.4878 105.753 26.7167 104.649 27.5928 103.872C28.469 103.094 29.3452 102.316 30.2213 101.538C31.6908 100.85 32.9559 100.51 34.0166 100.518C34.6462 101.372 35.1835 101.833 35.6285 101.9C36.2218 101.989 36.8333 102.461 37.4628 103.315C36.5109 105.599 35.0371 106.817 33.0415 106.971C32.9519 107.564 32.7139 108.135 32.3275 108.683C32.0895 109.254 32.0741 109.859 32.2811 110.497C32.5105 110.987 32.6545 111.54 32.7131 112.155C32.7942 112.623 32.9495 113.101 33.1789 113.591C32.9633 114.014 32.7477 114.436 32.5322 114.859C32.3166 115.282 31.8155 115.585 31.029 115.77C31.0653 116.534 30.8273 117.105 30.3151 117.482C29.9511 117.883 29.7873 118.465 29.8236 119.229C30.0082 120.015 30.2039 120.728 30.4109 121.366C30.7663 122.026 31.0362 122.75 31.2208 123.536C31.5003 125.703 31.2761 127.186 30.5483 127.986C29.9913 128.661 29.5195 129.272 29.1332 129.821C29.3402 130.459 29.6326 131.034 30.0103 131.546C30.4105 131.91 30.7253 132.337 30.9547 132.827C31.31 133.487 32.0138 134.352 33.0659 135.422C35.61 135.654 37.2373 136.431 37.948 137.753C38.6586 139.074 39.0054 140.795 38.9882 142.916C39.2625 143.11 39.6333 143.166 40.1007 143.085C40.5906 142.855 41.2063 142.797 41.9479 142.909C43.4537 142.984 44.8404 143.346 46.1081 143.992C48.5487 143.906 49.8836 144.108 50.113 144.598C50.5132 144.962 51.073 145.274 51.7922 145.534C52.727 145.372 53.3876 145.017 53.7739 144.468C54.3086 143.942 54.9691 143.587 55.7556 143.402C56.4973 143.514 57.0052 143.667 57.2795 143.86C57.5537 144.053 58.0505 144.28 58.7697 144.54C59.4889 144.801 59.8261 145.079 59.7813 145.376C59.7365 145.673 60.0849 145.877 60.8266 145.989C61.5906 145.953 62.2176 145.82 62.7074 145.591C63.3456 145.384 64.0467 145.262 64.8108 145.226C65.5973 145.041 66.2466 144.76 66.7589 144.382C67.2711 144.005 67.9722 143.883 68.8622 144.017C69.5986 142.156 70.1082 140.792 70.3911 139.925C70.6739 139.057 71.1344 138.52 71.7725 138.313C73.1385 137.305 74.0259 136.453 74.4346 135.756C74.8658 134.911 75.2857 134.14 75.6945 133.443C77.5279 132.355 78.6084 131.229 78.936 130.064C79.4344 128.774 79.7733 127.536 79.9527 126.349C80.7702 124.956 81.4393 123.54 81.9602 122.101C82.6293 120.685 83.2355 119.184 83.7787 117.597C83.8546 116.091 84.108 114.916 84.5392 114.07C83.7837 113.046 83.6776 111.74 84.2208 110.154C83.1687 109.084 82.6987 108.179 82.8107 107.437C82.9228 106.695 82.9383 106.091 82.8573 105.623C82.2277 104.77 81.5981 103.916 80.9685 103.062C80.4873 102.231 80.1768 101.274 80.037 100.191C78.6209 99.5214 77.643 98.4633 77.1031 97.0162C76.4425 97.3715 75.6672 97.4819 74.7772 97.3474C74.058 97.087 73.5207 96.6265 73.1654 95.966C72.0236 95.49 71.1042 95.0476 70.4074 94.6389C69.733 94.0818 68.6317 93.8395 67.1036 93.912C66.4516 93.2066 66.085 92.6202 66.0039 92.1528C66.0712 91.7078 66.0867 91.1032 66.0505 90.3392C65.502 89.9528 64.6974 89.7554 63.6366 89.7468C62.7242 89.7606 61.7713 89.5407 60.7778 89.0872C60.2293 88.7008 59.6696 88.3887 59.0987 88.1507C58.6985 87.7868 58.1276 87.5488 57.386 87.4367C56.7564 86.583 55.8595 85.9923 54.6952 85.6646C53.7017 85.211 52.9644 84.5686 52.4831 83.7373C50.9049 82.1333 49.5449 81.0933 48.403 80.6173C47.2612 80.1413 46.1194 79.6653 44.9776 79.1893C44.1773 78.4615 43.5029 77.9044 42.9544 77.5181C40.9364 77.82 39.7161 77.8632 39.2936 77.6476C39.0193 77.4544 38.5967 77.2388 38.0258 77.0009C37.6256 76.6369 37.2884 76.3584 37.0142 76.1652C36.7624 75.8237 36.4252 75.5452 36.0026 75.3296C35.4179 74.1792 34.5882 73.1435 33.5136 72.2225C32.6098 71.1756 31.8767 70.0028 31.3144 68.7041C30.9142 68.3402 30.5141 67.9763 30.1139 67.6123C29.8845 67.1225 29.6439 66.7069 29.3921 66.3654C27.8277 65.6738 26.5082 64.8675 25.4336 63.9465C25.3248 61.6543 25.2006 59.9666 25.0608 58.8835C24.9211 57.8003 25.0263 56.6025 25.3764 55.2899C24.9986 54.7777 24.5355 54.3284 23.987 53.942C23.4385 53.5557 23.0719 52.9693 22.8874 52.1828C23.2374 50.8702 23.0865 49.8613 22.4345 49.1558C21.9533 48.3245 21.6316 47.4415 21.4694 46.5066C21.8333 46.1065 22.123 45.6951 22.3386 45.2725C22.5766 44.7016 22.8034 44.2049 23.019 43.7823C22.7533 42.5284 22.6472 41.2227 22.7006 39.8653C22.754 38.5079 23.1153 37.1212 23.7845 35.7051C24.0086 34.2218 24.1431 33.3318 24.188 33.0352C24.2328 32.7385 24.426 32.4643 24.7675 32.2124C24.8571 31.6191 24.8614 31.0888 24.7803 30.6213C24.87 30.028 24.9485 29.5089 25.0157 29.0639C25.1278 28.3222 25.314 27.5918 25.5744 26.8725C25.8349 26.1533 26.1694 25.4452 26.5782 24.7484C28.3305 23.1926 29.4559 21.7696 29.9543 20.4795C30.601 19.2117 31.4254 18.2743 32.4275 17.6671C33.4605 15.8509 34.5971 14.3538 35.8372 13.1757C37.248 11.8717 38.6476 10.6419 40.036 9.48624C41.4607 9.09466 42.3773 8.55045 42.7861 7.85363C43.3432 7.17922 44.0891 6.76093 45.0239 6.59877C46.678 6.69701 47.624 6.46069 47.862 5.88978C48.2708 5.19295 48.8796 4.67808 49.6885 4.34517C50.8303 4.82116 51.8057 4.8927 52.6146 4.55979C53.4235 4.22688 54.4325 4.07592 55.6416 4.10692C57.2594 3.4411 58.7625 2.53036 60.1509 1.3747C60.8925 1.48679 61.4634 1.72478 61.8636 2.08869C62.4345 2.32669 62.9312 2.55348 63.3538 2.76906C64.675 2.0584 65.4097 1.71428 65.5581 1.7367C65.8771 1.6332 66.1221 1.51849 66.2928 1.39258C67.4432 0.807837 68.4004 0.497337 69.1645 0.461087C70.0769 0.447253 70.7556 0.473954 71.2006 0.541203C72.5131 0.891281 73.3402 0.940415 73.6817 0.688585C74.0232 0.436754 74.4906 0.355665 75.0839 0.445331C75.6548 0.683327 76.0032 0.887705 76.1292 1.05845C76.4258 1.10328 76.9674 1.03341 77.7539 0.848829C79.3407 1.39207 80.4825 1.86806 81.1793 2.2768C81.8986 2.53722 82.7886 2.67172 83.8493 2.6803C84.2271 3.19255 84.8161 3.81257 85.6164 4.54039C86.2545 4.3334 86.8185 4.11519 87.3084 3.88578C87.9689 3.53045 88.6295 3.17512 89.2901 2.81979C89.9282 2.61279 90.5776 2.33164 91.2382 1.97631C91.8988 1.62098 92.5438 1.87018 93.1734 2.72392C93.3804 3.36207 93.2907 3.9554 92.9044 4.50389C92.5405 4.90405 92.3767 5.48617 92.4129 6.25025C93.4651 7.31957 94.4025 8.14397 95.2253 8.72346C96.0704 9.15462 96.8078 9.79707 97.4374 10.6508C98.6827 11.4459 99.3459 12.0771 99.427 12.5445C99.6564 13.0344 99.897 13.45 100.149 13.7915C100.913 13.7553 101.529 13.6966 101.996 13.6155C102.612 13.5569 103.302 13.5094 104.066 13.4731C105.823 13.8905 106.374 15.2634 105.719 17.5918C106.394 18.1489 106.994 18.6948 107.52 19.2294C108.068 19.6158 108.594 20.1504 109.098 20.8334C111.723 21.5336 113.306 22.6072 113.846 24.0543C113.325 25.4927 113.053 26.2861 113.031 26.4345C114.573 27.2744 115.47 27.8651 115.722 28.2066C115.996 28.3997 116.259 28.6671 116.511 29.0086C116.354 30.0469 116.105 30.692 115.763 30.9438C115.592 31.0697 115.399 31.3439 115.184 31.7665L117.14 33.8827C117.814 34.4398 118.192 34.9521 118.273 35.4195C118.525 35.761 118.947 35.9765 119.54 36.0662C120.08 37.5133 120.254 38.3739 120.061 38.6482C120.038 38.7965 120.153 39.0414 120.405 39.3829C118.023 40.085 115.967 41.1398 114.237 42.5473C113.338 43.4735 112.781 44.1479 112.566 44.5705C112.521 44.8671 112.328 45.1414 111.986 45.3932C111.11 46.1711 110.65 46.7084 110.605 47.0051C110.56 47.3017 110.589 47.6096 110.693 47.9287C110.136 48.6031 109.601 49.1292 109.089 49.5069C108.577 49.8847 108.127 50.3478 107.741 50.8963C107.265 52.0381 106.76 52.872 106.225 53.3981C105.439 53.5827 104.715 53.8527 104.054 54.208C103.394 54.5633 102.682 54.7591 101.917 54.7954C101.805 55.537 101.705 56.2045 101.615 56.7978C101.696 57.2652 101.458 57.8361 100.901 58.5106C99.6021 59.0729 98.5216 60.1992 97.6593 61.8895C96.1898 62.5778 95.3473 63.1332 95.1317 63.5557C95.0644 64.0007 94.8376 64.4975 94.4513 65.046C92.8111 65.8601 91.6201 66.2112 90.8785 66.0991C90.1592 65.8387 89.622 65.3782 89.2666 64.7176C89.5132 63.086 89.6925 61.8993 89.8046 61.1577C91.0223 60.1279 91.8467 59.1905 92.2779 58.3453C91.8639 57.069 91.9354 56.0936 92.4924 55.4192C92.6942 54.0842 92.9434 53.4392 93.2401 53.484C93.5592 53.3805 93.7299 53.2546 93.7523 53.1063C93.2572 51.3625 92.9468 50.4053 92.8208 50.2346C92.6949 50.0638 92.4948 49.8818 92.2206 49.6887C91.9549 48.4348 91.6849 47.7112 91.4107 47.5181C91.2848 47.3473 91.2555 47.0395 91.3227 46.5945C91.2502 45.0663 91.0881 44.1315 90.8362 43.79C90.7551 43.3226 90.7482 42.8664 90.8155 42.4214C91.2915 41.2796 91.5519 40.5603 91.5967 40.2637C91.6639 39.8187 91.5717 39.4254 91.3199 39.0839C90.9197 38.72 90.4859 38.5786 90.0185 38.6597C89.6994 38.7632 89.3398 38.633 88.9396 38.2691C88.436 37.5861 88.2177 37.0221 88.285 36.5771C88.5006 36.1545 88.4937 35.6983 88.2642 35.2085C89.118 34.5789 89.6009 33.8933 89.713 33.1516C89.1645 32.7653 88.6566 32.6127 88.1892 32.6938C87.8925 32.6489 87.6182 32.4558 87.3664 32.1143C86.2555 30.4292 85.6821 29.2047 85.6458 28.4406C85.2008 28.3733 84.8075 28.4656 84.466 28.7175C84.147 28.821 83.702 28.7537 83.1311 28.5157C81.8047 27.2532 80.8336 26.6513 80.2179 26.71C79.7729 26.6427 79.1795 26.5531 78.4379 26.441C76.5768 25.7046 75.1608 25.0354 74.1897 24.4335C73.2186 23.8316 72.9081 22.8744 73.2582 21.5618C72.9391 21.6653 72.5864 21.9913 72.2001 22.5398C71.8362 22.94 71.4835 23.266 71.142 23.5178C70.0813 23.5092 69.0317 23.4265 67.9934 23.2695C67.1034 23.135 66.0539 23.0523 64.8448 23.0213C64.2067 23.2283 63.6315 23.5207 63.1192 23.8984C62.6294 24.1278 62.0654 24.346 61.4272 24.553C60.7442 25.0567 60.1242 25.6457 59.5671 26.3201C59.1808 26.8686 58.6573 27.3205 57.9968 27.6759C56.7653 27.7932 55.8305 27.9554 55.1923 28.1624C55.1027 28.7557 55.013 29.349 54.9233 29.9423C55.0044 30.4097 54.8 30.7582 54.3102 30.9876C52.2698 31.4378 51.2117 32.4158 51.1359 33.9215C51.2084 35.4497 51.0066 36.7847 50.5306 37.9265C49.8028 38.7268 49.4906 39.2865 49.5941 39.6056C49.7201 39.7763 49.664 40.1472 49.426 40.7181C48.3791 41.6219 47.7996 42.4446 47.6875 43.1863C47.6789 44.247 48.0748 45.1413 48.8751 45.8691C49.446 46.1071 50.1317 46.59 50.932 47.3179C50.6716 48.0371 50.5483 48.8529 50.5621 49.7653C50.5984 50.5294 50.6234 51.3676 50.6373 52.28C51.5859 53.0303 52.0853 54.2436 52.1354 55.9201C53.2996 56.2478 53.9628 56.879 54.125 57.8138C54.3095 58.6003 54.6537 59.3351 55.1573 60.0181C57.2116 60.4802 58.5759 60.9898 59.2503 61.5469C59.9247 62.104 60.6732 62.6723 61.496 63.2518C62.2376 63.3638 62.768 63.3681 63.0871 63.2646C63.5769 63.0352 64.1185 62.9653 64.7118 63.055C65.3414 63.9088 66.0675 64.6254 66.8903 65.2049C67.7354 65.636 68.4728 66.2785 69.1024 67.1322C70.3925 67.6306 71.6085 68.1178 72.7503 68.5938C74.0405 69.0922 75.1599 69.7166 76.1086 70.4668C76.5536 70.534 76.9244 70.5901 77.221 70.6349C77.6884 70.5538 78.1335 70.6211 78.556 70.8367C79.2753 71.0971 79.8125 71.5576 80.1679 72.2181C80.5456 72.7304 80.9346 73.1685 81.3348 73.5324C82.9888 73.6306 83.9823 74.0842 84.3152 74.8931C84.8189 75.5761 85.3967 76.2703 86.0487 76.9757C86.6196 77.2137 87.5725 77.4336 88.9075 77.6353C90.3823 78.9202 91.4163 79.6075 92.0096 79.6972C92.6253 79.6385 93.1445 79.717 93.5671 79.9325C93.9672 80.2964 94.2933 80.6492 94.5451 80.9906C94.8193 81.1838 95.0824 81.4511 95.3342 81.7926C96.8762 82.6325 97.6877 83.2862 97.7688 83.7536C97.8723 84.0727 98.0499 84.403 98.3018 84.7445C99.4884 84.9238 100.46 85.5257 101.215 86.5502C101.251 87.3143 101.384 87.9412 101.613 88.431C101.991 88.9433 102.284 89.5185 102.491 90.1566C103.232 90.2687 103.718 90.5697 103.947 91.0595C104.325 91.5717 104.64 91.9986 104.892 92.3401C104.95 92.9558 105.02 93.4974 105.101 93.9648C105.182 94.4322 105.167 95.0368 105.055 95.7784C105.239 96.5649 105.509 97.2885 105.865 97.949C106.391 98.4837 106.735 99.2184 106.897 100.153C107.378 100.985 107.882 101.668 108.408 102.202C108.934 102.737 109.193 103.535 109.184 104.595C109.612 106.784 110.004 108.209 110.359 108.869C110.885 109.404 110.888 110.39 110.367 111.829C110.291 113.335 110.123 114.447 109.862 115.166C109.75 115.908 109.49 116.627 109.081 117.324L110.659 118.928Z" fill="white"/>
</svg>
