<svg width="100" height="221" viewBox="0 0 100 221" fill="none" xmlns="http://www.w3.org/2000/svg">
<path d="M91.1841 202.627H91.0555C90.8842 202.798 90.927 202.712 91.1841 202.369C91.1841 202.541 91.1841 202.627 91.1841 202.627ZM88.3566 164.713C89.8989 165.484 91.2269 165.998 92.3408 166.255C92.7692 165.57 93.6259 164.841 94.9111 164.07C96.4534 163.214 97.3959 162.571 97.7386 162.143L97.353 154.56C93.5831 150.704 89.1277 150.961 83.9869 155.331C84.4153 156.873 84.0726 158.373 82.9587 159.829C83.8155 159.486 84.2868 159.743 84.3724 160.6C84.5438 162.485 84.5867 163.256 84.501 162.914C85.1007 163.171 86.386 163.77 88.3566 164.713ZM83.0873 194.144C82.7446 194.23 82.5732 195.087 82.5732 196.715C83.6013 197.571 84.4582 197.786 85.1436 197.357C85.7434 197.014 86.0861 196.372 86.1718 195.429C86.1718 194.573 85.9147 193.973 85.4006 193.63C84.8009 193.202 84.0298 193.373 83.0873 194.144ZM78.5891 204.04C79.4459 204.212 79.8743 204.383 79.8743 204.554C81.6736 204.297 82.4447 203.183 82.1876 201.213C81.3308 200.527 80.4311 200.485 79.4886 201.084C78.5462 201.77 78.2463 202.755 78.5891 204.04ZM75.2475 213.037C76.3613 213.294 77.4323 213.251 78.4605 212.908C78.7176 211.28 78.0321 210.252 76.4042 209.824C76.3185 210.081 76.0186 210.552 75.5045 211.237C75.0761 211.666 74.9905 212.266 75.2475 213.037ZM72.0345 204.554C72.7199 204.04 73.1911 203.74 73.4482 203.655C73.5339 201.684 72.6342 200.656 70.7493 200.57C70.6636 200.999 70.3209 201.513 69.7211 202.112C69.1214 202.627 68.8643 203.226 68.95 203.912C69.464 203.997 69.9353 204.383 70.3637 205.068C70.9635 205.068 71.5204 204.897 72.0345 204.554ZM78.9746 190.931C78.8889 189.989 78.8889 189.26 78.9746 188.746C75.2047 186.433 72.1202 186.69 69.7211 189.517C67.3221 192.259 67.6219 195.129 70.6207 198.128L77.5609 197.743C78.6747 196.458 79.2316 194.958 79.2316 193.245C79.2316 192.902 79.146 192.131 78.9746 190.931ZM76.9183 172.424C76.1471 171.91 75.4188 171.696 74.7334 171.782C74.7334 172.124 74.6049 172.553 74.3478 173.067C74.0908 173.667 73.9194 174.138 73.8337 174.48C73.5767 175.509 73.7909 176.708 74.4764 178.079C77.0468 177.137 78.332 176.88 78.332 177.308C77.7322 177.222 77.6465 177.051 78.075 176.794C78.4177 176.537 78.8889 176.451 79.4886 176.537L79.3602 172.81C78.5034 172.981 77.6894 172.853 76.9183 172.424ZM78.7175 142.607C77.1753 141.322 75.7616 141.494 74.4764 143.121C74.3907 143.721 74.5621 144.449 74.9905 145.306C75.3332 145.992 75.4189 146.72 75.2475 147.491L79.7457 147.234C80.6025 145.435 80.2598 143.893 78.7175 142.607ZM77.9464 133.868C77.6894 132.925 77.9893 132.111 78.8461 131.426C74.562 130.569 72.8485 130.012 73.7053 129.755C76.6184 134.039 78.4176 136.267 79.1031 136.438C78.332 134.81 77.9464 133.954 77.9464 133.868ZM94.14 131.169C92.0837 128.77 89.7275 128.256 87.0714 129.627C87.0714 132.026 87.1999 133.568 87.457 134.254C87.7997 135.71 88.6137 136.438 89.8989 136.438C90.2416 136.267 90.7557 135.967 91.4411 135.539C92.2122 135.196 92.7263 134.939 92.9833 134.768C94.0972 133.911 94.4827 132.711 94.14 131.169ZM61.3673 214.193C62.3954 214.965 63.038 215.479 63.295 215.736C65.4371 215.393 67.065 214.236 68.1788 212.266C67.322 209.867 65.9511 208.153 64.0662 207.125C61.9242 206.011 59.825 206.011 57.7687 207.125C57.683 209.267 58.2828 211.066 59.568 212.523C59.9964 212.951 60.5961 213.508 61.3673 214.193ZM45.9448 200.699C46.5445 200.87 46.7588 201.298 46.5874 201.984C48.044 202.241 49.1578 201.855 49.9289 200.827C51.0427 199.456 51.7711 198.685 52.1138 198.514C52.1138 198 51.7711 197.486 51.0856 196.972C50.5716 196.458 50.443 195.729 50.7 194.787C48.9864 194.701 48.1296 194.53 48.1296 194.273C48.044 193.759 47.7869 193.544 47.3585 193.63C47.7012 194.487 47.5299 194.958 46.8444 195.044C46.6731 195.044 46.3732 195.044 45.9448 195.044C45.4307 195.044 45.088 195.044 44.9166 195.044C45.0023 198.214 44.9166 199.928 44.6595 200.185C44.6595 200.27 45.088 200.442 45.9448 200.699ZM32.3216 208.538C33.6068 212.48 34.1637 214.365 33.9924 214.193C35.8773 214.108 37.291 212.951 38.2335 210.723C37.4624 210.466 36.9912 209.652 36.8198 208.281L32.3216 208.538ZM77.6894 105.465C78.6319 104.522 79.1031 103.623 79.1031 102.766C88.785 111.42 95.1254 126.756 98.1242 148.776C101.209 171.482 98.8953 189.346 91.1841 202.369C91.2698 200.57 90.3701 199.842 88.4851 200.185L88.6136 202.755L91.0555 202.627C86.1718 210.766 79.4887 215.393 71.0063 216.507C69.5497 218.049 63.8948 219.249 54.0416 220.105C53.2704 218.563 51.771 217.663 49.5433 217.406C47.1443 217.149 45.4307 217.792 44.4025 219.334C33.6925 217.107 25.8099 212.48 20.7547 205.454C25.0388 204.34 27.1808 201.684 27.1808 197.486C27.1808 193.373 25.1244 190.717 21.0118 189.517C21.7829 188.575 23.368 187.118 25.767 185.148C27.8234 183.434 29.2799 181.935 30.1367 180.649C30.9935 180.564 31.7647 180.949 32.4501 181.806C33.1356 182.663 33.9067 183.049 34.7635 182.963C36.6485 182.877 38.2335 181.292 39.5187 178.208C39.0047 178.036 38.5334 177.436 38.105 176.408C37.7623 175.38 37.3339 174.78 36.8198 174.609C37.2482 172.724 38.4478 170.411 40.4184 167.669C42.4747 164.841 43.7599 162.528 44.274 160.729C44.7024 162.357 45.0879 165.013 45.4307 168.697C45.8591 172.638 46.2447 175.38 46.5874 176.922C47.8726 182.92 50.7429 185.405 55.1982 184.377C54.6842 184.462 56.6549 182.02 61.1102 177.051C60.5961 175.851 60.4248 173.924 60.5961 171.267C60.7675 168.097 60.6818 165.784 60.3391 164.327C62.8238 166.041 64.7516 166.427 66.1225 165.484C67.4077 164.542 67.9646 163.042 67.7933 160.986C67.7076 158.929 66.9793 157.559 65.6085 156.873C64.0662 156.016 62.224 156.573 60.082 158.544C57.8543 149.205 56.2693 144.021 55.3268 142.993C55.4125 142.736 55.7124 142.179 56.2264 141.322C56.6548 140.722 56.9119 140.165 56.9976 139.651C59.2253 139.651 60.3391 140.251 60.3391 141.451C66.4224 139.908 70.1495 134.596 71.5204 125.514C69.2927 122.258 68.136 120.63 68.0504 120.63C68.0504 120.202 68.3074 119.816 68.8215 119.474C69.2499 119.131 69.3784 118.617 69.207 117.931C71.349 118.188 72.5057 119.388 72.6771 121.53C72.9341 125.471 72.977 127.185 72.8056 126.671C78.8032 124.614 81.545 123.8 81.0309 124.229C81.0309 123.8 80.8596 123.329 80.5168 122.815C80.0884 122.387 79.9599 121.83 80.1313 121.144C79.2745 121.487 78.1606 121.059 76.7897 119.859C75.4188 118.66 74.1765 118.36 73.0626 118.96C73.234 119.302 73.0198 118.574 72.42 116.775C72.163 116.089 71.6917 116.046 71.0063 116.646C70.9206 115.018 71.6061 114.633 73.0626 115.489C75.4617 116.775 76.9183 117.46 77.4324 117.546C76.3185 116.86 76.1471 116.346 76.9183 116.004C77.6037 115.832 78.5891 115.875 79.8743 116.132C80.474 113.819 80.5168 111.891 80.0027 110.349C79.403 108.549 78.1606 107.778 76.2756 108.035C76.2756 107.264 76.7469 106.407 77.6894 105.465ZM50.8286 20.3842C49.2863 19.1846 47.1443 19.099 44.4025 20.1271C40.8896 21.4123 39.5616 23.8114 40.4184 27.3243C41.0182 29.8947 42.3033 31.3941 44.274 31.8225C45.9876 32.1652 47.744 31.6511 49.5433 30.2803C51.3426 28.9951 52.4565 27.41 52.8849 25.525C53.3133 23.4687 52.6278 21.7551 50.8286 20.3842ZM60.8532 61.7678L58.2828 61.8964C57.2546 62.4104 56.9119 63.9099 57.2546 66.3946C58.1114 66.6516 58.5398 66.8658 58.5398 67.0372C60.2534 66.8658 61.3244 66.2232 61.7528 65.1094C62.0955 64.0812 61.7956 62.9674 60.8532 61.7678ZM45.9448 123.715C47.6584 126.285 49.2006 127.485 50.5715 127.313C52.5422 127.056 53.6132 126.2 53.7845 124.743C53.9559 123.458 53.4846 122.173 52.3708 120.887C51.3426 119.688 50.2288 119.217 49.0293 119.474C47.5727 119.731 46.5445 121.144 45.9448 123.715ZM52.1138 108.806H50.186C50.1003 110.434 50.5715 111.291 51.5997 111.377C51.8567 109.578 52.0281 108.721 52.1138 108.806ZM59.4395 116.004C59.5251 113.69 58.4113 112.662 56.0979 112.919C55.1554 114.975 55.0269 116.261 55.7123 116.775C55.8837 116.689 56.3978 116.732 57.2546 116.903C58.1971 117.075 58.9254 116.775 59.4395 116.004ZM65.7369 103.537L65.6085 99.6814C61.8385 98.5676 60.4248 99.9385 61.3673 103.794C61.71 103.88 63.1665 103.794 65.7369 103.537ZM71.6489 105.079L69.0785 105.208C68.3074 106.15 68.2217 107.136 68.8215 108.164C69.3356 109.106 70.1495 109.578 71.2634 109.578C72.8913 107.864 73.0198 106.365 71.6489 105.079ZM53.7845 139.266C51.1285 137.552 45.8162 133.397 37.848 126.799C26.3668 117.289 18.6984 110.049 14.8428 105.079C7.64562 95.9115 3.23306 84.9444 1.60514 72.178C-0.451195 55.9844 -0.0227826 41.1188 2.89035 27.5813C27.7377 69.4791 39.9471 89.9995 39.5187 89.1427C39.176 88.1146 33.2641 77.6187 21.7829 57.6552C11.6726 40.1764 5.54643 29.7233 3.40442 26.2961C4.86099 18.4992 9.57341 12.2445 17.5417 7.5321C24.9102 3.24808 33.5639 0.977547 43.5029 0.720505C53.4418 0.463464 62.1384 2.30559 69.5926 6.2469C77.7322 10.6166 82.5732 16.7856 84.1154 24.7539C81.8877 26.8102 80.1741 29.6805 78.9746 33.3648C78.9746 34.3929 79.403 35.4639 80.2598 36.5778C80.8596 37.4346 80.9453 38.4627 80.5168 39.6623C81.1166 39.4052 82.0591 38.7198 83.3443 37.6059C84.4581 36.7491 85.572 36.2351 86.6859 36.0637C88.2281 45.4029 89.2134 55.3418 89.6418 65.8805L52.2423 68.0654C51.8139 66.009 51.5997 62.796 51.5997 58.4263C51.514 52.4287 51.4283 48.8729 51.3427 47.7591C50.8286 39.6194 48.3867 35.721 44.017 36.0637C39.9043 36.4064 37.7194 40.8618 37.4624 49.4299C37.291 57.2268 38.4049 63.6528 40.804 68.708C42.0892 71.2784 43.9313 73.7203 46.3303 76.0336C49.2435 78.6897 54.8984 82.9309 63.295 88.7572C70.0638 93.4696 74.6477 97.5394 77.0468 100.967C76.5327 101.738 75.7616 103.023 74.7334 104.822C73.7052 106.707 72.9341 108.035 72.42 108.806C70.3637 111.72 67.9218 113.133 65.0944 113.048C65.4371 114.59 65.3514 115.704 64.8373 116.389C64.4089 116.989 64.6231 118.231 65.4799 120.116C64.5374 120.887 62.524 122.044 59.4395 123.586C56.6977 124.957 54.4272 126.585 52.6279 128.47C52.3708 130.184 52.585 132.24 53.2705 134.639C53.8702 136.867 54.0416 138.409 53.7845 139.266ZM23.0681 169.597L22.811 165.227L19.084 165.356L19.341 169.854L23.0681 169.597ZM43.76 140.423C45.8163 150.961 42.6032 161.757 34.1209 172.81C28.98 179.578 21.9114 185.705 12.915 191.188C10.5159 184.419 8.50241 168.226 6.87448 142.607L43.76 140.423ZM68.0504 122.173C68.2217 122.772 68.4788 123.072 68.8215 123.072C68.7358 123.329 67.7076 123.8 65.7369 124.486C65.8226 124.229 66.1225 123.715 66.6366 122.944C67.065 122.344 67.322 121.787 67.4077 121.273C67.7504 121.273 67.9647 121.573 68.0504 122.173Z" fill="white"/>
</svg>
