<svg width="209" height="244" viewBox="0 0 209 244" fill="none" xmlns="http://www.w3.org/2000/svg">
<path d="M202.315 142.86C214.678 171.707 207.466 198.837 187.892 218.069C179.993 225.967 170.034 231.462 159.388 235.239C145.651 240.047 131.571 242.795 117.147 243.138C111.309 243.138 110.622 242.451 110.622 236.613C110.279 225.624 110.279 214.291 110.622 203.302C110.622 197.463 110.966 197.807 117.147 196.777C124.359 195.403 131.227 194.373 138.096 191.625C145.651 188.878 150.115 182.696 149.772 173.767C149.429 166.899 146.681 161.748 140.843 159C133.631 155.566 126.076 152.819 118.521 150.072C110.622 147.324 110.622 147.668 110.622 139.082C110.622 127.406 110.622 116.073 110.622 104.74C110.622 101.993 110.966 99.589 110.966 96.4982C113.713 96.4982 115.43 96.1548 117.147 96.4982C129.854 99.9324 142.904 103.367 155.61 107.144C160.075 108.518 165.569 109.548 166.6 116.073C166.943 116.76 170.721 118.477 171.751 117.79C176.559 115.73 179.306 118.134 182.74 120.538C190.982 126.376 198.194 133.244 202.315 142.86ZM172.781 146.637C172.781 146.637 173.468 145.607 173.125 145.264C173.125 144.92 172.438 144.577 171.751 143.89C171.408 144.92 171.064 145.607 170.721 145.951C171.407 146.294 172.094 146.637 172.781 146.637ZM89.6738 0.684357C95.5119 -0.345907 96.8856 1.02777 96.8856 6.8659C97.229 17.5119 97.229 28.1579 96.8856 38.8039C96.8856 45.3288 95.8553 46.7025 89.3304 47.7328C83.4923 48.4196 77.9975 49.7933 74.2199 53.9143C71.816 56.3182 69.412 59.0656 68.3818 62.1563C66.6647 66.9642 63.5739 68.3379 59.1094 68.3379C53.2713 68.3379 47.0898 68.3379 40.9083 68.3379C39.5346 68.3379 38.5043 69.0247 37.4741 69.3681C37.4741 69.7115 37.4741 70.3984 37.4741 71.0852C43.999 71.0852 50.524 71.0852 57.049 70.7418C62.8871 70.7418 67.0081 71.4287 70.4423 77.2668C73.8765 83.7917 81.4316 85.8522 87.9566 88.5996C91.0474 89.9733 95.5118 91.3469 96.1987 93.7509C97.5723 97.8719 96.8856 102.68 96.5422 107.144C96.1988 108.518 93.4514 109.548 91.7343 110.235C89.3304 111.609 86.5829 112.295 84.179 113.326C84.179 114.013 84.179 114.699 84.179 115.386C86.5829 116.417 88.987 117.79 91.7343 118.134C95.5119 118.82 96.5421 120.881 96.8856 123.972C96.8856 129.123 97.229 134.274 96.8856 139.082C96.8856 142.516 94.825 143.89 91.3908 143.203C77.6541 139.082 64.2607 134.618 50.524 130.497C47.4332 129.466 44.6859 127.749 45.3727 123.628C46.0596 119.507 48.4634 117.447 53.2713 117.447C58.4226 117.103 63.5739 117.103 68.3818 116.76C70.0989 116.76 71.8159 115.73 73.533 115.043C73.1896 114.356 73.1897 113.669 72.8463 112.982C72.1594 112.639 71.4725 111.952 70.7857 111.952C57.7358 112.295 44.3425 110.235 31.2925 114.356C27.5149 115.73 25.4544 115.043 23.0505 112.295C13.7782 102.336 9.6572 90.3167 9.31378 77.2668C8.62695 66.2774 9.65709 54.9445 15.1518 44.642C19.9597 34.3394 27.1715 25.7539 36.4438 19.229C45.7161 12.3606 55.6753 7.20931 67.0081 4.80539C74.5633 3.0883 82.1185 1.71462 89.6738 0.684357ZM96.8856 202.615C96.8856 208.109 96.8856 213.604 96.8856 219.442C96.8856 224.937 97.229 230.432 96.8856 235.926C96.8856 241.078 95.1684 242.795 90.0172 242.108C73.1896 240.047 57.049 235.583 40.9083 229.745C31.2925 226.654 25.111 220.129 19.2729 212.23C15.8387 207.766 13.4347 202.615 12.7479 196.433C12.061 192.656 12.4044 190.252 15.1518 187.504C19.9597 183.04 24.0808 178.232 28.5452 173.424C33.0097 168.616 33.353 168.616 38.8477 172.394C54.645 183.04 71.816 191.282 91.0474 195.059C95.5119 196.09 97.229 198.15 96.8856 202.615ZM117.147 47.7328C110.966 46.7025 110.622 46.3591 110.622 40.1775C110.622 28.8447 110.622 17.8553 110.622 6.52248C110.622 4.80539 111.309 3.0883 111.653 0.340942C143.934 2.40145 173.468 10.9869 199.911 30.5618C192.699 39.8341 186.518 48.0762 179.993 55.9748C178.963 57.6919 176.902 58.7222 174.842 59.409C172.781 60.0958 170.377 59.7524 168.66 60.7827C162.135 65.2471 156.297 62.1563 150.115 59.0656C139.813 53.5709 128.824 49.7933 117.147 47.7328ZM3.81903 201.584C4.84929 202.615 6.56635 203.645 6.56635 204.675C6.56635 205.705 5.19267 207.079 4.16241 208.796C2.44532 207.079 1.41505 206.049 0.72821 205.019C1.75847 203.988 2.78877 202.958 3.81903 201.584Z" fill="white"/>
</svg>
