<svg width="134" height="191" viewBox="0 0 134 191" fill="none" xmlns="http://www.w3.org/2000/svg">
<path d="M60.2044 0.0373535H64.8311C75.0271 0.0373535 87.1937 2.26505 101.331 6.72043C108.185 11.6899 111.613 16.8307 111.613 22.1429V24.1992C109.214 42.7062 103.045 51.9597 93.1057 51.9597H91.5634C90.7066 51.9597 90.1925 51.2743 90.0212 49.9034H88.993C88.993 50.9316 88.6503 51.4456 87.9648 51.4456C87.9648 50.7602 87.6221 50.4175 86.9367 50.4175L83.8522 50.9315L84.3663 48.3611L82.3099 50.9315C78.54 50.3318 76.655 49.1323 76.655 47.333L75.1128 48.3611L68.4297 46.8189C64.1457 47.1616 61.5752 47.333 60.7184 47.333C60.7184 46.9902 60.5471 46.8189 60.2044 46.8189C60.2044 47.6757 58.6621 48.3611 55.5776 48.8752C54.1211 49.9891 52.4075 52.5595 50.4368 56.5865C50.7795 57.2719 50.9509 57.786 50.9509 58.1287C50.4368 58.1287 49.9227 58.6428 49.4086 59.671C50.0941 60.0137 50.6082 60.185 50.9509 60.185V61.2132C49.9228 61.2132 49.0659 61.8987 48.3805 63.2695C49.0659 63.3552 49.4086 63.6979 49.4086 64.2977C49.4086 64.6404 49.2373 64.8118 48.8946 64.8118C48.8946 65.4972 50.0941 66.354 52.4932 67.3822L54.0354 66.354C54.7208 66.4397 55.0635 66.7824 55.0635 67.3822V67.8963L54.0354 69.4385C56.1774 70.124 57.5483 70.4667 58.1481 70.4667C58.1481 70.124 58.3194 69.9526 58.6621 69.9526C58.6621 71.1521 60.033 72.0089 62.7748 72.523L63.2889 73.5512L64.3171 73.0371H64.8311C66.1163 73.6369 68.8581 74.3223 73.0565 75.0934C73.0565 75.4362 73.2278 75.6075 73.5706 75.6075H74.0846L75.6269 74.5794H76.655L78.7114 76.1216L80.7677 74.5794H84.3663L85.9085 75.6075L87.4508 74.5794C88.1362 74.665 88.4789 75.0078 88.4789 75.6075C89.5928 74.9221 90.6209 74.5794 91.5634 74.5794L92.0775 75.6075C93.1914 74.9221 94.2195 74.5794 95.162 74.5794C106.043 74.5794 114.611 79.3775 120.866 88.9737C122.922 88.9737 126.864 96.6849 132.69 112.107C132.69 114.764 133.033 117.163 133.718 119.305V139.868C133.033 145.694 130.976 152.72 127.549 160.945C122.58 170.799 115.383 178.338 105.958 183.565C102.102 185.279 99.8744 186.135 99.2747 186.135C99.2747 185.45 98.932 185.107 98.2465 185.107H97.7324C97.4754 185.107 96.6186 185.964 95.162 187.678L92.5916 187.163C92.5916 187.849 92.2489 188.192 91.5634 188.192H91.0494C91.0494 187.678 90.1926 186.992 88.4789 186.135V184.593H87.4508C86.1656 186.307 84.7947 187.163 83.3381 187.163H79.7396C79.7396 186.478 79.5682 186.135 79.2255 186.135L74.5987 188.192H73.0565V188.706H71.0001L67.9156 188.192C67.3159 188.534 66.4591 188.706 65.3452 188.706L64.8311 187.678C63.5459 188.363 62.175 188.706 60.7184 188.706C60.7184 188.363 60.5471 188.192 60.2044 188.192C60.2044 188.877 59.8617 189.22 59.1762 189.22C59.1762 188.449 58.3194 187.935 56.6058 187.678C56.6058 188.363 56.0917 188.706 55.0635 188.706L52.4932 187.163L51.465 187.678L51.9791 188.706V189.22C51.9791 189.905 51.6364 190.248 50.9509 190.248C50.2655 190.248 49.9227 189.905 49.9227 189.22C50.2654 188.534 50.4368 188.02 50.4368 187.678L49.4086 187.163C49.4086 189.563 49.0659 190.762 48.3805 190.762H47.8664L45.8101 189.22L44.2678 190.248H42.7256C26.6177 186.392 18.5637 182.965 18.5637 179.966C17.2785 179.966 16.0789 177.91 14.9651 173.797V165.058C17.4498 153.919 21.0484 146.38 25.7609 142.438L31.9298 139.354H40.6693C51.0366 142.438 58.7478 143.981 63.803 143.981H68.4297C74.1703 143.981 78.1116 142.438 80.2536 139.354V138.84L78.7114 136.783C80.425 135.412 81.2818 134.556 81.2818 134.213C80.5107 134.213 78.9684 133.528 76.655 132.157C76.0553 132.499 75.3698 132.671 74.5987 132.671C73.9133 132.671 73.5706 132.328 73.5706 131.643C74.256 131.3 74.7701 131.128 75.1128 131.128V129.586C75.1128 128.901 74.77 128.558 74.0846 128.558H71.5142V125.988H71.0001C70.486 125.988 69.972 126.502 69.4579 127.53C69.1152 127.53 67.9156 126.673 65.8593 124.959H63.803L62.2607 125.988H61.2325L60.2044 125.474L60.7184 122.903V122.389C60.7184 121.875 60.2044 121.361 59.1762 120.847L58.6621 121.875C59.3476 121.961 59.6903 122.303 59.6903 122.903L58.6621 123.417L57.634 122.903L56.6058 123.417C56.0061 123.075 55.3206 122.903 54.5495 122.903C54.5495 123.589 54.2067 123.931 53.5213 123.931H51.9791C51.9791 123.246 51.465 122.903 50.4368 122.903C50.4368 122.218 50.9509 121.875 51.9791 121.875V120.847C49.58 120.847 48.3805 120.161 48.3805 118.79L45.8101 120.333H45.296C45.296 118.276 43.7537 117.248 40.6693 117.248C40.6693 118.191 39.127 118.876 36.0425 119.305L34.5002 117.248C34.5859 116.563 34.9287 116.22 35.5284 116.22C34.586 113.136 33.3864 111.593 31.9298 111.593L30.9017 112.107C28.2456 110.737 26.7033 110.051 26.2749 110.051C25.5895 110.394 25.0754 110.565 24.7327 110.565C23.7045 108.852 23.1904 107.652 23.1904 106.967C23.8759 106.624 24.3899 106.452 24.7327 106.452V105.424L22.1622 104.91C22.1622 105.596 21.8195 105.938 21.1341 105.938C18.735 103.882 17.5355 101.654 17.5355 99.2553C16.8501 99.2553 16.5073 99.084 16.5073 98.7413L15.4792 99.2553C12.7374 99.084 11.3665 97.7131 11.3665 95.1427C8.96746 95.1427 7.76794 94.2859 7.76794 92.5723C6.05434 91.7154 5.19751 90.1732 5.19751 87.9455C5.54023 87.9455 5.71161 87.7741 5.71161 87.4314C2.62711 81.9479 1.08484 77.6639 1.08484 74.5794V63.7836L0.0567017 62.2414C0.742145 61.3846 1.08484 60.8705 1.08484 60.6991V50.9315C1.08484 36.1945 6.39705 24.3706 17.0214 15.4598C20.7914 10.1476 28.674 6.03499 40.6693 3.12185C47.181 1.06552 53.6927 0.0373535 60.2044 0.0373535ZM69.972 44.7626V45.2766H71.0001V44.7626H69.972ZM56.6058 67.8963H57.1199C57.8053 67.982 58.1481 68.3247 58.1481 68.9244L57.1199 69.4385H56.6058V67.8963ZM55.5776 72.0089V73.0371C56.2631 72.6944 56.7772 72.523 57.1199 72.523V71.4949C56.4344 71.8376 55.9204 72.0089 55.5776 72.0089ZM26.2749 105.424V105.938H27.8172V104.396H27.3031C26.6177 104.482 26.2749 104.825 26.2749 105.424ZM40.1552 104.91C39.8124 105.596 39.6411 106.11 39.6411 106.452L40.1552 107.481C39.8124 108.166 39.6411 108.68 39.6411 109.023L40.6693 109.537L42.2115 107.481C41.3547 105.767 40.6692 104.91 40.1552 104.91ZM35.0143 107.481V109.023H36.0425V107.481H35.0143ZM50.4368 108.509L51.465 109.023V107.481C50.7795 107.566 50.4368 107.909 50.4368 108.509ZM58.6621 111.079V111.593H59.6903V110.051C59.0049 110.137 58.6621 110.479 58.6621 111.079ZM37.0707 110.565V111.593H38.0988V110.565H37.0707ZM43.2397 110.565V111.079H44.2678V110.565H43.2397ZM40.1552 111.593V112.107H41.1833V111.593H40.1552ZM53.5213 113.65V114.678H55.0635V113.65H53.5213ZM37.0707 114.678L36.5566 117.248H37.0707L39.6411 116.734V114.678H37.0707ZM69.4579 115.192V116.22H70.486C70.486 115.535 70.1433 115.192 69.4579 115.192ZM61.2325 115.706C61.3182 116.391 61.661 116.734 62.2607 116.734V115.706H61.2325ZM65.8593 116.734C66.1164 118.79 66.6304 119.819 67.4016 119.819C67.4016 119.476 67.5729 119.305 67.9156 119.305C67.4872 117.591 66.9731 116.734 66.3734 116.734H65.8593ZM71.0001 119.305V119.819C71.3428 120.504 71.5142 121.018 71.5142 121.361H72.5424V120.847C72.1996 120.161 72.0283 119.647 72.0283 119.305H71.0001ZM54.0354 119.819L53.5213 120.847C53.5213 121.361 54.0354 121.875 55.0635 122.389L56.0917 120.847V120.333C55.3206 120.333 54.6352 120.161 54.0354 119.819ZM72.5424 122.389V122.903C74.256 124.017 75.1128 125.388 75.1128 127.016H75.6269L76.655 126.502L76.1409 125.474V123.931C74.77 123.589 73.5705 123.074 72.5424 122.389ZM67.9156 122.903V123.417H68.9438V122.903H67.9156ZM77.6832 125.988L76.1409 128.558V129.586C77.5975 128.558 78.9684 128.044 80.2536 128.044C80.2536 128.387 80.425 128.558 80.7677 128.558C80.7677 128.215 80.9391 128.044 81.2818 128.044C80.7677 126.673 80.2536 125.988 79.7396 125.988C79.0541 126.33 78.54 126.502 78.1973 126.502C78.1973 126.159 78.0259 125.988 77.6832 125.988ZM81.7958 133.699V134.213H82.824V133.699H81.7958ZM73.5706 133.699C74.256 134.042 74.7701 134.213 75.1128 134.213V135.241H74.0846C73.3992 135.241 73.0565 134.898 73.0565 134.213C73.3992 134.213 73.5706 134.042 73.5706 133.699ZM69.4579 184.079V184.593H70.486V184.079H69.4579ZM55.5776 186.135V186.649C55.9204 186.649 56.4344 186.821 57.1199 187.163V186.649C56.7772 185.964 56.6058 185.45 56.6058 185.107C55.9204 185.193 55.5776 185.536 55.5776 186.135ZM64.8311 185.621V186.649H65.3452V185.621H64.8311ZM91.0494 185.621V186.649H92.5916C92.5916 185.964 92.2489 185.621 91.5634 185.621H91.0494ZM79.2255 187.163H79.7396V188.706H78.1973V188.192C78.2829 187.506 78.6257 187.163 79.2255 187.163Z" fill="white"/>
</svg>
