<svg width="112" height="214" viewBox="0 0 112 214" fill="none" xmlns="http://www.w3.org/2000/svg">
<path d="M109.846 123.904C109.846 124.255 109.933 124.693 110.109 125.22C110.284 125.746 110.372 126.273 110.372 126.799C110.547 127.325 110.635 128.29 110.635 129.694C110.635 130.045 110.635 130.572 110.635 131.274C110.635 131.8 110.547 132.326 110.372 132.853C110.021 134.257 109.67 135.66 109.319 137.064C109.144 138.468 108.793 139.959 108.266 141.539C107.564 143.469 107.038 145.311 106.687 147.066C106.336 148.821 105.985 150.663 105.634 152.594C105.283 154.173 104.932 155.928 104.581 157.858C104.23 159.788 103.704 161.981 103.002 164.438V164.701C103.002 164.877 102.914 165.052 102.739 165.228C102.739 165.228 102.739 165.315 102.739 165.491C102.388 166.544 102.125 167.421 101.949 168.123C101.774 168.649 101.511 169.176 101.16 169.702C100.984 170.229 100.809 170.931 100.633 171.808C100.282 172.51 99.9313 173.212 99.5804 173.914C99.4049 174.44 99.1417 175.054 98.7907 175.756C97.7379 178.915 96.1586 181.985 94.0529 184.968C93.0001 186.548 91.8595 187.952 90.6312 189.18C89.5784 190.408 88.6133 191.461 87.7359 192.338V190.496C87.5605 190.145 87.4727 189.706 87.4727 189.18C87.4727 188.478 87.2972 187.864 86.9463 187.337C86.7708 187.688 86.5953 187.952 86.4198 188.127C86.2444 188.127 86.0689 188.215 85.8935 188.39C85.0161 189.268 83.6123 190.671 81.6821 192.602C79.9274 194.356 77.5585 196.462 74.5754 198.919C72.2943 200.849 70.8905 201.989 70.364 202.34C69.8376 202.691 69.3989 203.042 69.048 203.393C68.8725 203.569 68.1706 204.007 66.9423 204.709C66.5913 205.06 66.1527 205.323 65.6263 205.499C65.2753 205.674 64.8366 206.025 64.3102 206.552C63.7838 206.903 62.9942 207.166 61.9413 207.341C61.5904 207.692 61.1516 207.868 60.6252 207.868C60.2743 208.043 59.9234 208.306 59.5724 208.657C57.6422 209.535 55.8875 210.237 54.3082 210.763C52.9044 211.29 51.6761 211.728 50.6233 212.079C48.3421 212.781 46.4996 213.132 45.0959 213.132C44.394 213.307 43.8675 213.307 43.5166 213.132C43.3411 213.132 43.1656 213.132 42.9901 213.132H42.4637H42.727C42.727 213.132 42.9024 213.044 43.2533 212.869C43.6043 212.693 43.9552 212.518 44.3062 212.342C44.6571 212.342 45.0081 212.167 45.359 211.816C46.4119 211.29 47.2892 210.675 47.9911 209.973C48.3421 209.623 48.7808 209.184 49.3072 208.657C49.8336 208.306 50.2723 207.956 50.6233 207.605C48.8685 208.131 47.0261 208.57 45.0959 208.921C43.3411 209.272 41.4986 209.623 39.5684 209.973C37.4627 210.149 35.5325 210.237 33.7778 210.237C32.0231 210.237 30.5315 210.237 29.3032 210.237C27.8994 210.237 26.9343 210.149 26.4079 209.973C25.8815 209.973 25.355 209.886 24.8286 209.71C24.4777 209.535 24.039 209.359 23.5126 209.184C22.1088 208.833 21.1437 208.57 20.6172 208.394C19.9154 208.219 19.3889 208.043 19.038 207.868C18.687 207.692 18.3361 207.517 17.9852 207.341C17.1078 206.99 16.4059 206.639 15.8795 206.289C15.3531 205.938 14.9144 205.587 14.5634 205.236C14.2125 205.06 13.9493 204.972 13.7738 204.972C13.7738 204.797 13.9493 204.797 14.3002 204.972H16.4059C16.9323 205.148 17.371 205.236 17.722 205.236C18.2484 205.06 18.7748 204.972 19.3012 204.972C16.1427 203.744 12.8087 201.726 9.29922 198.919C8.94828 198.568 8.59732 198.217 8.24637 197.866C7.89542 197.515 7.36901 197.164 6.66711 196.813C5.96522 195.76 5.43881 194.883 5.08786 194.181C4.03502 192.251 3.33312 190.32 2.98218 188.39C2.98218 188.566 3.06989 188.741 3.24536 188.917L4.29822 189.969C4.64917 190.32 5.17558 190.847 5.87747 191.549C6.57937 192.251 7.45674 192.865 8.50958 193.391C9.21148 193.742 9.91337 194.181 10.6153 194.707C11.1417 195.234 11.8436 195.672 12.7209 196.023C12.37 195.672 12.1068 195.409 11.9313 195.234C11.7558 195.058 11.8436 195.058 12.1945 195.234C12.7209 195.409 13.7738 195.321 15.3531 194.97V194.707C13.0719 193.654 10.5275 192.075 7.71994 189.969C4.73689 187.688 2.36802 184.793 0.613281 181.284L0.876465 181.547C1.05194 181.722 1.49064 181.985 2.19254 182.336C2.71896 182.687 3.33311 183.038 4.035 183.389C4.56142 183.74 5.17558 184.091 5.87747 184.442C7.63221 185.319 9.29922 186.021 10.8785 186.548C11.2294 186.548 11.6681 186.635 12.1945 186.811C12.5455 186.986 12.8964 187.074 13.2474 187.074H15.0898C14.2125 186.372 13.2474 185.67 12.1945 184.968C11.1417 184.267 10.2643 183.652 9.56241 183.126C8.33409 181.898 8.59731 181.634 10.3521 182.336C12.8087 183.214 14.9144 183.652 16.6691 183.652H19.038C19.3889 183.652 19.6522 183.74 19.8276 183.916C20.1786 183.916 20.5295 183.916 20.8805 183.916C21.2314 183.916 21.4946 184.003 21.6701 184.179C22.0211 184.179 22.372 184.179 22.7229 184.179C23.0739 184.354 23.4248 184.442 23.7758 184.442C24.1267 184.442 24.4777 184.53 24.8286 184.705H26.6711C27.5485 184.705 28.3381 184.618 29.04 184.442C29.3909 184.442 29.7419 184.442 30.0928 184.442C30.4438 184.267 30.7947 184.179 31.1457 184.179L27.9872 181.02C29.2155 181.547 30.5315 181.81 31.9353 181.81H34.041C34.3919 181.634 35.0061 181.547 35.8835 181.547C36.4099 181.371 36.9363 181.284 37.4627 181.284C37.9892 181.108 38.4278 180.933 38.7788 180.757C38.9543 180.757 39.042 180.757 39.042 180.757C39.2174 180.582 39.3929 180.494 39.5684 180.494C39.7439 180.494 39.8316 180.406 39.8316 180.231C40.1826 179.88 40.4458 179.617 40.6212 179.441C40.9722 179.266 41.3232 179.002 41.6741 178.651C42.0251 178.476 42.5514 178.037 43.2533 177.335C43.4288 176.809 43.7798 176.458 44.3062 176.283L45.0959 175.493C45.2713 175.142 45.4468 174.879 45.6222 174.703C45.9732 174.528 46.2364 174.352 46.4119 174.177L47.4647 173.124C47.8156 173.124 48.0789 173.212 48.2544 173.387C48.6053 173.387 48.8685 173.475 49.044 173.65C49.3949 173.65 49.9214 173.65 50.6233 173.65C50.2723 173.475 49.9214 173.299 49.5704 173.124C49.2195 172.773 48.9563 172.51 48.7808 172.334C48.4298 172.159 48.2544 171.983 48.2544 171.808H50.6233C50.7987 171.457 51.0619 171.282 51.4129 171.282C51.7638 171.282 51.9393 171.282 51.9393 171.282C52.1148 171.106 52.2903 171.018 52.4657 171.018C52.8167 170.843 53.5185 170.58 54.5714 170.229L56.1507 169.439C56.8526 169.088 57.379 168.737 57.7299 168.386C57.9054 168.211 58.0808 168.123 58.2563 168.123C58.6073 167.948 58.8705 167.772 59.046 167.597L59.5724 167.07L59.8356 166.807C60.0111 166.631 60.0988 166.456 60.0988 166.281C60.4498 165.93 60.8007 165.403 61.1516 164.701C61.5026 164.35 61.6781 164.087 61.6781 163.912C61.8535 163.736 62.029 163.561 62.2045 163.385C61.1517 163.385 60.5375 163.21 60.362 162.859C60.1866 162.683 60.0988 162.332 60.0988 161.806C60.2743 161.63 60.362 161.455 60.362 161.28C60.362 160.929 60.5375 160.578 60.8885 160.227C61.5904 158.998 62.029 158.384 62.2045 158.384C62.38 158.033 62.7309 157.595 63.2574 157.068C63.6083 157.068 63.7838 156.98 63.7838 156.805H62.2045H61.4149H60.6252C60.4497 156.805 60.2743 156.805 60.0988 156.805C59.9234 156.629 59.6601 156.542 59.3092 156.542C58.4318 156.191 57.4667 155.84 56.4138 155.489C56.0629 155.138 55.712 154.962 55.3611 154.962C55.0101 154.787 54.7469 154.699 54.5714 154.699C54.3959 154.524 54.1327 154.348 53.7818 154.173L51.9393 152.33C51.9393 152.506 52.027 152.594 52.2025 152.594C52.378 152.594 52.5534 152.681 52.7289 152.857C52.9044 152.857 53.1676 152.857 53.5186 152.857C53.8695 152.857 54.1327 152.945 54.3082 153.12C54.6591 153.12 55.0101 153.12 55.3611 153.12H56.6771H57.7299C59.8356 153.12 61.6781 152.769 63.2574 152.067C64.1347 151.892 64.9244 151.541 65.6263 151.014C66.3281 150.312 66.7668 149.786 66.9423 149.435C66.5913 149.435 66.0649 149.611 65.363 149.962H64.3102C64.1347 150.137 63.7838 150.225 63.2574 150.225H61.4149H60.0988H59.046C58.8705 150.225 58.7827 150.137 58.7827 149.962C58.7827 149.786 59.2215 149.435 60.0988 148.909C60.4498 148.909 60.713 148.821 60.8885 148.645C61.2394 148.47 61.5904 148.294 61.9413 148.119C62.2923 147.944 62.5555 147.856 62.7309 147.856C63.0819 147.68 63.4328 147.505 63.7838 147.329C64.1347 146.978 64.3102 146.803 64.3102 146.803C64.4857 146.803 64.6611 146.715 64.8366 146.54C65.363 146.364 65.714 146.013 65.8894 145.487C66.5913 144.785 67.2933 144.171 67.9951 143.644C68.3461 143.118 69.1357 142.241 70.364 141.012C71.4169 139.96 72.2942 138.731 72.9961 137.327C73.698 135.924 74.1367 134.169 74.3122 132.063C73.7857 132.414 73.2594 132.765 72.7329 133.116C72.382 133.292 72.031 133.467 71.6801 133.642C71.3291 133.818 70.8905 133.906 70.364 133.906H70.1008C70.2763 133.73 70.364 133.642 70.364 133.642C70.5395 133.642 70.715 133.555 70.8905 133.379C70.8905 133.028 71.1537 132.677 71.6801 132.326C71.6801 131.975 71.8556 131.624 72.2065 131.274C72.2065 131.098 72.2065 131.01 72.2065 131.01C72.382 130.835 72.4697 130.659 72.4697 130.484C72.8206 129.607 72.9961 128.466 72.9961 127.062C72.9961 126.711 72.9084 126.36 72.7329 126.009C72.7329 125.658 72.7329 125.307 72.7329 124.957L72.4697 124.693L72.2065 124.43C71.8556 124.255 71.4169 124.167 70.8905 124.167C70.5395 123.991 70.1886 123.816 69.8376 123.64C68.9603 123.465 68.1706 123.377 67.4687 123.377C66.7668 123.202 66.2404 123.114 65.8894 123.114H65.0998C65.0998 123.114 64.9243 123.026 64.5734 122.851H64.047C63.5205 122.675 63.1696 122.412 62.9941 122.061C62.8186 121.535 62.2923 120.833 61.4149 119.956C61.5904 120.657 61.6781 121.447 61.6781 122.324V123.114C60.6252 122.061 59.046 121.008 56.9403 119.956C56.4139 119.956 55.9752 119.78 55.6242 119.429C54.9223 119.429 54.2205 119.254 53.5186 118.903L50.36 118.113C48.9562 117.587 47.7279 117.236 46.6751 117.06C45.6222 116.709 44.6571 116.358 43.7798 116.007C43.4288 115.832 43.0779 115.744 42.727 115.744C42.5515 115.744 42.2882 115.656 41.9373 115.481H41.1477V115.218H40.0948C39.042 114.867 38.3401 114.691 37.9892 114.691C37.2873 114.516 36.5853 114.253 35.8835 113.902C35.5325 113.726 35.1815 113.638 34.8306 113.638C34.6551 113.638 34.3919 113.551 34.041 113.375L32.4617 112.586C32.8126 112.937 33.0759 113.2 33.2514 113.375C33.4268 113.551 33.6023 113.726 33.7778 113.902C33.9533 114.428 33.9533 114.779 33.7778 114.955C33.6023 115.13 32.9882 115.13 31.9353 114.955C31.5844 114.779 31.3211 114.691 31.1457 114.691C30.9702 114.691 30.707 114.604 30.356 114.428C30.0051 114.253 29.6541 114.077 29.3032 113.902C28.9522 113.726 28.4258 113.463 27.7239 113.112C27.1975 112.761 26.6711 112.41 26.1447 112.059C25.6183 111.708 25.1796 111.357 24.8286 111.006C24.3022 110.831 23.7758 110.392 23.2494 109.69L22.4597 108.901C21.9333 108.55 21.5824 108.287 21.4069 108.111C21.2314 107.936 20.9682 107.672 20.6172 107.321C20.4418 106.97 20.1786 106.707 19.8276 106.532C19.6522 106.356 19.4767 106.093 19.3012 105.742C19.3012 105.567 19.1257 105.303 18.7748 104.953C18.7748 104.777 18.687 104.689 18.5116 104.689C18.5116 104.514 18.5116 104.338 18.5116 104.163C18.3361 103.812 18.0729 103.11 17.722 102.057C17.371 101.355 17.1955 100.917 17.1955 100.741C17.0201 100.566 16.9323 100.39 16.9323 100.215C16.9323 100.039 16.8446 99.776 16.6691 99.4251C16.4936 99.0742 16.4059 98.8109 16.4059 98.6355C16.4059 98.46 16.3181 98.1968 16.1427 97.8458C16.1427 97.4949 16.055 97.2317 15.8795 97.0562V96.0034C15.3531 94.4241 15.0898 92.9326 15.0898 91.5288C15.2653 89.9495 15.5285 88.458 15.8795 87.0542C16.2304 85.2995 16.5814 84.0712 16.9323 83.3693C16.7568 83.0183 16.5814 82.7551 16.4059 82.5796C16.2304 82.2287 16.055 81.8777 15.8795 81.5268C15.5285 80.6494 15.2653 79.8598 15.0898 79.1579C14.9144 78.2805 14.7389 77.4032 14.5634 76.5258C14.2125 73.5427 14.4757 70.9106 15.3531 68.6295C14.8266 69.1559 14.4757 69.7701 14.3002 70.472C14.1247 70.9984 13.9493 71.6125 13.7738 72.3144C13.7738 72.8409 13.6861 73.2795 13.5106 73.6305V74.9465C13.3351 75.122 13.2474 75.3852 13.2474 75.7362C12.8964 76.0871 12.6332 75.9116 12.4577 75.2097C12.1068 74.3324 11.8436 73.3673 11.6681 72.3144C11.4926 71.0861 11.5804 69.6823 11.9313 68.1031C12.2823 67.2257 12.8964 65.471 13.7738 62.8388C14.1248 61.9615 14.6512 61.1718 15.3531 60.47C16.055 59.7681 16.8446 58.9784 17.722 58.1011C19.1257 56.8727 20.0908 55.8199 20.6172 54.9425C21.3191 53.8897 22.021 52.8368 22.7229 51.784C23.0739 50.9066 23.5126 49.8538 24.039 48.6255C24.5654 47.3972 25.1796 46.0811 25.8815 44.6773C25.8815 44.5019 26.1447 43.8 26.6711 42.5717C27.373 41.3433 28.1626 39.7641 29.04 37.8339C30.7947 33.798 32.8127 30.464 35.0938 27.8319C35.2693 28.1828 35.4448 28.6215 35.6203 29.1479C35.9712 30.0253 36.4099 30.9027 36.9363 31.78C37.6382 31.6045 37.9892 31.3413 37.9892 30.9904C38.3401 30.2885 38.9543 29.4111 39.8316 28.3583C40.8845 27.13 42.1128 25.5507 43.5166 23.6205C44.3939 22.2167 44.9204 21.3393 45.0959 20.9884C45.2713 20.6374 45.5345 20.2865 45.8855 19.9356C46.0609 19.5846 46.3241 19.1459 46.6751 18.6195C47.2015 18.0931 48.4298 16.8648 50.36 14.9346C51.2374 14.0572 51.9393 13.2676 52.4657 12.5657C53.1676 11.8638 53.8695 11.1619 54.5714 10.46C55.4487 9.58261 56.3262 8.96846 57.2035 8.61751C57.7299 8.09109 58.0808 7.82788 58.2563 7.82788H59.046L58.7827 8.09108C58.6073 8.09108 58.5196 8.17882 58.5196 8.35429C58.5196 8.35429 58.4318 8.35429 58.2563 8.35429C58.2563 8.52977 58.0809 8.96846 57.7299 9.67034C57.0281 11.4251 56.7648 12.9166 56.9403 14.1449C57.6422 13.2676 58.5196 12.4779 59.5724 11.776C60.6253 11.0741 61.5904 10.2845 62.4677 9.40713C63.8715 8.70524 65.0998 8.09108 66.1527 7.56467C67.2055 7.03824 68.1706 6.42408 69.048 5.72219C69.9254 5.02029 71.1537 4.58161 72.7329 4.40614C73.4348 4.23067 74.049 4.14293 74.5754 4.14293C75.2773 3.96746 76.0669 3.87972 76.9443 3.87972H78.7868H80.366C80.7169 3.87972 80.8924 3.96746 80.8924 4.14293C81.0679 4.14293 80.9802 4.14293 80.6292 4.14293C80.1028 4.14293 79.5764 4.40614 79.05 4.93257C78.5235 5.45898 78.0849 5.9854 77.7339 6.51183H77.9971C80.4537 5.10803 82.4717 4.40614 84.051 4.40614C85.8057 4.40614 87.1217 4.66935 87.9991 5.19577C89.052 5.89767 89.8416 6.95051 90.368 8.35429C90.368 6.77503 90.8067 5.80992 91.6841 5.45898C92.7369 4.93256 93.8775 4.84482 95.1058 5.19577C96.3341 5.37125 97.3869 5.89767 98.2643 6.77503C99.1417 7.47693 99.4926 8.44203 99.3172 9.67034C99.1417 10.5477 99.054 11.2496 99.054 11.776C99.2295 12.3025 99.4049 12.8289 99.5804 13.3553C101.16 11.776 102.476 10.2845 103.529 8.88072C104.406 7.6524 105.196 6.42408 105.897 5.19577C106.599 3.79198 106.775 2.56367 106.424 1.51083C105.722 0.282509 105.81 0.457981 106.687 2.03724C107.564 3.44104 108.266 5.54672 108.793 8.35429C108.793 8.35429 108.88 8.44203 109.056 8.61751C109.407 8.96846 109.407 9.3194 109.056 9.67034C109.231 10.5477 109.319 11.4251 109.319 12.3025C109.319 13.1798 109.319 14.0572 109.319 14.9346C108.968 18.444 109.319 21.3393 110.372 23.6205C111.425 25.9017 111.425 27.7441 110.372 29.1479C109.495 30.5517 107.126 32.6574 103.265 35.465C101.511 36.5178 99.5804 37.7461 97.4747 39.1499C95.5445 40.3782 93.3511 41.9575 90.8944 43.8877C87.9114 46.3443 85.4548 48.45 83.5246 50.2048C81.7698 51.784 80.366 53.0123 79.3132 53.8897C78.2604 54.7671 77.4707 55.2935 76.9443 55.469C76.5934 55.6444 76.4179 55.8199 76.4179 55.9954C75.716 55.469 74.3999 56.4341 72.4697 58.8907C72.1188 59.4171 71.5924 59.9435 70.8905 60.47C70.3641 60.9964 69.9253 61.6105 69.5744 62.3124C69.2234 62.6634 68.9602 63.1021 68.7848 63.6285C68.7848 63.9794 68.6093 64.3304 68.2583 64.6813C67.9074 65.0323 67.6442 65.2955 67.4687 65.4709C67.2933 65.6464 67.0301 65.9096 66.6791 66.2606L65.363 67.5766C65.0121 67.7521 64.7489 67.9276 64.5734 68.1031C64.3979 68.2785 64.1347 68.454 63.7838 68.6295C62.9064 68.9804 62.1168 69.4191 61.4149 69.9455C60.8885 70.472 60.1865 70.9984 59.3092 71.5248C58.7828 72.0512 58.2564 72.4899 57.7299 72.8409C57.379 73.1918 57.028 73.6305 56.6771 74.1569C56.5016 74.1569 56.4138 74.2446 56.4138 74.4201H56.1507C56.1507 74.4201 56.063 74.5079 55.8875 74.6833C55.712 74.6833 55.5365 74.7711 55.3611 74.9465C55.3611 74.9465 55.2733 74.9465 55.0978 74.9465C54.9223 75.122 54.6591 75.2975 54.3082 75.4729C54.1327 75.6484 53.9572 75.8239 53.7818 75.9994C53.2553 76.5258 52.9044 77.2277 52.7289 78.1051C52.5534 78.6315 52.4657 79.3334 52.4657 80.2107C52.6412 80.7372 52.9044 81.1758 53.2553 81.5268C53.6063 82.2287 54.2204 82.7551 55.0978 83.1061C55.4488 83.2815 56.1507 83.3693 57.2035 83.3693H58.7827C58.9582 83.3693 59.046 83.3693 59.046 83.3693C59.046 83.1938 59.1337 83.1061 59.3092 83.1061H59.5724H59.8356C60.362 83.1061 60.8885 83.1061 61.4149 83.1061C61.9413 82.9306 62.5555 82.8428 63.2574 82.8428C64.6611 82.6674 65.9772 82.5796 67.2055 82.5796C68.4338 82.5796 69.6622 82.5796 70.8905 82.5796C72.2943 82.5796 73.6103 82.6674 74.8386 82.8428C76.0669 83.0183 77.2952 83.1938 78.5235 83.3693C78.699 83.5447 78.9623 83.6325 79.3132 83.6325C79.4887 83.6325 79.5764 83.7202 79.5764 83.8957C79.7519 83.8957 80.0151 83.8957 80.366 83.8957C80.5415 83.8957 80.6292 83.9834 80.6292 84.1589C80.8047 84.1589 80.9802 84.1589 81.1557 84.1589C81.3311 84.1589 81.4189 84.2466 81.4189 84.4221C81.5943 84.4221 81.7698 84.4221 81.9453 84.4221C82.2962 84.5976 82.5594 84.6853 82.7349 84.6853C82.9104 84.6853 83.1736 84.7731 83.5246 84.9485C83.8755 85.124 84.1387 85.2995 84.3142 85.4749C84.6651 85.4749 85.0161 85.5627 85.367 85.7382C87.1218 86.44 88.9642 87.5806 90.8944 89.1599C92.6492 90.2127 94.1407 91.4411 95.369 92.8448C96.5973 94.2486 97.7379 95.8279 98.7907 97.5826C99.6681 98.9864 100.545 100.653 101.423 102.584C102.3 104.338 103.002 106.444 103.529 108.901C103.529 109.252 103.529 109.603 103.529 109.954C103.704 110.129 103.792 110.392 103.792 110.743C103.967 111.094 104.055 111.621 104.055 112.322C104.055 112.498 104.055 112.673 104.055 112.849C104.23 112.849 104.318 112.937 104.318 113.112V113.902C104.318 114.253 104.318 114.516 104.318 114.691C104.494 114.867 104.581 115.042 104.581 115.218V117.06C104.581 117.06 104.669 117.148 104.845 117.323C106.248 120.833 106.95 124.255 106.95 127.589C107.126 127.238 107.213 126.273 107.213 124.693C107.213 123.114 107.126 121.886 106.95 121.008C106.95 119.78 106.95 118.903 106.95 118.376C106.95 117.674 107.213 117.762 107.74 118.639C108.266 119.517 108.705 120.657 109.056 122.061C109.231 122.412 109.319 122.763 109.319 123.114C109.495 123.29 109.67 123.553 109.846 123.904Z" fill="white"/>
</svg>
