<svg width="109" height="145" viewBox="0 0 109 145" fill="none" xmlns="http://www.w3.org/2000/svg">
<path d="M90.8971 8.84351L97.9399 47.7464H93.4124C90.0587 35.0024 84.7487 24.9972 77.4823 17.7308C70.3277 10.3527 62.0553 6.66361 52.6649 6.66361C47.0754 6.66361 42.3803 8.34046 38.5794 11.6942C34.8903 14.9361 33.0458 18.9605 33.0458 23.7675C33.0458 28.2391 34.499 31.9282 37.4056 34.8347C40.4239 37.6294 47.1313 41.8775 57.5278 47.5788C74.5199 56.8573 86.3696 64.1796 93.077 69.5455C103.697 77.7062 109.007 88.3262 109.007 101.406C109.007 108.001 107.721 113.926 105.15 119.18C102.579 124.434 98.7783 129.018 93.7477 132.93C88.7172 136.843 82.7365 139.805 75.8055 141.818C68.8745 143.942 61.3286 145.004 53.168 145.004C39.6414 145.004 23.4318 141.93 4.53931 135.781L0.514893 84.8048H4.53931C14.6004 119.572 30.251 136.955 51.4911 136.955C58.9811 136.955 65.1295 134.719 69.9365 130.247C74.8552 125.776 77.3146 119.907 77.3146 112.641C77.3146 105.262 74.464 99.3375 68.7627 94.8659C65.409 92.183 57.1365 87.2083 43.9453 79.942C30.7541 72.6756 21.6991 66.9743 16.7803 62.8381C8.84324 56.2425 4.87469 47.8582 4.87469 37.6853C4.87469 26.7299 9.12273 17.8426 17.6188 11.0234C26.2266 4.09244 37.2938 0.626953 50.8204 0.626953C61.5522 0.626953 74.9111 3.3658 90.8971 8.84351ZM64.5706 138.632C74.6317 137.29 82.5129 133.769 88.2142 128.068C93.9155 122.366 96.7661 115.1 96.7661 106.269C96.7661 97.5489 93.5242 89.8354 87.0403 83.128C81.4508 77.2031 70.6631 70.0485 54.6771 61.6643C41.4859 54.5097 32.5986 48.7525 28.0152 44.3927C23.5436 40.0329 21.3078 35.0024 21.3078 29.3011C21.3078 20.6933 26.1707 13.0356 35.8964 6.32824C27.7358 9.0112 21.4196 13.0356 16.948 18.4016C12.5882 23.7675 10.4083 29.9718 10.4083 37.0146C10.4083 45.2871 13.3148 52.0504 19.1279 57.3045C23.5995 61.4407 32.5986 67.3097 46.1252 74.9114C60.7697 82.8485 70.1042 88.6616 74.1286 92.3507C80.0535 97.7166 83.0159 104.424 83.0159 112.473C83.0159 125.105 76.8675 133.825 64.5706 138.632ZM9.40222 131.421L12.4205 132.427C16.7803 134.104 21.8109 135.613 27.5121 136.955L31.2012 137.793C25.9471 134.328 21.6432 130.862 18.2895 127.397C14.9358 123.82 11.4144 119.068 7.72534 113.144L9.40222 131.421Z" fill="white"/>
</svg>
